<?xml version="1.0" encoding="utf-8"?>
<!-- Generator: Adobe Illustrator 18.1.0, SVG Export Plug-In . SVG Version: 6.00 Build 0)  -->
<svg version="1.1" id="Layer_1" xmlns="http://www.w3.org/2000/svg" xmlns:xlink="http://www.w3.org/1999/xlink" x="0px" y="0px"
	 viewBox="0 0 463.1 64" enable-background="new 0 0 463.1 64" xml:space="preserve">
<g>
	<path fill="#582D83" d="M44.7,52.9c0.7-0.7,1-1.5,1-2.4V16.1c0-1.4-0.2-2.5-0.7-3.3c-0.5-0.8-1.2-1.4-2.3-1.9
		c-1.2-0.5-2-0.8-2.5-0.9c-0.5-0.1-1-0.2-1.4-0.2c-1.6,0-3,0.8-4,2.4L22.9,29.8L11,12.2C9.9,10.6,8.6,9.8,7,9.8
		c-0.4,0-0.9,0.1-1.4,0.2C5,10.1,4.2,10.4,3,10.9c-1,0.4-1.8,1.1-2.3,1.9C0.2,13.6,0,14.7,0,16.1v34.4c0,0.9,0.3,1.7,1,2.4
		c0.7,0.7,1.5,1,2.4,1h2.8c0.9,0,1.7-0.3,2.4-1c0.7-0.7,1-1.5,1-2.4V26.4L17,36.9c0.9,1.2,1.8,2.2,2.7,2.9c0.9,0.7,2,1,3.1,1
		c1.2,0,2.2-0.3,3.1-1c0.9-0.7,1.8-1.7,2.7-2.9l7.4-10.5v24.1c0,0.9,0.3,1.7,1,2.4c0.7,0.7,1.5,1,2.4,1h2.8
		C43.2,53.9,44,53.6,44.7,52.9 M75.5,24.4c0,1.6-0.5,3-1.4,4.1c-1,1.2-2.3,1.8-4.1,1.8h-9V18.5h9c1.8,0,3.2,0.6,4.1,1.8
		C75,21.4,75.5,22.8,75.5,24.4 M136.6,50.5V16.1c0-1.4-0.2-2.5-0.7-3.3c-0.5-0.8-1.2-1.4-2.3-1.9c-1.2-0.5-2-0.8-2.5-0.9
		c-0.5-0.1-1-0.2-1.4-0.2c-1.6,0-3,0.8-4.1,2.4l-11.8,17.7l-11.9-17.7c-1.1-1.6-2.4-2.4-4.1-2.4c-0.4,0-0.9,0.1-1.4,0.2
		c-0.5,0.1-1.4,0.5-2.5,0.9c-1,0.4-1.8,1.1-2.3,1.9c-0.5,0.8-0.7,1.9-0.7,3.3v32.1c0,0.7-0.2,1.1-0.5,1.1c-0.2,0-0.6-0.2-1-0.6
		l-11.6-12c2.2-1.1,3.9-2.7,5.3-4.8c1.4-2.1,2-4.6,2-7.5c0-2.1-0.4-4-1.2-5.8c-0.8-1.8-1.9-3.3-3.2-4.6c-1.4-1.3-3-2.3-4.8-3.1
		c-1.9-0.7-3.8-1.1-5.9-1.1h-9.1c-3.4,0-5.9,0.7-7.4,2.2c-1.5,1.5-2.2,3.7-2.2,6.6v31.9c0,0.9,0.3,1.7,1,2.4c0.7,0.7,1.5,1,2.4,1
		h2.8c0.9,0,1.7-0.3,2.4-1c0.7-0.7,1-1.5,1-2.4V38.8h6.4l10.2,10.9c0.7,0.8,1.4,1.5,2,2c0.6,0.5,1.3,1,2,1.3
		c0.7,0.3,1.4,0.6,2.2,0.7c0.8,0.1,1.8,0.2,2.9,0.2h10.6c0.9,0,1.7-0.3,2.4-1c0.7-0.7,1-1.5,1-2.4V26.4l7.4,10.5
		c0.9,1.2,1.8,2.2,2.7,2.9c0.9,0.7,2,1,3.1,1c1.2,0,2.2-0.3,3.1-1c0.9-0.7,1.8-1.7,2.7-2.9l7.4-10.5v24.1c0,0.9,0.3,1.7,1,2.4
		c0.7,0.7,1.5,1,2.4,1h2.8c0.9,0,1.7-0.3,2.4-1C136.3,52.2,136.6,51.4,136.6,50.5"/>
	<path fill="#B4B6B3" d="M175.3,0.2c1.7,0.6,2.6,2.5,2,4.2l-20,57.4c-0.6,1.7-2.5,2.6-4.2,2l0,0c-1.7-0.6-2.6-2.5-2-4.2l20-57.4
		C171.7,0.5,173.5-0.4,175.3,0.2L175.3,0.2z"/>
	<path fill="#B4B6B3" d="M192.3,0.2c1.7,0.6,2.6,2.5,2,4.2l-20,57.4c-0.6,1.7-2.5,2.6-4.2,2l0,0c-1.7-0.6-2.6-2.5-2-4.2l20-57.4
		C188.7,0.5,190.6-0.4,192.3,0.2L192.3,0.2z"/>
	<path fill="#B4B6B3" d="M217.2,8.4c0,0,10.2,25.5,10.4,26c0.2,0.5,1.8,5,1.8,5s2.1-6.4,1.6-5c-0.5,1.4,10.4-26,10.4-26l16.9,45.7
		h-7.1c0,0-7.4-19.7-8.4-22.5c-1-2.7-2.2-6.5-2.2-6.5s-1.6,5.1-2.1,6.5c-0.5,1.4-9.2,24.1-9.2,24.1s-8.8-22.7-9.3-24.1
		c-0.5-1.4-2.2-6.5-2.2-6.5s-1.7,5.3-2.1,6.5c-0.4,1.2-8.4,22.5-8.4,22.5H200L217.2,8.4z"/>
	<path fill="#B4B6B3" d="M276,49c-2.6,0-5-0.8-6.7-2.6c-1.6-1.7-2.6-4.4-2.6-6.9c0-2.5,1-5.2,2.5-6.9c1.7-1.8,4.1-2.6,6.8-2.6
		c3,0,5.6,1.4,7.3,3.6v-7.4c-2.2-1.2-4.8-1.8-7.5-1.8c-4.6,0-8.7,1.3-11.6,4.2c-2.7,2.7-4.3,7-4.3,11c0,4.1,1.7,8.3,4.4,11.1
		c2.9,2.9,7,4.1,11.5,4.1c2.7,0,5.3-0.7,7.5-1.8v-7.7C281.6,47.6,278.9,49,276,49z"/>
	<path fill="#B4B6B3" d="M320.7,46.3c-2.2,1.1-5.5,2-8.1,2c-4.1,0-7.7-1.3-10.6-3.6c-3.7-3-5.5-7.7-5.5-12.8c0-4.4,1.4-8.7,4.3-11.7
		c3.1-3.1,7.7-4.8,12.4-4.8c4.8,0,9.4,2,12.8,5.2v-7.7c-3.8-2.7-8.5-4.3-13.6-4.3c-6.7,0-12.9,2.7-17.2,7c-4.1,4.1-6.3,9.8-6.3,16
		c0,7.2,3.3,14.1,8.5,18.4c4.1,3.3,9.3,4.8,15,4.8c3.7,0,7.3-0.7,10.4-2.2c1.1-0.5,2.2-1.2,3.2-1.9v-8.1
		C324.5,44.1,322.7,45.3,320.7,46.3z"/>
	<path fill="#B4B6B3" d="M364.1,54.1h7.6L350.2,8.7l-21.3,45.5l7.6,0l5-11.6h17.7L364.1,54.1z M344.4,36.4c0,0,4.5-10,4.8-10.8
		c0.3-0.8,1.2-3.8,1.2-3.8s0.9,3,1.3,3.9c0.4,0.9,4.8,10.8,4.8,10.8L344.4,36.4z"/>
	<polygon fill="#B4B6B3" points="375.7,54.1 382.2,54.1 382.2,23.3 385.9,27.7 414.9,55.4 414.9,9.8 408.3,9.8 408.3,40.2 
		404.1,35.5 375.6,8.1 	"/>
	<polygon fill="#B4B6B3" points="423.9,54 430.4,54 430.4,23.2 434.1,27.5 463.1,55.3 463.1,9.6 456.5,9.6 456.5,40.1 452.3,35.4 
		423.8,7.9 	"/>
</g>
</svg>
