<?xml version="1.0" standalone="no"?>
<!DOCTYPE svg PUBLIC "-//W3C//DTD SVG 1.1//EN" "http://www.w3.org/Graphics/SVG/1.1/DTD/svg11.dtd" >
<svg xmlns="http://www.w3.org/2000/svg" width="100%" height="100%">
<metadata>
Created by FontForge 20090622 at Sun Apr 14 16:48:20 2013
 By fontface
Copyright &#194;&#169; 2008 - 2009 Linotype GmbH, www.linotype.com. All rights reserved. This font software may not be reproduced, modified, disclosed or transferred without the express written approval of Linotype GmbH.
</metadata>
<defs>
<font id="DINNextRoundedLTPro-Bold" horiz-adv-x="1138" >
  <font-face 
    font-family="DIN Next Rounded LT Pro Bold"
    font-weight="700"
    font-stretch="normal"
    units-per-em="2048"
    panose-1="2 15 8 3 2 2 3 5 2 3"
    ascent="1536"
    descent="-512"
    x-height="991"
    cap-height="1405"
    bbox="-291 -494 2206 1896"
    underline-thickness="102"
    underline-position="-102"
    unicode-range="U+0020-U+FB04"
  />
<missing-glyph horiz-adv-x="1036" 
d="M0 72v1249q0 34 19 53t53 19h895q32 0 50.5 -19t18.5 -53v-1249q0 -34 -18.5 -53t-50.5 -19h-895q-34 0 -53 19t-19 53zM141 145q0 -12 13 -12h729q12 0 12 12v1102q0 13 -12 13h-729q-13 0 -13 -13v-1102zM502 483q-41 0 -66.5 24t-25.5 64v15q0 68 49 125l82 92
q49 54 49 102q0 39 -23 63.5t-61 24.5q-33 0 -52 -12t-38 -45q-16 -29 -34.5 -43t-45.5 -14q-35 0 -58.5 21t-23.5 58q0 17 2 25q16 74 84.5 122t173.5 48q115 0 187.5 -69t72.5 -171q0 -92 -65 -165l-93 -101q-24 -27 -24 -63v-13q0 -40 -25 -64t-65 -24zM391 317
q0 44 32.5 75.5t76.5 31.5q43 0 74.5 -31.5t31.5 -75.5t-31.5 -76t-74.5 -32q-44 0 -76.5 32t-32.5 76z" />
    <glyph glyph-name="IJ" unicode="IJ" horiz-adv-x="1634" 
d="M133 147v1098q0 71 42.5 115.5t109.5 44.5q65 0 107 -44.5t42 -115.5v-1098q0 -71 -42 -115t-107 -44q-67 0 -109.5 44t-42.5 115zM684 94q-41 47 -41 105q0 54 38 90.5t95 36.5q50 0 115 -45q53 -37 125 -37q190 0 190 235v766q0 72 42 116t108 44q67 0 109 -43.5
t42 -116.5v-745q0 -255 -130 -389t-371 -134q-96 0 -187.5 33.5t-134.5 83.5z" />
    <glyph glyph-name="ij" unicode="ij" horiz-adv-x="1089" 
d="M272 1092q-68 0 -114.5 47t-46.5 114q0 68 47 115t114 47q68 0 115 -47.5t47 -114.5t-47 -114t-115 -47zM272 -12q-64 0 -103.5 40.5t-39.5 110.5v713q0 70 39.5 111t103.5 41q63 0 103.5 -41.5t40.5 -110.5v-713q0 -69 -40.5 -110t-103.5 -41zM817 1092q-68 0 -115 47
t-47 114t47.5 114.5t114.5 47.5t114.5 -47.5t47.5 -114.5t-47 -114t-115 -47zM612 -369q-61 0 -95 33.5t-34 87.5q0 104 111 125q46 9 63 33t17 80v862q0 70 39.5 111t103.5 41q63 0 103.5 -41.5t40.5 -110.5v-860q0 -187 -87.5 -274t-261.5 -87z" />
    <glyph glyph-name="napostrophe" unicode="&#x22;n" horiz-adv-x="1132" 
d="M868 -12q-63 0 -103 41t-40 110v451q0 83 -40.5 131.5t-115.5 48.5t-114 -48t-39 -132v-451q0 -69 -40.5 -110t-103.5 -41q-64 0 -103.5 40.5t-39.5 110.5v713q0 70 39.5 111t103.5 41q52 0 89 -28t49 -77h2q89 115 262 115q160 0 249 -101.5t89 -267.5v-506
q0 -69 -40 -110t-104 -41zM147 1108q-15 -46 -44.5 -71t-67.5 -25q-54 0 -87.5 30.5t-33.5 83.5q0 32 8 56l41 127q31 96 113 96q53 0 87 -31.5t34 -85.5q0 -26 -9 -53z" />
    <glyph glyph-name="f_f" unicode="ff" horiz-adv-x="1388" 
d="M309 -12q-64 0 -103.5 40.5t-39.5 110.5v627q0 12 -14 12h-9q-54 0 -84 29.5t-30 77.5t30 77t84 29h9q14 0 14 13v47q0 180 84 261t264 81h21q63 0 97 -32t34 -85q0 -54 -33 -86.5t-92 -32.5q-47 0 -67.5 -23.5t-20.5 -78.5v-51q0 -13 12 -13h78q54 0 84 -29t30 -77
t-30 -77.5t-84 -29.5h-78q-12 0 -12 -12v-627q0 -69 -40.5 -110t-103.5 -41zM1004 -12q-64 0 -104 41t-40 110v627q0 12 -14 12h-8q-54 0 -84.5 29.5t-30.5 77.5t30.5 77t84.5 29h8q14 0 14 13v47q0 180 84 261t264 81h21q63 0 97 -32t34 -85q0 -54 -33 -86.5t-92 -32.5
q-47 0 -67.5 -23.5t-20.5 -78.5v-51q0 -13 12 -13h78q54 0 84.5 -29t30.5 -77t-30.5 -77.5t-84.5 -29.5h-78q-12 0 -12 -12v-627q0 -69 -40 -110t-103 -41z" />
    <glyph glyph-name="fi" unicode="fi" horiz-adv-x="1239" 
d="M309 -12q-64 0 -103.5 40.5t-39.5 110.5v627q0 12 -14 12h-9q-54 0 -84 29.5t-30 77.5t30 77t84 29h9q14 0 14 13v47q0 180 84 261t264 81h21q63 0 97 -32t34 -85q0 -54 -33 -86.5t-92 -32.5q-47 0 -67.5 -23.5t-20.5 -78.5v-51q0 -13 12 -13h78q54 0 84 -29t30 -77
t-30 -77.5t-84 -29.5h-78q-12 0 -12 -12v-627q0 -69 -40.5 -110t-103.5 -41zM967 1092q-68 0 -115 47t-47 114t47.5 114.5t114.5 47.5t114 -47t47 -115q0 -67 -47 -114t-114 -47zM967 -12q-64 0 -104 41t-40 110v713q0 70 40 111t104 41q63 0 103 -41.5t40 -110.5v-713
q0 -69 -40 -110t-103 -41z" />
    <glyph glyph-name="fl" unicode="fl" horiz-adv-x="1316" 
d="M309 -12q-64 0 -103.5 40.5t-39.5 110.5v627q0 12 -14 12h-9q-54 0 -84 29.5t-30 77.5t30 77t84 29h9q14 0 14 13v47q0 180 84 261t264 81h21q63 0 97 -32t34 -85q0 -54 -33 -86.5t-92 -32.5q-47 0 -67.5 -23.5t-20.5 -78.5v-51q0 -13 12 -13h78q54 0 84 -29t30 -77
t-30 -77.5t-84 -29.5h-78q-12 0 -12 -12v-627q0 -69 -40.5 -110t-103.5 -41zM1137 -12h-13q-165 0 -235 78t-70 237v950q0 70 40 111t104 41q63 0 103 -41.5t40 -110.5v-925q0 -42 15.5 -63t49.5 -27q115 -20 115 -125q0 -56 -37.5 -90.5t-111.5 -34.5z" />
    <glyph glyph-name="f_f_i" unicode="ffi" horiz-adv-x="1933" 
d="M309 -12q-64 0 -103.5 40.5t-39.5 110.5v627q0 12 -14 12h-9q-54 0 -84 29.5t-30 77.5t30 77t84 29h9q14 0 14 13v47q0 180 84 261t264 81h21q63 0 97 -32t34 -85q0 -54 -33 -86.5t-92 -32.5q-47 0 -67.5 -23.5t-20.5 -78.5v-51q0 -13 12 -13h78q54 0 84 -29t30 -77
t-30 -77.5t-84 -29.5h-78q-12 0 -12 -12v-627q0 -69 -40.5 -110t-103.5 -41zM1004 -12q-64 0 -104 41t-40 110v627q0 12 -14 12h-8q-54 0 -84.5 29.5t-30.5 77.5t30.5 77t84.5 29h8q14 0 14 13v47q0 180 84 261t264 81h21q63 0 97 -32t34 -85q0 -54 -33 -86.5t-92 -32.5
q-47 0 -67.5 -23.5t-20.5 -78.5v-51q0 -13 12 -13h78q54 0 84.5 -29t30.5 -77t-30.5 -77.5t-84.5 -29.5h-78q-12 0 -12 -12v-627q0 -69 -40 -110t-103 -41zM1661 1092q-68 0 -115 47t-47 114t47.5 114.5t114.5 47.5t114.5 -47.5t47.5 -114.5t-47 -114t-115 -47zM1661 -12
q-64 0 -103.5 40.5t-39.5 110.5v713q0 70 39.5 111t103.5 41q63 0 103 -41.5t40 -110.5v-713q0 -69 -40 -110t-103 -41z" />
    <glyph glyph-name="f_f_l" unicode="ffl" horiz-adv-x="2011" 
d="M309 -12q-64 0 -103.5 40.5t-39.5 110.5v627q0 12 -14 12h-9q-54 0 -84 29.5t-30 77.5t30 77t84 29h9q14 0 14 13v47q0 180 84 261t264 81h21q63 0 97 -32t34 -85q0 -54 -33 -86.5t-92 -32.5q-47 0 -67.5 -23.5t-20.5 -78.5v-51q0 -13 12 -13h78q54 0 84 -29t30 -77
t-30 -77.5t-84 -29.5h-78q-12 0 -12 -12v-627q0 -69 -40.5 -110t-103.5 -41zM1004 -12q-64 0 -104 41t-40 110v627q0 12 -14 12h-8q-54 0 -84.5 29.5t-30.5 77.5t30.5 77t84.5 29h8q14 0 14 13v47q0 180 84 261t264 81h21q63 0 97 -32t34 -85q0 -54 -33 -86.5t-92 -32.5
q-47 0 -67.5 -23.5t-20.5 -78.5v-51q0 -13 12 -13h78q54 0 84.5 -29t30.5 -77t-30.5 -77.5t-84.5 -29.5h-78q-12 0 -12 -12v-627q0 -69 -40 -110t-103 -41zM1831 -12h-12q-165 0 -235.5 78.5t-70.5 236.5v950q0 70 40 111t104 41q63 0 103 -41.5t40 -110.5v-925
q0 -42 16 -63t50 -27q114 -19 114 -125q0 -56 -37.5 -90.5t-111.5 -34.5z" />
    <glyph glyph-name=".notdef" horiz-adv-x="1036" 
d="M0 72v1249q0 34 19 53t53 19h895q32 0 50.5 -19t18.5 -53v-1249q0 -34 -18.5 -53t-50.5 -19h-895q-34 0 -53 19t-19 53zM141 145q0 -12 13 -12h729q12 0 12 12v1102q0 13 -12 13h-729q-13 0 -13 -13v-1102zM502 483q-41 0 -66.5 24t-25.5 64v15q0 68 49 125l82 92
q49 54 49 102q0 39 -23 63.5t-61 24.5q-33 0 -52 -12t-38 -45q-16 -29 -34.5 -43t-45.5 -14q-35 0 -58.5 21t-23.5 58q0 17 2 25q16 74 84.5 122t173.5 48q115 0 187.5 -69t72.5 -171q0 -92 -65 -165l-93 -101q-24 -27 -24 -63v-13q0 -40 -25 -64t-65 -24zM391 317
q0 44 32.5 75.5t76.5 31.5q43 0 74.5 -31.5t31.5 -75.5t-31.5 -76t-74.5 -32q-44 0 -76.5 32t-32.5 76z" />
    <glyph glyph-name=".null" horiz-adv-x="1024" 
 />
    <glyph glyph-name="nonmarkingreturn" horiz-adv-x="682" 
 />
    <glyph glyph-name="space" unicode=" " horiz-adv-x="483" 
 />
    <glyph glyph-name="exclam" unicode="!" horiz-adv-x="638" 
d="M319 408q-64 0 -104.5 41t-40.5 112v692q0 69 40.5 110.5t104.5 41.5q63 0 103.5 -41.5t40.5 -110.5v-692q0 -70 -40.5 -111.5t-103.5 -41.5zM152 145q0 69 49 118.5t118 49.5t118.5 -49.5t49.5 -118.5t-49.5 -118.5t-118.5 -49.5t-118 49.5t-49 118.5z" />
    <glyph glyph-name="quotedbl" unicode="&#x22;" horiz-adv-x="765" 
d="M547 954q-47 0 -75 28.5t-28 80.5v233q0 52 28 80.5t75 28.5q45 0 72.5 -29t27.5 -80v-233q0 -51 -27.5 -80t-72.5 -29zM221 954q-47 0 -74.5 28.5t-27.5 80.5v233q0 52 27.5 80.5t74.5 28.5q45 0 73 -29t28 -80v-233q0 -51 -28 -80t-73 -29z" />
    <glyph glyph-name="numbersign" unicode="#" horiz-adv-x="1120" 
d="M147 119l39 280h-53q-53 0 -83 28t-30 75q0 46 30 73t83 27h80l29 209h-56q-53 0 -82.5 27.5t-29.5 74.5q0 46 29.5 73.5t82.5 27.5h82l41 289q6 47 36 74.5t75 27.5q53 0 84 -36.5t24 -94.5l-36 -260h215l41 289q6 47 36 74.5t74 27.5q53 0 84.5 -36.5t24.5 -94.5
l-37 -260h57q53 0 83 -27.5t30 -73.5t-30 -74t-83 -28h-84l-29 -209h60q53 0 83 -27t30 -73q0 -47 -30 -75t-83 -28h-88l-41 -309q-6 -47 -36 -74.5t-75 -27.5q-53 0 -84 36.5t-24 94.5l39 280h-217l-41 -309q-6 -47 -36 -74.5t-75 -27.5q-53 0 -84.5 36.5t-24.5 94.5z
M436 602h215l29 209h-215z" />
    <glyph glyph-name="dollar" unicode="$" 
d="M174 80q-63 38 -63 110q0 54 36 91.5t93 37.5q40 0 79 -22q94 -57 193 -70v351q-180 26 -282.5 132.5t-102.5 268.5q0 173 106.5 291.5t278.5 140.5v80q0 33 19 52.5t49 19.5t48.5 -19.5t18.5 -52.5v-78q138 -11 250 -74q70 -41 70 -110q0 -51 -35 -88t-86 -37
q-32 0 -64 14q-76 35 -135 45v-329q189 -27 288 -133t99 -273q0 -180 -103.5 -298t-283.5 -144v-84q0 -33 -18.5 -52.5t-48.5 -19.5t-49 19.5t-19 52.5v78q-182 8 -338 100zM512 860v295q-102 -39 -102 -151q0 -105 102 -144zM647 242q105 39 105 166q0 51 -24 85.5
t-81 55.5v-307z" />
    <glyph glyph-name="percent" unicode="%" horiz-adv-x="1673" 
d="M377 55q0 29 16 58l725 1255q34 57 90 57q38 0 63 -26t25 -64q0 -28 -16 -57l-725 -1255q-34 -58 -90 -58q-38 0 -63 26t-25 64zM406 676q-100 0 -168.5 44t-94.5 126q-20 64 -20 196q0 133 20 197q26 82 94.5 126t168.5 44t168 -44t94 -126q20 -64 20 -197
q0 -132 -20 -196q-26 -82 -94 -126t-168 -44zM406 836q56 0 71 51q10 30 10 155q0 126 -10 156q-15 51 -71 51q-57 0 -72 -51q-10 -30 -10 -156q0 -125 10 -155q15 -51 72 -51zM1006 152q-21 68 -21 196q0 130 21 197q26 82 94 126t168 44t168 -44t94 -126q20 -64 20 -197
q0 -132 -20 -196q-26 -82 -94 -126t-168 -44t-168 44t-94 126zM1196 193q16 -52 72 -52q55 0 71 52q11 33 11 155q0 123 -11 156q-15 51 -71 51q-57 0 -72 -51q-10 -30 -10 -156q0 -125 10 -155z" />
    <glyph glyph-name="ampersand" unicode="&#x26;" horiz-adv-x="1327" 
d="M115 354q0 113 59 210.5t201 209.5q-82 106 -117 173.5t-35 137.5q0 143 107 236.5t264 93.5q161 0 261.5 -95t100.5 -233q0 -93 -52.5 -172t-180.5 -178l176 -223l78 88q39 45 96 45q48 0 82.5 -34t34.5 -83q0 -47 -35 -88l-104 -123l34 -40q18 -23 32 -31.5t36 -11.5
q104 -16 104 -119q0 -52 -31.5 -84.5t-86.5 -32.5h-15q-86 0 -133 23.5t-100 91.5l-12 14q-88 -82 -172.5 -117t-188.5 -35q-190 0 -296.5 104t-106.5 273zM578 924q73 57 98.5 92.5t25.5 75.5q0 47 -30.5 78.5t-75.5 31.5q-49 0 -79 -30t-30 -80q0 -29 16 -59t75 -109z
M379 375q0 -71 41.5 -114.5t116.5 -43.5q47 0 87.5 20.5t104.5 84.5l-207 264q-80 -62 -111.5 -110.5t-31.5 -100.5z" />
    <glyph glyph-name="quotesingle" unicode="'" horiz-adv-x="440" 
d="M221 954q-47 0 -74.5 28.5t-27.5 80.5v233q0 52 27.5 80.5t74.5 28.5q45 0 73 -29t28 -80v-233q0 -51 -28 -80t-73 -29z" />
    <glyph glyph-name="parenleft" unicode="(" horiz-adv-x="636" 
d="M313 -100q-110 198 -159.5 380.5t-49.5 391.5t49.5 391.5t159.5 380.5q47 80 117 80q48 0 78.5 -32t30.5 -79q0 -27 -15 -65q-75 -186 -111 -342.5t-36 -333.5t36 -333.5t111 -342.5q15 -37 15 -66q0 -47 -30 -78.5t-79 -31.5q-70 0 -117 80z" />
    <glyph glyph-name="parenright" unicode=")" horiz-adv-x="636" 
d="M113 -4q75 186 111 342.5t36 333.5t-36 333.5t-111 342.5q-15 38 -15 65q0 47 30.5 79t78.5 32q70 0 117 -80q109 -197 158.5 -379.5t49.5 -392.5t-49.5 -392.5t-158.5 -379.5q-47 -80 -117 -80q-49 0 -79 31.5t-30 78.5q0 28 15 66z" />
    <glyph glyph-name="asterisk" unicode="*" horiz-adv-x="749" 
d="M375 754q-34 0 -56.5 24t-21.5 62l2 108l-92 -55q-22 -14 -51 -14q-31 0 -52.5 21.5t-21.5 53.5q0 50 47 74l94 51l-94 51q-47 24 -47 74q0 32 21.5 54t52.5 22q29 0 51 -14l92 -58l-2 111q-1 38 21.5 62t56.5 24t56.5 -24t21.5 -62l-4 -111l94 58q22 14 51 14
q31 0 52.5 -22t21.5 -54q0 -50 -47 -74l-97 -51l97 -51q47 -24 47 -74q0 -32 -21.5 -53.5t-52.5 -21.5q-29 0 -51 14l-94 55l4 -108q1 -38 -21.5 -62t-56.5 -24z" />
    <glyph glyph-name="plus" unicode="+" 
d="M223 444q-59 0 -94 33t-35 88t35 88t94 33h209q12 0 12 12v209q0 62 35 97.5t90 35.5t90 -35.5t35 -97.5v-209q0 -12 13 -12h208q59 0 94 -33t35 -88t-35 -88t-94 -33h-208q-13 0 -13 -12v-209q0 -62 -35 -97.5t-90 -35.5t-90 35.5t-35 97.5v209q0 12 -12 12h-209z" />
    <glyph glyph-name="comma" unicode="," horiz-adv-x="512" 
d="M63 -100l97 317q13 44 47 69t76 25q56 0 93.5 -35t37.5 -92q0 -26 -8 -47l-107 -317q-14 -44 -48 -72.5t-75 -28.5q-54 0 -87.5 34.5t-33.5 92.5q0 30 8 54z" />
    <glyph glyph-name="hyphen" unicode="-" horiz-adv-x="802" 
d="M207 418q-61 0 -97 34.5t-36 90.5t36 90.5t97 34.5h389q61 0 97 -34.5t36 -90.5t-36 -90.5t-97 -34.5h-389z" />
    <glyph glyph-name="period" unicode="." horiz-adv-x="532" 
d="M98 145q0 69 49.5 118.5t118.5 49.5t118.5 -49.5t49.5 -118.5t-49.5 -118.5t-118.5 -49.5t-118.5 49.5t-49.5 118.5z" />
    <glyph glyph-name="slash" unicode="/" horiz-adv-x="868" 
d="M115 90q0 30 8 51l379 1186q15 46 48 72t75 26q54 0 91.5 -33.5t37.5 -88.5q0 -28 -9 -52l-378 -1185q-15 -47 -48 -73t-75 -26q-54 0 -91.5 34t-37.5 89z" />
    <glyph glyph-name="zero" unicode="0" 
d="M147 262q-16 50 -22 136.5t-6 297.5t6 297.5t22 136.5q45 138 150.5 211.5t271.5 73.5t271.5 -73.5t150.5 -211.5q16 -51 22.5 -138t6.5 -296t-6.5 -296t-22.5 -138q-45 -138 -150.5 -211.5t-271.5 -73.5t-271.5 73.5t-150.5 211.5zM430 313q30 -92 139 -92q110 0 140 92
q10 31 14 101t4 282t-4 282t-14 101q-30 92 -140 92q-109 0 -139 -92q-10 -31 -14 -101t-4 -282t4 -282t14 -101z" />
    <glyph glyph-name="one" unicode="1" 
d="M506 139v924h-4l-129 -88q-40 -27 -86 -27q-50 0 -84.5 34.5t-34.5 86.5q0 73 72 121l219 151q92 64 174 64q73 0 116.5 -48t43.5 -126v-1092q0 -69 -40.5 -110t-103.5 -41q-64 0 -103.5 40.5t-39.5 110.5z" />
    <glyph glyph-name="two" unicode="2" 
d="M115 123q0 43 19 81.5t67 96.5l434 520q82 97 82 193q0 71 -41 115.5t-113 44.5q-111 0 -168 -117q-45 -92 -129 -92q-56 0 -92.5 35.5t-36.5 91.5q0 10 4 34q25 120 141 204.5t293 84.5q194 0 311.5 -112.5t117.5 -284.5q0 -94 -36 -174.5t-106 -163.5l-366 -432v-4h391
q62 0 96.5 -33.5t34.5 -89.5q0 -55 -34.5 -88t-96.5 -33h-639q-61 0 -97 34t-36 89z" />
    <glyph glyph-name="three" unicode="3" 
d="M160 190q-15 35 -15 70q0 55 35 91t94 36q81 0 132 -82q54 -86 157 -86q78 0 125 50.5t47 131.5q0 88 -53 141.5t-131 53.5h-14q-56 0 -90.5 33.5t-34.5 87.5t34.5 87.5t90.5 33.5h14q70 0 114 47t44 125q0 74 -43 119t-113 45q-102 0 -141 -84q-20 -39 -54 -60.5
t-73 -21.5q-55 0 -91 36t-36 91q0 31 16 71q40 92 143 150.5t248 58.5q200 0 315 -107t115 -278q0 -89 -40 -163.5t-115 -123.5v-4q74 -35 128 -122.5t54 -213.5q0 -189 -128.5 -307.5t-326.5 -118.5q-150 0 -256.5 55.5t-150.5 157.5z" />
    <glyph glyph-name="four" unicode="4" 
d="M217 203q-73 0 -115.5 39.5t-42.5 105.5q0 35 9.5 63.5t37.5 92.5l363 811q41 90 131 90q59 0 98 -38.5t39 -100.5q0 -36 -14 -68l-338 -743v-4h252q12 0 12 12v184q0 67 39 107.5t100 40.5q62 0 101 -40.5t39 -107.5v-184q0 -12 12 -12h8q60 0 96.5 -34.5t36.5 -88.5
q0 -56 -36.5 -90.5t-96.5 -34.5h-8q-12 0 -12 -13v-55q0 -67 -39 -107t-101 -40q-61 0 -100 40t-39 107v55q0 13 -12 13h-420z" />
    <glyph glyph-name="five" unicode="5" 
d="M162 188q-10 30 -10 54q0 54 36 89.5t93 35.5q69 0 125 -68q26 -32 67.5 -55t87.5 -23q116 0 152 98q18 56 18 134q0 84 -16 137q-34 96 -146 96q-81 0 -127 -59q-54 -68 -141 -68q-63 0 -101 39.5t-38 108.5v563q0 57 33.5 90t91.5 33h575q59 0 95 -34t36 -89
q0 -56 -35.5 -90.5t-95.5 -34.5h-436q-12 0 -12 -12v-273h6q68 68 209 68q135 0 227.5 -59t130.5 -173q29 -95 29 -243q0 -116 -31 -211q-40 -126 -155 -195.5t-267 -69.5q-154 0 -263 60.5t-138 150.5z" />
    <glyph glyph-name="six" unicode="6" 
d="M102 416q0 158 103 344l305 565q44 80 127 80q55 0 94 -35t39 -92q0 -42 -22 -82l-203 -367l4 -2q26 15 88 15q170 0 284.5 -115.5t114.5 -302.5q0 -206 -132 -326.5t-335 -120.5q-205 0 -336 119.5t-131 319.5zM385 414q0 -87 50.5 -141t133.5 -54t134 54t51 141
q0 85 -51 138.5t-134 53.5t-133.5 -53.5t-50.5 -138.5z" />
    <glyph glyph-name="seven" unicode="7" 
d="M324 125q0 31 12 61l381 951v6h-295q-12 0 -12 -13v-34q0 -65 -37.5 -104.5t-96.5 -39.5q-60 0 -97.5 39t-37.5 105v161q0 63 37 99.5t101 36.5h589q77 0 119.5 -41.5t42.5 -112.5q0 -63 -51 -190l-385 -969q-18 -43 -54.5 -67.5t-80.5 -24.5q-60 0 -97.5 38.5
t-37.5 98.5z" />
    <glyph glyph-name="eight" unicode="8" 
d="M98 401q0 110 47 193.5t119 132.5v4q-55 40 -95 114t-40 165q0 81 29.5 154t84 129t139 89t187.5 33t188 -33t139.5 -89t84 -129t29.5 -154q0 -91 -40 -165t-96 -114v-4q72 -49 119 -132.5t47 -193.5q0 -190 -133 -307t-338 -117t-338 117t-133 307zM569 848q70 0 115 47
t45 115q0 69 -44.5 116.5t-115.5 47.5q-70 0 -114.5 -47.5t-44.5 -116.5q0 -68 44.5 -115t114.5 -47zM381 414q0 -87 52 -141t136 -54t136.5 54t52.5 141q0 85 -52.5 138.5t-136.5 53.5t-136 -53.5t-52 -138.5z" />
    <glyph glyph-name="nine" unicode="9" 
d="M369 115q0 42 22 82l203 366l-4 2q-24 -14 -88 -14q-170 0 -285 115.5t-115 302.5q0 137 62 239.5t167 154.5t238 52q205 0 336 -119t131 -319q0 -160 -102 -344l-305 -565q-44 -80 -127 -80q-55 0 -94 35t-39 92zM569 786q83 0 134 54t51 139q0 87 -51 141t-134 54
t-133.5 -54t-50.5 -141q0 -85 50.5 -139t133.5 -54z" />
    <glyph glyph-name="colon" unicode=":" horiz-adv-x="552" 
d="M276 668q-69 0 -118 49.5t-49 118.5t49 118.5t118 49.5t118.5 -49.5t49.5 -118.5t-49.5 -118.5t-118.5 -49.5zM109 145q0 69 49 118.5t118 49.5t118.5 -49.5t49.5 -118.5t-49.5 -118.5t-118.5 -49.5t-118 49.5t-49 118.5z" />
    <glyph glyph-name="semicolon" unicode=";" horiz-adv-x="552" 
d="M276 668q-69 0 -118 49.5t-49 118.5t49 118.5t118 49.5t118.5 -49.5t49.5 -118.5t-49.5 -118.5t-118.5 -49.5zM63 -100l97 317q13 44 47 69t76 25q56 0 93.5 -35t37.5 -92q0 -26 -8 -47l-107 -317q-14 -44 -48 -72.5t-75 -28.5q-54 0 -87.5 34.5t-33.5 92.5q0 30 8 54z
" />
    <glyph glyph-name="less" unicode="&#x3c;" 
d="M227 412q-133 52 -133 153q0 102 133 154l637 250q30 10 58 10q52 0 87 -32t35 -85q0 -43 -24 -74.5t-68 -46.5l-477 -174v-4l477 -174q44 -15 68 -46.5t24 -74.5q0 -53 -35 -84.5t-87 -31.5q-28 0 -58 10z" />
    <glyph glyph-name="equal" unicode="=" 
d="M223 659q-59 0 -94 33t-35 88t35 88t94 33h692q59 0 94 -33t35 -88t-35 -88t-94 -33h-692zM223 229q-59 0 -94 33t-35 88t35 88t94 33h692q59 0 94 -33t35 -88t-35 -88t-94 -33h-692z" />
    <glyph glyph-name="greater" unicode="&#x3e;" 
d="M217 152q-53 0 -88 31.5t-35 84.5q0 43 24 74.5t68 46.5l478 174v4l-478 174q-44 15 -68 46.5t-24 74.5q0 53 35.5 85t87.5 32q27 0 57 -10l637 -250q133 -52 133 -154q0 -101 -133 -153l-637 -250q-30 -10 -57 -10z" />
    <glyph glyph-name="question" unicode="?" horiz-adv-x="968" 
d="M467 395q-60 0 -99.5 38.5t-39.5 101.5q0 54 19 102t71 106l110 125q82 91 82 166q0 60 -37 97.5t-98 37.5q-99 0 -143 -100q-43 -90 -131 -90q-59 0 -95 34t-36 91q0 25 10 55q36 114 142.5 185t258.5 71q181 0 296.5 -105.5t115.5 -265.5q0 -78 -26.5 -141.5
t-84.5 -126.5l-127 -141q-47 -52 -47 -100q0 -63 -41 -101.5t-100 -38.5zM299 145q0 69 49.5 118.5t118.5 49.5t118.5 -49.5t49.5 -118.5t-49.5 -118.5t-118.5 -49.5t-118.5 49.5t-49.5 118.5z" />
    <glyph glyph-name="at" unicode="@" horiz-adv-x="1863" 
d="M88 543q0 184 61.5 338.5t171.5 262.5t266 168t341 60q184 0 340.5 -60.5t266 -168.5t171 -261t61.5 -333q0 -213 -105 -326.5t-261 -113.5q-94 0 -162.5 35.5t-103.5 97.5h-2q-71 -133 -271 -133q-110 0 -187.5 51t-107.5 147q-28 89 -28 236q0 146 28 235
q31 96 102 146.5t173 50.5q76 0 134.5 -29.5t86.5 -73.5h4q5 36 35 63.5t80 27.5q52 0 83 -32t31 -85v-408q0 -65 30.5 -98t78.5 -33q61 0 98 58t37 182q0 282 -166 454.5t-446 172.5q-282 0 -447.5 -173t-165.5 -458q0 -281 165.5 -452t447.5 -171q195 0 370 72
q27 10 48 10q40 0 68 -26t28 -68q0 -29 -17.5 -54t-48.5 -40q-194 -95 -448 -95q-246 0 -437.5 104t-297 291.5t-105.5 428.5zM786 410q32 -99 134 -99q99 0 131 99q16 46 16 133q0 88 -16 131q-32 100 -131 100q-102 0 -134 -100q-14 -47 -14 -131q0 -82 14 -133z" />
    <glyph glyph-name="A" unicode="A" horiz-adv-x="1318" 
d="M68 129q0 30 10 57l377 1043q62 176 207 176q146 0 208 -176l371 -1043q10 -27 10 -57q0 -62 -43 -101.5t-102 -39.5q-50 0 -87 27.5t-54 78.5l-58 170h-497l-56 -170q-17 -51 -54 -78.5t-87 -27.5q-59 0 -102 39.5t-43 101.5zM496 520h327l-159 488h-7z" />
    <glyph glyph-name="B" unicode="B" horiz-adv-x="1249" 
d="M133 131v1129q0 61 35 97t96 36h432q220 0 332.5 -99.5t112.5 -271.5q0 -209 -162 -297v-4q76 -31 131 -114.5t55 -200.5q0 -202 -126.5 -304t-356.5 -102h-418q-61 0 -96 35.5t-35 95.5zM446 823h211q87 0 136 43t49 121t-48.5 120t-136.5 42h-211q-12 0 -12 -12v-301
q0 -13 12 -13zM434 256q0 -12 12 -12h228q92 0 141 46t49 130q0 79 -49.5 125.5t-140.5 46.5h-228q-12 0 -12 -12v-324z" />
    <glyph glyph-name="C" unicode="C" horiz-adv-x="1177" 
d="M135 319q-23 72 -31 147t-8 230t8 230t31 147q55 168 184 255t314 87q151 0 264 -61.5t168 -159.5q27 -49 27 -90q0 -59 -40 -97t-98 -38q-77 0 -133 78q-40 54 -82 78t-106 24q-158 0 -209 -154q-13 -41 -18 -99.5t-5 -199.5t5 -199.5t18 -99.5q50 -153 209 -153
q64 0 106 24t82 78q56 78 133 78q58 0 98 -38t40 -97q0 -41 -27 -90q-55 -99 -168 -160.5t-264 -61.5q-185 0 -314 87t-184 255z" />
    <glyph glyph-name="D" unicode="D" horiz-adv-x="1286" 
d="M133 131v1129q0 61 35 97t96 36h330q227 0 363.5 -77t191.5 -245q41 -121 41 -375q0 -253 -41 -374q-55 -168 -191.5 -245t-363.5 -77h-330q-61 0 -96 35.5t-35 95.5zM434 281q0 -13 12 -13h140q224 0 274 158q25 84 25 270q0 187 -25 271q-50 157 -274 157h-140
q-12 0 -12 -12v-831z" />
    <glyph glyph-name="E" unicode="E" horiz-adv-x="1157" 
d="M133 133v1127q0 61 35 97t96 36h676q62 0 100.5 -36.5t38.5 -94.5q0 -56 -38.5 -92.5t-100.5 -36.5h-494q-12 0 -12 -13v-276q0 -13 12 -13h396q62 0 99.5 -35.5t37.5 -93.5t-37.5 -93.5t-99.5 -35.5h-396q-12 0 -12 -12v-289q0 -12 12 -12h494q62 0 100.5 -36.5
t38.5 -92.5q0 -58 -38.5 -94.5t-100.5 -36.5h-676q-61 0 -96 36t-35 97z" />
    <glyph glyph-name="F" unicode="F" horiz-adv-x="1140" 
d="M133 147v1113q0 61 35 97t96 36h676q62 0 100.5 -36.5t38.5 -94.5q0 -56 -38.5 -92.5t-100.5 -36.5h-494q-12 0 -12 -13v-293q0 -12 12 -12h394q65 0 102 -35.5t37 -93.5t-37 -93.5t-102 -35.5h-394q-12 0 -12 -12v-398q0 -71 -42 -115t-107 -44q-67 0 -109.5 44
t-42.5 115z" />
    <glyph glyph-name="G" unicode="G" horiz-adv-x="1286" 
d="M135 315q-23 74 -31 150.5t-8 230.5t8 230.5t31 150.5q53 166 187.5 252t324.5 86q162 0 279.5 -59.5t175.5 -157.5q26 -47 26 -90q0 -59 -39.5 -97t-97.5 -38q-80 0 -133 74q-73 102 -211 102q-173 0 -223 -156q-23 -73 -23 -297q0 -226 23 -299q24 -73 81.5 -113
t145.5 -40q80 0 140.5 38.5t82.5 104.5q17 52 17 137q0 13 -12 13h-95q-58 0 -92.5 32t-34.5 86t34.5 86.5t92.5 32.5h287q57 0 88 -31t31 -88v-14q0 -206 -35 -315q-54 -167 -187.5 -258t-320.5 -91q-190 0 -324.5 86t-187.5 252z" />
    <glyph glyph-name="H" unicode="H" horiz-adv-x="1347" 
d="M133 147v1098q0 73 42.5 116.5t109.5 43.5q65 0 107 -43.5t42 -116.5v-395q0 -12 12 -12h455q12 0 12 12v395q0 72 42 116t108 44q67 0 109 -43.5t42 -116.5v-1098q0 -73 -42 -116t-109 -43q-66 0 -108 43.5t-42 115.5v410q0 12 -12 12h-455q-12 0 -12 -12v-410
q0 -72 -42.5 -115.5t-108.5 -43.5q-67 0 -108.5 43t-41.5 116z" />
    <glyph glyph-name="I" unicode="I" horiz-adv-x="567" 
d="M133 147v1098q0 71 42.5 115.5t109.5 44.5q65 0 107 -44.5t42 -115.5v-1098q0 -71 -42 -115t-107 -44q-67 0 -109.5 44t-42.5 115z" />
    <glyph glyph-name="J" unicode="J" horiz-adv-x="1067" 
d="M117 94q-41 47 -41 105q0 54 38 90.5t95 36.5q50 0 115 -45q53 -37 125 -37q190 0 190 235v766q0 73 42 116.5t107 43.5q67 0 109.5 -43.5t42.5 -116.5v-745q0 -255 -130.5 -389t-371.5 -134q-96 0 -187 33.5t-134 83.5z" />
    <glyph glyph-name="K" unicode="K" horiz-adv-x="1259" 
d="M133 147v1098q0 71 42.5 115.5t109.5 44.5q65 0 107 -44.5t42 -115.5v-467l461 561q56 66 123 66q56 0 95.5 -37.5t39.5 -95.5q0 -55 -35 -96l-299 -345l352 -608q27 -50 27 -92q0 -60 -40.5 -101.5t-102.5 -41.5q-93 0 -144 88l-293 526l-184 -231v-224q0 -71 -42 -115
t-107 -44q-67 0 -109.5 44t-42.5 115z" />
    <glyph glyph-name="L" unicode="L" horiz-adv-x="1126" 
d="M133 152v1093q0 71 42.5 115.5t109.5 44.5q65 0 107 -44.5t42 -115.5v-964q0 -13 12 -13h496q68 0 110 -37t42 -96q0 -60 -41.5 -97.5t-110.5 -37.5h-657q-69 0 -110.5 42t-41.5 110z" />
    <glyph glyph-name="M" unicode="M" horiz-adv-x="1562" 
d="M133 133v1092q0 83 45.5 131.5t120.5 48.5q65 0 107 -37t79 -119l297 -671h9l290 671q35 82 77 119t108 37q75 0 119.5 -48.5t44.5 -131.5v-1092q0 -68 -37.5 -106.5t-100.5 -38.5q-62 0 -99.5 38.5t-37.5 106.5v672h-10l-215 -500q-32 -73 -63.5 -100t-84.5 -27t-84 27
t-63 100l-217 500h-10v-672q0 -67 -38 -106t-98 -39q-63 0 -101 38.5t-38 106.5z" />
    <glyph glyph-name="N" unicode="N" horiz-adv-x="1341" 
d="M133 133v1092q0 83 45.5 131.5t122.5 48.5q62 0 109 -36.5t90 -111.5l426 -759h8v762q0 68 37.5 106.5t99.5 38.5t99.5 -38.5t37.5 -106.5v-1092q0 -83 -45.5 -131.5t-122.5 -48.5q-62 0 -108.5 36t-89.5 111l-426 758h-8v-760q0 -68 -37.5 -106.5t-100.5 -38.5
q-62 0 -99.5 38.5t-37.5 106.5z" />
    <glyph glyph-name="O" unicode="O" horiz-adv-x="1286" 
d="M643 -23q-187 0 -320.5 86t-187.5 252q-23 74 -31 150.5t-8 230.5t8 230.5t31 150.5q54 166 187.5 252t320.5 86t320.5 -86t187.5 -252q23 -74 31 -150.5t8 -230.5t-8 -230.5t-31 -150.5q-54 -166 -187.5 -252t-320.5 -86zM643 244q169 0 219 151q23 73 23 301t-23 301
q-24 72 -79.5 112t-139.5 40t-139.5 -40t-79.5 -112q-23 -73 -23 -301t23 -301q50 -151 219 -151z" />
    <glyph glyph-name="P" unicode="P" horiz-adv-x="1239" 
d="M285 -12q-67 0 -109.5 44t-42.5 115v1113q0 61 35 97t96 36h430q226 0 356 -123.5t130 -325.5q0 -199 -131 -322.5t-355 -123.5h-248q-12 0 -12 -13v-338q0 -71 -42 -115t-107 -44zM676 758q95 0 149 50.5t54 135.5q0 86 -54.5 137.5t-148.5 51.5h-230q-12 0 -12 -13
v-350q0 -12 12 -12h230z" />
    <glyph glyph-name="Q" unicode="Q" horiz-adv-x="1288" 
d="M1200 172q43 -43 43 -102q0 -57 -41 -97.5t-98 -40.5q-60 0 -103 43l-69 70q-124 -68 -289 -68q-187 0 -320.5 86t-187.5 252q-23 74 -31 150.5t-8 230.5t8 230.5t31 150.5q54 166 187.5 252t320.5 86t320.5 -86t187.5 -252q23 -74 31 -150.5t8 -230.5t-8 -230.5
t-31 -150.5q-12 -36 -27 -67zM643 244q40 0 78 10l-51 53q-41 41 -41 103q0 56 39.5 96.5t97.5 40.5q59 0 102 -43l13 -15q6 70 6 207q0 226 -23 299q-51 154 -221 154t-221 -154q-23 -73 -23 -299t23 -299q50 -153 221 -153z" />
    <glyph glyph-name="R" unicode="R" horiz-adv-x="1277" 
d="M1032 -12q-97 0 -147 94l-234 448h-205q-12 0 -12 -12v-371q0 -72 -41.5 -115.5t-107.5 -43.5q-67 0 -109.5 44t-42.5 115v1113q0 61 35 97t96 36h443q214 0 344.5 -120t130.5 -312q0 -126 -61 -224t-169 -153l203 -369q21 -41 21 -84q0 -61 -39 -102t-105 -41zM692 786
q86 0 137.5 47t51.5 125q0 80 -51.5 127.5t-137.5 47.5h-246q-12 0 -12 -13v-321q0 -13 12 -13h246z" />
    <glyph glyph-name="S" unicode="S" horiz-adv-x="1218" 
d="M596 -23q-246 0 -438 119q-72 47 -72 127q0 56 38.5 94.5t96.5 38.5q45 0 88 -24q88 -48 156 -69t143 -21q108 0 168 45t60 119q0 64 -47.5 101t-167.5 54l-74 10q-441 60 -441 418q0 193 134.5 309.5t359.5 116.5q112 0 218.5 -26t170.5 -66q72 -46 72 -121
q0 -57 -37.5 -94t-93.5 -37q-40 0 -88 23q-117 57 -240 57q-90 0 -139 -41t-49 -109q0 -61 50 -98.5t167 -54.5l74 -10q220 -31 329 -133.5t109 -288.5q0 -196 -142 -317.5t-405 -121.5z" />
    <glyph glyph-name="T" unicode="T" horiz-adv-x="1144" 
d="M571 -12q-65 0 -107 44t-42 115v965q0 12 -12 12h-236q-68 0 -109.5 37t-41.5 96q0 61 41.5 98.5t109.5 37.5h797q68 0 109.5 -37.5t41.5 -98.5q0 -59 -41.5 -96t-109.5 -37h-236q-12 0 -12 -12v-965q0 -71 -42.5 -115t-109.5 -44z" />
    <glyph glyph-name="U" unicode="U" horiz-adv-x="1320" 
d="M662 -23q-248 0 -391.5 140t-143.5 397v731q0 71 42.5 115.5t109.5 44.5q65 0 107 -44.5t42 -115.5v-741q0 -122 65.5 -191t168.5 -69q106 0 168.5 68.5t62.5 191.5v741q0 71 42 115.5t107 44.5q67 0 109.5 -44.5t42.5 -115.5v-731q0 -255 -145.5 -396t-386.5 -141z" />
    <glyph glyph-name="V" unicode="V" horiz-adv-x="1218" 
d="M610 -12q-69 0 -114 40.5t-78 135.5l-355 1036q-10 33 -10 64q0 59 42 100t106 41q106 0 145 -117l268 -829h7l253 829q37 117 146 117q64 0 104.5 -40.5t40.5 -100.5q0 -31 -10 -64l-354 -1036q-33 -95 -78.5 -135.5t-112.5 -40.5z" />
    <glyph glyph-name="W" unicode="W" horiz-adv-x="1769" 
d="M1260 -12q-63 0 -101 36.5t-63 120.5l-211 740h-4l-207 -740q-23 -84 -61.5 -120.5t-102.5 -36.5q-62 0 -101.5 36.5t-62.5 120.5l-287 1057q-8 36 -8 60q0 62 40.5 102.5t107.5 40.5q112 0 147 -139l182 -770h4l211 780q37 129 142 129q55 0 89.5 -32t53.5 -97l217 -780
h4l176 770q32 139 148 139q66 0 105.5 -40t39.5 -103q0 -24 -8 -60l-287 -1057q-23 -84 -62 -120.5t-101 -36.5z" />
    <glyph glyph-name="X" unicode="X" horiz-adv-x="1216" 
d="M1010 -12q-77 0 -125 71l-275 406h-4l-274 -406q-48 -71 -125 -71q-61 0 -101 39t-40 96q0 45 30 92l340 500l-315 463q-31 48 -31 92q0 57 40 96t101 39q77 0 125 -72l250 -368h4l250 368q48 72 125 72q61 0 101 -39t40 -96q0 -46 -30 -92l-318 -463l342 -500
q31 -48 31 -92q0 -57 -40 -96t-101 -39z" />
    <glyph glyph-name="Y" unicode="Y" horiz-adv-x="1163" 
d="M580 -12q-65 0 -107.5 43.5t-42.5 115.5v406l-356 635q-23 44 -23 82q0 58 41 96.5t101 38.5q84 0 133 -90l254 -477h6l256 477q47 90 133 90q60 0 98.5 -38t38.5 -97q0 -40 -22 -82l-359 -635v-406q0 -73 -42 -116t-109 -43z" />
    <glyph glyph-name="Z" unicode="Z" horiz-adv-x="1118" 
d="M905 0h-678q-74 0 -115.5 41t-41.5 102q0 52 20.5 97.5t75.5 124.5l512 755v4h-442q-67 0 -105.5 37t-38.5 96q0 60 39 98t105 38h655q75 0 116.5 -41t41.5 -103q0 -47 -17.5 -90t-70.5 -119l-521 -768v-4h465q67 0 105.5 -37.5t38.5 -97.5t-38 -96.5t-106 -36.5z" />
    <glyph glyph-name="bracketleft" unicode="[" horiz-adv-x="618" 
d="M459 -172h-219q-51 0 -80 28t-29 78v1475q0 50 29 78.5t80 28.5h219q54 0 85 -29.5t31 -77.5t-30.5 -77t-85.5 -29h-62q-12 0 -12 -13v-1237q0 -12 12 -12h62q54 0 85 -29.5t31 -77.5t-30.5 -77t-85.5 -29z" />
    <glyph glyph-name="backslash" unicode="\" horiz-adv-x="868" 
d="M625 -33q-42 0 -75 26t-48 73l-379 1185q-8 21 -8 52q0 55 37.5 88.5t91.5 33.5q42 0 75 -26t48 -72l378 -1186q9 -24 9 -51q0 -55 -37.5 -89t-91.5 -34z" />
    <glyph glyph-name="bracketright" unicode="]" horiz-adv-x="618" 
d="M379 -172h-219q-55 0 -86 29t-31 77t31 77.5t86 29.5h61q12 0 12 12v1237q0 13 -12 13h-61q-55 0 -86 29t-31 77t31 77.5t86 29.5h219q51 0 79.5 -28.5t28.5 -78.5v-1475q0 -50 -28.5 -78t-79.5 -28z" />
    <glyph glyph-name="asciicircum" unicode="^" 
d="M872 508q-84 0 -120 90l-181 449h-4l-180 -449q-36 -90 -121 -90q-53 0 -87 30.5t-34 84.5q0 31 15 65l260 608q47 109 149 109q103 0 150 -109l260 -608q14 -32 14 -65q0 -54 -34 -84.5t-87 -30.5z" />
    <glyph glyph-name="underscore" unicode="_" horiz-adv-x="1064" 
d="M1065 -311h-1065v180h1065v-180z" />
    <glyph glyph-name="grave" unicode="`" horiz-adv-x="929" 
d="M512 1106q-57 0 -96 51l-90 121q-27 39 -27 82q0 44 33 74t76 30q59 0 96 -49l88 -125q26 -40 26 -84q0 -45 -30.5 -72.5t-75.5 -27.5z" />
    <glyph glyph-name="a" unicode="a" horiz-adv-x="1081" 
d="M1006 205q24 -41 24 -84q0 -57 -41.5 -95t-101.5 -38q-77 0 -117 55l-25 35h-2q-38 -47 -113 -74t-167 -27q-187 0 -282 80t-95 224q0 159 109.5 239t300.5 80h178q12 0 12 12v11q0 70 -51 108.5t-152 38.5q-82 0 -159 -29q-44 -14 -68 -14q-51 0 -83 31.5t-32 83.5
q0 76 74 114q116 58 303 58q220 0 331.5 -105t111.5 -295v-270q0 -62 18 -94zM502 193q184 0 184 137v67q0 13 -12 13h-139q-177 0 -177 -113q0 -104 144 -104z" />
    <glyph glyph-name="b" unicode="b" horiz-adv-x="1128" 
d="M670 -23q-176 0 -258 115h-2q-12 -44 -47 -74t-91 -30q-64 0 -103.5 40.5t-39.5 110.5v1114q0 70 39.5 111t103.5 41q63 0 103.5 -41.5t40.5 -110.5v-346h2q32 47 96.5 77t155.5 30q121 0 213.5 -67.5t130.5 -184.5q35 -104 35 -266q0 -163 -35 -267
q-38 -117 -130.5 -184.5t-213.5 -67.5zM586 219q115 0 153 115q19 59 19 162q0 102 -19 161q-38 115 -153 115q-114 0 -152 -115q-18 -55 -18 -161t18 -162q38 -115 152 -115z" />
    <glyph glyph-name="c" unicode="c" horiz-adv-x="976" 
d="M535 -23q-158 0 -268 73t-154 210q-33 97 -33 236q0 138 33 235q44 137 154 210t268 73q99 0 180.5 -30t130.5 -79q57 -57 57 -114q0 -54 -35.5 -88.5t-89.5 -34.5q-51 0 -116 59q-48 45 -123 45q-116 0 -150 -108q-18 -58 -18 -168t18 -168q34 -109 150 -109
q75 0 123 45q66 60 116 60q54 0 89.5 -34.5t35.5 -88.5q0 -58 -57 -115q-49 -49 -130.5 -79t-180.5 -30z" />
    <glyph glyph-name="d" unicode="d" horiz-adv-x="1128" 
d="M856 -12q-56 0 -90.5 30t-46.5 74h-2q-82 -115 -258 -115q-121 0 -213.5 67.5t-130.5 184.5q-35 104 -35 267q0 162 35 266q38 117 130.5 184.5t213.5 67.5q91 0 155.5 -30t96.5 -77h2v346q0 69 40 110.5t103 41.5q64 0 103.5 -41t39.5 -111v-1114q0 -70 -39.5 -110.5
t-103.5 -40.5zM543 219q113 0 151 115q19 59 19 162q0 102 -19 161q-38 115 -151 115q-116 0 -154 -115q-18 -55 -18 -161t18 -162q38 -115 154 -115z" />
    <glyph glyph-name="e" unicode="e" horiz-adv-x="1079" 
d="M555 -23q-170 0 -284.5 74t-157.5 209q-33 101 -33 236q0 142 31 237q44 134 156.5 207.5t271.5 73.5q163 0 274 -73t154 -206q32 -97 32 -231q0 -42 -25 -68t-69 -26h-526q-12 0 -12 -13q0 -27 10 -57q20 -62 74 -95.5t131 -33.5q93 0 186 51q54 31 98 31t74.5 -30.5
t30.5 -76.5q0 -63 -58 -102q-152 -107 -358 -107zM379 600h326q12 0 12 12q0 41 -10 74q-17 52 -60.5 80.5t-105.5 28.5t-104.5 -28.5t-59.5 -80.5q-10 -33 -10 -74q0 -12 12 -12z" />
    <glyph glyph-name="f" unicode="f" horiz-adv-x="694" 
d="M309 -12q-64 0 -103.5 40.5t-39.5 110.5v627q0 12 -14 12h-9q-54 0 -84 29.5t-30 77.5t30 77t84 29h9q14 0 14 13v47q0 180 84 261t264 81h21q63 0 97 -32t34 -85q0 -54 -33 -86.5t-92 -32.5q-47 0 -67.5 -23.5t-20.5 -78.5v-51q0 -13 12 -13h78q54 0 84 -29t30 -77
t-30 -77.5t-84 -29.5h-78q-12 0 -12 -12v-627q0 -69 -40.5 -110t-103.5 -41z" />
    <glyph glyph-name="g" unicode="g" horiz-adv-x="1114" 
d="M492 -391q-98 0 -192 33.5t-132 76.5q-39 42 -39 95q0 48 35 84t86 36q48 0 112 -36q74 -41 144 -41q192 0 192 213v80h-2q-84 -111 -252 -111q-123 0 -209 63.5t-124 182.5q-33 100 -33 241q0 142 33 242q38 119 124 182.5t209 63.5q176 0 258 -115h3q12 44 46.5 74.5
t90.5 30.5q64 0 103.5 -41t39.5 -111v-743q0 -500 -493 -500zM535 279q109 0 145 108q18 55 18 137q0 84 -18 140q-36 108 -145 108q-112 0 -148 -108q-18 -56 -18 -140q0 -81 18 -137q36 -108 148 -108z" />
    <glyph glyph-name="h" unicode="h" horiz-adv-x="1132" 
d="M868 -12q-63 0 -103 41t-40 110v451q0 83 -40.5 131.5t-115.5 48.5t-114 -48t-39 -132v-451q0 -69 -40.5 -110t-103.5 -41q-64 0 -103.5 40.5t-39.5 110.5v1114q0 70 39.5 111t103.5 41q63 0 103.5 -41.5t40.5 -110.5v-346h2q91 107 256 107q160 0 249 -101.5t89 -267.5
v-506q0 -69 -40 -110t-104 -41z" />
    <glyph glyph-name="i" unicode="i" horiz-adv-x="544" 
d="M272 1092q-68 0 -114.5 47t-46.5 114q0 68 47 115t114 47q68 0 115 -47.5t47 -114.5t-47 -114t-115 -47zM272 -12q-64 0 -103.5 40.5t-39.5 110.5v713q0 70 39.5 111t103.5 41q63 0 103.5 -41.5t40.5 -110.5v-713q0 -69 -40.5 -110t-103.5 -41z" />
    <glyph glyph-name="j" unicode="j" horiz-adv-x="544" 
d="M272 1092q-68 0 -114.5 47t-46.5 114q0 68 47 115t114 47q68 0 115 -47.5t47 -114.5t-47 -114t-115 -47zM68 -369q-61 0 -95 33.5t-34 87.5q0 104 110 125q46 9 63 33t17 80v862q0 70 39.5 111t103.5 41q63 0 103.5 -41.5t40.5 -110.5v-860q0 -187 -87 -274t-261 -87z
" />
    <glyph glyph-name="k" unicode="k" horiz-adv-x="1087" 
d="M864 -12q-82 0 -129 78l-217 364l-102 -106v-185q0 -69 -40.5 -110t-103.5 -41q-64 0 -103.5 40.5t-39.5 110.5v1114q0 70 39.5 111t103.5 41q63 0 103.5 -41.5t40.5 -110.5v-618l309 317q52 52 111 52q47 0 80.5 -32.5t33.5 -82.5q0 -63 -45 -105l-186 -174l260 -411
q22 -37 22 -80q0 -55 -40 -93t-97 -38z" />
    <glyph glyph-name="l" unicode="l" horiz-adv-x="622" 
d="M442 -12h-12q-165 0 -235 78t-70 237v950q0 70 39.5 111t103.5 41q63 0 103.5 -41.5t40.5 -110.5v-925q0 -42 15.5 -63t49.5 -27q115 -20 115 -125q0 -56 -37.5 -90.5t-112.5 -34.5z" />
    <glyph glyph-name="m" unicode="m" horiz-adv-x="1728" 
d="M1464 -12q-63 0 -103 41t-40 110v451q0 83 -40.5 131.5t-115.5 48.5q-74 0 -113.5 -48.5t-39.5 -131.5v-451q0 -69 -40 -110t-104 -41q-63 0 -103 41t-40 110v451q0 83 -40.5 131.5t-115.5 48.5t-114 -48t-39 -132v-451q0 -69 -40.5 -110t-103.5 -41q-64 0 -103.5 40.5
t-39.5 110.5v713q0 70 39.5 111t103.5 41q52 0 89 -28t49 -77h2q89 115 262 115q180 0 268 -129h2q116 129 311 129q170 0 261.5 -100.5t91.5 -268.5v-506q0 -69 -40 -110t-104 -41z" />
    <glyph glyph-name="n" unicode="n" horiz-adv-x="1132" 
d="M868 -12q-63 0 -103 41t-40 110v451q0 83 -40.5 131.5t-115.5 48.5t-114 -48t-39 -132v-451q0 -69 -40.5 -110t-103.5 -41q-64 0 -103.5 40.5t-39.5 110.5v713q0 70 39.5 111t103.5 41q52 0 89 -28t49 -77h2q89 115 262 115q160 0 249 -101.5t89 -267.5v-506
q0 -69 -40 -110t-104 -41z" />
    <glyph glyph-name="o" unicode="o" horiz-adv-x="1085" 
d="M543 -23q-162 0 -274 74t-156 211q-33 103 -33 234q0 130 33 233q44 137 156 211t274 74t274 -74t156 -211q33 -103 33 -233q0 -131 -33 -234q-44 -137 -156 -211t-274 -74zM543 219q117 0 153 111q19 58 19 166t-19 166q-36 110 -153 110q-118 0 -154 -110
q-18 -55 -18 -166t18 -166q36 -111 154 -111z" />
    <glyph glyph-name="p" unicode="p" horiz-adv-x="1128" 
d="M272 -381q-64 0 -103.5 41t-39.5 111v1081q0 70 39.5 111t103.5 41q56 0 91 -30.5t47 -74.5h2q82 115 258 115q121 0 213.5 -67.5t130.5 -184.5q35 -104 35 -266q0 -163 -35 -267q-38 -117 -130.5 -184.5t-213.5 -67.5q-91 0 -155.5 30t-96.5 77h-2v-313
q0 -69 -40.5 -110.5t-103.5 -41.5zM586 219q115 0 153 115q19 59 19 162q0 102 -19 161q-38 115 -153 115q-114 0 -152 -115q-18 -55 -18 -161t18 -162q38 -115 152 -115z" />
    <glyph glyph-name="q" unicode="q" horiz-adv-x="1128" 
d="M856 -381q-63 0 -103 41.5t-40 110.5v313h-2q-32 -47 -96.5 -77t-155.5 -30q-121 0 -213.5 67.5t-130.5 184.5q-35 104 -35 267q0 162 35 266q38 117 130.5 184.5t213.5 67.5q176 0 258 -115h2q12 44 46.5 74.5t90.5 30.5q64 0 103.5 -41t39.5 -111v-1081
q0 -70 -39.5 -111t-103.5 -41zM543 219q113 0 151 115q19 59 19 162q0 102 -19 161q-38 115 -151 115q-116 0 -154 -115q-18 -55 -18 -161t18 -162q38 -115 154 -115z" />
    <glyph glyph-name="r" unicode="r" horiz-adv-x="876" 
d="M272 -12q-64 0 -103.5 40.5t-39.5 110.5v713q0 70 39.5 111t103.5 41q52 0 90 -29t50 -82v-2h2q36 53 102.5 88t147.5 35q57 0 104 -21q76 -37 76 -116q0 -63 -39.5 -104.5t-102.5 -41.5q-28 0 -61 10q-37 11 -74 11q-151 0 -151 -209v-404q0 -69 -40.5 -110t-103.5 -41z
" />
    <glyph glyph-name="s" unicode="s" horiz-adv-x="1034" 
d="M512 -23q-209 0 -362 95q-70 44 -70 114q0 47 35 81t84 34q35 0 84 -27q125 -71 243 -71q76 0 115 24.5t39 67.5q0 37 -29.5 56t-113.5 28l-109 12q-160 19 -242 96t-82 207q0 148 108.5 234t301.5 86q172 0 301 -66q84 -44 84 -112q0 -48 -31.5 -80.5t-81.5 -32.5
q-27 0 -81 25q-90 43 -201 43q-125 0 -125 -78q0 -36 28 -54.5t109 -27.5l109 -13q329 -38 329 -301q0 -155 -117 -247.5t-325 -92.5z" />
    <glyph glyph-name="t" unicode="t" horiz-adv-x="677" 
d="M479 -12h-12q-171 0 -244 79.5t-73 251.5v447q0 12 -15 12h-8q-54 0 -84.5 29.5t-30.5 77.5t30.5 77t84.5 29h8q15 0 15 13v147q0 70 39.5 111t103.5 41q62 0 101.5 -41t39.5 -111v-147q0 -13 12 -13h78q54 0 84.5 -29t30.5 -77t-30.5 -77.5t-84.5 -29.5h-78
q-12 0 -12 -12v-438q0 -44 18 -64.5t58 -25.5q64 -7 95.5 -42.5t31.5 -84.5q0 -55 -40 -89t-118 -34z" />
    <glyph glyph-name="u" unicode="u" horiz-adv-x="1124" 
d="M852 -12q-52 0 -88.5 27.5t-48.5 76.5h-2q-89 -115 -262 -115q-160 0 -246 101t-86 268v506q0 69 40.5 110.5t104.5 41.5q63 0 102.5 -41.5t39.5 -110.5v-451q0 -84 38 -132t113 -48q74 0 113 48t39 132v451q0 70 39.5 111t103.5 41q63 0 103 -41.5t40 -110.5v-713
q0 -70 -39.5 -110.5t-103.5 -40.5z" />
    <glyph glyph-name="v" unicode="v" horiz-adv-x="1040" 
d="M520 -12q-69 0 -109.5 38t-80.5 138l-256 637q-15 37 -15 67q0 58 41 97t101 39q95 0 133 -101l190 -518h4l183 518q35 101 131 101q60 0 99.5 -38.5t39.5 -97.5q0 -32 -14 -67l-256 -637q-40 -100 -80.5 -138t-110.5 -38z" />
    <glyph glyph-name="w" unicode="w" horiz-adv-x="1566" 
d="M1090 -12q-123 0 -162 133l-142 475h-4l-143 -475q-43 -133 -158 -133q-116 0 -162 133l-231 686q-10 33 -10 59q0 60 39.5 99t99.5 39q102 0 137 -121l144 -502h4l141 500q37 123 141 123q102 0 140 -123l149 -500h4l137 502q35 121 138 121q60 0 98.5 -39t38.5 -99
q0 -26 -10 -59l-232 -686q-23 -68 -61 -100.5t-96 -32.5z" />
    <glyph glyph-name="x" unicode="x" horiz-adv-x="1054" 
d="M834 -12q-71 0 -119 63l-187 246h-2l-186 -246q-48 -63 -119 -63q-55 0 -91 36.5t-36 88.5q0 47 35 94l233 305l-208 272q-35 47 -35 95q0 52 36 88.5t91 36.5q70 0 119 -64l161 -213h2l162 213q49 64 119 64q55 0 91 -36.5t36 -88.5q0 -48 -35 -95l-209 -272l234 -305
q35 -47 35 -94q0 -52 -36 -88.5t-91 -36.5z" />
    <glyph glyph-name="y" unicode="y" horiz-adv-x="1038" 
d="M258 -369h-12q-61 0 -97 34t-36 87q0 55 35.5 88.5t97.5 34.5q46 2 74.5 24.5t46.5 75.5l26 74l-317 752q-15 37 -15 67q0 58 41 97t101 39q93 0 133 -101l190 -506h4l177 506q37 101 131 101q60 0 99.5 -38.5t39.5 -97.5q0 -32 -14 -67l-355 -887q-64 -161 -140 -222
t-210 -61z" />
    <glyph glyph-name="z" unicode="z" horiz-adv-x="978" 
d="M791 0h-601q-59 0 -94 33t-35 90q0 39 22.5 79.5t70.5 96.5l401 449v4h-336q-62 0 -95.5 32t-33.5 86q0 55 33.5 88t95.5 33h572q57 0 92 -33t35 -90q0 -74 -91 -178l-399 -446v-4h363q60 0 93.5 -33t33.5 -88q0 -54 -33.5 -86.5t-93.5 -32.5z" />
    <glyph glyph-name="braceleft" unicode="{" horiz-adv-x="731" 
d="M575 -172h-40q-279 0 -279 258v307q0 69 -20.5 104.5t-69.5 57.5q-84 36 -84 121t84 121q49 22 69.5 57t20.5 104v299q0 259 279 259h40q55 0 86 -30t31 -77q0 -100 -106 -111l-19 -2q-59 -6 -59 -84v-276q0 -114 -34 -172t-114 -86v-4q80 -28 114 -86t34 -172v-285
q0 -78 59 -84l19 -2q106 -11 106 -111q0 -47 -31 -76.5t-86 -29.5z" />
    <glyph glyph-name="bar" unicode="|" horiz-adv-x="686" 
d="M344 -184q-55 0 -89 36t-34 95v1450q0 59 34 95t89 36q53 0 87 -36t34 -95v-1450q0 -59 -34 -95t-87 -36z" />
    <glyph glyph-name="braceright" unicode="}" horiz-adv-x="731" 
d="M197 -172h-41q-55 0 -86 29.5t-31 76.5q0 100 106 111l19 2q59 6 59 84v285q0 114 34 172t114 86v4q-80 28 -114 86t-34 172v276q0 78 -59 84l-19 2q-106 11 -106 111q0 47 31 77t86 30h41q278 0 278 -259v-299q0 -69 20.5 -104t69.5 -57q84 -36 84 -121t-84 -121
q-49 -22 -69.5 -57.5t-20.5 -104.5v-307q0 -258 -278 -258z" />
    <glyph glyph-name="asciitilde" unicode="~" 
d="M752 391q-63 0 -110.5 16.5t-104.5 53.5q-80 53 -138 53t-100 -51q-47 -55 -98 -55q-43 0 -73 27t-30 71q0 38 27 82q41 64 111 106.5t151 42.5q63 0 110.5 -16t104.5 -53q82 -54 137 -54q58 0 101 52q47 55 98 55q43 0 72.5 -27t29.5 -71q0 -40 -26 -82
q-41 -64 -111 -107t-151 -43z" />
    <glyph glyph-name="uni00A0" unicode="&#xa0;" horiz-adv-x="483" 
 />
    <glyph glyph-name="exclamdown" unicode="&#xa1;" horiz-adv-x="638" 
d="M319 573q64 0 105 -41t41 -112v-692q0 -69 -41 -110.5t-105 -41.5q-63 0 -103 41.5t-40 110.5v692q0 71 40 112t103 41zM487 836q0 -69 -49.5 -118.5t-118.5 -49.5t-118 49.5t-49 118.5t49 118.5t118 49.5t118.5 -49.5t49.5 -118.5z" />
    <glyph glyph-name="cent" unicode="&#xa2;" 
d="M543 -143v125q-136 14 -231 84.5t-134 193.5q-33 97 -33 236q0 138 33 235q39 122 134.5 193.5t230.5 85.5v125q0 32 18 50.5t49 18.5q30 0 48 -18.5t18 -50.5v-125q94 -12 169.5 -53.5t112.5 -106.5q19 -40 19 -72q0 -50 -33.5 -84.5t-85.5 -34.5q-58 0 -119 58
q-32 29 -63 41v-525q31 12 63 41q61 58 119 58q52 0 85.5 -34.5t33.5 -84.5q0 -32 -19 -72q-37 -65 -112 -105.5t-170 -53.5v-125q0 -32 -18 -51t-48 -19q-31 0 -49 19t-18 51zM455 330q20 -74 88 -99v527q-67 -22 -88 -96q-17 -55 -17 -166t17 -166z" />
    <glyph glyph-name="sterling" unicode="&#xa3;" 
d="M899 0h-631q-62 0 -97.5 34t-35.5 89q0 37 15.5 68t56.5 75q49 52 49 154v119q0 12 -12 12h-23q-53 0 -82.5 27.5t-29.5 74.5q0 46 29.5 73.5t82.5 27.5h23q12 0 12 12v250q0 189 104 294t287 105q125 0 212 -53.5t116 -134.5q10 -29 10 -60q0 -56 -35.5 -92.5
t-91.5 -36.5q-81 0 -121 72q-33 61 -92 61q-100 0 -100 -124v-281q0 -12 12 -12h170q53 0 83 -27.5t30 -73.5t-30 -74t-83 -28h-170q-12 0 -12 -12v-88q0 -139 -53 -201v-4h407q61 0 96 -33.5t35 -89.5t-35 -89.5t-96 -33.5z" />
    <glyph glyph-name="currency" unicode="&#xa4;" 
d="M569 205q-113 0 -204 51l-72 -72q-41 -41 -92 -41t-86 35.5t-35 83.5q0 51 41 92l74 74q-48 88 -48 197t50 198l-76 76q-41 41 -41 92q0 48 35 83.5t86 35.5t92 -41l74 -76q91 51 202 51q110 0 201 -51l74 76q41 41 92 41t86 -35.5t35 -83.5q0 -51 -41 -92l-76 -76
q49 -93 49 -198q0 -107 -49 -197l76 -74q41 -41 41 -92q0 -48 -35 -83.5t-86 -35.5t-92 41l-72 72q-91 -51 -203 -51zM569 418q87 0 144 59.5t57 147.5q0 90 -57 149.5t-144 59.5q-89 0 -145.5 -59.5t-56.5 -149.5q0 -89 57 -148t145 -59z" />
    <glyph glyph-name="yen" unicode="&#xa5;" 
d="M569 -12q-64 0 -103.5 40.5t-39.5 110.5v117q0 12 -12 12h-181q-41 0 -64.5 23.5t-23.5 60.5t23.5 60.5t64.5 23.5h181q12 0 12 13v69q0 12 -12 12h-181q-41 0 -64.5 23.5t-23.5 60.5t23.5 60.5t64.5 23.5h132v4l-246 504q-15 35 -15 68q0 55 39.5 93t100.5 38
q87 0 129 -92l200 -467h7l192 467q39 92 127 92q60 0 97.5 -38t37.5 -93q0 -36 -14 -68l-246 -504v-4h131q41 0 64.5 -23.5t23.5 -60.5t-23.5 -60.5t-64.5 -23.5h-180q-12 0 -12 -12v-69q0 -13 12 -13h180q41 0 64.5 -23.5t23.5 -60.5t-23.5 -60.5t-64.5 -23.5h-180
q-12 0 -12 -12v-117q0 -69 -40.5 -110t-103.5 -41z" />
    <glyph glyph-name="brokenbar" unicode="&#xa6;" horiz-adv-x="686" 
d="M344 782q-55 0 -89 35t-34 96v484q0 61 34 96t89 35t88 -35t33 -96v-484q0 -61 -33 -96t-88 -35zM344 -184q-55 0 -89 35t-34 96v483q0 61 34 96t89 35t88 -35t33 -96v-483q0 -61 -33 -96t-88 -35z" />
    <glyph glyph-name="section" unicode="&#xa7;" horiz-adv-x="1142" 
d="M565 -391q-154 0 -255.5 73.5t-119.5 178.5q-2 12 -2 28q0 54 34 85.5t91 31.5q83 0 117 -88q35 -92 135 -92q59 0 93 33t34 88q0 66 -48.5 105t-174.5 71q-319 82 -319 391q0 103 48 185t132 128v2q-131 85 -131 254q0 139 105.5 235.5t273.5 96.5q142 0 239.5 -65
t116.5 -166q4 -16 4 -35q0 -54 -32.5 -85.5t-88.5 -31.5q-39 0 -69.5 23t-45.5 63q-33 80 -118 80q-58 0 -91.5 -31.5t-33.5 -85.5q0 -64 48 -102.5t165 -69.5q321 -86 321 -391q0 -103 -51.5 -187t-128.5 -126v-2q137 -83 137 -254q0 -156 -105.5 -248t-279.5 -92zM571 344
q74 0 118 45.5t44 126.5t-44 126.5t-118 45.5q-75 0 -118 -45.5t-43 -126.5t43 -126.5t118 -45.5z" />
    <glyph glyph-name="dieresis" unicode="&#xa8;" horiz-adv-x="929" 
d="M672 1112q-62 0 -105 43t-43 105q0 60 43.5 102.5t104.5 42.5q60 0 102.5 -42.5t42.5 -102.5q0 -61 -42.5 -104.5t-102.5 -43.5zM260 1112q-61 0 -104 43t-43 105q0 60 43 102.5t104 42.5q60 0 103 -42.5t43 -102.5q0 -61 -43 -104.5t-103 -43.5z" />
    <glyph glyph-name="copyright" unicode="&#xa9;" horiz-adv-x="1665" 
d="M831 -23q-201 0 -365.5 93.5t-258.5 258.5t-94 367t94 367t258.5 258.5t365.5 93.5q151 0 285 -55t229.5 -150.5t151 -229t55.5 -284.5t-55.5 -284.5t-151 -229t-229.5 -150.5t-285 -55zM831 139q237 0 394 158.5t157 398.5t-157 398.5t-394 158.5q-236 0 -392 -159
t-156 -398t156 -398t392 -159zM850 293q-125 0 -213.5 58.5t-126.5 168.5q-23 64 -23 176t23 176q38 110 126.5 169t213.5 59q78 0 144 -26t100 -68q26 -33 26 -72q0 -36 -26.5 -64t-65.5 -28q-46 0 -84 35q-39 34 -88 34q-100 0 -131 -90q-12 -35 -12 -125t12 -125
q31 -90 131 -90q47 0 88 35q38 35 84 35q39 0 65.5 -28t26.5 -64q0 -39 -26 -72q-34 -42 -100 -68t-144 -26z" />
    <glyph glyph-name="ordfeminine" unicode="&#xaa;" horiz-adv-x="729" 
d="M674 954q22 -28 22 -63q0 -42 -28 -69t-72 -27q-54 0 -84 47l-8 12h-2q-58 -61 -180 -61q-126 0 -189 48t-63 138q0 188 264 188h100q12 0 12 13v8q0 29 -28.5 46t-83.5 17q-53 0 -115 -20q-21 -8 -47 -8q-34 0 -55 20t-21 53q0 50 47 74q70 39 209 39q295 0 295 -235
v-144q0 -38 15 -59zM340 938q106 0 106 72v16q0 12 -12 12h-84q-84 0 -84 -51q0 -49 74 -49z" />
    <glyph glyph-name="guillemotleft" unicode="&#xab;" horiz-adv-x="1155" 
d="M975 129q-49 0 -88 39l-287 287q-45 45 -45 86t45 86l287 286q39 39 88 39q40 0 69 -28t29 -70q0 -47 -39 -86l-219 -217q-11 -11 0 -21l219 -217q39 -39 39 -86q0 -42 -29 -70t-69 -28zM477 129q-49 0 -88 39l-287 287q-45 45 -45 86t45 86l287 286q39 39 88 39
q40 0 69 -28t29 -70q0 -48 -38 -86l-220 -217q-11 -11 0 -21l220 -217q38 -38 38 -86q0 -42 -29 -70t-69 -28z" />
    <glyph glyph-name="logicalnot" unicode="&#xac;" 
d="M909 160q-55 0 -90 35.5t-35 97.5v139q0 12 -12 12h-549q-59 0 -94 33t-35 88t35 88t94 33h690q54 0 87.5 -33t33.5 -88v-272q0 -62 -35 -97.5t-90 -35.5z" />
    <glyph glyph-name="uni00AD" unicode="&#xad;" horiz-adv-x="802" 
d="M596 418h-389q-61 0 -97 34.5t-36 90.5t36 90.5t97 34.5h389q61 0 97 -34.5t36 -90.5t-36 -90.5t-97 -34.5z" />
    <glyph glyph-name="registered" unicode="&#xae;" horiz-adv-x="901" 
d="M451 616q-166 0 -280 113.5t-114 280.5q0 165 114 278t280 113q167 0 280 -112.5t113 -278.5q0 -167 -113 -280.5t-280 -113.5zM451 698q131 0 219 88t88 224q0 134 -88 221.5t-219 87.5t-218.5 -87.5t-87.5 -221.5q0 -136 87.5 -224t218.5 -88zM340 788
q-26 0 -41.5 16.5t-15.5 45.5v321q0 27 15 42.5t42 15.5h139q78 0 121 -36.5t43 -102.5q0 -84 -68 -119l54 -97q10 -13 10 -34q0 -23 -15.5 -37.5t-37.5 -14.5q-39 0 -60 41l-67 123h-51q-9 0 -9 -10v-92q0 -29 -16 -45.5t-43 -16.5zM471 1044q59 0 59 46q0 47 -59 47h-63
q-9 0 -9 -9v-75q0 -9 9 -9h63z" />
    <glyph glyph-name="macron" unicode="&#xaf;" horiz-adv-x="929" 
d="M684 1178h-436q-51 0 -80 28t-29 72q0 45 29 73.5t80 28.5h436q50 0 78.5 -28.5t28.5 -73.5q0 -44 -28.5 -72t-78.5 -28z" />
    <glyph glyph-name="degree" unicode="&#xb0;" horiz-adv-x="899" 
d="M451 791q-135 0 -225.5 89.5t-90.5 223.5q0 135 90.5 225t225.5 90q134 0 223.5 -90t89.5 -225q0 -134 -90 -223.5t-223 -89.5zM451 956q61 0 101 42.5t40 105.5q0 65 -39 107t-102 42t-103.5 -42t-40.5 -107q0 -63 40.5 -105.5t103.5 -42.5z" />
    <glyph glyph-name="plusminus" unicode="&#xb1;" 
d="M569 336q-55 0 -90 35.5t-35 97.5v209q0 12 -12 12h-209q-59 0 -94 33t-35 88t35 88t94 33h209q12 0 12 12v209q0 62 35 97.5t90 35.5t90 -35.5t35 -97.5v-209q0 -12 13 -12h208q59 0 94 -33t35 -88t-35 -88t-94 -33h-208q-13 0 -13 -12v-209q0 -62 -35 -97.5t-90 -35.5z
M915 0h-692q-59 0 -94 33t-35 88t35 88t94 33h692q59 0 94 -33t35 -88t-35 -88t-94 -33z" />
    <glyph glyph-name="twosuperior" unicode="&#xb2;" horiz-adv-x="733" 
d="M569 881h-397q-50 0 -77 26.5t-27 69.5q0 61 82 143l241 252q51 51 51 107q0 33 -22 52t-58 19q-51 0 -88 -55q-41 -59 -94 -59q-41 0 -68.5 25t-27.5 65q0 23 10 53q24 63 99.5 106.5t175.5 43.5q126 0 206 -68t80 -182q0 -63 -24.5 -113.5t-75.5 -101.5l-195 -199v-2
h209q46 0 72.5 -24.5t26.5 -65.5q0 -42 -26 -67t-73 -25z" />
    <glyph glyph-name="threesuperior" unicode="&#xb3;" horiz-adv-x="733" 
d="M367 864q-95 0 -170 35t-101 96q-10 27 -10 45q0 38 27.5 65.5t70.5 27.5q50 0 97 -56q27 -35 81 -35q40 0 65.5 23.5t25.5 64.5q0 39 -27 63t-74 24q-43 0 -67.5 24.5t-24.5 63.5t24.5 63.5t67.5 24.5q35 0 58.5 20.5t23.5 56.5q0 38 -22.5 59t-59.5 21q-43 0 -73 -30
q-52 -52 -93 -52q-40 0 -67 23.5t-27 62.5q0 18 10 45q23 56 93 93t165 37q133 0 210 -66t77 -172q0 -102 -86 -168v-2q42 -20 73.5 -70.5t31.5 -122.5q0 -119 -82.5 -191.5t-216.5 -72.5z" />
    <glyph glyph-name="acute" unicode="&#xb4;" horiz-adv-x="929" 
d="M514 1157q-39 -51 -96 -51q-45 0 -76 27.5t-31 72.5q0 42 27 84l88 125q37 49 96 49q43 0 76 -30t33 -74q0 -43 -27 -82z" />
    <glyph glyph-name="mu" unicode="&#xb5;" horiz-adv-x="1134" 
d="M862 -12q-52 0 -88.5 27.5t-48.5 76.5h-2q-26 -44 -81.5 -75t-119.5 -31q-69 0 -102 30h-2v-245q0 -69 -40.5 -110.5t-103.5 -41.5q-64 0 -104.5 41.5t-40.5 110.5v1081q0 69 40.5 110.5t104.5 41.5q63 0 102.5 -41.5t39.5 -110.5v-451q0 -84 38 -132t113 -48
q74 0 113 48t39 132v451q0 70 39.5 111t103.5 41q63 0 103.5 -41.5t40.5 -110.5v-713q0 -69 -40 -110t-104 -41z" />
    <glyph glyph-name="mu" unicode="&#x3bc;" horiz-adv-x="1134" 
d="M862 -12q-52 0 -88.5 27.5t-48.5 76.5h-2q-26 -44 -81.5 -75t-119.5 -31q-69 0 -102 30h-2v-245q0 -69 -40.5 -110.5t-103.5 -41.5q-64 0 -104.5 41.5t-40.5 110.5v1081q0 69 40.5 110.5t104.5 41.5q63 0 102.5 -41.5t39.5 -110.5v-451q0 -84 38 -132t113 -48
q74 0 113 48t39 132v451q0 70 39.5 111t103.5 41q63 0 103.5 -41.5t40.5 -110.5v-713q0 -69 -40 -110t-104 -41z" />
    <glyph glyph-name="paragraph" unicode="&#xb6;" horiz-adv-x="1345" 
d="M1067 -381q-55 0 -87 34t-32 93v1421q0 13 -12 13h-141q-13 0 -13 -13v-1421q0 -60 -32 -93.5t-86 -33.5q-55 0 -87 34t-32 93v739q-186 12 -303 138t-117 315q0 198 130.5 326.5t352.5 128.5h457q57 0 89 -32t32 -89v-1526q0 -59 -32 -93t-87 -34z" />
    <glyph glyph-name="periodcentered" unicode="&#xb7;" horiz-adv-x="532" 
d="M266 377q-69 0 -118.5 49.5t-49.5 118.5t49.5 118.5t118.5 49.5t118.5 -49.5t49.5 -118.5t-49.5 -118.5t-118.5 -49.5z" />
    <glyph glyph-name="cedilla" unicode="&#xb8;" horiz-adv-x="929" 
d="M526 -283q-23 -79 -104 -79q-47 0 -82 27.5t-35 74.5q0 24 10 51l80 209q9 20 29 20h186q9 0 13.5 -5.5t1.5 -14.5z" />
    <glyph glyph-name="onesuperior" unicode="&#xb9;" horiz-adv-x="733" 
d="M418 868q-48 0 -78.5 32t-30.5 85v494h-4l-47 -29q-30 -18 -65 -18q-39 0 -63 26.5t-24 65.5q0 56 50 86l108 67q75 47 142 47q57 0 88.5 -33t31.5 -96v-610q0 -53 -30 -85t-78 -32z" />
    <glyph glyph-name="ordmasculine" unicode="&#xba;" horiz-adv-x="761" 
d="M381 786q-232 0 -291 181q-18 53 -18 131t18 131q59 180 291 180t291 -180q18 -53 18 -131t-18 -131q-59 -181 -291 -181zM381 958q66 0 86 58q10 27 10 82t-10 82q-20 57 -86 57t-86 -57q-10 -27 -10 -82t10 -82q20 -58 86 -58z" />
    <glyph glyph-name="guillemotright" unicode="&#xbb;" horiz-adv-x="1155" 
d="M678 129q-40 0 -69 28t-29 70q0 48 38 86l220 217q10 10 0 21l-220 217q-38 38 -38 86q0 42 29 70t69 28q49 0 88 -39l287 -286q45 -45 45 -86t-45 -86l-287 -287q-39 -39 -88 -39zM180 129q-40 0 -69 28t-29 70q0 47 39 86l219 217q10 10 0 21l-219 217q-39 39 -39 86
q0 42 29 70t69 28q49 0 88 -39l287 -286q45 -45 45 -86t-45 -86l-287 -287q-39 -39 -88 -39z" />
    <glyph glyph-name="onequarter" unicode="&#xbc;" horiz-adv-x="1787" 
d="M463 549q-48 0 -78.5 32t-30.5 85v493h-4l-47 -29q-30 -18 -65 -18q-39 0 -62.5 26.5t-23.5 65.5q0 56 49 86l108 68q75 47 142 47q57 0 88.5 -33t31.5 -96v-610q0 -53 -30 -85t-78 -32zM1466 -12q-45 0 -73.5 28t-28.5 76v10q0 13 -12 13h-267q-45 0 -71.5 25t-26.5 65
q0 54 37 135l197 432q31 74 100 74q43 0 72.5 -29t29.5 -74q0 -26 -12 -53l-184 -393v-2h125q12 0 12 12v68q0 49 28.5 77.5t73.5 28.5q44 0 72.5 -29t28.5 -77v-68q0 -12 12 -12q41 0 66.5 -24.5t25.5 -65.5t-25.5 -65.5t-66.5 -24.5q-12 0 -12 -13v-10q0 -48 -28.5 -76
t-72.5 -28zM604 23q-34 -58 -90 -58q-38 0 -63 26t-25 64q0 29 16 58l727 1255q34 57 91 57q38 0 63 -26t25 -64q0 -26 -17 -57z" />
    <glyph glyph-name="onehalf" unicode="&#xbd;" horiz-adv-x="1857" 
d="M463 549q-48 0 -78.5 32t-30.5 85v493h-4l-47 -29q-30 -18 -65 -18q-39 0 -62.5 26.5t-23.5 65.5q0 56 49 86l108 68q75 47 142 47q57 0 88.5 -33t31.5 -96v-610q0 -53 -30 -85t-78 -32zM1618 0h-397q-50 0 -77.5 26.5t-27.5 69.5q0 62 82 144l242 252q51 51 51 106
q0 33 -22 52.5t-58 19.5q-50 0 -88 -56q-41 -59 -94 -59q-41 0 -68.5 25t-27.5 65q0 23 10 53q24 63 99 106.5t175 43.5q126 0 206.5 -68t80.5 -182q0 -63 -24.5 -113.5t-75.5 -101.5l-195 -199v-2h209q46 0 72 -24.5t26 -65.5q0 -42 -26 -67t-72 -25zM604 23
q-34 -58 -90 -58q-38 0 -63 26t-25 64q0 29 16 58l727 1255q34 57 91 57q38 0 63 -26t25 -64q0 -26 -17 -57z" />
    <glyph glyph-name="threequarters" unicode="&#xbe;" horiz-adv-x="1927" 
d="M1565 -12q-45 0 -74 28t-29 76v10q0 13 -12 13h-266q-45 0 -72 25t-27 65q0 54 37 135l197 432q31 74 100 74q43 0 73 -29t30 -74q0 -24 -13 -53l-184 -393v-2h125q12 0 12 12v68q0 49 29 77.5t74 28.5q44 0 72 -28.5t28 -77.5v-68q0 -12 12 -12q41 0 66.5 -24.5
t25.5 -65.5t-25.5 -65.5t-66.5 -24.5q-12 0 -12 -13v-10q0 -48 -28 -76t-72 -28zM709 23q-34 -58 -91 -58q-38 0 -63 26t-25 64q0 27 17 58l727 1255q34 57 90 57q38 0 63 -26t25 -64q0 -28 -16 -57zM457 545q-95 0 -170 35t-101 96q-10 27 -10 45q0 38 27.5 65t70.5 27
q51 0 97 -55q27 -35 82 -35q40 0 65 23.5t25 64.5q0 39 -27 62.5t-74 23.5q-43 0 -67.5 24.5t-24.5 63.5t24.5 63.5t67.5 24.5q35 0 58.5 21t23.5 57q0 38 -22.5 59t-59.5 21q-42 0 -73 -31q-51 -51 -93 -51q-40 0 -67 23.5t-27 62.5q0 16 11 45q22 56 92.5 92.5t165.5 36.5
q133 0 209.5 -66t76.5 -172q0 -101 -86 -167v-3q42 -20 73.5 -70t31.5 -122q0 -119 -82.5 -191.5t-216.5 -72.5z" />
    <glyph glyph-name="questiondown" unicode="&#xbf;" horiz-adv-x="968" 
d="M502 586q60 0 99.5 -38.5t39.5 -101.5q0 -54 -19 -102t-71 -106l-111 -125q-82 -91 -82 -166q0 -60 37.5 -97.5t98.5 -37.5q99 0 143 100q43 90 131 90q59 0 95 -34t36 -91q0 -25 -10 -55q-36 -114 -143 -185t-259 -71q-181 0 -296 105.5t-115 265.5q0 78 26 141.5
t84 126.5l127 141q47 52 47 100q0 63 41.5 101.5t100.5 38.5zM670 836q0 -69 -49.5 -118.5t-118.5 -49.5t-118.5 49.5t-49.5 118.5t49.5 118.5t118.5 49.5t118.5 -49.5t49.5 -118.5z" />
    <glyph glyph-name="Agrave" unicode="&#xc0;" horiz-adv-x="1318" 
d="M68 129q0 30 10 57l377 1043q62 176 207 176q146 0 208 -176l371 -1043q10 -27 10 -57q0 -62 -43 -101.5t-102 -39.5q-50 0 -87 27.5t-54 78.5l-58 170h-497l-56 -170q-17 -51 -54 -78.5t-87 -27.5q-59 0 -102 39.5t-43 101.5zM496 520h327l-159 488h-7zM524 1559
l-108 114q-35 35 -35 90q0 45 32 74t76 29q55 0 95 -43l100 -113q39 -42 39 -96q0 -42 -30.5 -71.5t-71.5 -29.5q-57 0 -97 46z" />
    <glyph glyph-name="Aacute" unicode="&#xc1;" horiz-adv-x="1318" 
d="M68 129q0 30 10 57l377 1043q62 176 207 176q146 0 208 -176l371 -1043q10 -27 10 -57q0 -62 -43 -101.5t-102 -39.5q-50 0 -87 27.5t-54 78.5l-58 170h-497l-56 -170q-17 -51 -54 -78.5t-87 -27.5q-59 0 -102 39.5t-43 101.5zM496 520h327l-159 488h-7zM766 1559
q-40 -46 -96 -46q-41 0 -72 29.5t-31 71.5q0 54 35 92l105 117q40 43 94 43q44 0 76 -29t32 -74q0 -55 -35 -90z" />
    <glyph glyph-name="Acircumflex" unicode="&#xc2;" horiz-adv-x="1318" 
d="M68 129q0 30 10 57l377 1043q62 176 207 176q146 0 208 -176l371 -1043q10 -27 10 -57q0 -62 -43 -101.5t-102 -39.5q-50 0 -87 27.5t-54 78.5l-58 170h-497l-56 -170q-17 -51 -54 -78.5t-87 -27.5q-59 0 -102 39.5t-43 101.5zM496 520h327l-159 488h-7zM862 1505
q-43 0 -80 37l-120 117h-5l-120 -117q-37 -37 -80 -37q-35 0 -60.5 23t-25.5 59q0 35 24 62l131 151q32 37 62.5 55.5t70.5 18.5q70 0 134 -74l131 -151q24 -27 24 -62q0 -36 -25.5 -59t-60.5 -23z" />
    <glyph glyph-name="Atilde" unicode="&#xc3;" horiz-adv-x="1318" 
d="M68 129q0 30 10 57l377 1043q62 176 207 176q146 0 208 -176l371 -1043q10 -27 10 -57q0 -62 -43 -101.5t-102 -39.5q-50 0 -87 27.5t-54 78.5l-58 170h-497l-56 -170q-17 -51 -54 -78.5t-87 -27.5q-59 0 -102 39.5t-43 101.5zM496 520h327l-159 488h-7zM784 1532
q-71 0 -143 45q-57 35 -88 35q-20 0 -33.5 -7t-34.5 -26q-38 -33 -73 -33q-38 0 -63 24.5t-25 61.5q0 41 28 80q83 103 187 103q70 0 143 -46q55 -34 88 -34q20 0 34 6.5t34 25.5q38 33 73 33q38 0 63 -24.5t25 -61.5q0 -41 -28 -80q-82 -102 -187 -102z" />
    <glyph glyph-name="Adieresis" unicode="&#xc4;" horiz-adv-x="1318" 
d="M68 129q0 30 10 57l377 1043q62 176 207 176q146 0 208 -176l371 -1043q10 -27 10 -57q0 -62 -43 -101.5t-102 -39.5q-50 0 -87 27.5t-54 78.5l-58 170h-497l-56 -170q-17 -51 -54 -78.5t-87 -27.5q-59 0 -102 39.5t-43 101.5zM496 520h327l-159 488h-7zM866 1532
q-62 0 -104.5 42t-42.5 103t42.5 103.5t104.5 42.5q60 0 103 -42.5t43 -103.5t-43 -103t-103 -42zM455 1532q-62 0 -105 42t-43 103t43 103.5t105 42.5q60 0 102.5 -42.5t42.5 -103.5t-42.5 -103t-102.5 -42z" />
    <glyph glyph-name="Aring" unicode="&#xc5;" horiz-adv-x="1318" 
d="M68 129q0 30 10 57l377 1043q62 176 207 176q146 0 208 -176l371 -1043q10 -27 10 -57q0 -62 -43 -101.5t-102 -39.5q-50 0 -87 27.5t-54 78.5l-58 170h-497l-56 -170q-17 -51 -54 -78.5t-87 -27.5q-59 0 -102 39.5t-43 101.5zM496 520h327l-159 488h-7zM659 1458
q-95 0 -158 62t-63 157t63 157t158 62q96 0 159 -62t63 -157t-63 -157t-159 -62zM659 1579q41 0 68 27.5t27 70.5t-27 71t-68 28t-67.5 -28t-26.5 -71t26.5 -70.5t67.5 -27.5z" />
    <glyph glyph-name="AE" unicode="&#xc6;" horiz-adv-x="1894" 
d="M1677 0h-676q-60 0 -95.5 35.5t-35.5 95.5v121q0 12 -12 12h-414l-88 -180q-47 -96 -141 -96q-62 0 -105.5 38.5t-43.5 102.5q0 39 22 88l526 1038q36 72 87.5 105t132.5 33h843q63 0 101.5 -37t38.5 -94q0 -58 -39 -95t-101 -37h-491q-12 0 -12 -12v-274q0 -13 12 -13
h393q62 0 99.5 -35.5t37.5 -93.5t-37.5 -93.5t-99.5 -35.5h-393q-12 0 -12 -12v-287q0 -12 12 -12h491q63 0 101.5 -37t38.5 -94t-38.5 -94t-101.5 -37zM864 1130l-297 -610h291q12 0 12 12v598h-6z" />
    <glyph glyph-name="Ccedilla" unicode="&#xc7;" horiz-adv-x="1177" 
d="M641 -283q-23 -79 -104 -79q-47 0 -82 27.5t-35 74.5q0 24 10 51l76 199q-137 25 -232 108t-139 221q-23 72 -31 147t-8 230t8 230t31 147q55 168 184 255t314 87q151 0 264 -61.5t168 -159.5q27 -49 27 -90q0 -59 -40 -97t-98 -38q-77 0 -133 78q-40 54 -82 78t-106 24
q-158 0 -209 -154q-13 -41 -18 -99.5t-5 -199.5t5 -199.5t18 -99.5q50 -153 209 -153q64 0 106 24t82 78q56 78 133 78q58 0 98 -38t40 -97q0 -41 -27 -90q-44 -81 -130.5 -138t-201.5 -75z" />
    <glyph glyph-name="Egrave" unicode="&#xc8;" horiz-adv-x="1157" 
d="M133 133v1127q0 61 35 97t96 36h676q62 0 100.5 -36.5t38.5 -94.5q0 -56 -38.5 -92.5t-100.5 -36.5h-494q-12 0 -12 -13v-276q0 -13 12 -13h396q62 0 99.5 -35.5t37.5 -93.5t-37.5 -93.5t-99.5 -35.5h-396q-12 0 -12 -12v-289q0 -12 12 -12h494q62 0 100.5 -36.5
t38.5 -92.5q0 -58 -38.5 -94.5t-100.5 -36.5h-676q-61 0 -96 36t-35 97zM483 1559l-108 114q-35 35 -35 90q0 45 32.5 74t76.5 29q54 0 94 -43l100 -113q39 -42 39 -96q0 -42 -30.5 -71.5t-71.5 -29.5q-57 0 -97 46z" />
    <glyph glyph-name="Eacute" unicode="&#xc9;" horiz-adv-x="1157" 
d="M133 133v1127q0 61 35 97t96 36h676q62 0 100.5 -36.5t38.5 -94.5q0 -56 -38.5 -92.5t-100.5 -36.5h-494q-12 0 -12 -13v-276q0 -13 12 -13h396q62 0 99.5 -35.5t37.5 -93.5t-37.5 -93.5t-99.5 -35.5h-396q-12 0 -12 -12v-289q0 -12 12 -12h494q62 0 100.5 -36.5
t38.5 -92.5q0 -58 -38.5 -94.5t-100.5 -36.5h-676q-61 0 -96 36t-35 97zM682 1559q-40 -46 -96 -46q-41 0 -72 29.5t-31 71.5q0 54 35 92l105 117q40 43 94 43q44 0 76 -29t32 -74q0 -56 -34 -90z" />
    <glyph glyph-name="Ecircumflex" unicode="&#xca;" horiz-adv-x="1157" 
d="M133 133v1127q0 61 35 97t96 36h676q62 0 100.5 -36.5t38.5 -94.5q0 -56 -38.5 -92.5t-100.5 -36.5h-494q-12 0 -12 -13v-276q0 -13 12 -13h396q62 0 99.5 -35.5t37.5 -93.5t-37.5 -93.5t-99.5 -35.5h-396q-12 0 -12 -12v-289q0 -12 12 -12h494q62 0 100.5 -36.5
t38.5 -92.5q0 -58 -38.5 -94.5t-100.5 -36.5h-676q-61 0 -96 36t-35 97zM805 1505q-43 0 -80 37l-121 117h-4l-121 -117q-37 -37 -80 -37q-35 0 -60.5 23t-25.5 59q0 34 25 62l131 151q32 37 62.5 55.5t70.5 18.5t70.5 -18.5t62.5 -55.5l131 -151q25 -28 25 -62
q0 -36 -25.5 -59t-60.5 -23z" />
    <glyph glyph-name="Edieresis" unicode="&#xcb;" horiz-adv-x="1157" 
d="M133 133v1127q0 61 35 97t96 36h676q62 0 100.5 -36.5t38.5 -94.5q0 -56 -38.5 -92.5t-100.5 -36.5h-494q-12 0 -12 -13v-276q0 -13 12 -13h396q62 0 99.5 -35.5t37.5 -93.5t-37.5 -93.5t-99.5 -35.5h-396q-12 0 -12 -12v-289q0 -12 12 -12h494q62 0 100.5 -36.5
t38.5 -92.5q0 -58 -38.5 -94.5t-100.5 -36.5h-676q-61 0 -96 36t-35 97zM811 1532q-62 0 -104.5 42t-42.5 103t42.5 103.5t104.5 42.5q60 0 102.5 -42.5t42.5 -103.5t-42.5 -103t-102.5 -42zM399 1532q-62 0 -104.5 42t-42.5 103t42.5 103.5t104.5 42.5q60 0 103 -42.5
t43 -103.5t-43 -103t-103 -42z" />
    <glyph glyph-name="Igrave" unicode="&#xcc;" horiz-adv-x="567" 
d="M133 147v1098q0 71 42.5 115.5t109.5 44.5q65 0 107 -44.5t42 -115.5v-1098q0 -71 -42 -115t-107 -44q-67 0 -109.5 44t-42.5 115zM170 1559l-109 114q-34 34 -34 90q0 45 32 74t76 29q54 0 94 -43l101 -113q39 -42 39 -96q0 -42 -31 -71.5t-72 -29.5q-56 0 -96 46z" />
    <glyph glyph-name="Iacute" unicode="&#xcd;" horiz-adv-x="567" 
d="M133 147v1098q0 71 42.5 115.5t109.5 44.5q65 0 107 -44.5t42 -115.5v-1098q0 -71 -42 -115t-107 -44q-67 0 -109.5 44t-42.5 115zM389 1559q-40 -46 -96 -46q-41 0 -72 29.5t-31 71.5q0 54 35 92l105 117q40 43 94 43q44 0 76 -29t32 -74q0 -56 -34 -90z" />
    <glyph glyph-name="Icircumflex" unicode="&#xce;" horiz-adv-x="567" 
d="M133 147v1098q0 71 42.5 115.5t109.5 44.5q65 0 107 -44.5t42 -115.5v-1098q0 -71 -42 -115t-107 -44q-67 0 -109.5 44t-42.5 115zM487 1505q-42 0 -79 37l-121 117h-4l-121 -117q-37 -37 -80 -37q-35 0 -60.5 23t-25.5 59q0 35 24 62l132 151q32 37 62.5 55.5t70.5 18.5
t70.5 -18.5t62.5 -55.5l131 -151q24 -27 24 -62q0 -36 -25.5 -59t-60.5 -23z" />
    <glyph glyph-name="Idieresis" unicode="&#xcf;" horiz-adv-x="567" 
d="M133 147v1098q0 71 42.5 115.5t109.5 44.5q65 0 107 -44.5t42 -115.5v-1098q0 -71 -42 -115t-107 -44q-67 0 -109.5 44t-42.5 115zM489 1532q-62 0 -104.5 42t-42.5 103t42.5 103.5t104.5 42.5q60 0 103 -42.5t43 -103.5t-43 -103t-103 -42zM78 1532q-62 0 -105 42
t-43 103t43 103.5t105 42.5q60 0 102.5 -42.5t42.5 -103.5t-42.5 -103t-102.5 -42z" />
    <glyph glyph-name="Eth" unicode="&#xd0;" horiz-adv-x="1286" 
d="M594 0h-330q-61 0 -96 35.5t-35 95.5v449q0 12 -12 12h-10q-50 0 -80.5 30.5t-30.5 79.5q0 50 31 80.5t80 30.5h10q12 0 12 12v435q0 61 35 97t96 36h330q227 0 363.5 -77t191.5 -245q41 -121 41 -375q0 -253 -41 -374q-55 -168 -191.5 -245t-363.5 -77zM586 268
q224 0 274 158q25 84 25 270q0 187 -25 271q-50 157 -274 157h-137q-13 0 -13 -12v-287q0 -12 13 -12h92q52 0 84 -30.5t32 -80.5t-32 -80t-84 -30h-92q-13 0 -13 -12v-299q0 -13 13 -13h137z" />
    <glyph glyph-name="Ntilde" unicode="&#xd1;" horiz-adv-x="1341" 
d="M133 133v1092q0 83 45.5 131.5t122.5 48.5q62 0 109 -36.5t90 -111.5l426 -759h8v762q0 68 37.5 106.5t99.5 38.5t99.5 -38.5t37.5 -106.5v-1092q0 -83 -45.5 -131.5t-122.5 -48.5q-62 0 -108.5 36t-89.5 111l-426 758h-8v-760q0 -68 -37.5 -106.5t-100.5 -38.5
q-62 0 -99.5 38.5t-37.5 106.5zM803 1532q-72 0 -144 45q-57 35 -88 35q-20 0 -33 -7t-34 -26q-38 -33 -74 -33q-38 0 -63 24.5t-25 61.5q0 40 29 80q83 103 186 103q70 0 143 -46q55 -34 88 -34q20 0 34 6.5t34 25.5q38 33 74 33q38 0 63 -24.5t25 -61.5q0 -40 -29 -80
q-82 -102 -186 -102z" />
    <glyph glyph-name="Ograve" unicode="&#xd2;" horiz-adv-x="1286" 
d="M643 -23q-187 0 -320.5 86t-187.5 252q-23 74 -31 150.5t-8 230.5t8 230.5t31 150.5q54 166 187.5 252t320.5 86t320.5 -86t187.5 -252q23 -74 31 -150.5t8 -230.5t-8 -230.5t-31 -150.5q-54 -166 -187.5 -252t-320.5 -86zM643 244q169 0 219 151q23 73 23 301t-23 301
q-24 72 -79.5 112t-139.5 40t-139.5 -40t-79.5 -112q-23 -73 -23 -301t23 -301q50 -151 219 -151zM535 1559l-109 114q-35 35 -35 90q0 45 32.5 74t76.5 29q54 0 94 -43l100 -113q39 -42 39 -96q0 -42 -30.5 -71.5t-71.5 -29.5q-56 0 -96 46z" />
    <glyph glyph-name="Oacute" unicode="&#xd3;" horiz-adv-x="1286" 
d="M643 -23q-187 0 -320.5 86t-187.5 252q-23 74 -31 150.5t-8 230.5t8 230.5t31 150.5q54 166 187.5 252t320.5 86t320.5 -86t187.5 -252q23 -74 31 -150.5t8 -230.5t-8 -230.5t-31 -150.5q-54 -166 -187.5 -252t-320.5 -86zM643 244q169 0 219 151q23 73 23 301t-23 301
q-24 72 -79.5 112t-139.5 40t-139.5 -40t-79.5 -112q-23 -73 -23 -301t23 -301q50 -151 219 -151zM745 1559q-40 -46 -96 -46q-41 0 -71.5 29.5t-30.5 71.5q0 54 35 92l104 117q40 43 94 43q44 0 76.5 -29t32.5 -74q0 -55 -35 -90z" />
    <glyph glyph-name="Ocircumflex" unicode="&#xd4;" horiz-adv-x="1286" 
d="M643 -23q-187 0 -320.5 86t-187.5 252q-23 74 -31 150.5t-8 230.5t8 230.5t31 150.5q54 166 187.5 252t320.5 86t320.5 -86t187.5 -252q23 -74 31 -150.5t8 -230.5t-8 -230.5t-31 -150.5q-54 -166 -187.5 -252t-320.5 -86zM643 244q169 0 219 151q23 73 23 301t-23 301
q-24 72 -79.5 112t-139.5 40t-139.5 -40t-79.5 -112q-23 -73 -23 -301t23 -301q50 -151 219 -151zM846 1505q-43 0 -80 37l-121 117h-4l-121 -117q-37 -37 -80 -37q-35 0 -60.5 23t-25.5 59q0 34 25 62l131 151q32 37 62.5 55.5t70.5 18.5t70.5 -18.5t62.5 -55.5l131 -151
q25 -28 25 -62q0 -36 -25.5 -59t-60.5 -23z" />
    <glyph glyph-name="Otilde" unicode="&#xd5;" horiz-adv-x="1286" 
d="M643 -23q-187 0 -320.5 86t-187.5 252q-23 74 -31 150.5t-8 230.5t8 230.5t31 150.5q54 166 187.5 252t320.5 86t320.5 -86t187.5 -252q23 -74 31 -150.5t8 -230.5t-8 -230.5t-31 -150.5q-54 -166 -187.5 -252t-320.5 -86zM643 244q169 0 219 151q23 73 23 301t-23 301
q-24 72 -79.5 112t-139.5 40t-139.5 -40t-79.5 -112q-23 -73 -23 -301t23 -301q50 -151 219 -151zM766 1532q-71 0 -143 45q-57 35 -88 35q-20 0 -33.5 -7t-34.5 -26q-38 -33 -74 -33q-38 0 -63 24.5t-25 61.5q0 40 29 80q83 103 186 103q71 0 144 -46q55 -34 88 -34
q20 0 33 6.5t34 25.5q38 33 74 33q38 0 63 -24.5t25 -61.5q0 -40 -29 -80q-82 -102 -186 -102z" />
    <glyph glyph-name="Odieresis" unicode="&#xd6;" horiz-adv-x="1286" 
d="M643 -23q-187 0 -320.5 86t-187.5 252q-23 74 -31 150.5t-8 230.5t8 230.5t31 150.5q54 166 187.5 252t320.5 86t320.5 -86t187.5 -252q23 -74 31 -150.5t8 -230.5t-8 -230.5t-31 -150.5q-54 -166 -187.5 -252t-320.5 -86zM643 244q169 0 219 151q23 73 23 301t-23 301
q-24 72 -79.5 112t-139.5 40t-139.5 -40t-79.5 -112q-23 -73 -23 -301t23 -301q50 -151 219 -151zM850 1532q-62 0 -105 42t-43 103t43 103.5t105 42.5q60 0 102.5 -42.5t42.5 -103.5t-42.5 -103t-102.5 -42zM438 1532q-62 0 -104.5 42t-42.5 103t42.5 103.5t104.5 42.5
q60 0 103 -42.5t43 -103.5t-43 -103t-103 -42z" />
    <glyph glyph-name="multiply" unicode="&#xd7;" 
d="M918 383q45 -45 45 -94t-32 -83t-83 -34t-96 45l-174 174q-8 11 -17 0l-172 -172q-45 -45 -96 -45t-83 34t-32 83q0 46 45 94l172 172q11 8 0 16l-174 175q-45 45 -45 94t32 82.5t83 33.5t96 -45l174 -174q9 -11 17 0l172 172q45 45 96 45t83 -33.5t32 -82.5
q0 -46 -46 -95l-172 -172q-11 -8 0 -16z" />
    <glyph glyph-name="Oslash" unicode="&#xd8;" horiz-adv-x="1286" 
d="M291 -27q-27 -47 -76 -47q-33 0 -56.5 22t-23.5 58q0 25 17 53l63 103q-55 72 -80 153q-23 74 -31 150.5t-8 230.5t8 230.5t31 150.5q54 166 187.5 252t320.5 86q175 0 303 -76l49 80q27 47 76 47q33 0 56.5 -22t23.5 -58q0 -26 -16 -53l-64 -104q49 -64 80 -152
q23 -74 31 -150.5t8 -230.5t-8 -230.5t-31 -150.5q-54 -166 -187.5 -252t-320.5 -86q-176 0 -303 74zM397 696q0 -163 9 -237l389 645q-59 47 -152 47q-85 0 -142 -40t-81 -112q-23 -73 -23 -303zM643 242q85 0 142 39.5t81 111.5q23 73 23 303q0 169 -8 234l-387 -643
q57 -45 149 -45z" />
    <glyph glyph-name="Ugrave" unicode="&#xd9;" horiz-adv-x="1320" 
d="M662 -23q-248 0 -391.5 140t-143.5 397v731q0 71 42.5 115.5t109.5 44.5q65 0 107 -44.5t42 -115.5v-741q0 -122 65.5 -191t168.5 -69q106 0 168.5 68.5t62.5 191.5v741q0 71 42 115.5t107 44.5q67 0 109.5 -44.5t42.5 -115.5v-731q0 -255 -145.5 -396t-386.5 -141z
M561 1559l-108 114q-35 35 -35 90q0 45 32 74t76 29q55 0 95 -43l100 -113q39 -42 39 -96q0 -42 -31 -71.5t-72 -29.5q-56 0 -96 46z" />
    <glyph glyph-name="Uacute" unicode="&#xda;" horiz-adv-x="1320" 
d="M662 -23q-248 0 -391.5 140t-143.5 397v731q0 71 42.5 115.5t109.5 44.5q65 0 107 -44.5t42 -115.5v-741q0 -122 65.5 -191t168.5 -69q106 0 168.5 68.5t62.5 191.5v741q0 71 42 115.5t107 44.5q67 0 109.5 -44.5t42.5 -115.5v-731q0 -255 -145.5 -396t-386.5 -141z
M756 1559q-40 -46 -97 -46q-41 0 -71.5 29.5t-30.5 71.5q0 54 35 92l104 117q40 43 95 43q44 0 76 -29t32 -74q0 -55 -35 -90z" />
    <glyph glyph-name="Ucircumflex" unicode="&#xdb;" horiz-adv-x="1320" 
d="M662 -23q-248 0 -391.5 140t-143.5 397v731q0 71 42.5 115.5t109.5 44.5q65 0 107 -44.5t42 -115.5v-741q0 -122 65.5 -191t168.5 -69q106 0 168.5 68.5t62.5 191.5v741q0 71 42 115.5t107 44.5q67 0 109.5 -44.5t42.5 -115.5v-731q0 -255 -145.5 -396t-386.5 -141z
M862 1505q-43 0 -80 37l-120 117h-5l-120 -117q-37 -37 -80 -37q-35 0 -60.5 23t-25.5 59q0 35 24 62l131 151q32 37 62.5 55.5t70.5 18.5q70 0 134 -74l131 -151q24 -27 24 -62q0 -36 -25.5 -59t-60.5 -23z" />
    <glyph glyph-name="Udieresis" unicode="&#xdc;" horiz-adv-x="1320" 
d="M662 -23q-248 0 -391.5 140t-143.5 397v731q0 71 42.5 115.5t109.5 44.5q65 0 107 -44.5t42 -115.5v-741q0 -122 65.5 -191t168.5 -69q106 0 168.5 68.5t62.5 191.5v741q0 71 42 115.5t107 44.5q67 0 109.5 -44.5t42.5 -115.5v-731q0 -255 -145.5 -396t-386.5 -141z
M866 1532q-62 0 -104.5 42t-42.5 103t42.5 103.5t104.5 42.5q60 0 103 -42.5t43 -103.5t-43 -103t-103 -42zM455 1532q-62 0 -105 42t-43 103t43 103.5t105 42.5q60 0 102.5 -42.5t42.5 -103.5t-42.5 -103t-102.5 -42z" />
    <glyph glyph-name="Yacute" unicode="&#xdd;" horiz-adv-x="1161" 
d="M580 -12q-65 0 -107.5 43.5t-42.5 115.5v406l-356 635q-23 44 -23 82q0 58 41 96.5t101 38.5q84 0 133 -90l254 -477h6l256 477q47 90 133 90q60 0 98.5 -38t38.5 -97q0 -40 -22 -82l-359 -635v-406q0 -73 -42 -116t-109 -43zM678 1559q-40 -46 -96 -46q-41 0 -72 29.5
t-31 71.5q0 54 35 92l104 117q40 43 95 43q44 0 76 -29t32 -74q0 -55 -35 -90z" />
    <glyph glyph-name="Thorn" unicode="&#xde;" horiz-adv-x="1239" 
d="M285 -12q-67 0 -109.5 44t-42.5 115v1098q0 71 42.5 115.5t109.5 44.5q65 0 107 -44.5t42 -115.5v-61q0 -13 12 -13h248q226 0 356 -123t130 -325q0 -201 -131 -324t-355 -123h-248q-12 0 -12 -12v-117q0 -71 -42 -115t-107 -44zM676 537q95 0 149 50t54 136t-54.5 137
t-148.5 51h-230q-12 0 -12 -12v-350q0 -12 12 -12h230z" />
    <glyph glyph-name="germandbls" unicode="&#xdf;" horiz-adv-x="1150" 
d="M664 -8q-58 0 -90.5 32t-32.5 85q0 51 32 81.5t89 38.5q87 13 106 82q12 40 12 154q0 118 -18 174q-23 76 -113 76q-59 0 -93 32t-34 84q0 55 34 87t93 32q113 0 113 113q0 115 -164 115q-95 0 -138.5 -42.5t-43.5 -136.5v-860q0 -69 -40.5 -110t-103.5 -41
q-64 0 -103.5 40.5t-39.5 110.5v854q0 422 465 422q217 0 336 -89.5t119 -252.5q0 -149 -117 -231v-4q74 -39 108 -140q27 -86 27 -237q0 -167 -29 -256q-35 -109 -125 -161t-249 -52z" />
    <glyph glyph-name="agrave" unicode="&#xe0;" horiz-adv-x="1081" 
d="M1006 205q24 -41 24 -84q0 -57 -41.5 -95t-101.5 -38q-77 0 -117 55l-25 35h-2q-38 -47 -113 -74t-167 -27q-187 0 -282 80t-95 224q0 159 109.5 239t300.5 80h178q12 0 12 12v11q0 70 -51 108.5t-152 38.5q-82 0 -159 -29q-44 -14 -68 -14q-51 0 -83 31.5t-32 83.5
q0 76 74 114q116 58 303 58q220 0 331.5 -105t111.5 -295v-270q0 -62 18 -94zM502 193q184 0 184 137v67q0 13 -12 13h-139q-177 0 -177 -113q0 -104 144 -104zM561 1106q-57 0 -96 51l-90 121q-27 39 -27 82q0 44 33 74t76 30q59 0 96 -49l88 -125q27 -42 27 -84
q0 -45 -31 -72.5t-76 -27.5z" />
    <glyph glyph-name="aacute" unicode="&#xe1;" horiz-adv-x="1081" 
d="M1006 205q24 -41 24 -84q0 -57 -41.5 -95t-101.5 -38q-77 0 -117 55l-25 35h-2q-38 -47 -113 -74t-167 -27q-187 0 -282 80t-95 224q0 159 109.5 239t300.5 80h178q12 0 12 12v11q0 70 -51 108.5t-152 38.5q-82 0 -159 -29q-44 -14 -68 -14q-51 0 -83 31.5t-32 83.5
q0 76 74 114q116 58 303 58q220 0 331.5 -105t111.5 -295v-270q0 -62 18 -94zM502 193q184 0 184 137v67q0 13 -12 13h-139q-177 0 -177 -113q0 -104 144 -104zM641 1157q-39 -51 -96 -51q-45 0 -76 27.5t-31 72.5q0 42 27 84l88 125q37 49 96 49q43 0 76 -30t33 -74
q0 -43 -27 -82z" />
    <glyph glyph-name="acircumflex" unicode="&#xe2;" horiz-adv-x="1081" 
d="M1006 205q24 -41 24 -84q0 -57 -41.5 -95t-101.5 -38q-77 0 -117 55l-25 35h-2q-38 -47 -113 -74t-167 -27q-187 0 -282 80t-95 224q0 159 109.5 239t300.5 80h178q12 0 12 12v11q0 70 -51 108.5t-152 38.5q-82 0 -159 -29q-44 -14 -68 -14q-51 0 -83 31.5t-32 83.5
q0 76 74 114q116 58 303 58q220 0 331.5 -105t111.5 -295v-270q0 -62 18 -94zM502 193q184 0 184 137v67q0 13 -12 13h-139q-177 0 -177 -113q0 -104 144 -104zM743 1102q-42 0 -79 37l-121 116h-4l-121 -116q-37 -37 -80 -37q-35 0 -60.5 23t-25.5 59q0 34 24 61l132 152
q63 73 133 73t133 -73l131 -152q24 -27 24 -61q0 -36 -25.5 -59t-60.5 -23z" />
    <glyph glyph-name="atilde" unicode="&#xe3;" horiz-adv-x="1081" 
d="M1006 205q24 -41 24 -84q0 -57 -41.5 -95t-101.5 -38q-77 0 -117 55l-25 35h-2q-38 -47 -113 -74t-167 -27q-187 0 -282 80t-95 224q0 159 109.5 239t300.5 80h178q12 0 12 12v11q0 70 -51 108.5t-152 38.5q-82 0 -159 -29q-44 -14 -68 -14q-51 0 -83 31.5t-32 83.5
q0 76 74 114q116 58 303 58q220 0 331.5 -105t111.5 -295v-270q0 -62 18 -94zM502 193q184 0 184 137v67q0 13 -12 13h-139q-177 0 -177 -113q0 -104 144 -104zM662 1133q-72 0 -144 45q-55 34 -88 34q-20 0 -34 -6.5t-34 -25.5q-38 -33 -73 -33q-38 0 -63 24.5t-25 61.5
q0 41 28 80q82 102 187 102q71 0 143 -45q57 -35 88 -35q20 0 33.5 7t34.5 26q38 33 73 33q38 0 63.5 -24.5t25.5 -61.5q0 -40 -29 -80q-82 -102 -186 -102z" />
    <glyph glyph-name="adieresis" unicode="&#xe4;" horiz-adv-x="1081" 
d="M1006 205q24 -41 24 -84q0 -57 -41.5 -95t-101.5 -38q-77 0 -117 55l-25 35h-2q-38 -47 -113 -74t-167 -27q-187 0 -282 80t-95 224q0 159 109.5 239t300.5 80h178q12 0 12 12v11q0 70 -51 108.5t-152 38.5q-82 0 -159 -29q-44 -14 -68 -14q-51 0 -83 31.5t-32 83.5
q0 76 74 114q116 58 303 58q220 0 331.5 -105t111.5 -295v-270q0 -62 18 -94zM502 193q184 0 184 137v67q0 13 -12 13h-139q-177 0 -177 -113q0 -104 144 -104zM748 1112q-62 0 -105 43t-43 105q0 60 43.5 102.5t104.5 42.5q60 0 102.5 -42.5t42.5 -102.5
q0 -61 -42.5 -104.5t-102.5 -43.5zM336 1112q-62 0 -105 43t-43 105q0 60 43.5 102.5t104.5 42.5q60 0 102.5 -42.5t42.5 -102.5q0 -61 -42.5 -104.5t-102.5 -43.5z" />
    <glyph glyph-name="aring" unicode="&#xe5;" horiz-adv-x="1081" 
d="M1006 205q24 -41 24 -84q0 -57 -41.5 -95t-101.5 -38q-77 0 -117 55l-25 35h-2q-38 -47 -113 -74t-167 -27q-187 0 -282 80t-95 224q0 159 109.5 239t300.5 80h178q12 0 12 12v11q0 70 -51 108.5t-152 38.5q-82 0 -159 -29q-44 -14 -68 -14q-51 0 -83 31.5t-32 83.5
q0 76 74 114q116 58 303 58q220 0 331.5 -105t111.5 -295v-270q0 -62 18 -94zM502 193q184 0 184 137v67q0 13 -12 13h-139q-177 0 -177 -113q0 -104 144 -104zM545 1073q-95 0 -158 62t-63 157t63 157t158 62t158 -62t63 -157t-63 -157t-158 -62zM545 1194q41 0 67.5 27.5
t26.5 70.5t-26.5 71t-67.5 28t-67.5 -28t-26.5 -71t26.5 -70.5t67.5 -27.5z" />
    <glyph glyph-name="ae" unicode="&#xe6;" horiz-adv-x="1671" 
d="M1147 -23q-221 0 -342 121h-2q-70 -68 -147.5 -94.5t-192.5 -26.5q-187 0 -282 80t-95 224q0 159 109.5 239t300.5 80h178q12 0 12 12v11q0 70 -51 108.5t-152 38.5q-82 0 -159 -29q-44 -14 -68 -14q-51 0 -83 31.5t-32 83.5q0 76 74 114q116 58 303 58q207 0 316 -92h2
q114 92 294 92q163 0 274.5 -73t154.5 -206q32 -97 32 -231q0 -42 -25 -68t-69 -26h-526q-13 0 -13 -13q0 -24 11 -57q20 -62 74 -95.5t131 -33.5q93 0 186 51q54 31 98 31t74.5 -30.5t30.5 -76.5q0 -63 -58 -102q-152 -107 -358 -107zM971 600h325q13 0 13 12q0 37 -11 74
q-17 52 -60 80.5t-105 28.5t-104.5 -28.5t-59.5 -80.5q-11 -37 -11 -74q0 -12 13 -12zM502 193q184 0 184 137v67q0 13 -12 13h-139q-177 0 -177 -113q0 -104 144 -104z" />
    <glyph glyph-name="ccedilla" unicode="&#xe7;" horiz-adv-x="976" 
d="M535 -283q-23 -79 -105 -79q-47 0 -82 27.5t-35 74.5q0 22 11 51l75 203q-106 25 -179.5 92.5t-106.5 173.5q-33 97 -33 236q0 138 33 235q44 137 154 210t268 73q99 0 180.5 -30t130.5 -79q57 -57 57 -114q0 -54 -35.5 -88.5t-89.5 -34.5q-51 0 -116 59q-48 45 -123 45
q-116 0 -150 -108q-18 -58 -18 -168t18 -168q34 -109 150 -109q75 0 123 45q66 60 116 60q54 0 89.5 -34.5t35.5 -88.5q0 -58 -57 -115q-79 -79 -219 -100z" />
    <glyph glyph-name="egrave" unicode="&#xe8;" horiz-adv-x="1079" 
d="M555 -23q-170 0 -284.5 74t-157.5 209q-33 101 -33 236q0 142 31 237q44 134 156.5 207.5t271.5 73.5q163 0 274 -73t154 -206q32 -97 32 -231q0 -42 -25 -68t-69 -26h-526q-12 0 -12 -13q0 -27 10 -57q20 -62 74 -95.5t131 -33.5q93 0 186 51q54 31 98 31t74.5 -30.5
t30.5 -76.5q0 -63 -58 -102q-152 -107 -358 -107zM379 600h326q12 0 12 12q0 41 -10 74q-17 52 -60.5 80.5t-105.5 28.5t-104.5 -28.5t-59.5 -80.5q-10 -33 -10 -74q0 -12 12 -12zM541 1106q-58 0 -97 51l-90 121q-26 38 -26 82t32.5 74t75.5 30q59 0 96 -49l89 -125
q26 -40 26 -84q0 -45 -30.5 -72.5t-75.5 -27.5z" />
    <glyph glyph-name="eacute" unicode="&#xe9;" horiz-adv-x="1079" 
d="M555 -23q-170 0 -284.5 74t-157.5 209q-33 101 -33 236q0 142 31 237q44 134 156.5 207.5t271.5 73.5q163 0 274 -73t154 -206q32 -97 32 -231q0 -42 -25 -68t-69 -26h-526q-12 0 -12 -13q0 -27 10 -57q20 -62 74 -95.5t131 -33.5q93 0 186 51q54 31 98 31t74.5 -30.5
t30.5 -76.5q0 -63 -58 -102q-152 -107 -358 -107zM379 600h326q12 0 12 12q0 41 -10 74q-17 52 -60.5 80.5t-105.5 28.5t-104.5 -28.5t-59.5 -80.5q-10 -33 -10 -74q0 -12 12 -12zM625 1157q-39 -51 -97 -51q-45 0 -75.5 27.5t-30.5 72.5q0 42 27 84l88 125q37 49 96 49
q43 0 75.5 -30t32.5 -74t-26 -82z" />
    <glyph glyph-name="ecircumflex" unicode="&#xea;" horiz-adv-x="1079" 
d="M555 -23q-170 0 -284.5 74t-157.5 209q-33 101 -33 236q0 142 31 237q44 134 156.5 207.5t271.5 73.5q163 0 274 -73t154 -206q32 -97 32 -231q0 -42 -25 -68t-69 -26h-526q-12 0 -12 -13q0 -27 10 -57q20 -62 74 -95.5t131 -33.5q93 0 186 51q54 31 98 31t74.5 -30.5
t30.5 -76.5q0 -63 -58 -102q-152 -107 -358 -107zM379 600h326q12 0 12 12q0 41 -10 74q-17 52 -60.5 80.5t-105.5 28.5t-104.5 -28.5t-59.5 -80.5q-10 -33 -10 -74q0 -12 12 -12zM743 1102q-42 0 -79 37l-121 116h-4l-121 -116q-37 -37 -80 -37q-35 0 -60.5 23t-25.5 59
q0 34 24 61l132 152q63 73 133 73t133 -73l131 -152q24 -27 24 -61q0 -36 -25.5 -59t-60.5 -23z" />
    <glyph glyph-name="edieresis" unicode="&#xeb;" horiz-adv-x="1079" 
d="M555 -23q-170 0 -284.5 74t-157.5 209q-33 101 -33 236q0 142 31 237q44 134 156.5 207.5t271.5 73.5q163 0 274 -73t154 -206q32 -97 32 -231q0 -42 -25 -68t-69 -26h-526q-12 0 -12 -13q0 -27 10 -57q20 -62 74 -95.5t131 -33.5q93 0 186 51q54 31 98 31t74.5 -30.5
t30.5 -76.5q0 -63 -58 -102q-152 -107 -358 -107zM379 600h326q12 0 12 12q0 41 -10 74q-17 52 -60.5 80.5t-105.5 28.5t-104.5 -28.5t-59.5 -80.5q-10 -33 -10 -74q0 -12 12 -12zM748 1112q-62 0 -105 43t-43 105q0 60 43.5 102.5t104.5 42.5q60 0 102.5 -42.5t42.5 -102.5
q0 -61 -42.5 -104.5t-102.5 -43.5zM336 1112q-62 0 -105 43t-43 105q0 60 43.5 102.5t104.5 42.5q60 0 102.5 -42.5t42.5 -102.5q0 -61 -42.5 -104.5t-102.5 -43.5z" />
    <glyph glyph-name="igrave" unicode="&#xec;" horiz-adv-x="544" 
d="M272 -12q-64 0 -103.5 40.5t-39.5 110.5v713q0 70 39.5 111t103.5 41q63 0 103.5 -41.5t40.5 -110.5v-713q0 -69 -40.5 -110t-103.5 -41zM254 1106q-57 0 -96 51l-90 121q-27 39 -27 82q0 44 33 74t76 30q59 0 96 -49l88 -125q26 -40 26 -84q0 -45 -30.5 -72.5
t-75.5 -27.5z" />
    <glyph glyph-name="iacute" unicode="&#xed;" horiz-adv-x="544" 
d="M272 -12q-64 0 -103.5 40.5t-39.5 110.5v713q0 70 39.5 111t103.5 41q63 0 103.5 -41.5t40.5 -110.5v-713q0 -69 -40.5 -110t-103.5 -41zM387 1157q-39 -51 -96 -51q-45 0 -76 27.5t-31 72.5q0 42 27 84l88 125q37 49 96 49q43 0 76 -30t33 -74q0 -43 -27 -82z" />
    <glyph glyph-name="icircumflex" unicode="&#xee;" horiz-adv-x="544" 
d="M272 -12q-64 0 -103.5 40.5t-39.5 110.5v713q0 70 39.5 111t103.5 41q63 0 103.5 -41.5t40.5 -110.5v-713q0 -69 -40.5 -110t-103.5 -41zM475 1102q-43 0 -80 37l-121 116h-4l-120 -116q-37 -37 -80 -37q-35 0 -60.5 23t-25.5 59q0 34 24 61l131 152q63 73 133 73
q71 0 134 -73l131 -152q24 -27 24 -61q0 -36 -25.5 -59t-60.5 -23z" />
    <glyph glyph-name="idieresis" unicode="&#xef;" horiz-adv-x="544" 
d="M272 -12q-64 0 -103.5 40.5t-39.5 110.5v713q0 70 39.5 111t103.5 41q63 0 103.5 -41.5t40.5 -110.5v-713q0 -69 -40.5 -110t-103.5 -41zM479 1112q-61 0 -104 43t-43 105q0 60 43 102.5t104 42.5q60 0 103 -42.5t43 -102.5q0 -61 -43 -104.5t-103 -43.5zM68 1112
q-62 0 -105 43t-43 105q0 60 43.5 102.5t104.5 42.5q60 0 102.5 -42.5t42.5 -102.5q0 -61 -42.5 -104.5t-102.5 -43.5z" />
    <glyph glyph-name="eth" unicode="&#xf0;" horiz-adv-x="1085" 
d="M811 1145l-80 -25l37 -47q238 -316 238 -581q0 -141 -29 -232q-43 -133 -158.5 -208t-275.5 -75q-164 0 -277 74t-155 203q-29 91 -29 201q0 109 29 204q40 122 131.5 192.5t216.5 70.5q82 0 133 -33h4l-121 158l-139 -41q-21 -7 -37 -7q-39 0 -63.5 26t-24.5 65
q0 31 19.5 55.5t56.5 34.5l71 20q-28 44 -28 80q0 54 34.5 89.5t92.5 35.5q37 0 60.5 -16t51.5 -52l45 -61l148 43q18 6 37 6q39 0 63.5 -26.5t24.5 -65.5q0 -30 -19.5 -54t-56.5 -34zM543 219q119 0 155 107q19 62 19 129q0 69 -19 131q-36 106 -155 106q-118 0 -154 -106
q-18 -58 -18 -131q0 -71 18 -129q36 -107 154 -107z" />
    <glyph glyph-name="ntilde" unicode="&#xf1;" horiz-adv-x="1132" 
d="M868 -12q-63 0 -103 41t-40 110v451q0 83 -40.5 131.5t-115.5 48.5t-114 -48t-39 -132v-451q0 -69 -40.5 -110t-103.5 -41q-64 0 -103.5 40.5t-39.5 110.5v713q0 70 39.5 111t103.5 41q52 0 89 -28t49 -77h2q89 115 262 115q160 0 249 -101.5t89 -267.5v-506
q0 -69 -40 -110t-104 -41zM688 1133q-71 0 -143 45q-55 34 -88 34q-20 0 -34 -6.5t-34 -25.5q-38 -33 -74 -33q-38 0 -63 24.5t-25 61.5q0 40 29 80q82 102 186 102q72 0 144 -45q57 -35 88 -35q20 0 33 7t34 26q38 33 74 33q38 0 63 -24.5t25 -61.5q0 -40 -29 -80
q-82 -102 -186 -102z" />
    <glyph glyph-name="ograve" unicode="&#xf2;" horiz-adv-x="1085" 
d="M543 -23q-162 0 -274 74t-156 211q-33 103 -33 234q0 130 33 233q44 137 156 211t274 74t274 -74t156 -211q33 -103 33 -233q0 -131 -33 -234q-44 -137 -156 -211t-274 -74zM543 219q117 0 153 111q19 58 19 166t-19 166q-36 110 -153 110q-118 0 -154 -110
q-18 -55 -18 -166t18 -166q36 -111 154 -111zM530 1106q-57 0 -96 51l-90 121q-27 39 -27 82q0 44 33 74t76 30q59 0 96 -49l88 -125q27 -42 27 -84q0 -45 -31 -72.5t-76 -27.5z" />
    <glyph glyph-name="oacute" unicode="&#xf3;" horiz-adv-x="1085" 
d="M543 -23q-162 0 -274 74t-156 211q-33 103 -33 234q0 130 33 233q44 137 156 211t274 74t274 -74t156 -211q33 -103 33 -233q0 -131 -33 -234q-44 -137 -156 -211t-274 -74zM543 219q117 0 153 111q19 58 19 166t-19 166q-36 110 -153 110q-118 0 -154 -110
q-18 -55 -18 -166t18 -166q36 -111 154 -111zM651 1157q-39 -51 -96 -51q-45 0 -75.5 27.5t-30.5 72.5q0 44 26 84l88 125q37 49 96 49q43 0 76 -30t33 -74q0 -43 -27 -82z" />
    <glyph glyph-name="ocircumflex" unicode="&#xf4;" horiz-adv-x="1085" 
d="M543 -23q-162 0 -274 74t-156 211q-33 103 -33 234q0 130 33 233q44 137 156 211t274 74t274 -74t156 -211q33 -103 33 -233q0 -131 -33 -234q-44 -137 -156 -211t-274 -74zM543 219q117 0 153 111q19 58 19 166t-19 166q-36 110 -153 110q-118 0 -154 -110
q-18 -55 -18 -166t18 -166q36 -111 154 -111zM745 1102q-42 0 -79 37l-121 116h-4l-121 -116q-37 -37 -80 -37q-35 0 -60.5 23t-25.5 59q0 33 25 61l131 152q63 73 133 73t133 -73l131 -152q24 -27 24 -61q0 -36 -25.5 -59t-60.5 -23z" />
    <glyph glyph-name="otilde" unicode="&#xf5;" horiz-adv-x="1085" 
d="M543 -23q-162 0 -274 74t-156 211q-33 103 -33 234q0 130 33 233q44 137 156 211t274 74t274 -74t156 -211q33 -103 33 -233q0 -131 -33 -234q-44 -137 -156 -211t-274 -74zM543 219q117 0 153 111q19 58 19 166t-19 166q-36 110 -153 110q-118 0 -154 -110
q-18 -55 -18 -166t18 -166q36 -111 154 -111zM666 1133q-72 0 -144 45q-55 34 -88 34q-20 0 -33 -6.5t-34 -25.5q-38 -33 -74 -33q-38 0 -63 24.5t-25 61.5q0 41 28 80q82 102 187 102q71 0 143 -45q57 -35 88 -35q20 0 33.5 7t34.5 26q38 33 74 33q38 0 63 -24.5t25 -61.5
q0 -40 -29 -80q-82 -102 -186 -102z" />
    <glyph glyph-name="odieresis" unicode="&#xf6;" horiz-adv-x="1085" 
d="M543 -23q-162 0 -274 74t-156 211q-33 103 -33 234q0 130 33 233q44 137 156 211t274 74t274 -74t156 -211q33 -103 33 -233q0 -131 -33 -234q-44 -137 -156 -211t-274 -74zM543 219q117 0 153 111q19 58 19 166t-19 166q-36 110 -153 110q-118 0 -154 -110
q-18 -55 -18 -166t18 -166q36 -111 154 -111zM750 1112q-62 0 -105 43t-43 105q0 60 43.5 102.5t104.5 42.5q60 0 102.5 -42.5t42.5 -102.5q0 -61 -42.5 -104.5t-102.5 -43.5zM338 1112q-62 0 -105 43t-43 105q0 60 43.5 102.5t104.5 42.5q60 0 102.5 -42.5t42.5 -102.5
q0 -61 -42.5 -104.5t-102.5 -43.5z" />
    <glyph glyph-name="divide" unicode="&#xf7;" 
d="M571 793q-66 0 -110.5 45t-44.5 110t44.5 110.5t110.5 45.5q65 0 110.5 -46t45.5 -110t-45.5 -109.5t-110.5 -45.5zM915 444h-692q-59 0 -94 33t-35 88q0 53 35 87t94 34h692q59 0 94 -34t35 -87q0 -55 -35 -88t-94 -33zM571 27q-66 0 -110.5 45t-44.5 110t44.5 110.5
t110.5 45.5q65 0 110.5 -46t45.5 -110t-45.5 -109.5t-110.5 -45.5z" />
    <glyph glyph-name="oslash" unicode="&#xf8;" horiz-adv-x="1085" 
d="M172 -74q-24 0 -41.5 17t-17.5 41q0 25 18 49l62 84q-53 59 -80 145q-33 103 -33 234q0 130 33 233q44 137 156 211t274 74q145 0 250 -60l59 80q23 33 57 33q24 0 42 -16.5t18 -40.5t-19 -49l-61 -84q57 -64 84 -148q33 -103 33 -233q0 -131 -33 -234
q-44 -137 -156 -211t-274 -74q-150 0 -256 62l-58 -80q-23 -33 -57 -33zM367 496q0 -84 8 -136l266 385q-43 29 -98 29q-122 0 -158 -110q-18 -55 -18 -168zM543 217q121 0 157 111q19 58 19 168q0 71 -10 133l-265 -385q40 -27 99 -27z" />
    <glyph glyph-name="ugrave" unicode="&#xf9;" horiz-adv-x="1124" 
d="M852 -12q-52 0 -88.5 27.5t-48.5 76.5h-2q-89 -115 -262 -115q-160 0 -246 101t-86 268v506q0 69 40.5 110.5t104.5 41.5q63 0 102.5 -41.5t39.5 -110.5v-451q0 -84 38 -132t113 -48q74 0 113 48t39 132v451q0 70 39.5 111t103.5 41q63 0 103 -41.5t40 -110.5v-713
q0 -70 -39.5 -110.5t-103.5 -40.5zM555 1106q-57 0 -96 51l-90 121q-27 39 -27 82q0 44 33 74t76 30q59 0 96 -49l88 -125q27 -42 27 -84q0 -45 -31 -72.5t-76 -27.5z" />
    <glyph glyph-name="uacute" unicode="&#xfa;" horiz-adv-x="1124" 
d="M852 -12q-52 0 -88.5 27.5t-48.5 76.5h-2q-89 -115 -262 -115q-160 0 -246 101t-86 268v506q0 69 40.5 110.5t104.5 41.5q63 0 102.5 -41.5t39.5 -110.5v-451q0 -84 38 -132t113 -48q74 0 113 48t39 132v451q0 70 39.5 111t103.5 41q63 0 103 -41.5t40 -110.5v-713
q0 -70 -39.5 -110.5t-103.5 -40.5zM662 1157q-39 -51 -97 -51q-45 0 -75.5 27.5t-30.5 72.5q0 44 26 84l88 125q37 49 97 49q43 0 75.5 -30t32.5 -74t-26 -82z" />
    <glyph glyph-name="ucircumflex" unicode="&#xfb;" horiz-adv-x="1124" 
d="M852 -12q-52 0 -88.5 27.5t-48.5 76.5h-2q-89 -115 -262 -115q-160 0 -246 101t-86 268v506q0 69 40.5 110.5t104.5 41.5q63 0 102.5 -41.5t39.5 -110.5v-451q0 -84 38 -132t113 -48q74 0 113 48t39 132v451q0 70 39.5 111t103.5 41q63 0 103 -41.5t40 -110.5v-713
q0 -70 -39.5 -110.5t-103.5 -40.5zM764 1102q-43 0 -80 37l-121 116h-4l-121 -116q-37 -37 -80 -37q-35 0 -60.5 23t-25.5 59q0 33 25 61l131 152q63 73 133 73t133 -73l131 -152q25 -28 25 -61q0 -36 -25.5 -59t-60.5 -23z" />
    <glyph glyph-name="udieresis" unicode="&#xfc;" horiz-adv-x="1124" 
d="M852 -12q-52 0 -88.5 27.5t-48.5 76.5h-2q-89 -115 -262 -115q-160 0 -246 101t-86 268v506q0 69 40.5 110.5t104.5 41.5q63 0 102.5 -41.5t39.5 -110.5v-451q0 -84 38 -132t113 -48q74 0 113 48t39 132v451q0 70 39.5 111t103.5 41q63 0 103 -41.5t40 -110.5v-713
q0 -70 -39.5 -110.5t-103.5 -40.5zM768 1112q-61 0 -104 43t-43 105q0 60 43 102.5t104 42.5q60 0 102.5 -42.5t42.5 -102.5q0 -61 -42.5 -104.5t-102.5 -43.5zM356 1112q-61 0 -104 43t-43 105q0 60 43 102.5t104 42.5q60 0 103 -42.5t43 -102.5q0 -61 -43 -104.5
t-103 -43.5z" />
    <glyph glyph-name="yacute" unicode="&#xfd;" horiz-adv-x="1038" 
d="M258 -369h-12q-61 0 -97 34t-36 87q0 55 35.5 88.5t97.5 34.5q46 2 74.5 24.5t46.5 75.5l26 74l-317 752q-15 37 -15 67q0 58 41 97t101 39q93 0 133 -101l190 -506h4l177 506q37 101 131 101q60 0 99.5 -38.5t39.5 -97.5q0 -32 -14 -67l-355 -887q-64 -161 -140 -222
t-210 -61zM631 1157q-39 -51 -96 -51q-45 0 -76 27.5t-31 72.5q0 42 27 84l88 125q37 49 96 49q43 0 76 -30t33 -74q0 -43 -27 -82z" />
    <glyph glyph-name="thorn" unicode="&#xfe;" horiz-adv-x="1128" 
d="M272 -381q-64 0 -103.5 41t-39.5 111v1482q0 70 39.5 111t103.5 41q63 0 103.5 -41.5t40.5 -110.5v-346h2q32 47 96.5 77t155.5 30q121 0 213.5 -67.5t130.5 -184.5q35 -104 35 -266q0 -163 -35 -267q-38 -117 -130.5 -184.5t-213.5 -67.5q-91 0 -155.5 30t-96.5 77h-2
v-313q0 -69 -40.5 -110.5t-103.5 -41.5zM586 219q115 0 153 115q19 59 19 162q0 102 -19 161q-38 115 -153 115q-114 0 -152 -115q-18 -55 -18 -161t18 -162q38 -115 152 -115z" />
    <glyph glyph-name="ydieresis" unicode="&#xff;" horiz-adv-x="1038" 
d="M258 -369h-12q-61 0 -97 34t-36 87q0 55 35.5 88.5t97.5 34.5q46 2 74.5 24.5t46.5 75.5l26 74l-317 752q-15 37 -15 67q0 58 41 97t101 39q93 0 133 -101l190 -506h4l177 506q37 101 131 101q60 0 99.5 -38.5t39.5 -97.5q0 -32 -14 -67l-355 -887q-64 -161 -140 -222
t-210 -61zM727 1112q-61 0 -104 43t-43 105q0 60 43 102.5t104 42.5q60 0 102.5 -42.5t42.5 -102.5q0 -61 -42.5 -104.5t-102.5 -43.5zM315 1112q-61 0 -104 43t-43 105q0 60 43 102.5t104 42.5q60 0 103 -42.5t43 -102.5q0 -61 -43 -104.5t-103 -43.5z" />
    <glyph glyph-name="Amacron" unicode="&#x100;" horiz-adv-x="1318" 
d="M68 129q0 30 10 57l377 1043q62 176 207 176q146 0 208 -176l371 -1043q10 -27 10 -57q0 -62 -43 -101.5t-102 -39.5q-50 0 -87 27.5t-54 78.5l-58 170h-497l-56 -170q-17 -51 -54 -78.5t-87 -27.5q-59 0 -102 39.5t-43 101.5zM496 520h327l-159 488h-7zM879 1575h-437
q-51 0 -79.5 28t-28.5 72q0 46 28.5 74.5t79.5 28.5h437q50 0 78 -28.5t28 -74.5q0 -44 -28 -72t-78 -28z" />
    <glyph glyph-name="amacron" unicode="&#x101;" horiz-adv-x="1081" 
d="M1006 205q24 -41 24 -84q0 -57 -41.5 -95t-101.5 -38q-77 0 -117 55l-25 35h-2q-38 -47 -113 -74t-167 -27q-187 0 -282 80t-95 224q0 159 109.5 239t300.5 80h178q12 0 12 12v11q0 70 -51 108.5t-152 38.5q-82 0 -159 -29q-44 -14 -68 -14q-51 0 -83 31.5t-32 83.5
q0 76 74 114q116 58 303 58q220 0 331.5 -105t111.5 -295v-270q0 -62 18 -94zM502 193q184 0 184 137v67q0 13 -12 13h-139q-177 0 -177 -113q0 -104 144 -104zM760 1178h-436q-51 0 -80 28t-29 72q0 45 29 73.5t80 28.5h436q50 0 78 -28.5t28 -73.5q0 -44 -28 -72t-78 -28z
" />
    <glyph glyph-name="Abreve" unicode="&#x102;" horiz-adv-x="1318" 
d="M68 129q0 30 10 57l377 1043q62 176 207 176q146 0 208 -176l371 -1043q10 -27 10 -57q0 -62 -43 -101.5t-102 -39.5q-50 0 -87 27.5t-54 78.5l-58 170h-497l-56 -170q-17 -51 -54 -78.5t-87 -27.5q-59 0 -102 39.5t-43 101.5zM496 520h327l-159 488h-7zM659 1522
q-129 0 -216 68.5t-87 166.5q0 37 21.5 59.5t56.5 22.5q32 0 49.5 -14.5t34.5 -46.5q41 -72 141 -72q101 0 142 72q17 32 34.5 46.5t49.5 14.5q35 0 56.5 -22.5t21.5 -59.5q0 -98 -87.5 -166.5t-216.5 -68.5z" />
    <glyph glyph-name="abreve" unicode="&#x103;" horiz-adv-x="1081" 
d="M1006 205q24 -41 24 -84q0 -57 -41.5 -95t-101.5 -38q-77 0 -117 55l-25 35h-2q-38 -47 -113 -74t-167 -27q-187 0 -282 80t-95 224q0 159 109.5 239t300.5 80h178q12 0 12 12v11q0 70 -51 108.5t-152 38.5q-82 0 -159 -29q-44 -14 -68 -14q-51 0 -83 31.5t-32 83.5
q0 76 74 114q116 58 303 58q220 0 331.5 -105t111.5 -295v-270q0 -62 18 -94zM502 193q184 0 184 137v67q0 13 -12 13h-139q-177 0 -177 -113q0 -104 144 -104zM539 1116q-129 0 -216 69t-87 167q0 37 21 59.5t56 22.5q32 0 49 -14.5t35 -47.5q41 -72 142 -72q100 0 141 72
q18 33 35 47.5t49 14.5q35 0 56.5 -22.5t21.5 -59.5q0 -98 -87 -167t-216 -69z" />
    <glyph glyph-name="Aogonek" unicode="&#x104;" horiz-adv-x="1318" 
d="M1059 -391q-100 0 -158.5 52.5t-58.5 141.5q0 70 38.5 134t106.5 110q-12 17 -22 47l-58 170h-497l-56 -170q-17 -51 -54 -78.5t-87 -27.5q-59 0 -102 39.5t-43 101.5q0 30 10 57l377 1043q62 176 207 176q146 0 208 -176l371 -1043q10 -33 10 -59q0 -57 -39 -96
q-92 -92 -119.5 -126.5t-27.5 -62.5q0 -37 33 -37q10 0 28 7q24 8 43 8q34 0 57 -25.5t23 -62.5q0 -61 -53 -90q-58 -33 -137 -33zM657 1008l-161 -488h327l-159 488h-7z" />
    <glyph glyph-name="aogonek" unicode="&#x105;" horiz-adv-x="1081" 
d="M813 -391q-100 0 -158.5 51.5t-58.5 140.5q0 137 178 236l-29 41h-2q-38 -47 -113 -74t-167 -27q-187 0 -282 80t-95 224q0 159 109.5 239t300.5 80h178q12 0 12 12v11q0 70 -51 108.5t-152 38.5q-82 0 -159 -29q-44 -14 -68 -14q-51 0 -83 31.5t-32 83.5q0 76 74 114
q116 58 303 58q220 0 331.5 -105t111.5 -295v-270q0 -62 18 -94l27 -45q24 -41 24 -84q0 -63 -49 -103q-93 -74 -127.5 -112t-34.5 -64q0 -37 33 -37q12 0 29 7q24 8 43 8q34 0 57 -25.5t23 -62.5q0 -61 -54 -90q-58 -33 -137 -33zM502 193q184 0 184 137v67q0 13 -12 13
h-139q-177 0 -177 -113q0 -104 144 -104z" />
    <glyph glyph-name="Cacute" unicode="&#x106;" horiz-adv-x="1177" 
d="M135 319q-23 72 -31 147t-8 230t8 230t31 147q55 168 184 255t314 87q151 0 264 -61.5t168 -159.5q27 -49 27 -90q0 -59 -40 -97t-98 -38q-77 0 -133 78q-40 54 -82 78t-106 24q-158 0 -209 -154q-13 -41 -18 -99.5t-5 -199.5t5 -199.5t18 -99.5q50 -153 209 -153
q64 0 106 24t82 78q56 78 133 78q58 0 98 -38t40 -97q0 -41 -27 -90q-55 -99 -168 -160.5t-264 -61.5q-185 0 -314 87t-184 255zM707 1559q-40 -46 -97 -46q-41 0 -71.5 29.5t-30.5 71.5q0 54 35 92l104 117q40 43 94 43q44 0 76.5 -29t32.5 -74q0 -55 -35 -90z" />
    <glyph glyph-name="cacute" unicode="&#x107;" horiz-adv-x="976" 
d="M535 -23q-158 0 -268 73t-154 210q-33 97 -33 236q0 138 33 235q44 137 154 210t268 73q99 0 180.5 -30t130.5 -79q57 -57 57 -114q0 -54 -35.5 -88.5t-89.5 -34.5q-51 0 -116 59q-48 45 -123 45q-116 0 -150 -108q-18 -58 -18 -168t18 -168q34 -109 150 -109
q75 0 123 45q66 60 116 60q54 0 89.5 -34.5t35.5 -88.5q0 -58 -57 -115q-49 -49 -130.5 -79t-180.5 -30zM625 1157q-39 -51 -97 -51q-45 0 -75.5 27.5t-30.5 72.5q0 42 27 84l88 125q37 49 96 49q43 0 75.5 -30t32.5 -74t-26 -82z" />
    <glyph glyph-name="Ccircumflex" unicode="&#x108;" horiz-adv-x="1177" 
d="M135 319q-23 72 -31 147t-8 230t8 230t31 147q55 168 184 255t314 87q151 0 264 -61.5t168 -159.5q27 -49 27 -90q0 -59 -40 -97t-98 -38q-77 0 -133 78q-40 54 -82 78t-106 24q-158 0 -209 -154q-13 -41 -18 -99.5t-5 -199.5t5 -199.5t18 -99.5q50 -153 209 -153
q64 0 106 24t82 78q56 78 133 78q58 0 98 -38t40 -97q0 -41 -27 -90q-55 -99 -168 -160.5t-264 -61.5q-185 0 -314 87t-184 255zM829 1505q-42 0 -79 37l-121 117h-4l-121 -117q-37 -37 -80 -37q-35 0 -60.5 23t-25.5 59q0 35 24 62l132 151q32 37 62.5 55.5t70.5 18.5
t70.5 -18.5t62.5 -55.5l131 -151q24 -27 24 -62q0 -36 -25.5 -59t-60.5 -23z" />
    <glyph glyph-name="ccircumflex" unicode="&#x109;" horiz-adv-x="976" 
d="M535 -23q-158 0 -268 73t-154 210q-33 97 -33 236q0 138 33 235q44 137 154 210t268 73q99 0 180.5 -30t130.5 -79q57 -57 57 -114q0 -54 -35.5 -88.5t-89.5 -34.5q-51 0 -116 59q-48 45 -123 45q-116 0 -150 -108q-18 -58 -18 -168t18 -168q34 -109 150 -109
q75 0 123 45q66 60 116 60q54 0 89.5 -34.5t35.5 -88.5q0 -58 -57 -115q-49 -49 -130.5 -79t-180.5 -30zM733 1102q-43 0 -80 37l-121 116h-4l-120 -116q-37 -37 -80 -37q-35 0 -60.5 23t-25.5 59q0 34 24 61l131 152q63 73 133 73q71 0 134 -73l131 -152q24 -27 24 -61
q0 -36 -25.5 -59t-60.5 -23z" />
    <glyph glyph-name="Cdotaccent" unicode="&#x10a;" horiz-adv-x="1177" 
d="M135 319q-23 72 -31 147t-8 230t8 230t31 147q55 168 184 255t314 87q151 0 264 -61.5t168 -159.5q27 -49 27 -90q0 -59 -40 -97t-98 -38q-77 0 -133 78q-40 54 -82 78t-106 24q-158 0 -209 -154q-13 -41 -18 -99.5t-5 -199.5t5 -199.5t18 -99.5q50 -153 209 -153
q64 0 106 24t82 78q56 78 133 78q58 0 98 -38t40 -97q0 -41 -27 -90q-55 -99 -168 -160.5t-264 -61.5q-185 0 -314 87t-184 255zM627 1509q-67 0 -114.5 47.5t-47.5 114.5t47.5 114.5t114.5 47.5t114 -47t47 -115t-47 -115t-114 -47z" />
    <glyph glyph-name="cdotaccent" unicode="&#x10b;" horiz-adv-x="976" 
d="M535 -23q-158 0 -268 73t-154 210q-33 97 -33 236q0 138 33 235q44 137 154 210t268 73q99 0 180.5 -30t130.5 -79q57 -57 57 -114q0 -54 -35.5 -88.5t-89.5 -34.5q-51 0 -116 59q-48 45 -123 45q-116 0 -150 -108q-18 -58 -18 -168t18 -168q34 -109 150 -109
q75 0 123 45q66 60 116 60q54 0 89.5 -34.5t35.5 -88.5q0 -58 -57 -115q-49 -49 -130.5 -79t-180.5 -30zM530 1092q-68 0 -114.5 47t-46.5 114q0 68 47 115t114 47q68 0 115 -47.5t47 -114.5t-47 -114t-115 -47z" />
    <glyph glyph-name="Ccaron" unicode="&#x10c;" horiz-adv-x="1177" 
d="M135 319q-23 72 -31 147t-8 230t8 230t31 147q55 168 184 255t314 87q151 0 264 -61.5t168 -159.5q27 -49 27 -90q0 -59 -40 -97t-98 -38q-77 0 -133 78q-40 54 -82 78t-106 24q-158 0 -209 -154q-13 -41 -18 -99.5t-5 -199.5t5 -199.5t18 -99.5q50 -153 209 -153
q64 0 106 24t82 78q56 78 133 78q58 0 98 -38t40 -97q0 -41 -27 -90q-55 -99 -168 -160.5t-264 -61.5q-185 0 -314 87t-184 255zM625 1489q-40 0 -70.5 18.5t-62.5 55.5l-132 151q-24 27 -24 62q0 36 25.5 59t60.5 23q43 0 80 -37l121 -117h4l121 117q37 37 79 37
q35 0 60.5 -23t25.5 -59q0 -35 -24 -62l-131 -151q-32 -37 -62.5 -55.5t-70.5 -18.5z" />
    <glyph glyph-name="ccaron" unicode="&#x10d;" horiz-adv-x="976" 
d="M535 -23q-158 0 -268 73t-154 210q-33 97 -33 236q0 138 33 235q44 137 154 210t268 73q99 0 180.5 -30t130.5 -79q57 -57 57 -114q0 -54 -35.5 -88.5t-89.5 -34.5q-51 0 -116 59q-48 45 -123 45q-116 0 -150 -108q-18 -58 -18 -168t18 -168q34 -109 150 -109
q75 0 123 45q66 60 116 60q54 0 89.5 -34.5t35.5 -88.5q0 -58 -57 -115q-49 -49 -130.5 -79t-180.5 -30zM528 1087q-40 0 -70.5 18.5t-62.5 55.5l-131 152q-24 27 -24 61q0 36 25.5 59t60.5 23q43 0 80 -37l120 -116h4l121 116q37 37 80 37q35 0 60.5 -23t25.5 -59
q0 -34 -24 -61l-131 -152q-64 -74 -134 -74z" />
    <glyph glyph-name="Dcaron" unicode="&#x10e;" horiz-adv-x="1286" 
d="M133 131v1129q0 61 35 97t96 36h330q227 0 363.5 -77t191.5 -245q41 -121 41 -375q0 -253 -41 -374q-55 -168 -191.5 -245t-363.5 -77h-330q-61 0 -96 35.5t-35 95.5zM434 281q0 -13 12 -13h140q224 0 274 158q25 84 25 270q0 187 -25 271q-50 157 -274 157h-140
q-12 0 -12 -12v-831zM604 1489q-40 0 -70.5 18.5t-62.5 55.5l-131 151q-25 28 -25 62q0 36 25.5 59t60.5 23q43 0 80 -37l121 -117h4l121 117q37 37 80 37q35 0 60.5 -23t25.5 -59q0 -34 -25 -62l-131 -151q-32 -37 -62.5 -55.5t-70.5 -18.5z" />
    <glyph glyph-name="dcaron" unicode="&#x10f;" horiz-adv-x="1128" 
d="M856 -12q-56 0 -90.5 30t-46.5 74h-2q-82 -115 -258 -115q-121 0 -213.5 67.5t-130.5 184.5q-35 104 -35 267q0 162 35 266q38 117 130.5 184.5t213.5 67.5q91 0 155.5 -30t96.5 -77h2v346q0 69 40 110.5t103 41.5q64 0 103.5 -41t39.5 -111v-1114q0 -70 -39.5 -110.5
t-103.5 -40.5zM543 219q113 0 151 115q19 59 19 162q0 102 -19 161q-38 115 -151 115q-116 0 -154 -115q-18 -55 -18 -161t18 -162q38 -115 154 -115zM1280 1108q-15 -46 -45 -71t-68 -25q-54 0 -87 30.5t-33 83.5q0 32 8 56l41 127q31 96 112 96q53 0 87 -31.5t34 -85.5
q0 -29 -8 -53z" />
    <glyph glyph-name="Dcroat" unicode="&#x110;" horiz-adv-x="1286" 
d="M594 0h-330q-61 0 -96 35.5t-35 95.5v449q0 12 -12 12h-10q-50 0 -80.5 30.5t-30.5 79.5q0 50 31 80.5t80 30.5h10q12 0 12 12v435q0 61 35 97t96 36h330q227 0 363.5 -77t191.5 -245q41 -121 41 -375q0 -253 -41 -374q-55 -168 -191.5 -245t-363.5 -77zM586 268
q224 0 274 158q25 84 25 270q0 187 -25 271q-50 157 -274 157h-137q-13 0 -13 -12v-287q0 -12 13 -12h92q52 0 84 -30.5t32 -80.5t-32 -80t-84 -30h-92q-13 0 -13 -12v-299q0 -13 13 -13h137z" />
    <glyph glyph-name="dcroat" unicode="&#x111;" horiz-adv-x="1128" 
d="M856 -12q-56 0 -90.5 30t-46.5 74h-2q-82 -115 -258 -115q-121 0 -213.5 67.5t-130.5 184.5q-35 104 -35 267q0 162 35 266q38 117 130.5 184.5t213.5 67.5q91 0 155.5 -30t96.5 -77h2v170q0 13 -13 13h-135q-51 0 -79.5 25.5t-28.5 68.5t29 69.5t79 26.5h137q12 0 15 12
q9 51 46 82t93 31q54 0 91.5 -30.5t47.5 -82.5q3 -12 15 -12h8q50 0 79 -26.5t29 -69.5t-28.5 -68.5t-79.5 -25.5h-6q-13 0 -13 -13v-938q0 -70 -39.5 -110.5t-103.5 -40.5zM543 219q113 0 151 115q19 59 19 162q0 102 -19 161q-38 115 -151 115q-116 0 -154 -115
q-18 -55 -18 -161t18 -162q38 -115 154 -115z" />
    <glyph glyph-name="Emacron" unicode="&#x112;" horiz-adv-x="1157" 
d="M133 133v1127q0 61 35 97t96 36h676q62 0 100.5 -36.5t38.5 -94.5q0 -56 -38.5 -92.5t-100.5 -36.5h-494q-12 0 -12 -13v-276q0 -13 12 -13h396q62 0 99.5 -35.5t37.5 -93.5t-37.5 -93.5t-99.5 -35.5h-396q-12 0 -12 -12v-289q0 -12 12 -12h494q62 0 100.5 -36.5
t38.5 -92.5q0 -58 -38.5 -94.5t-100.5 -36.5h-676q-61 0 -96 36t-35 97zM819 1575h-436q-51 0 -80 28t-29 72q0 46 29 74.5t80 28.5h436q50 0 78.5 -29t28.5 -74q0 -44 -28.5 -72t-78.5 -28z" />
    <glyph glyph-name="emacron" unicode="&#x113;" horiz-adv-x="1079" 
d="M555 -23q-170 0 -284.5 74t-157.5 209q-33 101 -33 236q0 142 31 237q44 134 156.5 207.5t271.5 73.5q163 0 274 -73t154 -206q32 -97 32 -231q0 -42 -25 -68t-69 -26h-526q-12 0 -12 -13q0 -27 10 -57q20 -62 74 -95.5t131 -33.5q93 0 186 51q54 31 98 31t74.5 -30.5
t30.5 -76.5q0 -63 -58 -102q-152 -107 -358 -107zM379 600h326q12 0 12 12q0 41 -10 74q-17 52 -60.5 80.5t-105.5 28.5t-104.5 -28.5t-59.5 -80.5q-10 -33 -10 -74q0 -12 12 -12zM760 1178h-436q-51 0 -80 28t-29 72q0 45 29 73.5t80 28.5h436q50 0 78 -28.5t28 -73.5
q0 -44 -28 -72t-78 -28z" />
    <glyph glyph-name="Ebreve" unicode="&#x114;" horiz-adv-x="1157" 
d="M133 133v1127q0 61 35 97t96 36h676q62 0 100.5 -36.5t38.5 -94.5q0 -56 -38.5 -92.5t-100.5 -36.5h-494q-12 0 -12 -13v-276q0 -13 12 -13h396q62 0 99.5 -35.5t37.5 -93.5t-37.5 -93.5t-99.5 -35.5h-396q-12 0 -12 -12v-289q0 -12 12 -12h494q62 0 100.5 -36.5
t38.5 -92.5q0 -58 -38.5 -94.5t-100.5 -36.5h-676q-61 0 -96 36t-35 97zM604 1522q-129 0 -216 68.5t-87 166.5q0 37 21.5 59.5t56.5 22.5q32 0 49.5 -14.5t34.5 -46.5q41 -72 141 -72t141 72q17 32 34.5 46.5t49.5 14.5q35 0 56.5 -22.5t21.5 -59.5q0 -98 -87 -166.5
t-216 -68.5z" />
    <glyph glyph-name="ebreve" unicode="&#x115;" horiz-adv-x="1079" 
d="M555 -23q-170 0 -284.5 74t-157.5 209q-33 101 -33 236q0 142 31 237q44 134 156.5 207.5t271.5 73.5q163 0 274 -73t154 -206q32 -97 32 -231q0 -42 -25 -68t-69 -26h-526q-12 0 -12 -13q0 -27 10 -57q20 -62 74 -95.5t131 -33.5q93 0 186 51q54 31 98 31t74.5 -30.5
t30.5 -76.5q0 -63 -58 -102q-152 -107 -358 -107zM379 600h326q12 0 12 12q0 41 -10 74q-17 52 -60.5 80.5t-105.5 28.5t-104.5 -28.5t-59.5 -80.5q-10 -33 -10 -74q0 -12 12 -12zM541 1116q-129 0 -216 69t-87 167q0 37 21 59.5t56 22.5q32 0 49 -14.5t35 -47.5
q41 -72 142 -72q100 0 141 72q18 33 35 47.5t49 14.5q35 0 56.5 -22.5t21.5 -59.5q0 -98 -87 -167t-216 -69z" />
    <glyph glyph-name="Edotaccent" unicode="&#x116;" horiz-adv-x="1157" 
d="M133 133v1127q0 61 35 97t96 36h676q62 0 100.5 -36.5t38.5 -94.5q0 -56 -38.5 -92.5t-100.5 -36.5h-494q-12 0 -12 -13v-276q0 -13 12 -13h396q62 0 99.5 -35.5t37.5 -93.5t-37.5 -93.5t-99.5 -35.5h-396q-12 0 -12 -12v-289q0 -12 12 -12h494q62 0 100.5 -36.5
t38.5 -92.5q0 -58 -38.5 -94.5t-100.5 -36.5h-676q-61 0 -96 36t-35 97zM598 1509q-68 0 -115 47.5t-47 114.5t47 114.5t115 47.5t115 -47.5t47 -114.5t-47 -114.5t-115 -47.5z" />
    <glyph glyph-name="edotaccent" unicode="&#x117;" horiz-adv-x="1079" 
d="M555 -23q-170 0 -284.5 74t-157.5 209q-33 101 -33 236q0 142 31 237q44 134 156.5 207.5t271.5 73.5q163 0 274 -73t154 -206q32 -97 32 -231q0 -42 -25 -68t-69 -26h-526q-12 0 -12 -13q0 -27 10 -57q20 -62 74 -95.5t131 -33.5q93 0 186 51q54 31 98 31t74.5 -30.5
t30.5 -76.5q0 -63 -58 -102q-152 -107 -358 -107zM379 600h326q12 0 12 12q0 41 -10 74q-17 52 -60.5 80.5t-105.5 28.5t-104.5 -28.5t-59.5 -80.5q-10 -33 -10 -74q0 -12 12 -12zM541 1092q-68 0 -115 47t-47 114t47.5 114.5t114.5 47.5t114 -47t47 -115q0 -67 -47 -114
t-114 -47z" />
    <glyph glyph-name="Eogonek" unicode="&#x118;" horiz-adv-x="1157" 
d="M815 -391q-99 0 -157 51.5t-58 140.5q0 109 90 199h-426q-61 0 -96 36t-35 97v1127q0 61 35 97t96 36h676q62 0 100.5 -36.5t38.5 -94.5q0 -56 -38.5 -92.5t-100.5 -36.5h-494q-12 0 -12 -13v-276q0 -13 12 -13h396q62 0 99.5 -35.5t37.5 -93.5t-37.5 -93.5t-99.5 -35.5
h-396q-12 0 -12 -12v-289q0 -12 12 -12h494q62 0 100.5 -36.5t38.5 -92.5q0 -58 -38.5 -94.5t-100.5 -36.5h-12q-105 -92 -105 -158q0 -37 33 -37q12 0 29 7q24 8 43 8q34 0 57 -25.5t23 -62.5q0 -61 -54 -90q-58 -33 -139 -33z" />
    <glyph glyph-name="eogonek" unicode="&#x119;" horiz-adv-x="1079" 
d="M696 -391q-100 0 -158.5 51.5t-58.5 140.5q0 99 86 176h-10q-170 0 -284.5 74t-157.5 209q-33 101 -33 236q0 142 31 237q44 134 156.5 207.5t271.5 73.5q163 0 274 -73t154 -206q32 -97 32 -231q0 -42 -25 -68t-69 -26h-526q-12 0 -12 -13q0 -27 10 -57q20 -62 74 -95.5
t131 -33.5q93 0 186 51q54 31 98 31t74.5 -30.5t30.5 -76.5q0 -63 -58 -102l-49 -31q-162 -145 -162 -211q0 -37 33 -37q11 0 29 7q24 8 43 8q34 0 57 -25.5t23 -62.5q0 -61 -53 -90q-58 -33 -138 -33zM379 600h326q12 0 12 12q0 41 -10 74q-17 52 -60.5 80.5t-105.5 28.5
t-104.5 -28.5t-59.5 -80.5q-10 -33 -10 -74q0 -12 12 -12z" />
    <glyph glyph-name="Ecaron" unicode="&#x11a;" horiz-adv-x="1157" 
d="M133 133v1127q0 61 35 97t96 36h676q62 0 100.5 -36.5t38.5 -94.5q0 -56 -38.5 -92.5t-100.5 -36.5h-494q-12 0 -12 -13v-276q0 -13 12 -13h396q62 0 99.5 -35.5t37.5 -93.5t-37.5 -93.5t-99.5 -35.5h-396q-12 0 -12 -12v-289q0 -12 12 -12h494q62 0 100.5 -36.5
t38.5 -92.5q0 -58 -38.5 -94.5t-100.5 -36.5h-676q-61 0 -96 36t-35 97zM598 1489q-40 0 -70.5 18.5t-62.5 55.5l-131 151q-25 28 -25 62q0 36 25.5 59t60.5 23q43 0 80 -37l121 -117h4l121 117q37 37 80 37q35 0 60.5 -23t25.5 -59q0 -34 -25 -62l-131 -151
q-32 -37 -62.5 -55.5t-70.5 -18.5z" />
    <glyph glyph-name="ecaron" unicode="&#x11b;" horiz-adv-x="1079" 
d="M555 -23q-170 0 -284.5 74t-157.5 209q-33 101 -33 236q0 142 31 237q44 134 156.5 207.5t271.5 73.5q163 0 274 -73t154 -206q32 -97 32 -231q0 -42 -25 -68t-69 -26h-526q-12 0 -12 -13q0 -27 10 -57q20 -62 74 -95.5t131 -33.5q93 0 186 51q54 31 98 31t74.5 -30.5
t30.5 -76.5q0 -63 -58 -102q-152 -107 -358 -107zM379 600h326q12 0 12 12q0 41 -10 74q-17 52 -60.5 80.5t-105.5 28.5t-104.5 -28.5t-59.5 -80.5q-10 -33 -10 -74q0 -12 12 -12zM541 1087q-40 0 -70.5 18.5t-62.5 55.5l-132 152q-24 27 -24 61q0 36 25.5 59t60.5 23
q43 0 80 -37l121 -116h4l121 116q37 37 79 37q35 0 60.5 -23t25.5 -59q0 -34 -24 -61l-131 -152q-32 -37 -62.5 -55.5t-70.5 -18.5z" />
    <glyph glyph-name="Gcircumflex" unicode="&#x11c;" horiz-adv-x="1286" 
d="M135 315q-23 74 -31 150.5t-8 230.5t8 230.5t31 150.5q53 166 187.5 252t324.5 86q162 0 279.5 -59.5t175.5 -157.5q26 -47 26 -90q0 -59 -39.5 -97t-97.5 -38q-80 0 -133 74q-73 102 -211 102q-173 0 -223 -156q-23 -73 -23 -297q0 -226 23 -299q24 -73 81.5 -113
t145.5 -40q80 0 140.5 38.5t82.5 104.5q17 52 17 137q0 13 -12 13h-95q-58 0 -92.5 32t-34.5 86t34.5 86.5t92.5 32.5h287q57 0 88 -31t31 -88v-14q0 -206 -35 -315q-54 -167 -187.5 -258t-320.5 -91q-190 0 -324.5 86t-187.5 252zM846 1505q-43 0 -80 37l-121 117h-4
l-121 -117q-37 -37 -80 -37q-35 0 -60.5 23t-25.5 59q0 34 25 62l131 151q32 37 62.5 55.5t70.5 18.5t70.5 -18.5t62.5 -55.5l131 -151q25 -28 25 -62q0 -36 -25.5 -59t-60.5 -23z" />
    <glyph glyph-name="gcircumflex" unicode="&#x11d;" horiz-adv-x="1114" 
d="M492 -391q-98 0 -192 33.5t-132 76.5q-39 42 -39 95q0 48 35 84t86 36q48 0 112 -36q74 -41 144 -41q192 0 192 213v80h-2q-84 -111 -252 -111q-123 0 -209 63.5t-124 182.5q-33 100 -33 241q0 142 33 242q38 119 124 182.5t209 63.5q176 0 258 -115h3q12 44 46.5 74.5
t90.5 30.5q64 0 103.5 -41t39.5 -111v-743q0 -500 -493 -500zM535 279q109 0 145 108q18 55 18 137q0 84 -18 140q-36 108 -145 108q-112 0 -148 -108q-18 -56 -18 -140q0 -81 18 -137q36 -108 148 -108zM739 1102q-43 0 -80 37l-120 116h-4l-121 -116q-37 -37 -80 -37
q-35 0 -60.5 23t-25.5 59q0 34 24 61l131 152q63 73 134 73q70 0 133 -73l131 -152q24 -27 24 -61q0 -36 -25.5 -59t-60.5 -23z" />
    <glyph glyph-name="Gbreve" unicode="&#x11e;" horiz-adv-x="1286" 
d="M135 315q-23 74 -31 150.5t-8 230.5t8 230.5t31 150.5q53 166 187.5 252t324.5 86q162 0 279.5 -59.5t175.5 -157.5q26 -47 26 -90q0 -59 -39.5 -97t-97.5 -38q-80 0 -133 74q-73 102 -211 102q-173 0 -223 -156q-23 -73 -23 -297q0 -226 23 -299q24 -73 81.5 -113
t145.5 -40q80 0 140.5 38.5t82.5 104.5q17 52 17 137q0 13 -12 13h-95q-58 0 -92.5 32t-34.5 86t34.5 86.5t92.5 32.5h287q57 0 88 -31t31 -88v-14q0 -206 -35 -315q-54 -167 -187.5 -258t-320.5 -91q-190 0 -324.5 86t-187.5 252zM643 1522q-129 0 -216 68.5t-87 166.5
q0 37 21.5 59.5t56.5 22.5q32 0 49.5 -14.5t34.5 -46.5q41 -72 141 -72t141 72q17 32 34.5 46.5t49.5 14.5q35 0 56.5 -22.5t21.5 -59.5q0 -98 -87 -166.5t-216 -68.5z" />
    <glyph glyph-name="gbreve" unicode="&#x11f;" horiz-adv-x="1114" 
d="M492 -391q-98 0 -192 33.5t-132 76.5q-39 42 -39 95q0 48 35 84t86 36q48 0 112 -36q74 -41 144 -41q192 0 192 213v80h-2q-84 -111 -252 -111q-123 0 -209 63.5t-124 182.5q-33 100 -33 241q0 142 33 242q38 119 124 182.5t209 63.5q176 0 258 -115h3q12 44 46.5 74.5
t90.5 30.5q64 0 103.5 -41t39.5 -111v-743q0 -500 -493 -500zM535 279q109 0 145 108q18 55 18 137q0 84 -18 140q-36 108 -145 108q-112 0 -148 -108q-18 -56 -18 -140q0 -81 18 -137q36 -108 148 -108zM539 1116q-129 0 -216 69t-87 167q0 37 21 59.5t56 22.5
q32 0 49 -14.5t35 -47.5q41 -72 142 -72q100 0 141 72q18 33 35 47.5t49 14.5q35 0 56.5 -22.5t21.5 -59.5q0 -98 -87 -167t-216 -69z" />
    <glyph glyph-name="Gdotaccent" unicode="&#x120;" horiz-adv-x="1286" 
d="M135 315q-23 74 -31 150.5t-8 230.5t8 230.5t31 150.5q53 166 187.5 252t324.5 86q162 0 279.5 -59.5t175.5 -157.5q26 -47 26 -90q0 -59 -39.5 -97t-97.5 -38q-80 0 -133 74q-73 102 -211 102q-173 0 -223 -156q-23 -73 -23 -297q0 -226 23 -299q24 -73 81.5 -113
t145.5 -40q80 0 140.5 38.5t82.5 104.5q17 52 17 137q0 13 -12 13h-95q-58 0 -92.5 32t-34.5 86t34.5 86.5t92.5 32.5h287q57 0 88 -31t31 -88v-14q0 -206 -35 -315q-54 -167 -187.5 -258t-320.5 -91q-190 0 -324.5 86t-187.5 252zM643 1509q-67 0 -114.5 47.5t-47.5 114.5
t47.5 114.5t114.5 47.5t114.5 -47.5t47.5 -114.5t-47.5 -114.5t-114.5 -47.5z" />
    <glyph glyph-name="gdotaccent" unicode="&#x121;" horiz-adv-x="1114" 
d="M492 -391q-98 0 -192 33.5t-132 76.5q-39 42 -39 95q0 48 35 84t86 36q48 0 112 -36q74 -41 144 -41q192 0 192 213v80h-2q-84 -111 -252 -111q-123 0 -209 63.5t-124 182.5q-33 100 -33 241q0 142 33 242q38 119 124 182.5t209 63.5q176 0 258 -115h3q12 44 46.5 74.5
t90.5 30.5q64 0 103.5 -41t39.5 -111v-743q0 -500 -493 -500zM535 279q109 0 145 108q18 55 18 137q0 84 -18 140q-36 108 -145 108q-112 0 -148 -108q-18 -56 -18 -140q0 -81 18 -137q36 -108 148 -108zM537 1092q-68 0 -115 47t-47 114t47.5 114.5t114.5 47.5t114 -47
t47 -115q0 -67 -47 -114t-114 -47z" />
    <glyph glyph-name="Gcommaaccent" unicode="&#x122;" horiz-adv-x="1286" 
d="M135 315q-23 74 -31 150.5t-8 230.5t8 230.5t31 150.5q53 166 187.5 252t324.5 86q162 0 279.5 -59.5t175.5 -157.5q26 -47 26 -90q0 -59 -39.5 -97t-97.5 -38q-80 0 -133 74q-73 102 -211 102q-173 0 -223 -156q-23 -73 -23 -297q0 -226 23 -299q24 -73 81.5 -113
t145.5 -40q80 0 140.5 38.5t82.5 104.5q17 52 17 137q0 13 -12 13h-95q-58 0 -92.5 32t-34.5 86t34.5 86.5t92.5 32.5h287q57 0 88 -31t31 -88v-14q0 -206 -35 -315q-54 -167 -187.5 -258t-320.5 -91q-190 0 -324.5 86t-187.5 252zM711 -397q-15 -46 -45 -71.5t-68 -25.5
q-54 0 -88.5 31t-34.5 84q0 25 10 55l45 142q30 96 113 96q53 0 88 -30.5t35 -84.5q0 -25 -10 -55z" />
    <glyph glyph-name="gcommaaccent" unicode="&#x123;" horiz-adv-x="1114" 
d="M492 -391q-98 0 -192 33.5t-132 76.5q-39 42 -39 95q0 48 35 84t86 36q48 0 112 -36q74 -41 144 -41q192 0 192 213v80h-2q-84 -111 -252 -111q-123 0 -209 63.5t-124 182.5q-33 100 -33 241q0 142 33 242q38 119 124 182.5t209 63.5q176 0 258 -115h3q12 44 46.5 74.5
t90.5 30.5q64 0 103.5 -41t39.5 -111v-743q0 -500 -493 -500zM535 279q109 0 145 108q18 55 18 137q0 84 -18 140q-36 108 -145 108q-112 0 -148 -108q-18 -56 -18 -140q0 -81 18 -137q36 -108 148 -108zM645 1214q-15 -46 -45 -71t-68 -25q-51 0 -85.5 30.5t-34.5 82.5
q0 33 8 57l49 150q15 46 44 71t69 25q51 0 85.5 -31.5t34.5 -85.5q0 -29 -8 -53z" />
    <glyph glyph-name="Hcircumflex" unicode="&#x124;" horiz-adv-x="1347" 
d="M133 147v1098q0 73 42.5 116.5t109.5 43.5q65 0 107 -43.5t42 -116.5v-395q0 -12 12 -12h455q12 0 12 12v395q0 72 42 116t108 44q67 0 109 -43.5t42 -116.5v-1098q0 -73 -42 -116t-109 -43q-66 0 -108 43.5t-42 115.5v410q0 12 -12 12h-455q-12 0 -12 -12v-410
q0 -72 -42.5 -115.5t-108.5 -43.5q-67 0 -108.5 43t-41.5 116zM877 1505q-43 0 -80 37l-121 117h-4l-121 -117q-37 -37 -80 -37q-35 0 -60.5 23t-25.5 59q0 34 25 62l131 151q32 37 62.5 55.5t70.5 18.5t70.5 -18.5t62.5 -55.5l131 -151q25 -28 25 -62q0 -36 -25.5 -59
t-60.5 -23z" />
    <glyph glyph-name="hcircumflex" unicode="&#x125;" horiz-adv-x="1132" 
d="M866 -12q-63 0 -103 41t-40 110v451q0 83 -40.5 131.5t-115.5 48.5t-114 -48t-39 -132v-451q0 -69 -40.5 -110t-103.5 -41q-64 0 -103.5 40.5t-39.5 110.5v1114q0 70 39.5 111t103.5 41q63 0 103.5 -41.5t40.5 -110.5v-346h2q91 107 256 107q160 0 249 -101.5t89 -267.5
v-506q0 -69 -40 -110t-104 -41zM778 1505q-43 0 -80 37l-120 117h-5l-120 -117q-37 -37 -80 -37q-35 0 -60.5 23t-25.5 59q0 35 24 62l131 151q32 37 62.5 55.5t70.5 18.5q70 0 134 -74l131 -151q24 -27 24 -62q0 -36 -25.5 -59t-60.5 -23z" />
    <glyph glyph-name="Hbar" unicode="&#x126;" horiz-adv-x="1347" 
d="M1063 -12q-66 0 -108 43.5t-42 115.5v410q0 12 -12 12h-455q-12 0 -12 -12v-410q0 -72 -41.5 -115.5t-107.5 -43.5q-67 0 -109.5 43.5t-42.5 115.5v857q0 12 -12 12h-10q-44 0 -71.5 27t-27.5 69t27.5 69t71.5 27h10q12 0 12 13v24q0 73 42.5 116.5t109.5 43.5
q65 0 107 -43.5t42 -116.5v-24q0 -13 12 -13h455q12 0 12 13v24q0 72 42 116t108 44q67 0 109 -43.5t42 -116.5v-24q0 -13 13 -13h10q44 0 71 -27t27 -69t-27 -69t-71 -27h-10q-13 0 -13 -12v-857q0 -73 -42 -116t-109 -43zM901 838q12 0 12 12v154q0 12 -12 12h-455
q-12 0 -12 -12v-154q0 -12 12 -12h455z" />
    <glyph glyph-name="hbar" unicode="&#x127;" horiz-adv-x="1132" 
d="M868 -12q-63 0 -103 41t-40 110v451q0 83 -40.5 131.5t-115.5 48.5t-114 -48t-39 -132v-451q0 -69 -40.5 -110t-103.5 -41q-64 0 -103.5 40.5t-39.5 110.5v938q0 13 -12 13h-6q-51 0 -80 25.5t-29 68.5t29.5 69.5t79.5 26.5h8q11 0 14 12q10 52 47.5 82.5t91.5 30.5
q56 0 93.5 -31t46.5 -82q3 -12 14 -12h137q50 0 79.5 -26.5t29.5 -69.5t-29 -68.5t-80 -25.5h-135q-12 0 -12 -13v-170h2q91 107 256 107q160 0 249 -101.5t89 -267.5v-506q0 -69 -40 -110t-104 -41z" />
    <glyph glyph-name="Itilde" unicode="&#x128;" horiz-adv-x="567" 
d="M133 147v1098q0 71 42.5 115.5t109.5 44.5q65 0 107 -44.5t42 -115.5v-1098q0 -71 -42 -115t-107 -44q-67 0 -109.5 44t-42.5 115zM408 1532q-72 0 -144 45q-57 35 -88 35q-20 0 -33 -7t-34 -26q-38 -33 -74 -33q-38 0 -63 24.5t-25 61.5q0 41 28 80q83 103 187 103
q70 0 143 -46q55 -34 88 -34q20 0 34 6.5t34 25.5q38 33 74 33q38 0 63 -24.5t25 -61.5q0 -40 -29 -80q-82 -102 -186 -102z" />
    <glyph glyph-name="itilde" unicode="&#x129;" horiz-adv-x="544" 
d="M272 -12q-64 0 -103.5 40.5t-39.5 110.5v713q0 70 39.5 111t103.5 41q63 0 103.5 -41.5t40.5 -110.5v-713q0 -69 -40.5 -110t-103.5 -41zM395 1133q-71 0 -143 45q-55 34 -88 34q-20 0 -34 -6.5t-34 -25.5q-38 -33 -73 -33q-38 0 -63.5 24.5t-25.5 61.5q0 40 29 80
q82 102 187 102q71 0 143 -45q57 -35 88 -35q20 0 33.5 7t34.5 26q38 33 73 33q38 0 63 -24.5t25 -61.5q0 -41 -28 -80q-82 -102 -187 -102z" />
    <glyph glyph-name="Imacron" unicode="&#x12a;" horiz-adv-x="567" 
d="M133 147v1098q0 71 42.5 115.5t109.5 44.5q65 0 107 -44.5t42 -115.5v-1098q0 -71 -42 -115t-107 -44q-67 0 -109.5 44t-42.5 115zM502 1575h-436q-51 0 -80 28t-29 72q0 46 29 74.5t80 28.5h436q50 0 78 -28.5t28 -74.5q0 -44 -28 -72t-78 -28z" />
    <glyph glyph-name="imacron" unicode="&#x12b;" horiz-adv-x="544" 
d="M272 -12q-64 0 -103.5 40.5t-39.5 110.5v713q0 70 39.5 111t103.5 41q63 0 103.5 -41.5t40.5 -110.5v-713q0 -69 -40.5 -110t-103.5 -41zM492 1178h-437q-51 0 -79.5 28t-28.5 72q0 46 28.5 74t79.5 28h437q50 0 78 -28.5t28 -73.5q0 -44 -28 -72t-78 -28z" />
    <glyph glyph-name="Ibreve" unicode="&#x12c;" horiz-adv-x="567" 
d="M133 147v1098q0 71 42.5 115.5t109.5 44.5q65 0 107 -44.5t42 -115.5v-1098q0 -71 -42 -115t-107 -44q-67 0 -109.5 44t-42.5 115zM285 1522q-129 0 -216 68.5t-87 166.5q0 37 21 59.5t56 22.5q32 0 49.5 -14.5t34.5 -46.5q41 -72 142 -72q100 0 141 72q17 32 34.5 46.5
t49.5 14.5q35 0 56.5 -22.5t21.5 -59.5q0 -98 -87 -166.5t-216 -68.5z" />
    <glyph glyph-name="ibreve" unicode="&#x12d;" horiz-adv-x="544" 
d="M272 -12q-64 0 -103.5 40.5t-39.5 110.5v713q0 70 39.5 111t103.5 41q63 0 103.5 -41.5t40.5 -110.5v-713q0 -69 -40.5 -110t-103.5 -41zM272 1116q-129 0 -216 69t-87 167q0 37 21.5 59.5t56.5 22.5q32 0 49 -14.5t35 -47.5q41 -72 141 -72q101 0 142 72q18 33 35 47.5
t49 14.5q35 0 56 -22.5t21 -59.5q0 -98 -87 -167t-216 -69z" />
    <glyph glyph-name="Iogonek" unicode="&#x12e;" horiz-adv-x="567" 
d="M264 -391q-99 0 -158 51t-59 141q0 129 123 236q-37 37 -37 110v1098q0 71 42.5 115.5t109.5 44.5q65 0 107 -44.5t42 -115.5v-1098q0 -47 -14.5 -79.5t-46.5 -65.5q-61 -65 -82 -98.5t-21 -61.5q0 -18 9.5 -27.5t23.5 -9.5q11 0 29 7q24 8 43 8q34 0 57 -25.5t23 -62.5
q0 -61 -54 -90q-58 -33 -137 -33z" />
    <glyph glyph-name="iogonek" unicode="&#x12f;" horiz-adv-x="544" 
d="M272 1092q-68 0 -114.5 47t-46.5 114q0 68 47 115t114 47q68 0 115 -47.5t47 -114.5t-47 -114t-115 -47zM250 -391q-100 0 -158.5 51.5t-58.5 140.5q0 66 27 125.5t90 128.5q-21 32 -21 84v713q0 70 39.5 111t103.5 41q63 0 103.5 -41.5t40.5 -110.5v-713q0 -71 -41 -112
q-66 -66 -92.5 -108t-26.5 -77q0 -37 33 -37q11 0 28 7q24 8 43 8q34 0 57 -25.5t23 -62.5q0 -61 -53 -90q-58 -33 -137 -33z" />
    <glyph glyph-name="Idotaccent" unicode="&#x130;" horiz-adv-x="567" 
d="M133 147v1098q0 71 42.5 115.5t109.5 44.5q65 0 107 -44.5t42 -115.5v-1098q0 -71 -42 -115t-107 -44q-67 0 -109.5 44t-42.5 115zM283 1509q-67 0 -114.5 47.5t-47.5 114.5t47.5 114.5t114.5 47.5t114 -47t47 -115t-47 -115t-114 -47z" />
    <glyph glyph-name="dotlessi" unicode="&#x131;" horiz-adv-x="544" 
d="M272 -12q-64 0 -103.5 40.5t-39.5 110.5v713q0 70 39.5 111t103.5 41q63 0 103.5 -41.5t40.5 -110.5v-713q0 -69 -40.5 -110t-103.5 -41z" />
    <glyph glyph-name="Jcircumflex" unicode="&#x134;" horiz-adv-x="1067" 
d="M117 94q-41 47 -41 105q0 54 38 90.5t95 36.5q50 0 115 -45q53 -37 125 -37q190 0 190 235v766q0 73 42 116.5t107 43.5q67 0 109.5 -43.5t42.5 -116.5v-745q0 -255 -130.5 -389t-371.5 -134q-96 0 -187 33.5t-134 83.5zM991 1505q-43 0 -80 37l-120 117h-5l-120 -117
q-37 -37 -80 -37q-35 0 -60.5 23t-25.5 59q0 35 24 62l131 151q32 37 62.5 55.5t70.5 18.5q70 0 134 -74l131 -151q24 -27 24 -62q0 -36 -25.5 -59t-60.5 -23z" />
    <glyph glyph-name="jcircumflex" unicode="&#x135;" horiz-adv-x="544" 
d="M68 -369q-61 0 -95 33.5t-34 87.5q0 104 110 125q46 9 63 33t17 80v862q0 70 39.5 111t103.5 41q63 0 103.5 -41.5t40.5 -110.5v-860q0 -187 -87 -274t-261 -87zM473 1102q-43 0 -80 37l-121 116h-4l-121 -116q-37 -37 -79 -37q-35 0 -60.5 23t-25.5 59q0 34 24 61
l131 152q63 73 133 73t133 -73l132 -152q24 -27 24 -61q0 -36 -25.5 -59t-60.5 -23z" />
    <glyph glyph-name="Kcommaaccent" unicode="&#x136;" horiz-adv-x="1259" 
d="M133 147v1098q0 71 42.5 115.5t109.5 44.5q65 0 107 -44.5t42 -115.5v-467l461 561q56 66 123 66q56 0 95.5 -37.5t39.5 -95.5q0 -55 -35 -96l-299 -345l352 -608q27 -50 27 -92q0 -60 -40.5 -101.5t-102.5 -41.5q-93 0 -144 88l-293 526l-184 -231v-224q0 -71 -42 -115
t-107 -44q-67 0 -109.5 44t-42.5 115zM717 -397q-15 -46 -45 -71.5t-68 -25.5q-54 0 -88.5 31t-34.5 84q0 22 11 55l45 142q30 96 112 96q53 0 88 -30.5t35 -84.5q0 -25 -10 -55z" />
    <glyph glyph-name="kcommaaccent" unicode="&#x137;" horiz-adv-x="1087" 
d="M864 -12q-82 0 -129 78l-217 364l-102 -106v-185q0 -69 -40.5 -110t-103.5 -41q-64 0 -103.5 40.5t-39.5 110.5v1114q0 70 39.5 111t103.5 41q63 0 103.5 -41.5t40.5 -110.5v-618l309 317q52 52 111 52q47 0 80.5 -32.5t33.5 -82.5q0 -63 -45 -105l-186 -174l260 -411
q22 -37 22 -80q0 -55 -40 -93t-97 -38zM618 -397q-15 -46 -44.5 -71.5t-67.5 -25.5q-54 0 -88.5 31t-34.5 84q0 25 10 55l45 142q30 96 113 96q53 0 88 -30.5t35 -84.5q0 -25 -10 -55z" />
    <glyph glyph-name="kgreenlandic" unicode="&#x138;" horiz-adv-x="1087" 
d="M864 -12q-82 0 -129 78l-217 364l-102 -106v-185q0 -69 -40.5 -110t-103.5 -41q-64 0 -103.5 40.5t-39.5 110.5v713q0 70 39.5 111t103.5 41q63 0 103.5 -41.5t40.5 -110.5v-217l309 317q52 52 111 52q47 0 80.5 -32.5t33.5 -82.5q0 -63 -45 -105l-186 -174l260 -411
q22 -37 22 -80q0 -55 -40 -93t-97 -38z" />
    <glyph glyph-name="Lacute" unicode="&#x139;" horiz-adv-x="1126" 
d="M133 152v1093q0 71 42.5 115.5t109.5 44.5q65 0 107 -44.5t42 -115.5v-964q0 -13 12 -13h496q68 0 110 -37t42 -96q0 -60 -41.5 -97.5t-110.5 -37.5h-657q-69 0 -110.5 42t-41.5 110zM438 1559q-40 -46 -96 -46q-41 0 -71.5 29.5t-30.5 71.5q0 55 34 92l105 117
q40 43 94 43q44 0 76.5 -29t32.5 -74q0 -55 -35 -90z" />
    <glyph glyph-name="lacute" unicode="&#x13a;" horiz-adv-x="622" 
d="M442 -12h-12q-165 0 -235 78t-70 237v950q0 70 39.5 111t103.5 41q63 0 103.5 -41.5t40.5 -110.5v-925q0 -42 15.5 -63t49.5 -27q115 -20 115 -125q0 -56 -37.5 -90.5t-112.5 -34.5zM399 1559q-40 -46 -96 -46q-41 0 -71.5 29.5t-30.5 71.5q0 54 35 92l104 117
q40 43 94 43q44 0 76.5 -29t32.5 -74q0 -55 -35 -90z" />
    <glyph glyph-name="Lcommaaccent" unicode="&#x13b;" horiz-adv-x="1126" 
d="M133 152v1093q0 71 42.5 115.5t109.5 44.5q65 0 107 -44.5t42 -115.5v-964q0 -13 12 -13h496q68 0 110 -37t42 -96q0 -60 -41.5 -97.5t-110.5 -37.5h-657q-69 0 -110.5 42t-41.5 110zM664 -397q-15 -46 -45 -71.5t-68 -25.5q-54 0 -88.5 31t-34.5 84q0 25 10 55l45 142
q30 96 113 96q53 0 88 -30.5t35 -84.5q0 -25 -10 -55z" />
    <glyph glyph-name="lcommaaccent" unicode="&#x13c;" horiz-adv-x="622" 
d="M442 -12h-12q-165 0 -235 78t-70 237v950q0 70 39.5 111t103.5 41q63 0 103.5 -41.5t40.5 -110.5v-925q0 -42 15.5 -63t49.5 -27q115 -20 115 -125q0 -56 -37.5 -90.5t-112.5 -34.5zM408 -397q-15 -46 -45 -71.5t-68 -25.5q-54 0 -88.5 31t-34.5 84q0 25 10 55l45 142
q30 96 113 96q53 0 88 -30.5t35 -84.5q0 -25 -10 -55z" />
    <glyph glyph-name="Lcaron" unicode="&#x13d;" horiz-adv-x="1126" 
d="M133 152v1093q0 71 42.5 115.5t109.5 44.5q65 0 107 -44.5t42 -115.5v-964q0 -13 12 -13h496q68 0 110 -37t42 -96q0 -60 -41.5 -97.5t-110.5 -37.5h-657q-69 0 -110.5 42t-41.5 110zM774 1108q-15 -46 -44.5 -71t-67.5 -25q-54 0 -87.5 30.5t-33.5 83.5q0 32 8 56
l41 127q31 96 112 96q53 0 87 -31.5t34 -85.5q0 -29 -8 -53z" />
    <glyph glyph-name="lcaron" unicode="&#x13e;" horiz-adv-x="622" 
d="M442 -12h-12q-165 0 -235 78t-70 237v950q0 70 39.5 111t103.5 41q63 0 103.5 -41.5t40.5 -110.5v-925q0 -42 15.5 -63t49.5 -27q115 -20 115 -125q0 -56 -37.5 -90.5t-112.5 -34.5zM700 1108q-15 -46 -44.5 -71t-67.5 -25q-54 0 -87.5 30.5t-33.5 83.5q0 32 8 56l41 127
q31 96 113 96q53 0 87 -31.5t34 -85.5q0 -26 -9 -53z" />
    <glyph glyph-name="Ldot" unicode="&#x13f;" horiz-adv-x="1126" 
d="M133 152v1093q0 71 42.5 115.5t109.5 44.5q65 0 107 -44.5t42 -115.5v-964q0 -13 12 -13h496q68 0 110 -37t42 -96q0 -60 -41.5 -97.5t-110.5 -37.5h-657q-69 0 -110.5 42t-41.5 110zM848 520q-69 0 -118.5 49.5t-49.5 118.5t49.5 118.5t118.5 49.5t118.5 -49.5
t49.5 -118.5t-49.5 -118.5t-118.5 -49.5z" />
    <glyph glyph-name="ldot" unicode="&#x140;" horiz-adv-x="792" 
d="M442 -12h-12q-165 0 -235 78t-70 237v950q0 70 39.5 111t103.5 41q63 0 103.5 -41.5t40.5 -110.5v-925q0 -42 15.5 -63t49.5 -27q115 -20 115 -125q0 -56 -37.5 -90.5t-112.5 -34.5zM698 535q-69 0 -118.5 49t-49.5 118t49.5 118.5t118.5 49.5t118.5 -49.5t49.5 -118.5
t-49.5 -118t-118.5 -49z" />
    <glyph glyph-name="Lslash" unicode="&#x141;" horiz-adv-x="1126" 
d="M670 780l-236 -121v-378q0 -13 12 -13h496q68 0 110 -37t42 -96q0 -60 -41.5 -97.5t-110.5 -37.5h-657q-69 0 -110.5 42t-41.5 110v358q-10 -2 -31 -2q-42 0 -72 26.5t-30 73.5q0 68 63 99l70 34v504q0 71 42.5 115.5t109.5 44.5q65 0 107 -44.5t42 -115.5v-350l137 70
q28 14 60 14q42 0 72 -26.5t30 -73.5q0 -68 -63 -99z" />
    <glyph glyph-name="lslash" unicode="&#x142;" horiz-adv-x="622" 
d="M528 743l-116 -61v-354q0 -42 15.5 -63t49.5 -27q115 -20 115 -125q0 -56 -37.5 -90.5t-112.5 -34.5h-12q-165 0 -235 78t-70 237v236q-16 -4 -31 -4q-42 0 -70 28t-28 70q0 64 59 94l70 35v491q0 70 39.5 111t103.5 41q63 0 103.5 -41.5t40.5 -110.5v-344l26 15
q24 12 51 12q42 0 70.5 -28t28.5 -70q0 -64 -60 -95z" />
    <glyph glyph-name="Nacute" unicode="&#x143;" horiz-adv-x="1341" 
d="M133 133v1092q0 83 45.5 131.5t122.5 48.5q62 0 109 -36.5t90 -111.5l426 -759h8v762q0 68 37.5 106.5t99.5 38.5t99.5 -38.5t37.5 -106.5v-1092q0 -83 -45.5 -131.5t-122.5 -48.5q-62 0 -108.5 36t-89.5 111l-426 758h-8v-760q0 -68 -37.5 -106.5t-100.5 -38.5
q-62 0 -99.5 38.5t-37.5 106.5zM756 1559q-40 -46 -97 -46q-41 0 -71.5 29.5t-30.5 71.5q0 54 35 92l104 117q40 43 95 43q44 0 76 -29t32 -74q0 -55 -35 -90z" />
    <glyph glyph-name="nacute" unicode="&#x144;" horiz-adv-x="1132" 
d="M868 -12q-63 0 -103 41t-40 110v451q0 83 -40.5 131.5t-115.5 48.5t-114 -48t-39 -132v-451q0 -69 -40.5 -110t-103.5 -41q-64 0 -103.5 40.5t-39.5 110.5v713q0 70 39.5 111t103.5 41q52 0 89 -28t49 -77h2q89 115 262 115q160 0 249 -101.5t89 -267.5v-506
q0 -69 -40 -110t-104 -41zM649 1157q-39 -51 -96 -51q-45 0 -76 27.5t-31 72.5q0 42 27 84l88 125q37 49 96 49q43 0 76 -30t33 -74q0 -43 -27 -82z" />
    <glyph glyph-name="Ncommaaccent" unicode="&#x145;" horiz-adv-x="1341" 
d="M133 133v1092q0 83 45.5 131.5t122.5 48.5q62 0 109 -36.5t90 -111.5l426 -759h8v762q0 68 37.5 106.5t99.5 38.5t99.5 -38.5t37.5 -106.5v-1092q0 -83 -45.5 -131.5t-122.5 -48.5q-62 0 -108.5 36t-89.5 111l-426 758h-8v-760q0 -68 -37.5 -106.5t-100.5 -38.5
q-62 0 -99.5 38.5t-37.5 106.5zM764 -397q-15 -46 -45 -71.5t-68 -25.5q-54 0 -88.5 31t-34.5 84q0 22 11 55l45 142q30 96 112 96q53 0 88 -30.5t35 -84.5q0 -25 -10 -55z" />
    <glyph glyph-name="ncommaaccent" unicode="&#x146;" horiz-adv-x="1132" 
d="M868 -12q-63 0 -103 41t-40 110v451q0 83 -40.5 131.5t-115.5 48.5t-114 -48t-39 -132v-451q0 -69 -40.5 -110t-103.5 -41q-64 0 -103.5 40.5t-39.5 110.5v713q0 70 39.5 111t103.5 41q52 0 89 -28t49 -77h2q89 115 262 115q160 0 249 -101.5t89 -267.5v-506
q0 -69 -40 -110t-104 -41zM641 -397q-15 -46 -45 -71.5t-68 -25.5q-54 0 -88 31t-34 84q0 25 10 55l45 142q30 96 112 96q53 0 88 -30.5t35 -84.5q0 -25 -10 -55z" />
    <glyph glyph-name="Ncaron" unicode="&#x147;" horiz-adv-x="1341" 
d="M133 133v1092q0 83 45.5 131.5t122.5 48.5q62 0 109 -36.5t90 -111.5l426 -759h8v762q0 68 37.5 106.5t99.5 38.5t99.5 -38.5t37.5 -106.5v-1092q0 -83 -45.5 -131.5t-122.5 -48.5q-62 0 -108.5 36t-89.5 111l-426 758h-8v-760q0 -68 -37.5 -106.5t-100.5 -38.5
q-62 0 -99.5 38.5t-37.5 106.5zM670 1489q-40 0 -70.5 18.5t-62.5 55.5l-131 151q-25 28 -25 62q0 36 25.5 59t60.5 23q43 0 80 -37l121 -117h4l121 117q37 37 79 37q35 0 60.5 -23t25.5 -59q0 -35 -24 -62l-131 -151q-32 -37 -62.5 -55.5t-70.5 -18.5z" />
    <glyph glyph-name="ncaron" unicode="&#x148;" horiz-adv-x="1132" 
d="M868 -12q-63 0 -103 41t-40 110v451q0 83 -40.5 131.5t-115.5 48.5t-114 -48t-39 -132v-451q0 -69 -40.5 -110t-103.5 -41q-64 0 -103.5 40.5t-39.5 110.5v713q0 70 39.5 111t103.5 41q52 0 89 -28t49 -77h2q89 115 262 115q160 0 249 -101.5t89 -267.5v-506
q0 -69 -40 -110t-104 -41zM565 1087q-40 0 -70.5 18.5t-62.5 55.5l-131 152q-25 28 -25 61q0 36 25.5 59t60.5 23q43 0 80 -37l121 -116h4l121 116q37 37 80 37q35 0 60.5 -23t25.5 -59q0 -33 -25 -61l-131 -152q-32 -37 -62.5 -55.5t-70.5 -18.5z" />
    <glyph glyph-name="Eng" unicode="&#x14a;" horiz-adv-x="1341" 
d="M797 -377q-61 0 -99.5 37.5t-38.5 91.5t37 91t97 40q125 7 125 115v10l-502 885h-8v-760q0 -68 -37.5 -106.5t-100.5 -38.5q-62 0 -99.5 38.5t-37.5 106.5v1092q0 83 45.5 131.5t122.5 48.5q62 0 109 -36.5t90 -111.5l426 -759h8v762q0 68 37.5 106.5t99.5 38.5
t99.5 -38.5t37.5 -106.5v-1221q0 -215 -99.5 -315.5t-311.5 -100.5z" />
    <glyph glyph-name="eng" unicode="&#x14b;" horiz-adv-x="1132" 
d="M662 -369q-60 0 -95 33.5t-35 87.5q0 103 111 125q47 9 64.5 33t17.5 80v600q0 83 -40.5 131.5t-115.5 48.5t-114 -48t-39 -132v-451q0 -69 -40.5 -110t-103.5 -41q-64 0 -103.5 40.5t-39.5 110.5v713q0 70 39.5 111t103.5 41q52 0 89 -28t49 -77h2q89 115 262 115
q160 0 249 -101.5t89 -267.5v-653q0 -187 -87.5 -274t-262.5 -87z" />
    <glyph glyph-name="Omacron" unicode="&#x14c;" horiz-adv-x="1286" 
d="M643 -23q-187 0 -320.5 86t-187.5 252q-23 74 -31 150.5t-8 230.5t8 230.5t31 150.5q54 166 187.5 252t320.5 86t320.5 -86t187.5 -252q23 -74 31 -150.5t8 -230.5t-8 -230.5t-31 -150.5q-54 -166 -187.5 -252t-320.5 -86zM643 244q169 0 219 151q23 73 23 301t-23 301
q-24 72 -79.5 112t-139.5 40t-139.5 -40t-79.5 -112q-23 -73 -23 -301t23 -301q50 -151 219 -151zM862 1575h-436q-51 0 -80 28t-29 72q0 46 29 74.5t80 28.5h436q50 0 78.5 -29t28.5 -74q0 -44 -28.5 -72t-78.5 -28z" />
    <glyph glyph-name="omacron" unicode="&#x14d;" horiz-adv-x="1085" 
d="M543 -23q-162 0 -274 74t-156 211q-33 103 -33 234q0 130 33 233q44 137 156 211t274 74t274 -74t156 -211q33 -103 33 -233q0 -131 -33 -234q-44 -137 -156 -211t-274 -74zM543 219q117 0 153 111q19 58 19 166t-19 166q-36 110 -153 110q-118 0 -154 -110
q-18 -55 -18 -166t18 -166q36 -111 154 -111zM762 1178h-436q-51 0 -80 28t-29 72q0 45 29 73.5t80 28.5h436q50 0 78 -28.5t28 -73.5q0 -44 -28 -72t-78 -28z" />
    <glyph glyph-name="Obreve" unicode="&#x14e;" horiz-adv-x="1286" 
d="M643 -23q-187 0 -320.5 86t-187.5 252q-23 74 -31 150.5t-8 230.5t8 230.5t31 150.5q54 166 187.5 252t320.5 86t320.5 -86t187.5 -252q23 -74 31 -150.5t8 -230.5t-8 -230.5t-31 -150.5q-54 -166 -187.5 -252t-320.5 -86zM643 244q169 0 219 151q23 73 23 301t-23 301
q-24 72 -79.5 112t-139.5 40t-139.5 -40t-79.5 -112q-23 -73 -23 -301t23 -301q50 -151 219 -151zM643 1522q-129 0 -216 68.5t-87 166.5q0 37 21.5 59.5t56.5 22.5q32 0 49.5 -14.5t34.5 -46.5q41 -72 141 -72t141 72q17 32 34.5 46.5t49.5 14.5q35 0 56.5 -22.5
t21.5 -59.5q0 -98 -87 -166.5t-216 -68.5z" />
    <glyph glyph-name="obreve" unicode="&#x14f;" horiz-adv-x="1085" 
d="M543 -23q-162 0 -274 74t-156 211q-33 103 -33 234q0 130 33 233q44 137 156 211t274 74t274 -74t156 -211q33 -103 33 -233q0 -131 -33 -234q-44 -137 -156 -211t-274 -74zM543 219q117 0 153 111q19 58 19 166t-19 166q-36 110 -153 110q-118 0 -154 -110
q-18 -55 -18 -166t18 -166q36 -111 154 -111zM543 1116q-129 0 -216 69t-87 167q0 37 21 59.5t56 22.5q32 0 49 -14.5t35 -47.5q41 -72 142 -72q100 0 141 72q18 33 35 47.5t49 14.5q35 0 56.5 -22.5t21.5 -59.5q0 -98 -87 -167t-216 -69z" />
    <glyph glyph-name="Ohungarumlaut" unicode="&#x150;" horiz-adv-x="1286" 
d="M643 -23q-187 0 -320.5 86t-187.5 252q-23 74 -31 150.5t-8 230.5t8 230.5t31 150.5q54 166 187.5 252t320.5 86t320.5 -86t187.5 -252q23 -74 31 -150.5t8 -230.5t-8 -230.5t-31 -150.5q-54 -166 -187.5 -252t-320.5 -86zM643 244q169 0 219 151q23 73 23 301t-23 301
q-24 72 -79.5 112t-139.5 40t-139.5 -40t-79.5 -112q-23 -73 -23 -301t23 -301q50 -151 219 -151zM936 1589q-38 -55 -94 -55q-44 0 -77.5 28.5t-33.5 73.5q0 38 29 82l74 111q36 53 96 53q43 0 75.5 -30t32.5 -74q0 -41 -26 -80zM575 1589q-38 -55 -94 -55q-44 0 -77 28.5
t-33 73.5q0 40 28 82l74 111q36 53 96 53q43 0 76 -30t33 -74q0 -40 -27 -80z" />
    <glyph glyph-name="ohungarumlaut" unicode="&#x151;" horiz-adv-x="1085" 
d="M543 -23q-162 0 -274 74t-156 211q-33 103 -33 234q0 130 33 233q44 137 156 211t274 74t274 -74t156 -211q33 -103 33 -233q0 -131 -33 -234q-44 -137 -156 -211t-274 -74zM543 219q117 0 153 111q19 58 19 166t-19 166q-36 110 -153 110q-118 0 -154 -110
q-18 -55 -18 -166t18 -166q36 -111 154 -111zM846 1161q-40 -63 -98 -63q-44 0 -76.5 29.5t-32.5 74.5q0 35 23 76l77 131q35 61 101 61q44 0 76 -29t32 -75q0 -35 -22 -74zM483 1161q-40 -63 -98 -63q-44 0 -76.5 29.5t-32.5 74.5q0 35 23 76l78 131q35 61 100 61
q44 0 76.5 -29t32.5 -75q0 -33 -23 -74z" />
    <glyph glyph-name="OE" unicode="&#x152;" horiz-adv-x="1906" 
d="M1690 0h-676q-47 0 -81 23.5t-44 66.5h-2q-36 -52 -110 -82.5t-175 -30.5q-169 0 -290.5 86t-172.5 242q-24 71 -33.5 154t-9.5 237t9.5 237t33.5 154q51 156 172.5 242t290.5 86q101 0 175 -30t110 -82h2q10 43 44 66.5t81 23.5h676q62 0 100.5 -36.5t38.5 -94.5
q0 -56 -38.5 -92.5t-100.5 -36.5h-494q-12 0 -12 -13v-276q0 -13 12 -13h395q63 0 100.5 -36t37.5 -93t-37.5 -93t-100.5 -36h-395q-12 0 -12 -12v-289q0 -12 12 -12h494q62 0 100.5 -36.5t38.5 -92.5q0 -58 -38.5 -94.5t-100.5 -36.5zM643 244q169 0 219 151q23 73 23 301
t-23 301q-24 72 -79.5 112t-139.5 40t-139.5 -40t-79.5 -112q-23 -73 -23 -301t23 -301q50 -151 219 -151z" />
    <glyph glyph-name="oe" unicode="&#x153;" horiz-adv-x="1710" 
d="M1186 -23q-210 0 -322 121h-4q-118 -121 -317 -121q-162 0 -274 74t-156 211q-33 103 -33 234q0 130 33 233q44 137 156 211t274 74q102 0 174.5 -28.5t140.5 -88.5h4q111 117 307 117q163 0 274 -73t154 -206q33 -100 33 -231q0 -42 -25 -68t-69 -26h-526q-13 0 -13 -13
q0 -24 11 -57q20 -62 73.5 -95.5t130.5 -33.5q94 0 187 51q54 31 98 31t74.5 -30.5t30.5 -76.5q0 -63 -58 -102q-152 -107 -358 -107zM1010 600h325q13 0 13 12q0 37 -11 74q-17 52 -60.5 80.5t-105.5 28.5q-127 0 -163 -109q-11 -37 -11 -74q0 -12 13 -12zM543 219
q117 0 153 111q19 58 19 166t-19 166q-36 110 -153 110q-118 0 -154 -110q-18 -55 -18 -166t18 -166q36 -111 154 -111z" />
    <glyph glyph-name="Racute" unicode="&#x154;" horiz-adv-x="1277" 
d="M1032 -12q-97 0 -147 94l-234 448h-205q-12 0 -12 -12v-371q0 -72 -41.5 -115.5t-107.5 -43.5q-67 0 -109.5 44t-42.5 115v1113q0 61 35 97t96 36h443q214 0 344.5 -120t130.5 -312q0 -126 -61 -224t-169 -153l203 -369q21 -41 21 -84q0 -61 -39 -102t-105 -41zM692 786
q86 0 137.5 47t51.5 125q0 80 -51.5 127.5t-137.5 47.5h-246q-12 0 -12 -13v-321q0 -13 12 -13h246zM688 1559q-40 -46 -96 -46q-41 0 -72 29.5t-31 71.5q0 54 35 92l105 117q40 43 94 43q44 0 76 -29t32 -74q0 -56 -34 -90z" />
    <glyph glyph-name="racute" unicode="&#x155;" horiz-adv-x="876" 
d="M272 -12q-64 0 -103.5 40.5t-39.5 110.5v713q0 70 39.5 111t103.5 41q52 0 90 -29t50 -82v-2h2q36 53 102.5 88t147.5 35q57 0 104 -21q76 -37 76 -116q0 -63 -39.5 -104.5t-102.5 -41.5q-28 0 -61 10q-37 11 -74 11q-151 0 -151 -209v-404q0 -69 -40.5 -110t-103.5 -41z
M559 1157q-39 -51 -96 -51q-45 0 -76 27.5t-31 72.5q0 42 27 84l88 125q37 49 96 49q43 0 76 -30t33 -74q0 -43 -27 -82z" />
    <glyph glyph-name="Rcommaaccent" unicode="&#x156;" horiz-adv-x="1277" 
d="M1032 -12q-97 0 -147 94l-234 448h-205q-12 0 -12 -12v-371q0 -72 -41.5 -115.5t-107.5 -43.5q-67 0 -109.5 44t-42.5 115v1113q0 61 35 97t96 36h443q214 0 344.5 -120t130.5 -312q0 -126 -61 -224t-169 -153l203 -369q21 -41 21 -84q0 -61 -39 -102t-105 -41zM692 786
q86 0 137.5 47t51.5 125q0 80 -51.5 127.5t-137.5 47.5h-246q-12 0 -12 -13v-321q0 -13 12 -13h246zM698 -397q-15 -46 -44.5 -71.5t-67.5 -25.5q-54 0 -88.5 31t-34.5 84q0 25 10 55l45 142q30 96 113 96q53 0 88 -30.5t35 -84.5q0 -22 -11 -55z" />
    <glyph glyph-name="rcommaaccent" unicode="&#x157;" horiz-adv-x="876" 
d="M272 -12q-64 0 -103.5 40.5t-39.5 110.5v713q0 70 39.5 111t103.5 41q52 0 90 -29t50 -82v-2h2q36 53 102.5 88t147.5 35q57 0 104 -21q76 -37 76 -116q0 -63 -39.5 -104.5t-102.5 -41.5q-28 0 -61 10q-37 11 -74 11q-151 0 -151 -209v-404q0 -69 -40.5 -110t-103.5 -41z
M322 -397q-15 -46 -45 -71.5t-68 -25.5q-54 0 -88.5 31t-34.5 84q0 25 10 55l45 142q30 96 113 96q53 0 88 -30.5t35 -84.5q0 -25 -10 -55z" />
    <glyph glyph-name="Rcaron" unicode="&#x158;" horiz-adv-x="1277" 
d="M1032 -12q-97 0 -147 94l-234 448h-205q-12 0 -12 -12v-371q0 -72 -41.5 -115.5t-107.5 -43.5q-67 0 -109.5 44t-42.5 115v1113q0 61 35 97t96 36h443q214 0 344.5 -120t130.5 -312q0 -126 -61 -224t-169 -153l203 -369q21 -41 21 -84q0 -61 -39 -102t-105 -41zM692 786
q86 0 137.5 47t51.5 125q0 80 -51.5 127.5t-137.5 47.5h-246q-12 0 -12 -13v-321q0 -13 12 -13h246zM592 1489q-40 0 -70.5 18.5t-62.5 55.5l-131 151q-25 28 -25 62q0 36 25.5 59t60.5 23q43 0 80 -37l121 -117h4l121 117q37 37 80 37q35 0 60.5 -23t25.5 -59
q0 -34 -25 -62l-131 -151q-32 -37 -62.5 -55.5t-70.5 -18.5z" />
    <glyph glyph-name="rcaron" unicode="&#x159;" horiz-adv-x="876" 
d="M272 -12q-64 0 -103.5 40.5t-39.5 110.5v713q0 70 39.5 111t103.5 41q52 0 90 -29t50 -82v-2h2q36 53 102.5 88t147.5 35q57 0 104 -21q76 -37 76 -116q0 -63 -39.5 -104.5t-102.5 -41.5q-28 0 -61 10q-37 11 -74 11q-151 0 -151 -209v-404q0 -69 -40.5 -110t-103.5 -41z
M479 1087q-40 0 -70.5 18.5t-62.5 55.5l-131 152q-25 28 -25 61q0 36 25.5 59t60.5 23q43 0 80 -37l121 -116h4l121 116q37 37 80 37q35 0 60.5 -23t25.5 -59q0 -33 -25 -61l-131 -152q-32 -37 -62.5 -55.5t-70.5 -18.5z" />
    <glyph glyph-name="Sacute" unicode="&#x15a;" horiz-adv-x="1218" 
d="M596 -23q-246 0 -438 119q-72 47 -72 127q0 56 38.5 94.5t96.5 38.5q45 0 88 -24q88 -48 156 -69t143 -21q108 0 168 45t60 119q0 64 -47.5 101t-167.5 54l-74 10q-441 60 -441 418q0 193 134.5 309.5t359.5 116.5q112 0 218.5 -26t170.5 -66q72 -46 72 -121
q0 -57 -37.5 -94t-93.5 -37q-40 0 -88 23q-117 57 -240 57q-90 0 -139 -41t-49 -109q0 -61 50 -98.5t167 -54.5l74 -10q220 -31 329 -133.5t109 -288.5q0 -196 -142 -317.5t-405 -121.5zM688 1559q-40 -46 -96 -46q-41 0 -72 29.5t-31 71.5q0 54 35 92l105 117q40 43 94 43
q44 0 76 -29t32 -74q0 -56 -34 -90z" />
    <glyph glyph-name="sacute" unicode="&#x15b;" horiz-adv-x="1034" 
d="M512 -23q-209 0 -362 95q-70 44 -70 114q0 47 35 81t84 34q35 0 84 -27q125 -71 243 -71q76 0 115 24.5t39 67.5q0 37 -29.5 56t-113.5 28l-109 12q-160 19 -242 96t-82 207q0 148 108.5 234t301.5 86q172 0 301 -66q84 -44 84 -112q0 -48 -31.5 -80.5t-81.5 -32.5
q-27 0 -81 25q-90 43 -201 43q-125 0 -125 -78q0 -36 28 -54.5t109 -27.5l109 -13q329 -38 329 -301q0 -155 -117 -247.5t-325 -92.5zM612 1157q-39 -51 -96 -51q-45 0 -75.5 27.5t-30.5 72.5q0 44 26 84l88 125q37 49 97 49q43 0 75.5 -30t32.5 -74q0 -43 -27 -82z" />
    <glyph glyph-name="Scircumflex" unicode="&#x15c;" horiz-adv-x="1218" 
d="M596 -23q-246 0 -438 119q-72 47 -72 127q0 56 38.5 94.5t96.5 38.5q45 0 88 -24q88 -48 156 -69t143 -21q108 0 168 45t60 119q0 64 -47.5 101t-167.5 54l-74 10q-441 60 -441 418q0 193 134.5 309.5t359.5 116.5q112 0 218.5 -26t170.5 -66q72 -46 72 -121
q0 -57 -37.5 -94t-93.5 -37q-40 0 -88 23q-117 57 -240 57q-90 0 -139 -41t-49 -109q0 -61 50 -98.5t167 -54.5l74 -10q220 -31 329 -133.5t109 -288.5q0 -196 -142 -317.5t-405 -121.5zM815 1505q-43 0 -80 37l-121 117h-4l-121 -117q-37 -37 -79 -37q-35 0 -60.5 23
t-25.5 59q0 35 24 62l131 151q32 37 62.5 55.5t70.5 18.5t70.5 -18.5t62.5 -55.5l132 -151q24 -27 24 -62q0 -36 -25.5 -59t-60.5 -23z" />
    <glyph glyph-name="scircumflex" unicode="&#x15d;" horiz-adv-x="1034" 
d="M512 -23q-209 0 -362 95q-70 44 -70 114q0 47 35 81t84 34q35 0 84 -27q125 -71 243 -71q76 0 115 24.5t39 67.5q0 37 -29.5 56t-113.5 28l-109 12q-160 19 -242 96t-82 207q0 148 108.5 234t301.5 86q172 0 301 -66q84 -44 84 -112q0 -48 -31.5 -80.5t-81.5 -32.5
q-27 0 -81 25q-90 43 -201 43q-125 0 -125 -78q0 -36 28 -54.5t109 -27.5l109 -13q329 -38 329 -301q0 -155 -117 -247.5t-325 -92.5zM725 1102q-43 0 -80 37l-121 116h-4l-121 -116q-37 -37 -80 -37q-35 0 -60.5 23t-25.5 59q0 33 25 61l131 152q63 73 133 73t133 -73
l131 -152q25 -28 25 -61q0 -36 -25.5 -59t-60.5 -23z" />
    <glyph glyph-name="Scedilla" unicode="&#x15e;" horiz-adv-x="1218" 
d="M627 -283q-23 -79 -105 -79q-47 0 -81.5 27.5t-34.5 74.5q0 24 10 51l71 193q-197 18 -342 112q-71 47 -71 127q0 56 38.5 94.5t96.5 38.5q45 0 88 -24q88 -48 156 -69t143 -21q108 0 167.5 45t59.5 119q0 64 -47.5 101t-167.5 54l-73 10q-441 60 -441 418
q0 193 134.5 309.5t359.5 116.5q112 0 218.5 -26t170.5 -66q72 -46 72 -121q0 -57 -37.5 -94t-93.5 -37q-41 0 -89 23q-117 57 -239 57q-90 0 -139.5 -41t-49.5 -109q0 -61 50 -98.5t167 -54.5l74 -10q220 -31 329 -133.5t109 -288.5q0 -169 -105 -283.5t-304 -144.5z" />
    <glyph glyph-name="scedilla" unicode="&#x15f;" horiz-adv-x="1034" 
d="M561 -283q-23 -79 -104 -79q-47 0 -82 27.5t-35 74.5q0 24 10 51l72 191q-165 22 -272 90q-70 44 -70 114q0 47 35 81t84 34q35 0 84 -27q125 -71 243 -71q76 0 115 24.5t39 67.5q0 37 -29.5 56t-113.5 28l-109 12q-160 19 -242 96t-82 207q0 148 108.5 234t301.5 86
q172 0 301 -66q84 -44 84 -112q0 -48 -31.5 -80.5t-81.5 -32.5q-27 0 -81 25q-90 43 -201 43q-125 0 -125 -78q0 -36 28 -54.5t109 -27.5l109 -13q329 -38 329 -301q0 -123 -77 -209t-220 -116z" />
    <glyph glyph-name="Scaron" unicode="&#x160;" horiz-adv-x="1218" 
d="M596 -23q-246 0 -438 119q-72 47 -72 127q0 56 38.5 94.5t96.5 38.5q45 0 88 -24q88 -48 156 -69t143 -21q108 0 168 45t60 119q0 64 -47.5 101t-167.5 54l-74 10q-441 60 -441 418q0 193 134.5 309.5t359.5 116.5q112 0 218.5 -26t170.5 -66q72 -46 72 -121
q0 -57 -37.5 -94t-93.5 -37q-40 0 -88 23q-117 57 -240 57q-90 0 -139 -41t-49 -109q0 -61 50 -98.5t167 -54.5l74 -10q220 -31 329 -133.5t109 -288.5q0 -196 -142 -317.5t-405 -121.5zM606 1489q-40 0 -70.5 18.5t-62.5 55.5l-131 151q-25 28 -25 62q0 36 25.5 59t60.5 23
q43 0 80 -37l121 -117h4l121 117q37 37 80 37q35 0 60.5 -23t25.5 -59q0 -34 -25 -62l-131 -151q-32 -37 -62.5 -55.5t-70.5 -18.5z" />
    <glyph glyph-name="scaron" unicode="&#x161;" horiz-adv-x="1034" 
d="M512 -23q-209 0 -362 95q-70 44 -70 114q0 47 35 81t84 34q35 0 84 -27q125 -71 243 -71q76 0 115 24.5t39 67.5q0 37 -29.5 56t-113.5 28l-109 12q-160 19 -242 96t-82 207q0 148 108.5 234t301.5 86q172 0 301 -66q84 -44 84 -112q0 -48 -31.5 -80.5t-81.5 -32.5
q-27 0 -81 25q-90 43 -201 43q-125 0 -125 -78q0 -36 28 -54.5t109 -27.5l109 -13q329 -38 329 -301q0 -155 -117 -247.5t-325 -92.5zM514 1087q-40 0 -70.5 18.5t-62.5 55.5l-131 152q-25 28 -25 61q0 36 25.5 59t60.5 23q43 0 80 -37l121 -116h4l121 116q37 37 80 37
q35 0 60.5 -23t25.5 -59q0 -33 -25 -61l-131 -152q-32 -37 -62.5 -55.5t-70.5 -18.5z" />
    <glyph glyph-name="Tcommaaccent" unicode="&#x162;" horiz-adv-x="1144" 
d="M571 -12q-65 0 -107 44t-42 115v965q0 12 -12 12h-236q-68 0 -109.5 37t-41.5 96q0 61 41.5 98.5t109.5 37.5h797q68 0 109.5 -37.5t41.5 -98.5q0 -59 -41.5 -96t-109.5 -37h-236q-12 0 -12 -12v-965q0 -71 -42.5 -115t-109.5 -44zM627 -397q-15 -46 -45 -71.5t-68 -25.5
q-54 0 -88.5 31t-34.5 84q0 25 10 55l45 142q30 96 113 96q53 0 88 -30.5t35 -84.5q0 -25 -10 -55z" />
    <glyph glyph-name="tcommaaccent" unicode="&#x163;" horiz-adv-x="677" 
d="M479 -12h-12q-171 0 -244 79.5t-73 251.5v447q0 12 -15 12h-8q-54 0 -84.5 29.5t-30.5 77.5t30.5 77t84.5 29h8q15 0 15 13v147q0 70 39.5 111t103.5 41q62 0 101.5 -41t39.5 -111v-147q0 -13 12 -13h78q54 0 84.5 -29t30.5 -77t-30.5 -77.5t-84.5 -29.5h-78
q-12 0 -12 -12v-438q0 -44 18 -64.5t58 -25.5q64 -7 95.5 -42.5t31.5 -84.5q0 -55 -40 -89t-118 -34zM432 -397q-15 -46 -45 -71.5t-68 -25.5q-54 0 -88 31t-34 84q0 25 10 55l45 142q30 96 113 96q53 0 87.5 -30.5t34.5 -84.5q0 -25 -10 -55z" />
    <glyph glyph-name="Tcaron" unicode="&#x164;" horiz-adv-x="1144" 
d="M571 -12q-65 0 -107 44t-42 115v965q0 12 -12 12h-236q-68 0 -109.5 37t-41.5 96q0 61 41.5 98.5t109.5 37.5h797q68 0 109.5 -37.5t41.5 -98.5q0 -59 -41.5 -96t-109.5 -37h-236q-12 0 -12 -12v-965q0 -71 -42.5 -115t-109.5 -44zM567 1489q-40 0 -70.5 18.5t-62.5 55.5
l-131 151q-24 27 -24 62q0 36 25.5 59t60.5 23q42 0 79 -37l121 -117h4l121 117q37 37 80 37q35 0 60.5 -23t25.5 -59q0 -34 -25 -62l-131 -151q-32 -37 -62.5 -55.5t-70.5 -18.5z" />
    <glyph glyph-name="tcaron" unicode="&#x165;" horiz-adv-x="677" 
d="M479 -12h-12q-171 0 -244 79.5t-73 251.5v447q0 12 -15 12h-8q-54 0 -84.5 29.5t-30.5 77.5t30.5 77t84.5 29h8q15 0 15 13v147q0 70 39.5 111t103.5 41q62 0 101.5 -41t39.5 -111v-147q0 -13 12 -13h78q54 0 84.5 -29t30.5 -77t-30.5 -77.5t-84.5 -29.5h-78
q-12 0 -12 -12v-438q0 -44 18 -64.5t58 -25.5q64 -7 95.5 -42.5t31.5 -84.5q0 -55 -40 -89t-118 -34zM786 1108q-15 -46 -44.5 -71t-67.5 -25q-54 0 -87.5 30.5t-33.5 83.5q0 32 8 56l41 127q31 96 113 96q53 0 87 -31.5t34 -85.5q0 -26 -9 -53z" />
    <glyph glyph-name="Tbar" unicode="&#x166;" horiz-adv-x="1144" 
d="M571 -12q-65 0 -107 44t-42 115v488q0 12 -12 12h-88q-52 0 -84.5 30.5t-32.5 80.5q0 49 32 79.5t85 30.5h88q12 0 12 13v231q0 12 -12 12h-236q-69 0 -110 36.5t-41 96.5q0 61 41.5 98.5t109.5 37.5h797q68 0 109.5 -37.5t41.5 -98.5q0 -60 -41 -96.5t-110 -36.5h-236
q-12 0 -12 -12v-231q0 -13 12 -13h88q53 0 85 -30.5t32 -79.5q0 -50 -32.5 -80.5t-84.5 -30.5h-88q-12 0 -12 -12v-488q0 -71 -42.5 -115t-109.5 -44z" />
    <glyph glyph-name="tbar" unicode="&#x167;" horiz-adv-x="677" 
d="M479 -12h-12q-171 0 -244 79.5t-73 251.5v154q0 12 -13 12h-8q-42 0 -68 26.5t-26 66.5t26 65t68 25h8q13 0 13 12v86q0 12 -15 12h-8q-54 0 -84.5 29.5t-30.5 77.5t30.5 77t84.5 29h8q15 0 15 13v147q0 70 39.5 111t103.5 41q62 0 101.5 -41t39.5 -111v-147
q0 -13 12 -13h78q54 0 84.5 -29t30.5 -77t-30.5 -77.5t-84.5 -29.5h-78q-12 0 -12 -12v-86q0 -12 12 -12h48q41 0 67.5 -25t26.5 -65t-26.5 -66.5t-67.5 -26.5h-48q-12 0 -12 -12v-145q0 -44 18 -64.5t58 -25.5q64 -7 95.5 -42.5t31.5 -84.5q0 -55 -40 -89t-118 -34z" />
    <glyph glyph-name="Utilde" unicode="&#x168;" horiz-adv-x="1320" 
d="M662 -23q-248 0 -391.5 140t-143.5 397v731q0 71 42.5 115.5t109.5 44.5q65 0 107 -44.5t42 -115.5v-741q0 -122 65.5 -191t168.5 -69q106 0 168.5 68.5t62.5 191.5v741q0 71 42 115.5t107 44.5q67 0 109.5 -44.5t42.5 -115.5v-731q0 -255 -145.5 -396t-386.5 -141z
M782 1532q-71 0 -143 45q-57 35 -88 35q-20 0 -33.5 -7t-34.5 -26q-38 -33 -73 -33q-38 0 -63 24.5t-25 61.5q0 41 28 80q83 103 187 103q70 0 143 -46q55 -34 88 -34q20 0 34 6.5t34 25.5q38 33 73 33q38 0 63 -24.5t25 -61.5q0 -41 -28 -80q-82 -102 -187 -102z" />
    <glyph glyph-name="utilde" unicode="&#x169;" horiz-adv-x="1124" 
d="M852 -12q-52 0 -88.5 27.5t-48.5 76.5h-2q-89 -115 -262 -115q-160 0 -246 101t-86 268v506q0 69 40.5 110.5t104.5 41.5q63 0 102.5 -41.5t39.5 -110.5v-451q0 -84 38 -132t113 -48q74 0 113 48t39 132v451q0 70 39.5 111t103.5 41q63 0 103 -41.5t40 -110.5v-713
q0 -70 -39.5 -110.5t-103.5 -40.5zM680 1133q-71 0 -143 45q-55 34 -88 34q-20 0 -34 -6.5t-34 -25.5q-38 -33 -74 -33q-38 0 -63 24.5t-25 61.5q0 40 29 80q82 102 186 102q72 0 144 -45q57 -35 88 -35q20 0 33 7t34 26q38 33 74 33q38 0 63 -24.5t25 -61.5q0 -40 -29 -80
q-82 -102 -186 -102z" />
    <glyph glyph-name="Umacron" unicode="&#x16a;" horiz-adv-x="1320" 
d="M662 -23q-248 0 -391.5 140t-143.5 397v731q0 71 42.5 115.5t109.5 44.5q65 0 107 -44.5t42 -115.5v-741q0 -122 65.5 -191t168.5 -69q106 0 168.5 68.5t62.5 191.5v741q0 71 42 115.5t107 44.5q67 0 109.5 -44.5t42.5 -115.5v-731q0 -255 -145.5 -396t-386.5 -141z
M879 1575h-437q-51 0 -79.5 28t-28.5 72q0 46 28.5 74.5t79.5 28.5h437q50 0 78 -28.5t28 -74.5q0 -44 -28 -72t-78 -28z" />
    <glyph glyph-name="umacron" unicode="&#x16b;" horiz-adv-x="1124" 
d="M852 -12q-52 0 -88.5 27.5t-48.5 76.5h-2q-89 -115 -262 -115q-160 0 -246 101t-86 268v506q0 69 40.5 110.5t104.5 41.5q63 0 102.5 -41.5t39.5 -110.5v-451q0 -84 38 -132t113 -48q74 0 113 48t39 132v451q0 70 39.5 111t103.5 41q63 0 103 -41.5t40 -110.5v-713
q0 -70 -39.5 -110.5t-103.5 -40.5zM778 1178h-436q-51 0 -80 28t-29 72q0 45 29 73.5t80 28.5h436q50 0 78.5 -28.5t28.5 -73.5q0 -44 -28.5 -72t-78.5 -28z" />
    <glyph glyph-name="Ubreve" unicode="&#x16c;" horiz-adv-x="1320" 
d="M662 -23q-248 0 -391.5 140t-143.5 397v731q0 71 42.5 115.5t109.5 44.5q65 0 107 -44.5t42 -115.5v-741q0 -122 65.5 -191t168.5 -69q106 0 168.5 68.5t62.5 191.5v741q0 71 42 115.5t107 44.5q67 0 109.5 -44.5t42.5 -115.5v-731q0 -255 -145.5 -396t-386.5 -141z
M659 1522q-129 0 -216 68.5t-87 166.5q0 37 21.5 59.5t56.5 22.5q32 0 49.5 -14.5t34.5 -46.5q41 -72 141 -72q101 0 142 72q17 32 34.5 46.5t49.5 14.5q35 0 56.5 -22.5t21.5 -59.5q0 -98 -87.5 -166.5t-216.5 -68.5z" />
    <glyph glyph-name="ubreve" unicode="&#x16d;" horiz-adv-x="1124" 
d="M852 -12q-52 0 -88.5 27.5t-48.5 76.5h-2q-89 -115 -262 -115q-160 0 -246 101t-86 268v506q0 69 40.5 110.5t104.5 41.5q63 0 102.5 -41.5t39.5 -110.5v-451q0 -84 38 -132t113 -48q74 0 113 48t39 132v451q0 70 39.5 111t103.5 41q63 0 103 -41.5t40 -110.5v-713
q0 -70 -39.5 -110.5t-103.5 -40.5zM561 1116q-129 0 -216 69t-87 167q0 37 21.5 59.5t56.5 22.5q32 0 49 -14.5t35 -47.5q41 -72 141 -72t141 72q18 33 35 47.5t49 14.5q35 0 56.5 -22.5t21.5 -59.5q0 -98 -87 -167t-216 -69z" />
    <glyph glyph-name="Uring" unicode="&#x16e;" horiz-adv-x="1320" 
d="M662 -23q-248 0 -391.5 140t-143.5 397v731q0 71 42.5 115.5t109.5 44.5q65 0 107 -44.5t42 -115.5v-741q0 -122 65.5 -191t168.5 -69q106 0 168.5 68.5t62.5 191.5v741q0 71 42 115.5t107 44.5q67 0 109.5 -44.5t42.5 -115.5v-731q0 -255 -145.5 -396t-386.5 -141z
M659 1458q-95 0 -158 62t-63 157t63 157t158 62q96 0 159 -62t63 -157t-63 -157t-159 -62zM659 1579q41 0 68 27.5t27 70.5t-27 71t-68 28t-67.5 -28t-26.5 -71t26.5 -70.5t67.5 -27.5z" />
    <glyph glyph-name="uring" unicode="&#x16f;" horiz-adv-x="1124" 
d="M852 -12q-52 0 -88.5 27.5t-48.5 76.5h-2q-89 -115 -262 -115q-160 0 -246 101t-86 268v506q0 69 40.5 110.5t104.5 41.5q63 0 102.5 -41.5t39.5 -110.5v-451q0 -84 38 -132t113 -48q74 0 113 48t39 132v451q0 70 39.5 111t103.5 41q63 0 103 -41.5t40 -110.5v-713
q0 -70 -39.5 -110.5t-103.5 -40.5zM561 1073q-95 0 -158 62t-63 157t63 157t158 62t158 -62t63 -157t-63 -157t-158 -62zM561 1194q41 0 67.5 27.5t26.5 70.5t-26.5 71t-67.5 28t-67.5 -28t-26.5 -71t26.5 -70.5t67.5 -27.5z" />
    <glyph glyph-name="Uhungarumlaut" unicode="&#x170;" horiz-adv-x="1320" 
d="M662 -23q-248 0 -391.5 140t-143.5 397v731q0 71 42.5 115.5t109.5 44.5q65 0 107 -44.5t42 -115.5v-741q0 -122 65.5 -191t168.5 -69q106 0 168.5 68.5t62.5 191.5v741q0 71 42 115.5t107 44.5q67 0 109.5 -44.5t42.5 -115.5v-731q0 -255 -145.5 -396t-386.5 -141z
M954 1589q-38 -55 -94 -55q-44 0 -77 28.5t-33 73.5q0 40 28 82l74 111q36 53 96 53q43 0 76 -30t33 -74q0 -40 -27 -80zM594 1589q-38 -55 -94 -55q-44 0 -77.5 28.5t-33.5 73.5q0 38 29 82l74 111q36 53 96 53q43 0 75.5 -30t32.5 -74q0 -41 -26 -80z" />
    <glyph glyph-name="uhungarumlaut" unicode="&#x171;" horiz-adv-x="1124" 
d="M852 -12q-52 0 -88.5 27.5t-48.5 76.5h-2q-89 -115 -262 -115q-160 0 -246 101t-86 268v506q0 69 40.5 110.5t104.5 41.5q63 0 102.5 -41.5t39.5 -110.5v-451q0 -84 38 -132t113 -48q74 0 113 48t39 132v451q0 70 39.5 111t103.5 41q63 0 103 -41.5t40 -110.5v-713
q0 -70 -39.5 -110.5t-103.5 -40.5zM856 1161q-40 -63 -98 -63q-44 0 -76.5 29.5t-32.5 74.5q0 35 23 76l78 131q35 61 100 61q44 0 76 -29t32 -75q0 -35 -22 -74zM494 1161q-40 -63 -99 -63q-44 0 -76 29.5t-32 74.5q0 37 22 76l78 131q35 61 100 61q44 0 76.5 -29t32.5 -75
q0 -33 -23 -74z" />
    <glyph glyph-name="Uogonek" unicode="&#x172;" horiz-adv-x="1320" 
d="M688 -391q-100 0 -158.5 51.5t-58.5 140.5q0 96 70 187q-195 31 -304.5 166.5t-109.5 359.5v731q0 71 42.5 115.5t109.5 44.5q65 0 107 -44.5t42 -115.5v-741q0 -122 65.5 -191t168.5 -69q106 0 168.5 68.5t62.5 191.5v741q0 71 42 115.5t107 44.5q67 0 109.5 -44.5
t42.5 -115.5v-731q0 -224 -113 -360t-307 -166q-80 -100 -80 -146q0 -37 33 -37q11 0 29 7q24 8 43 8q34 0 57 -25.5t23 -62.5q0 -61 -54 -90q-58 -33 -137 -33z" />
    <glyph glyph-name="uogonek" unicode="&#x173;" horiz-adv-x="1124" 
d="M799 -391q-100 0 -158.5 51.5t-58.5 140.5q0 125 157 236q-19 31 -24 55h-2q-89 -115 -262 -115q-160 0 -246 101t-86 268v506q0 69 40.5 110.5t104.5 41.5q63 0 102.5 -41.5t39.5 -110.5v-451q0 -84 38 -132t113 -48q74 0 113 48t39 132v451q0 70 39.5 111t103.5 41
q63 0 103 -41.5t40 -110.5v-713q0 -73 -41 -112q-89 -83 -119 -123t-30 -62q0 -37 33 -37q10 0 28 7q24 8 43 8q34 0 57 -25.5t23 -62.5q0 -61 -53 -90q-58 -33 -137 -33z" />
    <glyph glyph-name="Wcircumflex" unicode="&#x174;" horiz-adv-x="1769" 
d="M1260 -12q-63 0 -101 36.5t-63 120.5l-211 740h-4l-207 -740q-23 -84 -61.5 -120.5t-102.5 -36.5q-62 0 -101.5 36.5t-62.5 120.5l-287 1057q-8 36 -8 60q0 62 40.5 102.5t107.5 40.5q112 0 147 -139l182 -770h4l211 780q37 129 142 129q55 0 89.5 -32t53.5 -97l217 -780
h4l176 770q32 139 148 139q66 0 105.5 -40t39.5 -103q0 -24 -8 -60l-287 -1057q-23 -84 -62 -120.5t-101 -36.5zM1087 1505q-42 0 -79 37l-121 117h-4l-121 -117q-37 -37 -80 -37q-35 0 -60.5 23t-25.5 59q0 34 25 62l131 151q32 37 62.5 55.5t70.5 18.5t70.5 -18.5
t62.5 -55.5l131 -151q25 -28 25 -62q0 -36 -26 -59t-61 -23z" />
    <glyph glyph-name="wcircumflex" unicode="&#x175;" horiz-adv-x="1566" 
d="M1090 -12q-123 0 -162 133l-142 475h-4l-143 -475q-43 -133 -158 -133q-116 0 -162 133l-231 686q-10 33 -10 59q0 60 39.5 99t99.5 39q102 0 137 -121l144 -502h4l141 500q37 123 141 123q102 0 140 -123l149 -500h4l137 502q35 121 138 121q60 0 98.5 -39t38.5 -99
q0 -26 -10 -59l-232 -686q-23 -68 -61 -100.5t-96 -32.5zM987 1102q-43 0 -80 37l-121 116h-4l-120 -116q-37 -37 -80 -37q-35 0 -60.5 23t-25.5 59q0 34 24 61l131 152q63 73 133 73q71 0 134 -73l131 -152q24 -27 24 -61q0 -36 -25.5 -59t-60.5 -23z" />
    <glyph glyph-name="Ycircumflex" unicode="&#x176;" horiz-adv-x="1161" 
d="M580 -12q-65 0 -107.5 43.5t-42.5 115.5v406l-356 635q-23 44 -23 82q0 58 41 96.5t101 38.5q84 0 133 -90l254 -477h6l256 477q47 90 133 90q60 0 98.5 -38t38.5 -97q0 -40 -22 -82l-359 -635v-406q0 -73 -42 -116t-109 -43zM782 1505q-43 0 -80 37l-120 117h-4
l-121 -117q-37 -37 -80 -37q-35 0 -60.5 23t-25.5 59q0 35 24 62l131 151q64 74 134 74q40 0 70.5 -18.5t62.5 -55.5l131 -151q24 -27 24 -62q0 -36 -25.5 -59t-60.5 -23z" />
    <glyph glyph-name="ycircumflex" unicode="&#x177;" horiz-adv-x="1038" 
d="M258 -369h-12q-61 0 -97 34t-36 87q0 55 35.5 88.5t97.5 34.5q46 2 74.5 24.5t46.5 75.5l26 74l-317 752q-15 37 -15 67q0 58 41 97t101 39q93 0 133 -101l190 -506h4l177 506q37 101 131 101q60 0 99.5 -38.5t39.5 -97.5q0 -32 -14 -67l-355 -887q-64 -161 -140 -222
t-210 -61zM725 1102q-43 0 -80 37l-121 116h-4l-121 -116q-37 -37 -80 -37q-35 0 -60.5 23t-25.5 59q0 33 25 61l131 152q63 73 133 73t133 -73l131 -152q25 -28 25 -61q0 -36 -25.5 -59t-60.5 -23z" />
    <glyph glyph-name="Ydieresis" unicode="&#x178;" horiz-adv-x="1161" 
d="M580 -12q-65 0 -107.5 43.5t-42.5 115.5v406l-356 635q-23 44 -23 82q0 58 41 96.5t101 38.5q84 0 133 -90l254 -477h6l256 477q47 90 133 90q60 0 98.5 -38t38.5 -97q0 -40 -22 -82l-359 -635v-406q0 -73 -42 -116t-109 -43zM786 1532q-62 0 -104.5 42t-42.5 103
t42.5 103.5t104.5 42.5q60 0 103 -42.5t43 -103.5t-43 -103t-103 -42zM375 1532q-62 0 -105 42t-43 103t43 103.5t105 42.5q60 0 102.5 -42.5t42.5 -103.5t-42.5 -103t-102.5 -42z" />
    <glyph glyph-name="Zacute" unicode="&#x179;" horiz-adv-x="1118" 
d="M905 0h-678q-74 0 -115.5 41t-41.5 102q0 52 20.5 97.5t75.5 124.5l512 755v4h-442q-67 0 -105.5 37t-38.5 96q0 60 39 98t105 38h655q75 0 116.5 -41t41.5 -103q0 -47 -17.5 -90t-70.5 -119l-521 -768v-4h465q67 0 105.5 -37.5t38.5 -97.5t-38 -96.5t-106 -36.5z
M647 1559q-40 -46 -96 -46q-41 0 -71.5 29.5t-30.5 71.5q0 55 34 92l105 117q40 43 94 43q44 0 76.5 -29t32.5 -74q0 -55 -35 -90z" />
    <glyph glyph-name="zacute" unicode="&#x17a;" horiz-adv-x="978" 
d="M791 0h-601q-59 0 -94 33t-35 90q0 39 22.5 79.5t70.5 96.5l401 449v4h-336q-62 0 -95.5 32t-33.5 86q0 55 33.5 88t95.5 33h572q57 0 92 -33t35 -90q0 -74 -91 -178l-399 -446v-4h363q60 0 93.5 -33t33.5 -88q0 -54 -33.5 -86.5t-93.5 -32.5zM600 1157q-39 -51 -96 -51
q-45 0 -76 27.5t-31 72.5q0 42 27 84l88 125q37 49 96 49q43 0 76 -30t33 -74q0 -43 -27 -82z" />
    <glyph glyph-name="Zdotaccent" unicode="&#x17b;" horiz-adv-x="1118" 
d="M905 0h-678q-74 0 -115.5 41t-41.5 102q0 52 20.5 97.5t75.5 124.5l512 755v4h-442q-67 0 -105.5 37t-38.5 96q0 60 39 98t105 38h655q75 0 116.5 -41t41.5 -103q0 -47 -17.5 -90t-70.5 -119l-521 -768v-4h465q67 0 105.5 -37.5t38.5 -97.5t-38 -96.5t-106 -36.5z
M563 1509q-67 0 -114.5 47.5t-47.5 114.5t47.5 114.5t114.5 47.5t114.5 -47.5t47.5 -114.5t-47.5 -114.5t-114.5 -47.5z" />
    <glyph glyph-name="zdotaccent" unicode="&#x17c;" horiz-adv-x="978" 
d="M791 0h-601q-59 0 -94 33t-35 90q0 39 22.5 79.5t70.5 96.5l401 449v4h-336q-62 0 -95.5 32t-33.5 86q0 55 33.5 88t95.5 33h572q57 0 92 -33t35 -90q0 -74 -91 -178l-399 -446v-4h363q60 0 93.5 -33t33.5 -88q0 -54 -33.5 -86.5t-93.5 -32.5zM500 1092q-68 0 -115 47
t-47 114t47 114.5t115 47.5t115 -47.5t47 -114.5t-47 -114t-115 -47z" />
    <glyph glyph-name="Zcaron" unicode="&#x17d;" horiz-adv-x="1118" 
d="M905 0h-678q-74 0 -115.5 41t-41.5 102q0 52 20.5 97.5t75.5 124.5l512 755v4h-442q-67 0 -105.5 37t-38.5 96q0 60 39 98t105 38h655q75 0 116.5 -41t41.5 -103q0 -47 -17.5 -90t-70.5 -119l-521 -768v-4h465q67 0 105.5 -37.5t38.5 -97.5t-38 -96.5t-106 -36.5z
M563 1489q-40 0 -70.5 18.5t-62.5 55.5l-131 151q-25 28 -25 62q0 36 25.5 59t60.5 23q43 0 80 -37l121 -117h4l121 117q37 37 80 37q35 0 60.5 -23t25.5 -59q0 -34 -25 -62l-131 -151q-32 -37 -62.5 -55.5t-70.5 -18.5z" />
    <glyph glyph-name="zcaron" unicode="&#x17e;" horiz-adv-x="978" 
d="M791 0h-601q-59 0 -94 33t-35 90q0 39 22.5 79.5t70.5 96.5l401 449v4h-336q-62 0 -95.5 32t-33.5 86q0 55 33.5 88t95.5 33h572q57 0 92 -33t35 -90q0 -74 -91 -178l-399 -446v-4h363q60 0 93.5 -33t33.5 -88q0 -54 -33.5 -86.5t-93.5 -32.5zM502 1087q-40 0 -70.5 18.5
t-62.5 55.5l-131 152q-25 28 -25 61q0 36 25.5 59t60.5 23q43 0 80 -37l121 -116h4l121 116q37 37 80 37q35 0 60.5 -23t25.5 -59q0 -33 -25 -61l-131 -152q-32 -37 -62.5 -55.5t-70.5 -18.5z" />
    <glyph glyph-name="florin" unicode="&#x192;" horiz-adv-x="1097" 
d="M825 641h-116l-101 -666q-28 -184 -117.5 -264t-265.5 -80h-12q-60 0 -94.5 32.5t-34.5 86.5q0 55 34 88t95 33q98 0 115 115l100 655h-41q-55 0 -86 29.5t-31 77.5t31 77t86 29h74l31 195q29 185 117 264.5t265 79.5h13q59 0 93 -33t34 -86q0 -55 -34 -88t-93 -33
q-51 0 -79.5 -27.5t-37.5 -87.5l-29 -184h84q53 0 84 -29t31 -77t-31 -77.5t-84 -29.5z" />
    <glyph glyph-name="Aringacute" unicode="&#x1fa;" horiz-adv-x="1318" 
d="M762 1587q-39 -31 -78 -31q-42 0 -74 30t-32 75q0 51 49 94l94 82q34 31 78 31q42 0 74 -30t32 -75q0 -54 -53 -98zM1106 -12q-50 0 -87 27.5t-54 78.5l-58 170h-497l-56 -170q-17 -51 -54 -78.5t-87 -27.5q-59 0 -102 39.5t-43 101.5q0 30 10 57l330 916q19 58 65 80
q-35 53 -35 123q0 95 62.5 156t156.5 61q96 0 159 -61t63 -156q0 -63 -33 -121q47 -20 69 -84l326 -914q10 -27 10 -57q0 -62 -43 -101.5t-102 -39.5zM657 1206q43 0 70 28t27 71t-27 70.5t-70 27.5q-41 0 -67.5 -27.5t-26.5 -70.5t26.5 -71t67.5 -28zM657 1006l-161 -486
h327l-159 486h-7z" />
    <glyph glyph-name="aringacute" unicode="&#x1fb;" horiz-adv-x="1081" 
d="M655 1587q-39 -31 -77 -31q-43 0 -75 30t-32 75q0 51 49 94l94 82q34 31 78 31q43 0 75 -30t32 -75q0 -53 -54 -98zM1006 205q24 -41 24 -84q0 -57 -41.5 -95t-101.5 -38q-77 0 -117 55l-25 35h-2q-38 -47 -113 -74t-167 -27q-187 0 -282 80t-95 224q0 159 109.5 239
t300.5 80h178q12 0 12 12v11q0 70 -51 108.5t-152 38.5q-82 0 -159 -29q-44 -14 -68 -14q-51 0 -83 31.5t-32 83.5q0 76 74 114q116 58 303 58q220 0 331.5 -105t111.5 -295v-270q0 -62 18 -94zM502 193q184 0 184 137v67q0 13 -12 13h-139q-177 0 -177 -113
q0 -104 144 -104zM545 1073q-95 0 -158 62t-63 157t63 157t158 62t158 -62t63 -157t-63 -157t-158 -62zM545 1194q41 0 67.5 27.5t26.5 70.5t-26.5 71t-67.5 28t-67.5 -28t-26.5 -71t26.5 -70.5t67.5 -27.5z" />
    <glyph glyph-name="AEacute" unicode="&#x1fc;" horiz-adv-x="1894" 
d="M1677 0h-676q-60 0 -95.5 35.5t-35.5 95.5v121q0 12 -12 12h-414l-88 -180q-47 -96 -141 -96q-62 0 -105.5 38.5t-43.5 102.5q0 39 22 88l526 1038q36 72 87.5 105t132.5 33h843q63 0 101.5 -37t38.5 -94q0 -58 -39 -95t-101 -37h-491q-12 0 -12 -12v-274q0 -13 12 -13
h393q62 0 99.5 -35.5t37.5 -93.5t-37.5 -93.5t-99.5 -35.5h-393q-12 0 -12 -12v-287q0 -12 12 -12h491q63 0 101.5 -37t38.5 -94t-38.5 -94t-101.5 -37zM864 1130l-297 -610h291q12 0 12 12v598h-6zM1049 1559q-40 -46 -97 -46q-41 0 -71.5 29.5t-30.5 71.5q0 54 35 92
l104 117q40 43 94 43q44 0 76.5 -29t32.5 -74q0 -55 -35 -90z" />
    <glyph glyph-name="aeacute" unicode="&#x1fd;" horiz-adv-x="1671" 
d="M1147 -23q-221 0 -342 121h-2q-70 -68 -147.5 -94.5t-192.5 -26.5q-187 0 -282 80t-95 224q0 159 109.5 239t300.5 80h178q12 0 12 12v11q0 70 -51 108.5t-152 38.5q-82 0 -159 -29q-44 -14 -68 -14q-51 0 -83 31.5t-32 83.5q0 76 74 114q116 58 303 58q207 0 316 -92h2
q114 92 294 92q163 0 274.5 -73t154.5 -206q32 -97 32 -231q0 -42 -25 -68t-69 -26h-526q-13 0 -13 -13q0 -24 11 -57q20 -62 74 -95.5t131 -33.5q93 0 186 51q54 31 98 31t74.5 -30.5t30.5 -76.5q0 -63 -58 -102q-152 -107 -358 -107zM971 600h325q13 0 13 12q0 37 -11 74
q-17 52 -60 80.5t-105 28.5t-104.5 -28.5t-59.5 -80.5q-11 -37 -11 -74q0 -12 13 -12zM502 193q184 0 184 137v67q0 13 -12 13h-139q-177 0 -177 -113q0 -104 144 -104zM954 1157q-39 -51 -96 -51q-45 0 -75.5 27.5t-30.5 72.5q0 44 26 84l88 125q37 49 97 49q43 0 75.5 -30
t32.5 -74q0 -43 -27 -82z" />
    <glyph glyph-name="Oslashacute" unicode="&#x1fe;" horiz-adv-x="1286" 
d="M291 -27q-27 -47 -76 -47q-33 0 -56.5 22t-23.5 58q0 25 17 53l63 103q-55 72 -80 153q-23 74 -31 150.5t-8 230.5t8 230.5t31 150.5q54 166 187.5 252t320.5 86q175 0 303 -76l49 80q27 47 76 47q33 0 56.5 -22t23.5 -58q0 -26 -16 -53l-64 -104q49 -64 80 -152
q23 -74 31 -150.5t8 -230.5t-8 -230.5t-31 -150.5q-54 -166 -187.5 -252t-320.5 -86q-176 0 -303 74zM397 696q0 -163 9 -237l389 645q-59 47 -152 47q-85 0 -142 -40t-81 -112q-23 -73 -23 -303zM643 242q85 0 142 39.5t81 111.5q23 73 23 303q0 169 -8 234l-387 -643
q57 -45 149 -45zM745 1559q-40 -46 -96 -46q-41 0 -71.5 29.5t-30.5 71.5q0 54 35 92l104 117q40 43 94 43q44 0 76.5 -29t32.5 -74q0 -55 -35 -90z" />
    <glyph glyph-name="oslashacute" unicode="&#x1ff;" horiz-adv-x="1085" 
d="M172 -74q-24 0 -41.5 17t-17.5 41q0 25 18 49l62 84q-53 59 -80 145q-33 103 -33 234q0 130 33 233q44 137 156 211t274 74q145 0 250 -60l59 80q23 33 57 33q24 0 42 -16.5t18 -40.5t-19 -49l-61 -84q57 -64 84 -148q33 -103 33 -233q0 -131 -33 -234
q-44 -137 -156 -211t-274 -74q-150 0 -256 62l-58 -80q-23 -33 -57 -33zM367 496q0 -84 8 -136l266 385q-43 29 -98 29q-122 0 -158 -110q-18 -55 -18 -168zM543 217q121 0 157 111q19 58 19 168q0 71 -10 133l-265 -385q40 -27 99 -27zM651 1157q-39 -51 -96 -51
q-45 0 -75.5 27.5t-30.5 72.5q0 44 26 84l88 125q37 49 96 49q43 0 76 -30t33 -74q0 -43 -27 -82z" />
    <glyph glyph-name="Scommaaccent" unicode="&#x218;" horiz-adv-x="1218" 
d="M596 -23q-246 0 -438 119q-72 47 -72 127q0 56 38.5 94.5t96.5 38.5q45 0 88 -24q88 -48 156 -69t143 -21q108 0 168 45t60 119q0 64 -47.5 101t-167.5 54l-74 10q-441 60 -441 418q0 193 134.5 309.5t359.5 116.5q112 0 218.5 -26t170.5 -66q72 -46 72 -121
q0 -57 -37.5 -94t-93.5 -37q-40 0 -88 23q-117 57 -240 57q-90 0 -139 -41t-49 -109q0 -61 50 -98.5t167 -54.5l74 -10q220 -31 329 -133.5t109 -288.5q0 -196 -142 -317.5t-405 -121.5zM674 -397q-15 -46 -45 -71.5t-68 -25.5q-54 0 -88.5 31t-34.5 84q0 22 11 55l45 142
q30 96 112 96q53 0 88 -30.5t35 -84.5q0 -25 -10 -55z" />
    <glyph glyph-name="scommaaccent" unicode="&#x219;" horiz-adv-x="1034" 
d="M512 -23q-209 0 -362 95q-70 44 -70 114q0 47 35 81t84 34q35 0 84 -27q125 -71 243 -71q76 0 115 24.5t39 67.5q0 37 -29.5 56t-113.5 28l-109 12q-160 19 -242 96t-82 207q0 148 108.5 234t301.5 86q172 0 301 -66q84 -44 84 -112q0 -48 -31.5 -80.5t-81.5 -32.5
q-27 0 -81 25q-90 43 -201 43q-125 0 -125 -78q0 -36 28 -54.5t109 -27.5l109 -13q329 -38 329 -301q0 -155 -117 -247.5t-325 -92.5zM584 -397q-15 -46 -45 -71.5t-68 -25.5q-54 0 -88.5 31t-34.5 84q0 25 10 55l45 142q30 96 113 96q53 0 88 -30.5t35 -84.5q0 -25 -10 -55
z" />
    <glyph glyph-name="uni021A" unicode="&#x21a;" horiz-adv-x="1144" 
d="M571 -12q-65 0 -107 44t-42 115v965q0 12 -12 12h-236q-68 0 -109.5 37t-41.5 96q0 61 41.5 98.5t109.5 37.5h797q68 0 109.5 -37.5t41.5 -98.5q0 -59 -41.5 -96t-109.5 -37h-236q-12 0 -12 -12v-965q0 -71 -42.5 -115t-109.5 -44zM627 -397q-15 -46 -45 -71.5t-68 -25.5
q-54 0 -88.5 31t-34.5 84q0 25 10 55l45 142q30 96 113 96q53 0 88 -30.5t35 -84.5q0 -25 -10 -55z" />
    <glyph glyph-name="uni021B" unicode="&#x21b;" horiz-adv-x="677" 
d="M479 -12h-12q-171 0 -244 79.5t-73 251.5v447q0 12 -15 12h-8q-54 0 -84.5 29.5t-30.5 77.5t30.5 77t84.5 29h8q15 0 15 13v147q0 70 39.5 111t103.5 41q62 0 101.5 -41t39.5 -111v-147q0 -13 12 -13h78q54 0 84.5 -29t30.5 -77t-30.5 -77.5t-84.5 -29.5h-78
q-12 0 -12 -12v-438q0 -44 18 -64.5t58 -25.5q64 -7 95.5 -42.5t31.5 -84.5q0 -55 -40 -89t-118 -34zM432 -397q-15 -46 -45 -71.5t-68 -25.5q-54 0 -88 31t-34 84q0 25 10 55l45 142q30 96 113 96q53 0 87.5 -30.5t34.5 -84.5q0 -25 -10 -55z" />
    <glyph glyph-name="dotlessj" unicode="&#x237;" horiz-adv-x="544" 
d="M68 -369q-61 0 -95 33.5t-34 87.5q0 104 110 125q46 9 63 33t17 80v862q0 70 39.5 111t103.5 41q63 0 103.5 -41.5t40.5 -110.5v-860q0 -187 -87 -274t-261 -87z" />
    <glyph glyph-name="circumflex" unicode="&#x2c6;" horiz-adv-x="929" 
d="M668 1102q-43 0 -80 37l-121 116h-4l-121 -116q-37 -37 -80 -37q-35 0 -60.5 23t-25.5 59q0 33 25 61l131 152q63 73 133 73t133 -73l131 -152q25 -28 25 -61q0 -36 -25.5 -59t-60.5 -23z" />
    <glyph glyph-name="caron" unicode="&#x2c7;" horiz-adv-x="929" 
d="M465 1087q-40 0 -70.5 18.5t-62.5 55.5l-131 152q-25 28 -25 61q0 36 25.5 59t60.5 23q43 0 80 -37l121 -116h4l121 116q37 37 80 37q35 0 60.5 -23t25.5 -59q0 -33 -25 -61l-131 -152q-32 -37 -62.5 -55.5t-70.5 -18.5z" />
    <glyph glyph-name="uni02C9" unicode="&#x2c9;" horiz-adv-x="929" 
d="M684 1575h-436q-51 0 -80 28t-29 72q0 46 29 74.5t80 28.5h436q50 0 78.5 -29t28.5 -74q0 -44 -28.5 -72t-78.5 -28z" />
    <glyph glyph-name="breve" unicode="&#x2d8;" horiz-adv-x="929" 
d="M465 1116q-129 0 -216 69t-87 167q0 37 21.5 59.5t56.5 22.5q32 0 49 -14.5t35 -47.5q41 -72 141 -72t141 72q18 33 35 47.5t49 14.5q35 0 56.5 -22.5t21.5 -59.5q0 -98 -87 -167t-216 -69z" />
    <glyph glyph-name="dotaccent" unicode="&#x2d9;" horiz-adv-x="929" 
d="M465 1092q-68 0 -115 47t-47 114t47.5 114.5t114.5 47.5t114.5 -47.5t47.5 -114.5t-47 -114t-115 -47z" />
    <glyph glyph-name="ring" unicode="&#x2da;" horiz-adv-x="929" 
d="M465 1073q-95 0 -158 62t-63 157t63 157t158 62t158 -62t63 -157t-63 -157t-158 -62zM465 1194q41 0 67.5 27.5t26.5 70.5t-26.5 71t-67.5 28t-67.5 -28t-26.5 -71t26.5 -70.5t67.5 -27.5z" />
    <glyph glyph-name="ogonek" unicode="&#x2db;" horiz-adv-x="929" 
d="M483 -391q-100 0 -158.5 51.5t-58.5 140.5q0 55 33 107.5t90 91.5q29 20 55 20h209q9 0 11 -8t-7 -12q-168 -89 -168 -158q0 -37 33 -37q12 0 29 7q24 8 43 8q34 0 57 -25.5t23 -62.5q0 -61 -53 -90q-58 -33 -138 -33z" />
    <glyph glyph-name="tilde" unicode="&#x2dc;" horiz-adv-x="929" 
d="M588 1133q-72 0 -144 45q-55 34 -88 34q-20 0 -33 -6.5t-34 -25.5q-38 -33 -74 -33q-38 0 -63 24.5t-25 61.5q0 40 29 80q82 102 186 102q71 0 143 -45q57 -35 88 -35q20 0 33.5 7t34.5 26q38 33 74 33q38 0 63 -24.5t25 -61.5q0 -40 -29 -80q-82 -102 -186 -102z" />
    <glyph glyph-name="hungarumlaut" unicode="&#x2dd;" horiz-adv-x="929" 
d="M692 1161q-40 -63 -98 -63q-44 0 -76.5 29.5t-32.5 74.5q0 35 23 76l78 131q35 61 100 61q44 0 76.5 -29t32.5 -75q0 -33 -23 -74zM330 1161q-40 -63 -99 -63q-44 0 -76 29.5t-32 74.5q0 37 22 76l78 131q35 61 101 61q44 0 76 -29t32 -75q0 -35 -22 -74z" />
    <glyph glyph-name="Delta" unicode="&#x394;" horiz-adv-x="1318" 
d="M1104 0h-891q-67 0 -105 34t-38 95q0 28 16 78l369 1022q62 176 207 176q79 0 128 -44.5t80 -131.5l363 -1022q16 -50 16 -78q0 -61 -39 -95t-106 -34zM903 248q13 0 10 12l-249 748h-7l-254 -748q-3 -12 11 -12h489z" />
    <glyph glyph-name="Delta" unicode="&#x2206;" horiz-adv-x="1318" 
d="M1104 0h-891q-67 0 -105 34t-38 95q0 28 16 78l369 1022q62 176 207 176q79 0 128 -44.5t80 -131.5l363 -1022q16 -50 16 -78q0 -61 -39 -95t-106 -34zM903 248q13 0 10 12l-249 748h-7l-254 -748q-3 -12 11 -12h489z" />
    <glyph glyph-name="Omega" unicode="&#x3a9;" horiz-adv-x="1308" 
d="M1083 0h-237q-61 0 -98 35.5t-37 91.5q0 47 18.5 83.5t73.5 86.5q50 49 75 139.5t25 259.5q0 216 -26 299q-23 72 -81 111t-141 39q-84 0 -141 -39t-80 -111q-28 -79 -28 -299q0 -168 25.5 -259t76.5 -140q55 -50 73.5 -86.5t18.5 -83.5q0 -56 -37.5 -91.5t-99.5 -35.5
h-236q-62 0 -99.5 35.5t-37.5 91.5q0 58 37.5 93.5t99.5 35.5h25v4q-152 109 -152 436q0 150 9.5 233.5t31.5 149.5q57 167 190 251.5t324 84.5t322.5 -84.5t189.5 -251.5q22 -66 31.5 -149.5t9.5 -233.5q0 -166 -35.5 -273t-113.5 -163v-4h24q61 0 98.5 -36t37.5 -93
q0 -56 -37.5 -91.5t-98.5 -35.5z" />
    <glyph glyph-name="Omega" unicode="&#x2126;" horiz-adv-x="1308" 
d="M1083 0h-237q-61 0 -98 35.5t-37 91.5q0 47 18.5 83.5t73.5 86.5q50 49 75 139.5t25 259.5q0 216 -26 299q-23 72 -81 111t-141 39q-84 0 -141 -39t-80 -111q-28 -79 -28 -299q0 -168 25.5 -259t76.5 -140q55 -50 73.5 -86.5t18.5 -83.5q0 -56 -37.5 -91.5t-99.5 -35.5
h-236q-62 0 -99.5 35.5t-37.5 91.5q0 58 37.5 93.5t99.5 35.5h25v4q-152 109 -152 436q0 150 9.5 233.5t31.5 149.5q57 167 190 251.5t324 84.5t322.5 -84.5t189.5 -251.5q22 -66 31.5 -149.5t9.5 -233.5q0 -166 -35.5 -273t-113.5 -163v-4h24q61 0 98.5 -36t37.5 -93
q0 -56 -37.5 -91.5t-98.5 -35.5z" />
    <glyph glyph-name="pi" unicode="&#x3c0;" horiz-adv-x="1224" 
d="M1024 -12h-18q-144 0 -204.5 76t-60.5 237v430q0 12 -12 12h-242q-12 0 -12 -12v-592q0 -70 -39.5 -110.5t-103.5 -40.5q-63 0 -102.5 41t-39.5 110v592q0 12 -12 12h-20q-62 0 -97.5 33.5t-35.5 89.5q0 55 35.5 90t97.5 35h899q62 0 98.5 -35t36.5 -90q0 -56 -36 -89.5
t-99 -33.5h-19q-12 0 -12 -12v-455q0 -34 35 -36q57 -6 87 -41t30 -86q0 -57 -38 -91t-116 -34z" />
    <glyph glyph-name="Wgrave" unicode="&#x1e80;" horiz-adv-x="1769" 
d="M1260 -12q-63 0 -101 36.5t-63 120.5l-211 740h-4l-207 -740q-23 -84 -61.5 -120.5t-102.5 -36.5q-62 0 -101.5 36.5t-62.5 120.5l-287 1057q-8 36 -8 60q0 62 40.5 102.5t107.5 40.5q112 0 147 -139l182 -770h4l211 780q37 129 142 129q55 0 89.5 -32t53.5 -97l217 -780
h4l176 770q32 139 148 139q66 0 105.5 -40t39.5 -103q0 -24 -8 -60l-287 -1057q-23 -84 -62 -120.5t-101 -36.5zM754 1559l-109 114q-35 35 -35 90q0 45 32.5 74t76.5 29q54 0 94 -43l100 -113q39 -42 39 -96q0 -42 -30.5 -71.5t-71.5 -29.5q-56 0 -96 46z" />
    <glyph glyph-name="wgrave" unicode="&#x1e81;" horiz-adv-x="1566" 
d="M1090 -12q-123 0 -162 133l-142 475h-4l-143 -475q-43 -133 -158 -133q-116 0 -162 133l-231 686q-10 33 -10 59q0 60 39.5 99t99.5 39q102 0 137 -121l144 -502h4l141 500q37 123 141 123q102 0 140 -123l149 -500h4l137 502q35 121 138 121q60 0 98.5 -39t38.5 -99
q0 -26 -10 -59l-232 -686q-23 -68 -61 -100.5t-96 -32.5zM748 1106q-58 0 -97 51l-90 121q-26 38 -26 82t32.5 74t75.5 30q59 0 96 -49l88 -125q27 -42 27 -84q0 -45 -30.5 -72.5t-75.5 -27.5z" />
    <glyph glyph-name="Wacute" unicode="&#x1e82;" horiz-adv-x="1769" 
d="M1260 -12q-63 0 -101 36.5t-63 120.5l-211 740h-4l-207 -740q-23 -84 -61.5 -120.5t-102.5 -36.5q-62 0 -101.5 36.5t-62.5 120.5l-287 1057q-8 36 -8 60q0 62 40.5 102.5t107.5 40.5q112 0 147 -139l182 -770h4l211 780q37 129 142 129q55 0 89.5 -32t53.5 -97l217 -780
h4l176 770q32 139 148 139q66 0 105.5 -40t39.5 -103q0 -24 -8 -60l-287 -1057q-23 -84 -62 -120.5t-101 -36.5zM1012 1559q-40 -46 -97 -46q-41 0 -71.5 29.5t-30.5 71.5q0 54 35 92l104 117q40 43 95 43q44 0 76 -29t32 -74q0 -55 -35 -90z" />
    <glyph glyph-name="wacute" unicode="&#x1e83;" horiz-adv-x="1566" 
d="M1090 -12q-123 0 -162 133l-142 475h-4l-143 -475q-43 -133 -158 -133q-116 0 -162 133l-231 686q-10 33 -10 59q0 60 39.5 99t99.5 39q102 0 137 -121l144 -502h4l141 500q37 123 141 123q102 0 140 -123l149 -500h4l137 502q35 121 138 121q60 0 98.5 -39t38.5 -99
q0 -26 -10 -59l-232 -686q-23 -68 -61 -100.5t-96 -32.5zM911 1157q-39 -51 -96 -51q-45 0 -75.5 27.5t-30.5 72.5q0 44 26 84l88 125q37 49 97 49q43 0 75.5 -30t32.5 -74q0 -43 -27 -82z" />
    <glyph glyph-name="Wdieresis" unicode="&#x1e84;" horiz-adv-x="1769" 
d="M1260 -12q-63 0 -101 36.5t-63 120.5l-211 740h-4l-207 -740q-23 -84 -61.5 -120.5t-102.5 -36.5q-62 0 -101.5 36.5t-62.5 120.5l-287 1057q-8 36 -8 60q0 62 40.5 102.5t107.5 40.5q112 0 147 -139l182 -770h4l211 780q37 129 142 129q55 0 89.5 -32t53.5 -97l217 -780
h4l176 770q32 139 148 139q66 0 105.5 -40t39.5 -103q0 -24 -8 -60l-287 -1057q-23 -84 -62 -120.5t-101 -36.5zM1092 1532q-62 0 -105 42t-43 103t43 103.5t105 42.5q60 0 102.5 -42.5t42.5 -103.5t-42.5 -103t-102.5 -42zM680 1532q-62 0 -105 42t-43 103t43 103.5
t105 42.5q60 0 102.5 -42.5t42.5 -103.5t-42.5 -103t-102.5 -42z" />
    <glyph glyph-name="wdieresis" unicode="&#x1e85;" horiz-adv-x="1566" 
d="M1090 -12q-123 0 -162 133l-142 475h-4l-143 -475q-43 -133 -158 -133q-116 0 -162 133l-231 686q-10 33 -10 59q0 60 39.5 99t99.5 39q102 0 137 -121l144 -502h4l141 500q37 123 141 123q102 0 140 -123l149 -500h4l137 502q35 121 138 121q60 0 98.5 -39t38.5 -99
q0 -26 -10 -59l-232 -686q-23 -68 -61 -100.5t-96 -32.5zM991 1112q-61 0 -104 43t-43 105q0 60 43 102.5t104 42.5q60 0 103 -42.5t43 -102.5q0 -61 -43 -104.5t-103 -43.5zM580 1112q-62 0 -105 43t-43 105q0 60 43.5 102.5t104.5 42.5q60 0 102.5 -42.5t42.5 -102.5
q0 -61 -42.5 -104.5t-102.5 -43.5z" />
    <glyph glyph-name="Ygrave" unicode="&#x1ef2;" horiz-adv-x="1161" 
d="M580 -12q-65 0 -107.5 43.5t-42.5 115.5v406l-356 635q-23 44 -23 82q0 58 41 96.5t101 38.5q84 0 133 -90l254 -477h6l256 477q47 90 133 90q60 0 98.5 -38t38.5 -97q0 -40 -22 -82l-359 -635v-406q0 -73 -42 -116t-109 -43zM489 1559l-108 114q-35 35 -35 90
q0 45 32.5 74t76.5 29q54 0 94 -43l100 -113q39 -42 39 -96q0 -42 -30.5 -71.5t-71.5 -29.5q-57 0 -97 46z" />
    <glyph glyph-name="ygrave" unicode="&#x1ef3;" horiz-adv-x="1038" 
d="M258 -369h-12q-61 0 -97 34t-36 87q0 55 35.5 88.5t97.5 34.5q46 2 74.5 24.5t46.5 75.5l26 74l-317 752q-15 37 -15 67q0 58 41 97t101 39q93 0 133 -101l190 -506h4l177 506q37 101 131 101q60 0 99.5 -38.5t39.5 -97.5q0 -32 -14 -67l-355 -887q-64 -161 -140 -222
t-210 -61zM514 1106q-57 0 -96 51l-90 121q-27 39 -27 82q0 44 33 74t76 30q59 0 96 -49l88 -125q27 -42 27 -84q0 -45 -31 -72.5t-76 -27.5z" />
    <glyph glyph-name="endash" unicode="&#x2013;" horiz-adv-x="1095" 
d="M938 422h-780q-59 0 -94 33t-35 88t35 88t94 33h780q59 0 94 -33t35 -88t-35 -88t-94 -33z" />
    <glyph glyph-name="emdash" unicode="&#x2014;" horiz-adv-x="1830" 
d="M1671 422h-1513q-61 0 -95 33t-34 88t34 88t95 33h1513q62 0 96.5 -33t34.5 -88t-34.5 -88t-96.5 -33z" />
    <glyph glyph-name="quoteleft" unicode="&#x2018;" horiz-adv-x="473" 
d="M338 1036q-15 -46 -46.5 -70t-72.5 -24q-55 0 -90 34.5t-35 88.5q0 21 8 49l62 197q15 46 46.5 70t72.5 24q55 0 90 -34.5t35 -88.5q0 -18 -9 -49z" />
    <glyph glyph-name="quoteright" unicode="&#x2019;" horiz-adv-x="473" 
d="M338 1036q-15 -46 -46.5 -70t-72.5 -24q-55 0 -90 34.5t-35 88.5q0 21 8 49l62 197q15 46 46.5 70t72.5 24q55 0 90 -34.5t35 -88.5q0 -18 -9 -49z" />
    <glyph glyph-name="quotesinglbase" unicode="&#x201a;" horiz-adv-x="473" 
d="M338 -139q-15 -46 -46.5 -70t-72.5 -24q-55 0 -90 34t-35 88q0 22 8 50l62 196q15 46 46.5 70t72.5 24q55 0 90 -34.5t35 -88.5q0 -18 -9 -49z" />
    <glyph glyph-name="quotedblleft" unicode="&#x201c;" horiz-adv-x="851" 
d="M717 1036q-15 -46 -46.5 -70t-72.5 -24q-55 0 -90 34.5t-35 88.5q0 21 8 49l62 197q15 46 46.5 70t72.5 24q55 0 89.5 -34.5t34.5 -88.5q0 -21 -8 -49zM338 1036q-15 -46 -46.5 -70t-72.5 -24q-55 0 -90 34.5t-35 88.5q0 21 8 49l62 197q15 46 46.5 70t72.5 24
q55 0 90 -34.5t35 -88.5q0 -18 -9 -49z" />
    <glyph glyph-name="quotedblright" unicode="&#x201d;" horiz-adv-x="851" 
d="M717 1036q-15 -46 -46.5 -70t-72.5 -24q-55 0 -90 34.5t-35 88.5q0 21 8 49l62 197q15 46 46.5 70t72.5 24q55 0 89.5 -34.5t34.5 -88.5q0 -21 -8 -49zM338 1036q-15 -46 -46.5 -70t-72.5 -24q-55 0 -90 34.5t-35 88.5q0 21 8 49l62 197q15 46 46.5 70t72.5 24
q55 0 90 -34.5t35 -88.5q0 -18 -9 -49z" />
    <glyph glyph-name="quotedblbase" unicode="&#x201e;" horiz-adv-x="851" 
d="M717 -139q-15 -46 -46.5 -70t-72.5 -24q-55 0 -90 34t-35 88q0 22 8 50l62 196q15 46 46.5 70t72.5 24q55 0 89.5 -34.5t34.5 -88.5q0 -21 -8 -49zM338 -139q-15 -46 -46.5 -70t-72.5 -24q-55 0 -90 34t-35 88q0 22 8 50l62 196q15 46 46.5 70t72.5 24q55 0 90 -34.5
t35 -88.5q0 -18 -9 -49z" />
    <glyph glyph-name="dagger" unicode="&#x2020;" horiz-adv-x="1122" 
d="M561 -381q-62 0 -100.5 40.5t-38.5 107.5v915q0 12 -12 12h-195q-61 0 -97 34.5t-36 90.5t36 90.5t97 34.5h195q12 0 12 12v301q0 67 38.5 107.5t100.5 40.5t100.5 -40.5t38.5 -107.5v-301q0 -12 13 -12h194q61 0 97 -34.5t36 -90.5t-36 -90.5t-97 -34.5h-194
q-13 0 -13 -12v-915q0 -67 -38.5 -107.5t-100.5 -40.5z" />
    <glyph glyph-name="daggerdbl" unicode="&#x2021;" horiz-adv-x="1122" 
d="M561 -381q-62 0 -100.5 40.5t-38.5 107.5v233q0 12 -12 12h-195q-61 0 -97 34.5t-36 90.5t36 90.5t97 34.5h195q12 0 12 12v476q0 12 -12 12h-195q-61 0 -97 34.5t-36 90.5t36 90.5t97 34.5h195q12 0 12 12v233q0 67 38.5 107.5t100.5 40.5t100.5 -40.5t38.5 -107.5v-233
q0 -12 13 -12h194q61 0 97 -34.5t36 -90.5t-36 -90.5t-97 -34.5h-194q-13 0 -13 -12v-476q0 -12 13 -12h194q61 0 97 -34.5t36 -90.5t-36 -90.5t-97 -34.5h-194q-13 0 -13 -12v-233q0 -67 -38.5 -107.5t-100.5 -40.5z" />
    <glyph glyph-name="bullet" unicode="&#x2022;" horiz-adv-x="972" 
d="M485 324q-133 0 -220 87t-87 220q0 135 86.5 222t220.5 87q135 0 222.5 -87t87.5 -222q0 -134 -87.5 -220.5t-222.5 -86.5z" />
    <glyph glyph-name="ellipsis" unicode="&#x2026;" horiz-adv-x="1597" 
d="M1331 -23q-69 0 -118.5 49.5t-49.5 118.5t49.5 118.5t118.5 49.5t118.5 -49.5t49.5 -118.5t-49.5 -118.5t-118.5 -49.5zM799 -23q-69 0 -118.5 49.5t-49.5 118.5t49.5 118.5t118.5 49.5t118.5 -49.5t49.5 -118.5t-49.5 -118.5t-118.5 -49.5zM266 -23q-69 0 -118.5 49.5
t-49.5 118.5t49.5 118.5t118.5 49.5t118.5 -49.5t49.5 -118.5t-49.5 -118.5t-118.5 -49.5z" />
    <glyph glyph-name="perthousand" unicode="&#x2030;" horiz-adv-x="2328" 
d="M463 -35q-38 0 -63 26t-25 64q0 29 16 58l725 1255q34 57 90 57q38 0 63 -26t25 -64q0 -28 -16 -57l-725 -1255q-34 -58 -90 -58zM406 676q-100 0 -168.5 44t-94.5 126q-20 64 -20 196q0 133 20 197q26 82 94.5 126t168.5 44t168 -44t94 -126q20 -64 20 -197
q0 -132 -20 -196q-26 -82 -94 -126t-168 -44zM406 836q56 0 71 51q10 30 10 155q0 126 -10 156q-15 51 -71 51q-57 0 -72 -51q-10 -30 -10 -156q0 -125 10 -155q15 -51 72 -51zM1923 -18q-100 0 -168 44t-94 126q-21 68 -21 196q0 130 21 197q26 82 94 126t168 44t168 -44
t94 -126q21 -67 21 -197q0 -128 -21 -196q-26 -82 -94 -126t-168 -44zM1264 -18q-100 0 -168.5 44t-94.5 126q-20 64 -20 196q0 133 20 197q26 82 94.5 126t168.5 44t168 -44t94 -126q20 -64 20 -197q0 -132 -20 -196q-26 -82 -94 -126t-168 -44zM1923 141q56 0 72 52
q10 30 10 155q0 126 -10 156q-15 51 -72 51t-72 -51q-10 -30 -10 -156q0 -125 10 -155q16 -52 72 -52zM1264 141q55 0 71 52q11 33 11 155q0 123 -11 156q-15 51 -71 51q-57 0 -72 -51q-10 -30 -10 -156q0 -125 10 -155q16 -52 72 -52z" />
    <glyph glyph-name="guilsinglleft" unicode="&#x2039;" horiz-adv-x="657" 
d="M477 129q-49 0 -88 39l-287 287q-45 45 -45 86t45 86l287 286q39 39 88 39q40 0 69 -28t29 -70q0 -48 -38 -86l-220 -217q-11 -11 0 -21l220 -217q38 -38 38 -86q0 -42 -29 -70t-69 -28z" />
    <glyph glyph-name="guilsinglright" unicode="&#x203a;" horiz-adv-x="657" 
d="M180 129q-40 0 -69 28t-29 70q0 47 39 86l219 217q10 10 0 21l-219 217q-39 39 -39 86q0 42 29 70t69 28q49 0 88 -39l287 -286q45 -45 45 -86t-45 -86l-287 -287q-39 -39 -88 -39z" />
    <glyph glyph-name="fraction" unicode="&#x2044;" horiz-adv-x="339" 
d="M-113 23q-34 -58 -90 -58q-38 0 -63 26t-25 64q0 27 17 58l727 1255q34 57 90 57q38 0 63 -26t25 -64q0 -26 -17 -57z" />
    <glyph glyph-name="zero.superior" unicode="&#x2070;" horiz-adv-x="733" 
d="M369 864q-111 0 -185 48.5t-102 136.5q-21 68 -21 247q0 180 21 248q28 88 102 136.5t185 48.5q109 0 181.5 -48.5t100.5 -136.5q21 -68 21 -248q0 -179 -21 -247q-28 -88 -100.5 -136.5t-181.5 -48.5zM367 1042q60 0 75 54q9 24 9 200q0 177 -9 201q-15 53 -75 53
q-61 0 -76 -53q-8 -21 -8 -201q0 -179 8 -200q15 -54 76 -54z" />
    <glyph glyph-name="four.superior" unicode="&#x2074;" horiz-adv-x="733" 
d="M510 868q-45 0 -73.5 28t-28.5 77v10q0 12 -13 12h-266q-45 0 -71.5 25t-26.5 65q0 55 37 136l196 432q31 73 101 73q43 0 72.5 -28.5t29.5 -73.5q0 -26 -12 -53l-185 -393v-2h125q13 0 13 12v67q0 49 28.5 78t73.5 29q44 0 72 -29t28 -78v-67q0 -12 13 -12
q41 0 66.5 -25t25.5 -66t-25.5 -65.5t-66.5 -24.5q-13 0 -13 -12v-10q0 -48 -28 -76.5t-72 -28.5z" />
    <glyph glyph-name="five.superior" unicode="&#x2075;" horiz-adv-x="733" 
d="M354 864q-71 0 -135 24.5t-98 67.5q-31 36 -31 80q0 38 26 64t66 26q45 0 86 -41t86 -41q31 0 54 14t30 38q8 21 8 53q0 36 -8 57q-14 47 -76 47q-42 0 -73 -24q-42 -31 -99 -31q-46 0 -73 28t-27 77v317q0 44 24 68t68 24h369q45 0 71.5 -25t26.5 -67q0 -40 -26.5 -64
t-71.5 -24h-252q-12 0 -12 -12v-121h2q52 31 123 31q186 0 231 -146q16 -47 16 -129q0 -66 -16 -119q-28 -83 -103.5 -127.5t-185.5 -44.5z" />
    <glyph glyph-name="six.superior" unicode="&#x2076;" horiz-adv-x="733" 
d="M367 864q-136 0 -223 76t-87 199q0 53 17.5 104t56.5 121l168 299q33 61 98 61q44 0 74.5 -26.5t30.5 -69.5q0 -29 -19 -61l-92 -166l2 -2q6 2 27 2q112 0 183 -71.5t71 -190.5q0 -124 -85.5 -199.5t-221.5 -75.5zM367 1040q42 0 68 26.5t26 68.5q0 40 -26 67t-68 27
q-43 0 -70 -26.5t-27 -67.5q0 -42 26.5 -68.5t70.5 -26.5z" />
    <glyph glyph-name="seven.superior" unicode="&#x2077;" horiz-adv-x="733" 
d="M418 938q-13 -34 -41 -52t-60 -18q-43 0 -72.5 27.5t-29.5 71.5q0 20 10 47l217 514v4h-149q-12 0 -12 -12v-11q0 -44 -28.5 -73t-72.5 -29q-45 0 -73.5 28.5t-28.5 73.5v111q0 44 24 68t68 24h412q46 0 72 -26t26 -70q0 -34 -10.5 -67t-40.5 -105z" />
    <glyph glyph-name="eight.superior" unicode="&#x2078;" horiz-adv-x="733" 
d="M367 864q-135 0 -223.5 73t-88.5 191q0 115 95 187v2q-76 65 -76 158q0 105 77.5 179.5t215.5 74.5t215 -74.5t77 -179.5q0 -94 -75 -158v-2q94 -71 94 -187q0 -118 -88.5 -191t-222.5 -73zM367 1393q37 0 59.5 22.5t22.5 57.5q0 36 -22 58.5t-60 22.5t-60 -22.5
t-22 -58.5q0 -35 22.5 -57.5t59.5 -22.5zM367 1040q43 0 70.5 28t27.5 69q0 40 -28 67t-70 27q-43 0 -71 -27t-28 -67q0 -41 28 -69t71 -28z" />
    <glyph glyph-name="nine.superior" unicode="&#x2079;" horiz-adv-x="733" 
d="M334 868q-44 0 -74.5 27t-30.5 70q0 29 19 61l92 166l-2 2q-6 -2 -27 -2q-112 0 -183 71.5t-71 190.5q0 124 86 199.5t222 75.5t222.5 -76t86.5 -199q0 -53 -17.5 -104t-56.5 -121l-168 -299q-33 -62 -98 -62zM365 1364q43 0 69.5 26.5t26.5 67.5q0 42 -26 68t-70 26
q-43 0 -69 -26t-26 -68q0 -40 26.5 -67t68.5 -27z" />
    <glyph glyph-name="zero.inferior" unicode="&#x2080;" horiz-adv-x="733" 
d="M369 -336q-111 0 -185 48.5t-102 135.5q-21 68 -21 248t21 248q28 87 102 135.5t185 48.5q109 0 181.5 -48.5t100.5 -135.5q21 -68 21 -248t-21 -248q-28 -87 -100.5 -135.5t-181.5 -48.5zM367 -158q60 0 75 54q9 24 9 200q0 177 -9 201q-15 53 -75 53q-61 0 -76 -53
q-8 -21 -8 -201q0 -179 8 -200q15 -54 76 -54z" />
    <glyph glyph-name="one.inferior" unicode="&#x2081;" horiz-adv-x="733" 
d="M418 -332q-48 0 -78.5 32t-30.5 85v494h-4l-47 -29q-32 -19 -65 -19q-39 0 -63 27t-24 66q0 56 50 86l108 67q75 47 142 47q57 0 88.5 -33t31.5 -96v-610q0 -53 -30 -85t-78 -32z" />
    <glyph glyph-name="two.inferior" unicode="&#x2082;" horiz-adv-x="733" 
d="M569 -319h-397q-50 0 -77 26.5t-27 69.5q0 61 82 143l241 252q51 51 51 107q0 33 -22 52t-58 19q-51 0 -88 -55q-41 -59 -94 -59q-41 0 -68.5 25t-27.5 65q0 23 10 53q24 63 99.5 106t175.5 43q126 0 206 -67.5t80 -181.5q0 -116 -100 -216l-195 -198v-2h209
q46 0 72.5 -24.5t26.5 -65.5q0 -42 -26 -67t-73 -25z" />
    <glyph glyph-name="three.inferior" unicode="&#x2083;" horiz-adv-x="733" 
d="M367 -336q-95 0 -170 35t-101 96q-10 27 -10 45q0 38 27.5 65t70.5 27q51 0 97 -55q27 -35 81 -35q40 0 65.5 23.5t25.5 64.5q0 39 -27 62.5t-74 23.5q-43 0 -67.5 24.5t-24.5 63.5t24.5 64t67.5 25q35 0 58.5 20.5t23.5 56.5q0 38 -22.5 59t-59.5 21q-42 0 -73 -31
q-51 -51 -93 -51q-40 0 -67 23.5t-27 62.5q0 18 10 45q22 56 92.5 92.5t165.5 36.5q133 0 210 -65.5t77 -171.5q0 -102 -86 -168v-2q42 -20 73.5 -70.5t31.5 -122.5q0 -119 -82.5 -191.5t-216.5 -72.5z" />
    <glyph glyph-name="four.inferior" unicode="&#x2084;" horiz-adv-x="733" 
d="M510 -332q-45 0 -73.5 28t-28.5 77v10q0 12 -13 12h-266q-45 0 -71.5 25t-26.5 65q0 54 37 135l196 433q31 73 101 73q43 0 72.5 -28.5t29.5 -73.5q0 -26 -12 -53l-185 -394v-2h125q13 0 13 13v67q0 49 28.5 78t73.5 29q44 0 72 -29t28 -78v-67q0 -13 13 -13
q41 0 66.5 -24.5t25.5 -65.5t-25.5 -65.5t-66.5 -24.5q-13 0 -13 -12v-10q0 -48 -28 -76.5t-72 -28.5z" />
    <glyph glyph-name="five.inferior" unicode="&#x2085;" horiz-adv-x="733" 
d="M354 -336q-71 0 -135 24.5t-98 67.5q-31 36 -31 80q0 38 26 64t66 26q45 0 86 -41t86 -41q31 0 54 14t30 38q8 21 8 53q0 36 -8 57q-14 47 -76 47q-42 0 -73 -24q-42 -31 -99 -31q-46 0 -73 27.5t-27 76.5v318q0 44 24 68t68 24h369q45 0 71.5 -25t26.5 -67
q0 -40 -26.5 -64t-71.5 -24h-252q-12 0 -12 -13v-120h2q51 30 123 30q186 0 231 -145q16 -47 16 -129q0 -66 -16 -119q-28 -83 -103.5 -127.5t-185.5 -44.5z" />
    <glyph glyph-name="six.inferior" unicode="&#x2086;" horiz-adv-x="733" 
d="M367 -336q-136 0 -223 76t-87 199q0 53 17.5 104t56.5 121l168 299q33 61 98 61q44 0 74.5 -26.5t30.5 -69.5q0 -29 -19 -61l-92 -166l2 -2q6 2 27 2q112 0 183 -71.5t71 -190.5q0 -124 -85.5 -199.5t-221.5 -75.5zM367 -160q42 0 68 26t26 68q0 41 -26 68t-68 27
q-43 0 -70 -27t-27 -68q0 -42 26.5 -68t70.5 -26z" />
    <glyph glyph-name="seven.inferior" unicode="&#x2087;" horiz-adv-x="733" 
d="M418 -262q-13 -34 -41 -52t-60 -18q-43 0 -72.5 27.5t-29.5 71.5q0 20 10 47l217 514v4h-149q-12 0 -12 -13v-10q0 -44 -28.5 -73t-72.5 -29q-45 0 -73.5 28.5t-28.5 73.5v111q0 44 24 68t68 24h412q46 0 72 -26t26 -70q0 -34 -10.5 -67t-40.5 -105z" />
    <glyph glyph-name="eight.inferior" unicode="&#x2088;" horiz-adv-x="733" 
d="M367 -336q-135 0 -223.5 73t-88.5 191q0 115 95 187v2q-76 65 -76 157q0 105 77.5 179.5t215.5 74.5t215 -74.5t77 -179.5q0 -93 -75 -157v-2q94 -71 94 -187q0 -118 -88.5 -191t-222.5 -73zM367 193q37 0 59.5 22.5t22.5 56.5q0 36 -22 59t-60 23t-60 -23t-22 -59
q0 -34 22.5 -56.5t59.5 -22.5zM367 -160q43 0 70.5 28t27.5 69q0 40 -28 67t-70 27q-43 0 -71 -27t-28 -67q0 -41 28 -69t71 -28z" />
    <glyph glyph-name="nine.inferior" unicode="&#x2089;" horiz-adv-x="733" 
d="M334 -332q-44 0 -74.5 26.5t-30.5 69.5q0 30 19 62l92 166l-2 2q-6 -2 -27 -2q-112 0 -183 71.5t-71 190.5q0 123 86 198.5t222 75.5t222.5 -75.5t86.5 -198.5q0 -53 -17.5 -104t-56.5 -121l-168 -299q-33 -62 -98 -62zM365 164q43 0 69.5 26.5t26.5 67.5q0 42 -26 68
t-70 26q-43 0 -69 -26t-26 -68q0 -40 26.5 -67t68.5 -27z" />
    <glyph glyph-name="Euro" unicode="&#x20ac;" 
d="M672 -23q-167 0 -280.5 75.5t-158.5 219.5q-26 89 -26 201q0 12 -12 12h-33q-43 0 -67.5 23t-24.5 61t24.5 61t67.5 23h33q12 0 12 13v69q0 13 -12 13h-33q-43 0 -67.5 22.5t-24.5 60.5t24.5 61t67.5 23h33q12 0 12 13q0 103 26 192q45 144 158.5 219.5t280.5 75.5
q137 0 244 -63.5t137 -143.5q10 -22 10 -55q0 -49 -35 -83t-86 -34q-63 0 -117 66q-54 69 -151 69q-122 0 -160 -116q-16 -50 -16 -127q0 -13 12 -13h303q42 0 66 -23t24 -61q0 -37 -24 -60t-66 -23h-303q-12 0 -12 -13v-69q0 -13 12 -13h221q42 0 66 -23t24 -61t-24 -61
t-66 -23h-221q-12 0 -12 -12q0 -85 16 -135q39 -117 160 -117q96 0 151 70q53 65 117 65q51 0 86 -33.5t35 -82.5q0 -34 -10 -56q-30 -80 -137 -143.5t-244 -63.5z" />
    <glyph glyph-name="afii61289" unicode="&#x2113;" horiz-adv-x="944" 
d="M238 328q-31 -25 -70 -25q-42 0 -69 27t-27 71q0 57 51 93l121 90v389q0 210 82.5 326t246.5 116q132 0 211.5 -83t79.5 -228q0 -296 -358 -610v-179q0 -106 84 -106q40 0 80 24q35 21 65 21q40 0 67 -27.5t27 -68.5q0 -51 -43 -88q-110 -93 -254 -93q-288 0 -288 332v23
zM506 1016v-238q141 157 141 328q0 52 -16.5 80t-46.5 28q-39 0 -58.5 -42t-19.5 -156z" />
    <glyph glyph-name="trademark" unicode="&#x2122;" horiz-adv-x="1732" 
d="M1536 573q-40 0 -66 26.5t-26 70.5v336h-4l-117 -261q-26 -57 -84 -57q-60 0 -86 57l-119 261h-4v-336q0 -42 -25.5 -69.5t-64.5 -27.5q-40 0 -66 26.5t-26 70.5v630q0 46 28 75.5t72 29.5q74 0 109 -78l180 -397h8l174 397q35 78 107 78q45 0 72.5 -29.5t27.5 -75.5
v-630q0 -43 -25 -70t-65 -27zM406 573q-43 0 -72 29t-29 76v528q0 13 -12 13h-135q-42 0 -67 24t-25 62q0 39 25 63.5t67 24.5h495q42 0 67 -24.5t25 -63.5q0 -38 -25 -62t-67 -24h-137q-12 0 -12 -13v-528q0 -47 -27.5 -76t-70.5 -29z" />
    <glyph glyph-name="estimated" unicode="&#x212e;" horiz-adv-x="1200" 
d="M598 -23q-143 0 -254 70.5t-170 188.5t-59 262t59 261t170 186t254 69q217 0 351 -143.5t136 -372.5h-757v-342q107 -107 270 -107q118 0 205 53.5t155 171.5l68 -43q-90 -136 -186 -195t-242 -59zM872 565v273q-120 114 -274 114q-162 0 -270 -114v-273h544z" />
    <glyph glyph-name="onethird" unicode="&#x2153;" horiz-adv-x="1878" 
d="M463 549q-48 0 -78.5 32t-30.5 85v493h-4l-47 -29q-30 -18 -65 -18q-39 0 -62.5 26.5t-23.5 65.5q0 56 49 86l108 68q75 47 142 47q57 0 88.5 -33t31.5 -96v-610q0 -53 -30 -85t-78 -32zM604 23q-34 -58 -90 -58q-38 0 -63 26t-25 64q0 29 16 58l727 1255q34 57 91 57
q38 0 63 -26t25 -64q0 -26 -17 -57zM1421 -16q-95 0 -169.5 35t-100.5 96q-10 27 -10 45q0 38 27.5 65t70.5 27q50 0 96 -55q27 -35 82 -35q40 0 65 23.5t25 64.5q0 39 -26.5 62.5t-73.5 23.5q-43 0 -67.5 24.5t-24.5 63.5t24.5 63.5t67.5 24.5q35 0 58.5 21t23.5 57
q0 38 -22.5 59t-59.5 21q-43 0 -74 -31q-51 -51 -92 -51q-40 0 -67 23.5t-27 62.5q0 18 10 45q22 56 92.5 92.5t165.5 36.5q133 0 210 -66t77 -172q0 -102 -86 -168v-2q42 -20 73 -70t31 -122q0 -119 -82.5 -191.5t-216.5 -72.5z" />
    <glyph glyph-name="twothirds" unicode="&#x2154;" horiz-adv-x="2078" 
d="M659 561h-397q-50 0 -77 26.5t-27 69.5q0 62 82 144l241 252q51 51 51 106q0 33 -21.5 52.5t-57.5 19.5q-51 0 -88 -55q-42 -60 -95 -60q-41 0 -68.5 25t-27.5 65q0 24 10 54q24 63 99.5 106t175.5 43q126 0 206 -68t80 -182q0 -63 -24.5 -113.5t-75.5 -101.5l-194 -199
v-2h208q46 0 72.5 -24.5t26.5 -65.5q0 -42 -26 -67t-73 -25zM774 23q-34 -58 -90 -58q-38 0 -63 26t-25 64q0 29 16 58l727 1255q34 57 91 57q38 0 63 -26t25 -64q0 -26 -17 -57zM1593 -16q-95 0 -169.5 35t-100.5 96q-10 27 -10 45q0 38 27.5 65t70.5 27q50 0 96 -55
q27 -35 82 -35q40 0 65 23.5t25 64.5q0 39 -26.5 62.5t-73.5 23.5q-43 0 -67.5 24.5t-24.5 63.5t24.5 63.5t67.5 24.5q35 0 58.5 21t23.5 57q0 38 -22.5 59t-59.5 21q-43 0 -74 -31q-51 -51 -92 -51q-40 0 -67 23.5t-27 62.5q0 18 10 45q22 56 92.5 92.5t165.5 36.5
q133 0 210 -66t77 -172q0 -102 -86 -168v-2q42 -20 73 -70t31 -122q0 -119 -82.5 -191.5t-216.5 -72.5z" />
    <glyph glyph-name="oneeighth" unicode="&#x215b;" horiz-adv-x="1884" 
d="M463 549q-48 0 -78.5 32t-30.5 85v493h-4l-47 -29q-30 -18 -65 -18q-39 0 -62.5 26.5t-23.5 65.5q0 56 49 86l108 68q75 47 142 47q57 0 88.5 -33t31.5 -96v-610q0 -53 -30 -85t-78 -32zM1415 -16q-135 0 -223 73t-88 191q0 115 94 186v2q-76 65 -76 158
q0 105 77.5 179.5t215.5 74.5t215.5 -74.5t77.5 -179.5q0 -93 -76 -158v-2q94 -71 94 -186q0 -118 -88.5 -191t-222.5 -73zM1415 512q37 0 59.5 22.5t22.5 57.5q0 36 -22 59t-60 23t-60 -23t-22 -59q0 -35 22.5 -57.5t59.5 -22.5zM1415 160q43 0 70.5 27.5t27.5 68.5
q0 40 -28 67t-70 27t-70 -27t-28 -67q0 -41 27.5 -68.5t70.5 -27.5zM604 23q-34 -58 -90 -58q-38 0 -63 26t-25 64q0 29 16 58l727 1255q34 57 91 57q38 0 63 -26t25 -64q0 -26 -17 -57z" />
    <glyph glyph-name="threeeighths" unicode="&#x215c;" horiz-adv-x="2025" 
d="M1522 -16q-135 0 -223.5 73t-88.5 191q0 114 95 186v2q-76 65 -76 158q0 105 77.5 179.5t215.5 74.5t215.5 -74.5t77.5 -179.5q0 -93 -76 -158v-2q94 -71 94 -186q0 -118 -88.5 -191t-222.5 -73zM1522 512q37 0 59.5 22.5t22.5 57.5q0 36 -22 59t-60 23t-60 -23t-22 -59
q0 -35 22.5 -57.5t59.5 -22.5zM1522 160q43 0 70.5 27.5t27.5 68.5q0 40 -28 67t-70 27q-43 0 -71 -27t-28 -67q0 -41 28 -68.5t71 -27.5zM713 23q-34 -58 -90 -58q-38 0 -63 26t-25 64q0 29 16 58l727 1255q34 57 90 57q38 0 63 -26t25 -64q0 -28 -16 -57zM463 545
q-95 0 -169.5 35t-100.5 96q-11 29 -11 45q0 38 28 65t71 27q50 0 96 -55q27 -35 82 -35q40 0 65 23.5t25 64.5q0 39 -26.5 62.5t-73.5 23.5q-43 0 -68 24.5t-25 63.5t25 63.5t68 24.5q35 0 58 21t23 57q0 38 -22 59t-59 21q-43 0 -74 -31q-51 -51 -92 -51q-40 0 -67.5 23.5
t-27.5 62.5q0 16 11 45q22 56 92.5 92.5t165.5 36.5q133 0 209.5 -66t76.5 -172q0 -101 -86 -167v-3q42 -20 73.5 -70t31.5 -122q0 -119 -82.5 -191.5t-216.5 -72.5z" />
    <glyph glyph-name="fiveeighths" unicode="&#x215d;" horiz-adv-x="2009" 
d="M1520 -16q-135 0 -223.5 73t-88.5 191q0 114 95 186v2q-76 65 -76 158q0 105 77.5 179.5t215.5 74.5t215 -74.5t77 -179.5q0 -94 -75 -158v-2q94 -71 94 -186q0 -118 -88.5 -191t-222.5 -73zM1520 512q37 0 59.5 22.5t22.5 57.5q0 36 -22 59t-60 23t-60 -23t-22 -59
q0 -35 22.5 -57.5t59.5 -22.5zM1520 160q43 0 70.5 27.5t27.5 68.5q0 40 -28 67t-70 27q-43 0 -71 -27t-28 -67q0 -41 28 -68.5t71 -27.5zM711 23q-34 -58 -90 -58q-38 0 -63.5 26t-25.5 64q0 27 17 58l727 1255q34 57 90 57q38 0 63 -26t25 -64q0 -28 -16 -57zM453 545
q-71 0 -135.5 24.5t-98.5 67.5q-31 36 -31 80q0 37 26 63.5t67 26.5q45 0 86 -41t86 -41q31 0 54 13.5t30 37.5q8 21 8 53q0 37 -8 58q-14 47 -76 47q-42 0 -74 -25q-40 -30 -98 -30q-46 0 -73.5 27.5t-27.5 76.5v317q0 44 24.5 68.5t68.5 24.5h368q45 0 72 -25.5t27 -67.5
q0 -40 -26.5 -64t-72.5 -24h-252q-12 0 -12 -12v-121h2q52 31 123 31q186 0 231 -145q17 -50 17 -129q0 -63 -17 -119q-28 -83 -103.5 -127.5t-184.5 -44.5z" />
    <glyph glyph-name="seveneighths" unicode="&#x215e;" horiz-adv-x="1859" 
d="M1413 -16q-135 0 -223 73t-88 191q0 115 94 186v2q-76 65 -76 158q0 105 77.5 179.5t215.5 74.5t215.5 -74.5t77.5 -179.5q0 -93 -76 -158v-2q94 -71 94 -186q0 -118 -88.5 -191t-222.5 -73zM1413 512q37 0 59.5 22.5t22.5 57.5q0 36 -22 59t-60 23t-60 -23t-22 -59
q0 -35 22.5 -57.5t59.5 -22.5zM1413 160q43 0 70.5 27.5t27.5 68.5q0 40 -28 67t-70 27t-70 -27t-28 -67q0 -41 27.5 -68.5t70.5 -27.5zM520 618q-13 -34 -40.5 -51.5t-59.5 -17.5q-44 0 -73.5 27.5t-29.5 70.5q0 18 11 47l217 514v4h-150q-12 0 -12 -12v-10q0 -45 -28 -74
t-72 -29q-45 0 -74 29t-29 74v110q0 44 24 68.5t68 24.5h412q46 0 72 -26.5t26 -70.5q0 -34 -10.5 -67t-40.5 -105zM602 23q-34 -58 -90 -58q-38 0 -63 26t-25 64q0 29 16 58l727 1255q34 57 90 57q38 0 63.5 -26t25.5 -64q0 -26 -17 -57z" />
    <glyph glyph-name="partialdiff" unicode="&#x2202;" horiz-adv-x="1126" 
d="M512 -23q-194 0 -312 120.5t-118 308.5q0 194 119 323t311 129q161 0 258 -94h4q-3 186 -72.5 295.5t-195.5 109.5q-72 0 -154 -47q-42 -22 -78 -22q-49 0 -81.5 35.5t-32.5 85.5q0 61 55 104q119 90 307 90q244 0 382 -176.5t138 -503.5q0 -163 -32 -299.5t-95.5 -239.5
t-166.5 -161t-236 -58zM532 221q193 0 228 332q-96 76 -207 76q-93 0 -148 -56.5t-55 -160.5q0 -87 49.5 -139t132.5 -52z" />
    <glyph glyph-name="product" unicode="&#x220f;" horiz-adv-x="1368" 
d="M1075 -381q-66 0 -107.5 44t-41.5 116v1456q0 12 -13 12h-458q-13 0 -13 -12v-1456q0 -72 -41.5 -116t-107.5 -44q-67 0 -109.5 44.5t-42.5 115.5v1585q0 68 42.5 110t109.5 42h782q67 0 109.5 -42t42.5 -110v-1585q0 -71 -42.5 -115.5t-109.5 -44.5z" />
    <glyph glyph-name="summation" unicode="&#x2211;" horiz-adv-x="1114" 
d="M864 -369h-647q-75 0 -116.5 39.5t-41.5 102.5q0 46 14.5 94.5t57.5 142.5l297 639l-283 502q-52 90 -69 135.5t-17 87.5q0 63 41.5 102.5t116.5 39.5h676q67 0 105 -38t38 -98q0 -61 -37.5 -98t-105.5 -37h-469l268 -477q31 -60 31 -106t-29 -109l-301 -651h471
q67 0 105.5 -37t38.5 -98q0 -60 -39 -98t-105 -38z" />
    <glyph glyph-name="minus" unicode="&#x2212;" 
d="M915 444h-692q-59 0 -94 33t-35 88t35 88t94 33h692q59 0 94 -33t35 -88t-35 -88t-94 -33z" />
    <glyph glyph-name="uni2215" unicode="&#x2215;" horiz-adv-x="339" 
d="M-113 23q-34 -58 -90 -58q-38 0 -63 26t-25 64q0 27 17 58l727 1255q34 57 90 57q38 0 63 -26t25 -64q0 -26 -17 -57z" />
    <glyph glyph-name="uni2219" unicode="&#x2219;" horiz-adv-x="532" 
d="M266 377q-69 0 -118.5 49.5t-49.5 118.5t49.5 118.5t118.5 49.5t118.5 -49.5t49.5 -118.5t-49.5 -118.5t-118.5 -49.5z" />
    <glyph glyph-name="radical" unicode="&#x221a;" horiz-adv-x="1329" 
d="M659 -381q-59 0 -97.5 35t-69.5 100l-201 410q-6 12 -19 6l-75 -37q-24 -12 -52 -12q-43 0 -71.5 29.5t-28.5 72.5q0 68 66 99l198 96q31 14 58 14q56 0 86 -61l184 -387h6l383 1443q12 47 45 74t76 27q52 0 88.5 -32.5t36.5 -86.5q0 -20 -6 -41l-445 -1612
q-39 -137 -162 -137z" />
    <glyph glyph-name="infinity" unicode="&#x221e;" horiz-adv-x="1544" 
d="M1137 162q-94 0 -182 47t-183 145q-183 -192 -366 -192q-146 0 -242 95.5t-96 246.5t96.5 247.5t245.5 96.5q89 0 173.5 -47t186.5 -152q103 107 187.5 153t177.5 46q147 0 244.5 -95.5t97.5 -248.5q0 -150 -96.5 -246t-243.5 -96zM1126 352q69 0 109.5 45t40.5 111
q0 63 -40.5 106t-109.5 43q-46 0 -96 -33.5t-127 -119.5q78 -85 126.5 -118.5t96.5 -33.5zM418 352q46 0 95.5 34t125.5 118q-75 85 -124.5 119t-96.5 34q-69 0 -108.5 -42.5t-39.5 -106.5q0 -67 40 -111.5t108 -44.5z" />
    <glyph glyph-name="integral" unicode="&#x222b;" horiz-adv-x="880" 
d="M229 -369q-29 0 -45 2q-52 6 -86.5 37.5t-34.5 81.5q0 51 36 87t87 36q58 0 84.5 34.5t26.5 117.5v1060q0 228 86 328.5t270 100.5q19 0 43 -3q53 -6 87 -37t34 -81q0 -51 -36 -87t-87 -36q-58 0 -84 -34.5t-26 -117.5v-1061q0 -228 -85.5 -328t-269.5 -100z" />
    <glyph glyph-name="approxequal" unicode="&#x2248;" 
d="M752 602q-63 0 -110.5 16.5t-104.5 53.5q-80 53 -138 53t-100 -51q-47 -56 -98 -56q-43 0 -73 27.5t-30 71.5q0 39 27 82q41 64 111 106.5t151 42.5q63 0 110.5 -16t104.5 -53q82 -54 137 -54q58 0 101 52q47 55 98 55q43 0 72.5 -27t29.5 -71q0 -40 -26 -82
q-41 -64 -111 -107t-151 -43zM752 180q-63 0 -110.5 16.5t-104.5 53.5q-80 53 -138 53t-100 -51q-47 -55 -98 -55q-43 0 -73 27t-30 71q0 39 27 82q41 64 111 106.5t151 42.5q63 0 110.5 -16t104.5 -53q82 -54 137 -54q58 0 101 52q47 55 98 55q43 0 72.5 -27t29.5 -71
q0 -40 -26 -82q-41 -64 -111 -107t-151 -43z" />
    <glyph glyph-name="notequal" unicode="&#x2260;" 
d="M422 55q-27 -59 -88 -59q-38 0 -64 24t-26 62q0 25 12 49l49 98h-82q-59 0 -94 33t-35 88t35 88t94 33h201l92 188h-293q-59 0 -94 33t-35 88t35 88t94 33h412l84 172q28 60 88 60q38 0 64 -24t26 -62q0 -26 -12 -50l-47 -96h77q59 0 94 -33t35 -88t-35 -88t-94 -33h-196
l-92 -188h288q59 0 94 -33t35 -88t-35 -88t-94 -33h-407z" />
    <glyph glyph-name="lessequal" unicode="&#x2264;" 
d="M864 393l-637 250q-133 52 -133 154q0 101 133 153l637 250q30 10 58 10q52 0 87 -31.5t35 -84.5q0 -43 -24 -74.5t-68 -46.5l-477 -174v-4l477 -174q44 -15 68 -46.5t24 -74.5q0 -53 -35 -85t-87 -32q-28 0 -58 10zM915 0h-692q-59 0 -94 33t-35 88t35 88t94 33h692
q59 0 94 -33t35 -88t-35 -88t-94 -33z" />
    <glyph glyph-name="greaterequal" unicode="&#x2265;" 
d="M911 643l-637 -250q-30 -10 -57 -10q-52 0 -87.5 32t-35.5 85q0 43 24 74.5t68 46.5l478 174v4l-478 174q-44 15 -68 46.5t-24 74.5q0 53 35 84.5t88 31.5q27 0 57 -10l637 -250q133 -52 133 -153q0 -102 -133 -154zM915 0h-692q-59 0 -94 33t-35 88t35 88t94 33h692
q59 0 94 -33t35 -88t-35 -88t-94 -33z" />
    <glyph glyph-name="lozenge" unicode="&#x25ca;" horiz-adv-x="1150" 
d="M575 -119q-63 0 -107 36.5t-89 129.5l-260 545q-21 47 -21 82q0 33 21 80l260 546q45 93 89 129.5t107 36.5q62 0 107.5 -36.5t89.5 -129.5l260 -546q21 -47 21 -80q0 -35 -21 -82l-260 -545q-44 -93 -89.5 -129.5t-107.5 -36.5zM582 162l223 512l-230 512h-4l-225 -512
l232 -512h4z" />
    <glyph glyph-name="uniF8FF" unicode="&#xf8ff;" horiz-adv-x="1036" 
d="M967 0h-895q-34 0 -53 19t-19 53v1249q0 34 19 53t53 19h895q32 0 50.5 -19t18.5 -53v-1249q0 -34 -18.5 -53t-50.5 -19zM883 133q12 0 12 12v1102q0 13 -12 13h-729q-13 0 -13 -13v-1102q0 -12 13 -12h729zM502 483q-41 0 -66.5 24t-25.5 64v15q0 68 49 125l82 92
q49 54 49 102q0 39 -23 63.5t-61 24.5q-33 0 -52 -12t-38 -45q-16 -29 -34.5 -43t-45.5 -14q-35 0 -58.5 21t-23.5 58q0 17 2 25q16 74 84.5 122t173.5 48q115 0 187.5 -69t72.5 -171q0 -92 -65 -165l-93 -101q-24 -27 -24 -63v-13q0 -40 -25 -64t-65 -24zM500 209
q-44 0 -76.5 32t-32.5 76t32.5 75.5t76.5 31.5q43 0 74.5 -31.5t31.5 -75.5t-31.5 -76t-74.5 -32z" />
    <glyph glyph-name="CR" horiz-adv-x="0" 
 />
    <glyph glyph-name="grave.cap" horiz-adv-x="929" 
d="M428 1559l-109 114q-34 34 -34 90q0 45 32 74t76 29q54 0 94 -43l101 -113q39 -42 39 -96q0 -42 -31 -71.5t-72 -29.5q-56 0 -96 46z" />
    <glyph glyph-name="acute.cap" horiz-adv-x="929" 
d="M496 1559q-40 -46 -97 -46q-41 0 -71.5 29.5t-30.5 71.5q0 54 35 92l104 117q40 43 94 43q44 0 76.5 -29t32.5 -74q0 -55 -35 -90z" />
    <glyph glyph-name="circumflex.cap" horiz-adv-x="929" 
d="M668 1505q-43 0 -80 37l-121 117h-4l-121 -117q-37 -37 -80 -37q-35 0 -60.5 23t-25.5 59q0 34 25 62l131 151q32 37 62.5 55.5t70.5 18.5t70.5 -18.5t62.5 -55.5l131 -151q25 -28 25 -62q0 -36 -25.5 -59t-60.5 -23z" />
    <glyph glyph-name="caron.cap" horiz-adv-x="929" 
d="M465 1489q-40 0 -70.5 18.5t-62.5 55.5l-131 151q-25 28 -25 62q0 36 25.5 59t60.5 23q43 0 80 -37l121 -117h4l121 117q37 37 80 37q35 0 60.5 -23t25.5 -59q0 -34 -25 -62l-131 -151q-32 -37 -62.5 -55.5t-70.5 -18.5z" />
    <glyph glyph-name="caron.alt" horiz-adv-x="929" 
d="M553 1108q-15 -46 -45 -71t-68 -25q-54 0 -87.5 30.5t-33.5 83.5q0 29 9 56l41 127q31 96 112 96q53 0 87 -31.5t34 -85.5q0 -29 -8 -53z" />
    <glyph glyph-name="tilde.cap" horiz-adv-x="929" 
d="M588 1532q-72 0 -144 45q-57 35 -88 35q-20 0 -33 -7t-34 -26q-38 -33 -74 -33q-38 0 -63 24.5t-25 61.5q0 40 29 80q83 103 186 103q70 0 143 -46q55 -34 88 -34q20 0 34 6.5t34 25.5q38 33 74 33q38 0 63 -24.5t25 -61.5q0 -40 -29 -80q-82 -102 -186 -102z" />
    <glyph glyph-name="dieresis.cap" horiz-adv-x="929" 
d="M672 1532q-62 0 -105 42t-43 103t43 103.5t105 42.5q60 0 102.5 -42.5t42.5 -103.5t-42.5 -103t-102.5 -42zM260 1532q-62 0 -104.5 42t-42.5 103t42.5 103.5t104.5 42.5q60 0 103 -42.5t43 -103.5t-43 -103t-103 -42z" />
    <glyph glyph-name="macron.cap" horiz-adv-x="929" 
d="M684 1575h-436q-51 0 -80 28t-29 72q0 46 29 74.5t80 28.5h436q50 0 78.5 -29t28.5 -74q0 -44 -28.5 -72t-78.5 -28z" />
    <glyph glyph-name="breve.cap" horiz-adv-x="929" 
d="M465 1522q-129 0 -216 68.5t-87 166.5q0 37 21.5 59.5t56.5 22.5q32 0 49.5 -14.5t34.5 -46.5q41 -72 141 -72t141 72q17 32 34.5 46.5t49.5 14.5q35 0 56.5 -22.5t21.5 -59.5q0 -98 -87 -166.5t-216 -68.5z" />
    <glyph glyph-name="ring.cap" horiz-adv-x="929" 
d="M465 1458q-95 0 -158 62t-63 157t63 157t158 62t158 -62t63 -157t-63 -157t-158 -62zM465 1579q41 0 67.5 27.5t26.5 70.5t-26.5 71t-67.5 28t-67.5 -28t-26.5 -71t26.5 -70.5t67.5 -27.5z" />
    <glyph glyph-name="hungarumlaut.cap" horiz-adv-x="929" 
d="M692 1589q-38 -55 -94 -55q-44 0 -77.5 28.5t-33.5 73.5q0 38 29 82l74 111q36 53 96 53q43 0 76 -30t33 -74q0 -40 -27 -80zM332 1589q-38 -55 -94 -55q-44 0 -77.5 28.5t-33.5 73.5q0 38 29 82l73 111q36 53 97 53q43 0 75.5 -30t32.5 -74q0 -41 -26 -80z" />
    <glyph glyph-name="dotaccent.cap" horiz-adv-x="929" 
d="M465 1509q-67 0 -114.5 47.5t-47.5 114.5t47.5 114.5t114.5 47.5t114.5 -47.5t47.5 -114.5t-47.5 -114.5t-114.5 -47.5z" />
    <glyph glyph-name="commaaccent" horiz-adv-x="929" 
d="M563 -397q-15 -46 -44.5 -71.5t-67.5 -25.5q-54 0 -88.5 31t-34.5 84q0 25 10 55l45 142q30 96 113 96q53 0 87.5 -30.5t34.5 -84.5q0 -25 -10 -55z" />
    <glyph glyph-name="commaaccent.alt" horiz-adv-x="929" 
d="M561 1214q-15 -46 -44.5 -71t-67.5 -25q-52 0 -86.5 30.5t-34.5 82.5q0 33 8 57l49 150q15 46 44 71t69 25q51 0 85.5 -31.5t34.5 -85.5q0 -29 -8 -53z" />
    <glyph glyph-name="uni0394" horiz-adv-x="1318" 
d="M1104 0h-891q-67 0 -105 34t-38 95q0 28 16 78l369 1022q62 176 207 176q79 0 128 -44.5t80 -131.5l363 -1022q16 -50 16 -78q0 -61 -39 -95t-106 -34zM903 248q13 0 10 12l-249 748h-7l-254 -748q-3 -12 11 -12h489z" />
    <glyph glyph-name="uni03A9" horiz-adv-x="1308" 
d="M1083 0h-237q-61 0 -98 35.5t-37 91.5q0 47 18.5 83.5t73.5 86.5q50 49 75 139.5t25 259.5q0 216 -26 299q-23 72 -81 111t-141 39q-84 0 -141 -39t-80 -111q-28 -79 -28 -299q0 -168 25.5 -259t76.5 -140q55 -50 73.5 -86.5t18.5 -83.5q0 -56 -37.5 -91.5t-99.5 -35.5
h-236q-62 0 -99.5 35.5t-37.5 91.5q0 58 37.5 93.5t99.5 35.5h25v4q-152 109 -152 436q0 150 9.5 233.5t31.5 149.5q57 167 190 251.5t324 84.5t322.5 -84.5t189.5 -251.5q22 -66 31.5 -149.5t9.5 -233.5q0 -166 -35.5 -273t-113.5 -163v-4h24q61 0 98.5 -36t37.5 -93
q0 -56 -37.5 -91.5t-98.5 -35.5z" />
    <glyph glyph-name="uni03BC" horiz-adv-x="1134" 
d="M862 -12q-52 0 -88.5 27.5t-48.5 76.5h-2q-26 -44 -81.5 -75t-119.5 -31q-69 0 -102 30h-2v-245q0 -69 -40.5 -110.5t-103.5 -41.5q-64 0 -104.5 41.5t-40.5 110.5v1081q0 69 40.5 110.5t104.5 41.5q63 0 102.5 -41.5t39.5 -110.5v-451q0 -84 38 -132t113 -48
q74 0 113 48t39 132v451q0 70 39.5 111t103.5 41q63 0 103.5 -41.5t40.5 -110.5v-713q0 -69 -40 -110t-104 -41z" />
    <glyph glyph-name="zero.onum" 
d="M569 -23q-151 0 -271.5 68t-187.5 186.5t-67 264.5q0 223 148.5 370.5t377.5 147.5t378 -148t149 -370q0 -146 -67 -264.5t-188 -186.5t-272 -68zM569 240q106 0 171 73.5t65 182.5t-65 182.5t-171 73.5t-171.5 -73.5t-65.5 -182.5t65.5 -182.5t171.5 -73.5z" />
    <glyph glyph-name="one.onum" 
d="M659 -12q-64 0 -103.5 40.5t-39.5 110.5v559h-4l-141 -51q-33 -10 -58 -10q-55 0 -91 33.5t-36 89.5q0 88 84 123l199 82q89 39 174 39q72 0 116 -50t44 -125v-690q0 -69 -40.5 -110t-103.5 -41z" />
    <glyph glyph-name="two.onum" 
d="M895 0h-662q-55 0 -86.5 31.5t-31.5 85.5q0 46 31.5 84t101.5 80l309 186q96 58 130 96t34 86q0 56 -44 91.5t-116 35.5q-101 0 -155 -78q-36 -53 -69.5 -73.5t-78.5 -20.5q-59 0 -94 31.5t-35 85.5q0 25 8 45q34 110 150.5 179t277.5 69q199 0 321 -100.5t122 -258.5
q0 -103 -53 -178t-156 -131l-193 -106v-4h289q57 0 91 -33t34 -86q0 -52 -34.5 -84.5t-90.5 -32.5z" />
    <glyph glyph-name="three.onum" 
d="M567 -391q-149 0 -258 58.5t-149 156.5q-13 32 -13 63q0 54 35.5 88.5t93.5 34.5q42 0 72.5 -20.5t65.5 -65.5q58 -74 147 -74q80 0 128 49t48 140q0 87 -55.5 137.5t-151.5 50.5q-65 0 -106 38t-41 100q0 37 16 70t54 81l186 227v5h-369q-61 0 -97 33t-36 89
q0 54 36 87.5t97 33.5h607q58 0 92.5 -33.5t34.5 -89.5q0 -42 -17.5 -82t-62.5 -94l-207 -252v-4q149 -32 227 -134.5t78 -266.5q0 -193 -128 -309.5t-327 -116.5z" />
    <glyph glyph-name="four.onum" 
d="M788 -381q-61 0 -100 40.5t-39 107.5v221q0 12 -12 12h-397q-73 0 -115.5 40t-42.5 105q0 38 9.5 68.5t37.5 87.5l291 612q20 43 56 67t77 24q59 0 96 -37t37 -95q0 -38 -18 -75l-262 -545v-4h231q12 0 12 12v166q0 68 39 107.5t100 39.5q63 0 102.5 -39.5t39.5 -107.5
v-166q0 -12 12 -12h8q60 0 96.5 -34.5t36.5 -90.5q0 -54 -36.5 -88.5t-96.5 -34.5h-8q-12 0 -12 -12v-221q0 -67 -40 -107.5t-102 -40.5z" />
    </font>
</defs>
</svg>
