<?xml version="1.0" standalone="no"?>
<!DOCTYPE svg PUBLIC "-//W3C//DTD SVG 1.1//EN" "http://www.w3.org/Graphics/SVG/1.1/DTD/svg11.dtd" >
<svg xmlns="http://www.w3.org/2000/svg" width="100%" height="100%">
<metadata>
Created by FontForge 20090622 at Mon Apr 15 15:01:17 2013
 By fontface
Copyright &#194;&#169; 2008 - 2009 Linotype GmbH, www.linotype.com. All rights reserved. This font software may not be reproduced, modified, disclosed or transferred without the express written approval of Linotype GmbH.
</metadata>
<defs>
<font id="DINNextRoundedLTPro-Light" horiz-adv-x="1089" >
  <font-face 
    font-family="DIN Next Rounded LT Pro Light"
    font-weight="300"
    font-stretch="normal"
    units-per-em="2048"
    panose-1="2 15 3 3 2 2 3 5 2 3"
    ascent="1536"
    descent="-512"
    x-height="977"
    cap-height="1401"
    bbox="-283 -436 2015 1872"
    underline-thickness="102"
    underline-position="-102"
    unicode-range="U+0020-U+FB04"
  />
<missing-glyph horiz-adv-x="962" 
d="M0 39v1315q0 39 39 39h885q39 0 39 -39v-1315q0 -39 -39 -39h-885q-39 0 -39 39zM80 88q0 -12 14 -12h776q13 0 13 12v1217q0 12 -13 12h-776q-14 0 -14 -12v-1217zM461 453q-19 0 -31 12.5t-12 32.5v30q0 45 10 75t35 61l78 100q44 59 59.5 92t15.5 74q0 63 -42 102
t-107 39q-61 0 -97.5 -31t-58.5 -98q-10 -31 -39 -31q-19 0 -30 12t-11 31q0 16 7 33q25 73 83.5 118.5t147.5 45.5q104 0 167.5 -63.5t63.5 -159.5q0 -56 -17 -97t-58 -94l-80 -102q-26 -32 -33.5 -54t-7.5 -61v-22q0 -20 -12 -32.5t-31 -12.5zM399 291q0 26 18.5 43.5
t43.5 17.5t43 -17.5t18 -43.5q0 -25 -18 -42.5t-43 -17.5t-43.5 17.5t-18.5 42.5z" />
    <glyph glyph-name="IJ" unicode="IJ" horiz-adv-x="1464" 
d="M193 55v1282q0 30 16 47t41 17q27 0 43 -17t16 -47v-1282q0 -30 -16 -46.5t-43 -16.5q-26 0 -41.5 16.5t-15.5 46.5zM600 72q-25 19 -25 49q0 22 15.5 37.5t38.5 15.5q21 0 39 -12q104 -72 213 -72q137 0 211.5 80t74.5 248v919q0 30 16 47t42 17q27 0 43 -17t16 -47
v-921q0 -217 -107.5 -326.5t-297.5 -109.5q-78 0 -151.5 26t-127.5 66z" />
    <glyph glyph-name="ij" unicode="ij" horiz-adv-x="974" 
d="M244 1229q-35 0 -60.5 25.5t-25.5 60.5t25.5 60.5t60.5 25.5t60.5 -25.5t25.5 -60.5t-25.5 -60.5t-60.5 -25.5zM244 -8q-26 0 -41 15t-15 44v875q0 28 15 43.5t41 15.5q25 0 40 -15t15 -44v-875q0 -29 -15 -44t-40 -15zM731 1229q-35 0 -60.5 25.5t-25.5 60.5t25.5 60.5
t60.5 25.5t60.5 -25.5t25.5 -60.5t-25.5 -60.5t-60.5 -25.5zM541 -369q-27 0 -42.5 15t-15.5 39t15.5 38.5t42.5 14.5q78 0 106.5 31.5t28.5 117.5v1039q0 29 15 44t40 15t40 -15t15 -44v-1037q0 -140 -55 -199t-190 -59z" />
    <glyph glyph-name="napostrophe" unicode="&#x22;n" horiz-adv-x="1107" 
d="M877 -8q-25 0 -40.5 15t-15.5 44v547q0 293 -256 293q-113 0 -189.5 -75t-76.5 -198v-567q0 -29 -15 -44t-40 -15q-26 0 -41 15t-15 44v875q0 28 15 43.5t41 15.5q25 0 40 -15t15 -44v-68h2q87 139 289 139q162 0 252 -97t90 -275v-574q0 -29 -15 -44t-40 -15zM158 1139
q-15 -43 -54 -43q-23 0 -38 14t-15 37q0 12 4 24l60 187q15 43 53 43q24 0 39.5 -14.5t15.5 -36.5q0 -13 -4 -25z" />
    <glyph glyph-name="f_f" unicode="ff" horiz-adv-x="1261" 
d="M276 -8q-25 0 -40 15t-15 44v815q0 13 -12 13h-80q-26 0 -39.5 13.5t-13.5 35.5t13.5 35.5t39.5 13.5h80q12 0 12 12v105q0 171 61 235t212 64h28q27 0 42.5 -15t15.5 -39t-15.5 -38.5t-42.5 -14.5q-122 0 -156 -31.5t-34 -146.5v-119q0 -12 12 -12h184q52 0 52 -49
t-52 -49h-184q-12 0 -12 -13v-815q0 -29 -15 -44t-41 -15zM907 -8q-25 0 -40 15t-15 44v815q0 13 -12 13h-80q-26 0 -39.5 13.5t-13.5 35.5t13.5 35.5t39.5 13.5h80q12 0 12 12v105q0 172 60.5 235.5t211.5 63.5h29q27 0 42 -15t15 -39t-15 -38.5t-42 -14.5
q-122 0 -156 -31.5t-34 -146.5v-119q0 -12 12 -12h184q51 0 51 -49t-51 -49h-184q-12 0 -12 -13v-815q0 -29 -15.5 -44t-40.5 -15z" />
    <glyph glyph-name="fi" unicode="fi" horiz-adv-x="1118" 
d="M276 -8q-25 0 -40 15t-15 44v815q0 13 -12 13h-80q-26 0 -39.5 13.5t-13.5 35.5t13.5 35.5t39.5 13.5h80q12 0 12 12v105q0 171 61 235t212 64h28q27 0 42.5 -15t15.5 -39t-15.5 -38.5t-42.5 -14.5q-122 0 -156 -31.5t-34 -146.5v-119q0 -12 12 -12h184q52 0 52 -49
t-52 -49h-184q-12 0 -12 -13v-815q0 -29 -15 -44t-41 -15zM874 1229q-35 0 -60.5 25.5t-25.5 60.5t25.5 60.5t60.5 25.5t61 -25.5t26 -60.5t-26 -60.5t-61 -25.5zM874 -8q-25 0 -40 15t-15 44v875q0 29 15 44t40 15q26 0 41 -15.5t15 -43.5v-875q0 -29 -15 -44t-41 -15z" />
    <glyph glyph-name="fl" unicode="fl" horiz-adv-x="1167" 
d="M276 -8q-25 0 -40 15t-15 44v815q0 13 -12 13h-80q-26 0 -39.5 13.5t-13.5 35.5t13.5 35.5t39.5 13.5h80q12 0 12 12v105q0 171 61 235t212 64h28q27 0 42.5 -15t15.5 -39t-15.5 -38.5t-42.5 -14.5q-122 0 -156 -31.5t-34 -146.5v-119q0 -12 12 -12h184q52 0 52 -49
t-52 -49h-184q-12 0 -12 -13v-815q0 -29 -15 -44t-41 -15zM1040 -6h-20q-111 0 -157 53.5t-46 175.5v1118q0 29 15 44.5t40 15.5t40.5 -15.5t15.5 -44.5v-1114q0 -72 24 -99.5t88 -27.5q27 0 42.5 -14.5t15.5 -38.5t-15.5 -38.5t-42.5 -14.5z" />
    <glyph glyph-name="f_f_i" unicode="ffi" horiz-adv-x="1748" 
d="M276 -8q-25 0 -40 15t-15 44v815q0 13 -12 13h-80q-26 0 -39.5 13.5t-13.5 35.5t13.5 35.5t39.5 13.5h80q12 0 12 12v105q0 171 61 235t212 64h28q27 0 42.5 -15t15.5 -39t-15.5 -38.5t-42.5 -14.5q-122 0 -156 -31.5t-34 -146.5v-119q0 -12 12 -12h184q52 0 52 -49
t-52 -49h-184q-12 0 -12 -13v-815q0 -29 -15 -44t-41 -15zM907 -8q-25 0 -40 15t-15 44v815q0 13 -12 13h-80q-26 0 -39.5 13.5t-13.5 35.5t13.5 35.5t39.5 13.5h80q12 0 12 12v105q0 172 60.5 235.5t211.5 63.5h29q27 0 42 -15t15 -39t-15 -38.5t-42 -14.5
q-122 0 -156 -31.5t-34 -146.5v-119q0 -12 12 -12h184q51 0 51 -49t-51 -49h-184q-12 0 -12 -13v-815q0 -29 -15.5 -44t-40.5 -15zM1505 1229q-35 0 -60.5 25.5t-25.5 60.5t25.5 60.5t60.5 25.5t60.5 -25.5t25.5 -60.5t-25.5 -60.5t-60.5 -25.5zM1505 -8q-25 0 -40 15
t-15 44v875q0 29 15 44t40 15t40.5 -15.5t15.5 -43.5v-875q0 -29 -15.5 -44t-40.5 -15z" />
    <glyph glyph-name="f_f_l" unicode="ffl" horiz-adv-x="1798" 
d="M276 -8q-25 0 -40 15t-15 44v815q0 13 -12 13h-80q-26 0 -39.5 13.5t-13.5 35.5t13.5 35.5t39.5 13.5h80q12 0 12 12v105q0 171 61 235t212 64h28q27 0 42.5 -15t15.5 -39t-15.5 -38.5t-42.5 -14.5q-122 0 -156 -31.5t-34 -146.5v-119q0 -12 12 -12h184q52 0 52 -49
t-52 -49h-184q-12 0 -12 -13v-815q0 -29 -15 -44t-41 -15zM907 -8q-25 0 -40 15t-15 44v815q0 13 -12 13h-80q-26 0 -39.5 13.5t-13.5 35.5t13.5 35.5t39.5 13.5h80q12 0 12 12v105q0 172 60.5 235.5t211.5 63.5h29q27 0 42 -15t15 -39t-15 -38.5t-42 -14.5
q-122 0 -156 -31.5t-34 -146.5v-119q0 -12 12 -12h184q51 0 51 -49t-51 -49h-184q-12 0 -12 -13v-815q0 -29 -15.5 -44t-40.5 -15zM1671 -6h-20q-111 0 -157 53.5t-46 175.5v1118q0 29 15 44.5t40 15.5t40.5 -15.5t15.5 -44.5v-1114q0 -72 24 -99.5t88 -27.5
q27 0 42.5 -14.5t15.5 -38.5t-15.5 -38.5t-42.5 -14.5z" />
    <glyph glyph-name=".notdef" horiz-adv-x="962" 
d="M0 39v1315q0 39 39 39h885q39 0 39 -39v-1315q0 -39 -39 -39h-885q-39 0 -39 39zM80 88q0 -12 14 -12h776q13 0 13 12v1217q0 12 -13 12h-776q-14 0 -14 -12v-1217zM461 453q-19 0 -31 12.5t-12 32.5v30q0 45 10 75t35 61l78 100q44 59 59.5 92t15.5 74q0 63 -42 102
t-107 39q-61 0 -97.5 -31t-58.5 -98q-10 -31 -39 -31q-19 0 -30 12t-11 31q0 16 7 33q25 73 83.5 118.5t147.5 45.5q104 0 167.5 -63.5t63.5 -159.5q0 -56 -17 -97t-58 -94l-80 -102q-26 -32 -33.5 -54t-7.5 -61v-22q0 -20 -12 -32.5t-31 -12.5zM399 291q0 26 18.5 43.5
t43.5 17.5t43 -17.5t18 -43.5q0 -25 -18 -42.5t-43 -17.5t-43.5 17.5t-18.5 42.5z" />
    <glyph glyph-name=".null" horiz-adv-x="1024" 
 />
    <glyph glyph-name="nonmarkingreturn" horiz-adv-x="682" 
 />
    <glyph glyph-name="space" unicode=" " horiz-adv-x="503" 
 />
    <glyph glyph-name="exclam" unicode="!" horiz-adv-x="544" 
d="M272 352q-25 0 -40 15.5t-15 42.5v931q0 29 15 44.5t40 15.5t40.5 -15.5t15.5 -44.5v-931q0 -27 -15.5 -42.5t-40.5 -15.5zM186 78q0 35 25.5 60.5t60.5 25.5t60.5 -25.5t25.5 -60.5t-25.5 -60.5t-60.5 -25.5t-60.5 25.5t-25.5 60.5z" />
    <glyph glyph-name="quotedbl" unicode="&#x22;" horiz-adv-x="643" 
d="M444 1057q-21 0 -33 13.5t-12 37.5v242q0 24 12 37.5t33 13.5q22 0 35 -13.5t13 -37.5v-242q0 -24 -13 -37.5t-35 -13.5zM197 1057q-21 0 -33 13.5t-12 37.5v242q0 24 12 37.5t33 13.5q47 0 47 -51v-242q0 -51 -47 -51z" />
    <glyph glyph-name="numbersign" unicode="#" horiz-adv-x="1060" 
d="M186 45l56 404h-144q-49 0 -49 45t49 45h156l47 348h-154q-49 0 -49 45t49 45h166l52 383q7 41 47 41q51 0 45 -53l-51 -371h315l51 383q7 41 47 41q51 0 45 -53l-49 -371h148q49 0 49 -45t-49 -45h-160l-47 -348h157q50 0 50 -45t-50 -45h-170l-57 -416q-7 -41 -47 -41
q-51 0 -45 53l55 404h-315l-55 -416q-7 -41 -48 -41q-51 0 -45 53zM346 539h316l47 348h-316z" />
    <glyph glyph-name="dollar" unicode="$" 
d="M152 84q-27 15 -27 47q0 25 14 39t39 14q18 0 31 -8q134 -81 297 -90v567q-179 27 -269 126t-90 247q0 165 99 269t260 116v88q0 47 39 47q41 0 41 -47v-88q141 -8 266 -74q29 -17 29 -49q0 -22 -14.5 -36.5t-37.5 -14.5q-16 0 -36 10q-109 53 -207 58v-549
q183 -24 276.5 -122t93.5 -251q0 -168 -98.5 -276t-271.5 -123v-90q0 -48 -41 -48q-18 0 -28.5 12.5t-10.5 35.5v86q-194 5 -354 104zM506 766v539q-115 -10 -182.5 -83.5t-67.5 -187.5q0 -109 58 -176.5t192 -91.5zM586 88q124 14 193 89t69 200q0 110 -61 177t-201 89
v-555z" />
    <glyph glyph-name="percent" unicode="%" horiz-adv-x="1579" 
d="M350 14q0 13 6 25l787 1358q14 24 39 24q19 0 31 -11.5t12 -31.5q0 -12 -6 -24l-787 -1358q-14 -25 -39 -25q-19 0 -31 11.5t-12 31.5zM418 676q-82 0 -140 38.5t-81 110.5q-17 52 -17 217q0 166 17 218q23 72 81 110.5t140 38.5t140 -38.5t81 -110.5q16 -49 16 -218
q0 -168 -16 -217q-23 -72 -81 -110.5t-140 -38.5zM418 760q47 0 82.5 23.5t48.5 64.5q9 28 11.5 62t2.5 132t-2.5 132.5t-11.5 62.5q-13 41 -48.5 64.5t-82.5 23.5t-82.5 -23.5t-48.5 -64.5q-9 -29 -12 -64t-3 -131t3 -130.5t12 -63.5q13 -41 48.5 -64.5t82.5 -23.5z
M940 133q-16 49 -16 217t16 217q23 72 81 111t140 39t140 -39t81 -111q17 -52 17 -217t-17 -217q-23 -72 -81 -110.5t-140 -38.5t-140 38.5t-81 110.5zM1030 156q13 -41 48.5 -64.5t82.5 -23.5t82.5 23.5t48.5 64.5q9 29 12 63.5t3 130.5t-3 131t-12 64q-13 41 -48.5 64.5
t-82.5 23.5t-82.5 -23.5t-48.5 -64.5q-9 -28 -11.5 -62.5t-2.5 -132.5t2.5 -132t11.5 -62z" />
    <glyph glyph-name="ampersand" unicode="&#x26;" horiz-adv-x="1265" 
d="M156 330q0 117 69.5 220t218.5 226q-119 160 -154.5 224t-35.5 133q0 123 83.5 201.5t211.5 78.5t211.5 -79.5t83.5 -198.5q0 -92 -54.5 -172.5t-201.5 -200.5l309 -408l129 162q20 23 43 23q19 0 32 -12t13 -33q0 -19 -12 -37l-141 -185l104 -137q19 -26 34.5 -33.5
t45.5 -7.5q28 0 42.5 -14.5t14.5 -38.5t-14.5 -38.5t-42.5 -14.5h-17q-53 0 -82 15.5t-65 64.5l-92 120q-91 -105 -182 -156.5t-197 -51.5q-163 0 -258.5 97t-95.5 253zM526 842q131 108 171 167.5t40 125.5q0 77 -53 126.5t-135 49.5q-83 0 -136 -49.5t-53 -126.5
q0 -49 31 -102t135 -191zM262 336q0 -115 66 -184.5t186 -69.5q79 0 148 37.5t165 148.5l-321 428q-125 -97 -184.5 -181.5t-59.5 -178.5z" />
    <glyph glyph-name="quotesingle" unicode="'" horiz-adv-x="397" 
d="M197 1057q-21 0 -33 13.5t-12 37.5v242q0 24 12 37.5t33 13.5q47 0 47 -51v-242q0 -51 -47 -51z" />
    <glyph glyph-name="parenleft" unicode="(" horiz-adv-x="565" 
d="M371 -154q-217 414 -217 826q0 411 217 825q15 27 43 27q18 0 30.5 -11t12.5 -28q0 -15 -8 -31q-189 -378 -189 -782q0 -405 189 -783q8 -16 8 -30q0 -17 -12.5 -28t-30.5 -11q-29 0 -43 26z" />
    <glyph glyph-name="parenright" unicode=")" horiz-adv-x="565" 
d="M102 -111q189 378 189 783q0 404 -189 782q-8 16 -8 31q0 17 12.5 28t30.5 11q28 0 43 -27q217 -414 217 -825q0 -412 -217 -826q-14 -26 -43 -26q-18 0 -30.5 11t-12.5 28q0 14 8 30z" />
    <glyph glyph-name="asterisk" unicode="*" horiz-adv-x="714" 
d="M356 815q-16 0 -26.5 11t-10.5 30l3 188l-164 -96q-9 -6 -23 -6q-17 0 -27 11.5t-10 27.5q0 21 21 33l166 94l-166 94q-21 12 -21 33q0 16 10 27.5t27 11.5q14 0 23 -6l164 -99l-3 191q0 19 10.5 30t26.5 11q39 0 39 -41l-2 -191l164 99q9 6 23 6q16 0 26 -11.5t10 -27.5
q0 -22 -20 -33l-168 -94l168 -94q20 -11 20 -33q0 -16 -10 -27.5t-26 -11.5q-14 0 -23 6l-164 96l2 -188q0 -41 -39 -41z" />
    <glyph glyph-name="plus" unicode="+" 
d="M492 203v299q0 12 -13 12h-295q-27 0 -42 13.5t-15 37.5t15 37.5t42 13.5h295q13 0 13 13v299q0 27 14.5 42t38.5 15t38.5 -15t14.5 -42v-299q0 -13 12 -13h295q27 0 42.5 -13.5t15.5 -37.5t-15.5 -37.5t-42.5 -13.5h-295q-12 0 -12 -12v-299q0 -27 -14.5 -42.5
t-38.5 -15.5t-38.5 15.5t-14.5 42.5z" />
    <glyph glyph-name="comma" unicode="," horiz-adv-x="436" 
d="M104 -182l91 272q15 47 53 47q24 0 40.5 -14t16.5 -39q0 -11 -4 -27l-96 -272q-15 -47 -53 -47q-24 0 -38 13.5t-14 39.5q0 11 4 27z" />
    <glyph glyph-name="hyphen" unicode="-" horiz-adv-x="765" 
d="M150 492q-27 0 -42.5 13.5t-15.5 37.5t15.5 37.5t42.5 13.5h466q27 0 42.5 -13.5t15.5 -37.5t-15.5 -37.5t-42.5 -13.5h-466z" />
    <glyph glyph-name="period" unicode="." horiz-adv-x="450" 
d="M135 82q0 37 26.5 63.5t63.5 26.5t63.5 -26.5t26.5 -63.5t-26.5 -63.5t-63.5 -26.5t-63.5 26.5t-26.5 63.5z" />
    <glyph glyph-name="slash" unicode="/" horiz-adv-x="833" 
d="M147 16q0 8 5 23l440 1343q12 39 45 39q21 0 35 -12t14 -33q0 -10 -4 -22l-440 -1344q-12 -39 -45 -39q-21 0 -35.5 12t-14.5 33z" />
    <glyph glyph-name="zero" unicode="0" 
d="M186 229q-30 92 -30 467t30 467q40 121 133 185.5t226 64.5t225.5 -64.5t132.5 -185.5q31 -95 31 -467t-31 -467q-40 -121 -132.5 -185t-225.5 -64t-226 64t-133 185zM295 254q57 -170 250 -170t250 170q28 90 28 442q0 353 -28 443q-57 170 -250 170t-250 -170
q-29 -93 -29 -443q0 -349 29 -442z" />
    <glyph glyph-name="one" unicode="1" 
d="M518 51v1192h-4l-205 -139q-17 -10 -37 -10q-19 0 -33 13t-14 34q0 29 31 51l238 170q54 39 79 39t40.5 -15t15.5 -43v-1292q0 -28 -16 -43.5t-40 -15.5q-25 0 -40 15t-15 44z" />
    <glyph glyph-name="two" unicode="2" 
d="M162 51q0 34 33 74l497 649q113 150 113 273q0 115 -73 187.5t-191 72.5q-106 0 -171 -54.5t-89 -152.5q-9 -49 -52 -49q-55 0 -55 53q0 10 4 26q11 51 38 99t71 90.5t110.5 68t145.5 25.5q167 0 269.5 -102.5t102.5 -263.5q0 -160 -139 -338l-463 -598v-5h553
q27 0 41.5 -14.5t14.5 -38.5t-14.5 -38.5t-41.5 -14.5h-649q-27 0 -41 14t-14 37z" />
    <glyph glyph-name="three" unicode="3" 
d="M156 236q-4 12 -4 24q0 23 14 36t39 13q32 0 53 -49q39 -85 105.5 -129.5t173.5 -44.5q130 0 207 80.5t77 208.5q0 131 -81 214t-214 83h-30q-27 0 -42.5 14.5t-15.5 38.5t15.5 38.5t42.5 14.5h30q118 0 192.5 75t74.5 194q0 117 -71.5 188.5t-193.5 71.5
q-186 0 -256 -166q-18 -49 -53 -49q-25 0 -39 13t-14 36q0 12 4 24q30 105 123.5 176.5t236.5 71.5q169 0 271 -101.5t102 -262.5q0 -113 -54 -192t-132 -122v-4q37 -15 73 -43t69 -70.5t53 -104.5t20 -134q0 -177 -110.5 -288t-284.5 -111q-154 0 -250.5 73t-130.5 183z
" />
    <glyph glyph-name="four" unicode="4" 
d="M164 279q-25 0 -39 14t-14 35q0 28 22 75l438 957q17 41 52 41q22 0 36.5 -13t14.5 -36q0 -14 -6 -29l-424 -934v-4h430q12 0 12 12v351q0 29 15 44t40 15t40.5 -15.5t15.5 -43.5v-351q0 -12 12 -12h125q27 0 42 -14.5t15 -38.5t-15 -38.5t-42 -14.5h-125q-12 0 -12 -13
v-215q0 -29 -15.5 -44t-40.5 -15t-40 15t-15 44v215q0 13 -12 13h-510z" />
    <glyph glyph-name="five" unicode="5" 
d="M195 238q-5 15 -5 24q0 23 15 36t39 13q36 0 53 -49q63 -176 262 -176q87 0 152.5 41.5t89.5 116.5q22 74 22 202q0 130 -26 203q-56 160 -234 160q-76 0 -129 -34t-100 -103q-24 -35 -39 -47.5t-35 -12.5q-51 0 -51 58v671q0 52 51 52h598q27 0 42 -15t15 -39t-15 -38.5
t-42 -14.5h-530q-13 0 -13 -12v-481h2q31 49 99 85.5t155 36.5q124 0 209.5 -57.5t120.5 -165.5q33 -104 33 -246q0 -144 -29 -233q-36 -112 -127.5 -172.5t-218.5 -60.5q-143 0 -236 69.5t-128 188.5z" />
    <glyph glyph-name="six" unicode="6" 
d="M137 399q0 137 92 314l336 655q17 33 49 33q25 0 40.5 -15t15.5 -38q0 -17 -8 -33l-285 -543l4 -6q54 51 178 51q171 0 282 -114.5t111 -299.5q0 -194 -113.5 -308.5t-293.5 -114.5t-294 114t-114 305zM248 397q0 -138 83 -224.5t214 -86.5t214 86.5t83 224.5t-83 226
t-214 88t-214 -88t-83 -226z" />
    <glyph glyph-name="seven" unicode="7" 
d="M334 43q0 11 4 23l481 1214v6h-504q-12 0 -12 -14v-158q0 -27 -15 -43t-40 -16t-40 16t-15 43v227q0 52 51 52h653q27 0 41 -14.5t14 -37.5q0 -22 -16 -61l-498 -1251q-15 -37 -51 -37q-23 0 -38 14.5t-15 36.5z" />
    <glyph glyph-name="eight" unicode="8" 
d="M135 377q0 126 61 218.5t162 135.5v4q-84 41 -135 123.5t-51 188.5q0 158 103.5 262t269.5 104t269.5 -104t103.5 -262q0 -106 -51.5 -188.5t-135.5 -123.5v-4q101 -43 162 -135.5t61 -218.5q0 -175 -114.5 -286t-294.5 -111t-295 111t-115 286zM545 786
q117 0 189.5 74.5t72.5 186.5q0 113 -73 186.5t-189 73.5t-189 -73.5t-73 -186.5q0 -112 72 -186.5t190 -74.5zM246 381q0 -129 82 -212t217 -83t217 83t82 212q0 130 -82.5 214.5t-216.5 84.5t-216.5 -84.5t-82.5 -214.5z" />
    <glyph glyph-name="nine" unicode="9" 
d="M420 45q0 17 8 33l285 543l-4 6q-25 -24 -73 -38t-106 -14q-171 0 -282 114.5t-111 299.5q0 194 114 309t294 115t293.5 -114.5t113.5 -305.5q0 -136 -92 -313l-336 -655q-16 -33 -49 -33q-25 0 -40 15t-15 38zM545 682q131 0 214 87.5t83 225.5t-83 225t-214 87
t-214 -87t-83 -225t83 -225.5t214 -87.5z" />
    <glyph glyph-name="colon" unicode=":" horiz-adv-x="466" 
d="M233 805q-37 0 -63.5 26.5t-26.5 63.5t26.5 63.5t63.5 26.5t64 -26.5t27 -63.5t-27 -63.5t-64 -26.5zM143 82q0 37 26.5 63.5t63.5 26.5t64 -26.5t27 -63.5t-27 -63.5t-64 -26.5t-63.5 26.5t-26.5 63.5z" />
    <glyph glyph-name="semicolon" unicode=";" horiz-adv-x="466" 
d="M233 805q-37 0 -63.5 26.5t-26.5 63.5t26.5 63.5t63.5 26.5t64 -26.5t27 -63.5t-27 -63.5t-64 -26.5zM104 -182l91 272q15 47 53 47q24 0 40.5 -14t16.5 -39q0 -11 -4 -27l-96 -272q-15 -47 -53 -47q-24 0 -38 13.5t-14 39.5q0 11 4 27z" />
    <glyph glyph-name="less" unicode="&#x3c;" 
d="M182 500q-55 23 -55 65q0 45 55 66l705 287q12 4 24 4q23 0 37.5 -14t14.5 -36q0 -37 -35 -51l-643 -254v-4l643 -254q35 -14 35 -51q0 -22 -14.5 -35.5t-37.5 -13.5q-12 0 -24 4z" />
    <glyph glyph-name="equal" unicode="=" 
d="M184 713q-27 0 -42 13.5t-15 37.5t15 37.5t42 13.5h721q27 0 42.5 -13.5t15.5 -37.5t-15.5 -37.5t-42.5 -13.5h-721zM184 315q-27 0 -42 14t-15 38t15 37.5t42 13.5h721q27 0 42.5 -13.5t15.5 -37.5t-15.5 -38t-42.5 -14h-721z" />
    <glyph glyph-name="greater" unicode="&#x3e;" 
d="M178 209q-23 0 -37 13.5t-14 35.5q0 37 35 51l643 254v4l-643 254q-35 14 -35 51q0 22 14 36t37 14q13 0 25 -4l704 -287q56 -22 56 -66q0 -42 -56 -65l-704 -287q-12 -4 -25 -4z" />
    <glyph glyph-name="question" unicode="?" horiz-adv-x="913" 
d="M401 408v47q0 63 14.5 107t49.5 91l117 156q74 98 99.5 151.5t25.5 116.5q0 109 -68.5 169.5t-175.5 60.5q-94 0 -157.5 -49t-86.5 -140q-14 -57 -57 -57q-23 0 -38 14t-15 37q0 11 4 27q30 125 121.5 199.5t232.5 74.5q156 0 253 -93.5t97 -240.5q0 -78 -28 -141.5
t-95 -155.5l-114 -153q-41 -56 -54.5 -91t-13.5 -92v-38q0 -29 -15 -44.5t-40 -15.5t-40.5 15.5t-15.5 44.5zM371 78q0 35 25.5 60.5t60.5 25.5q34 0 60 -25.5t26 -60.5t-26 -60.5t-60 -25.5q-35 0 -60.5 25.5t-25.5 60.5z" />
    <glyph glyph-name="at" unicode="@" horiz-adv-x="1810" 
d="M100 547q0 176 59.5 326.5t165 255.5t254.5 164t324 59q176 0 326 -59.5t256 -164.5t165.5 -255t59.5 -326q0 -217 -87.5 -324.5t-225.5 -107.5q-87 0 -150.5 42.5t-91.5 116.5h-2q-72 -159 -281 -159q-219 0 -286 204q-27 89 -27 218q0 124 27 217q66 204 284 204
q93 0 155.5 -33t94.5 -87h4v55q0 25 14 39t36 14t35.5 -13.5t13.5 -39.5v-479q0 -100 51.5 -152.5t124.5 -52.5q95 0 154 79t59 259q0 209 -88 370.5t-249.5 250.5t-371.5 89q-316 0 -510 -196t-194 -514q0 -210 87.5 -372t247.5 -251.5t369 -89.5q244 0 428 86q12 6 25 6
q19 0 31 -11t12 -30q0 -28 -27 -43q-184 -102 -469 -102q-175 0 -324 59.5t-254.5 165t-165 256t-59.5 326.5zM680 356q26 -75 77.5 -110t133.5 -35q162 0 213 145q20 61 20 181q0 119 -20 180q-50 145 -213 145q-83 0 -134 -34.5t-77 -110.5q-23 -71 -23 -180
q0 -110 23 -181z" />
    <glyph glyph-name="A" unicode="A" horiz-adv-x="1220" 
d="M76 45q0 11 4 23l459 1271q21 62 73 62q53 0 74 -62l455 -1271q4 -12 4 -23q0 -24 -15.5 -38.5t-39.5 -14.5q-43 0 -58 41l-119 329h-606l-119 -329q-15 -41 -57 -41q-24 0 -39.5 14.5t-15.5 38.5zM346 475h528l-260 729h-6z" />
    <glyph glyph-name="B" unicode="B" horiz-adv-x="1230" 
d="M193 55v1282q0 26 15.5 41t41.5 15h430q195 0 300 -97t105 -266q0 -122 -57.5 -201.5t-157.5 -109.5v-4q41 -8 81.5 -32.5t76.5 -64.5t58 -102t22 -135q0 -181 -111.5 -281t-314.5 -100h-432q-26 0 -41.5 14.5t-15.5 40.5zM322 764h358q138 0 213.5 71t75.5 189
q0 120 -76 189t-215 69h-356q-13 0 -13 -12v-494q0 -12 13 -12zM309 123q0 -12 13 -12h366q148 0 225.5 72t77.5 198t-78 199t-225 73h-366q-13 0 -13 -12v-518z" />
    <glyph glyph-name="C" unicode="C" horiz-adv-x="1138" 
d="M170 291q-37 113 -37 405q0 293 37 406q104 311 444 311q131 0 240.5 -60.5t161.5 -174.5q8 -20 8 -33q0 -26 -15 -40.5t-40 -14.5q-31 0 -51 36q-102 177 -304 177q-250 0 -331 -232q-31 -95 -31 -375q0 -279 31 -374q81 -232 331 -232q203 0 304 176q21 37 51 37
q25 0 40 -14.5t15 -40.5q0 -13 -8 -33q-52 -114 -161.5 -174.5t-240.5 -60.5q-340 0 -444 311z" />
    <glyph glyph-name="D" unicode="D" horiz-adv-x="1269" 
d="M193 55v1282q0 26 15.5 41t41.5 15h366q371 0 474 -316q23 -72 31.5 -151.5t8.5 -229.5t-8.5 -229.5t-31.5 -151.5q-102 -315 -474 -315h-366q-26 0 -41.5 14.5t-15.5 40.5zM309 123q0 -12 13 -12h278q158 0 246 56.5t131 186.5q21 64 29 137.5t8 204.5t-8 204.5
t-29 137.5q-43 130 -131.5 187t-245.5 57h-278q-13 0 -13 -12v-1147z" />
    <glyph glyph-name="E" unicode="E" horiz-adv-x="1138" 
d="M193 55v1282q0 26 15.5 41t41.5 15h729q29 0 44 -15.5t15 -40.5t-15 -40t-44 -15h-657q-13 0 -13 -12v-496q0 -12 13 -12h561q29 0 44 -15t15 -40t-15 -40.5t-44 -15.5h-561q-13 0 -13 -12v-516q0 -12 13 -12h657q29 0 44 -15.5t15 -40.5t-15 -40t-44 -15h-729
q-26 0 -41.5 14.5t-15.5 40.5z" />
    <glyph glyph-name="F" unicode="F" horiz-adv-x="1128" 
d="M193 55v1282q0 26 15.5 41t41.5 15h729q29 0 44 -15.5t15 -40.5t-15 -40t-44 -15h-657q-13 0 -13 -12v-510q0 -12 13 -12h561q29 0 44 -15t15 -41q0 -25 -15 -40t-44 -15h-561q-13 0 -13 -10v-572q0 -30 -15.5 -46.5t-41.5 -16.5q-27 0 -43 16.5t-16 46.5z" />
    <glyph glyph-name="G" unicode="G" horiz-adv-x="1247" 
d="M172 293q-39 119 -39 403q0 285 39 404q51 154 166.5 233.5t286.5 79.5q148 0 260 -62t162 -169q8 -20 8 -33q0 -26 -15.5 -40.5t-40.5 -14.5q-31 0 -51 36q-105 173 -325 173q-260 0 -338 -236q-33 -97 -33 -371q0 -273 33 -370q38 -116 124.5 -176t215.5 -60
q127 0 214.5 59.5t125.5 172.5q32 94 32 264q0 12 -12 12h-293q-27 0 -42 15.5t-15 39.5t15 40t42 16h367q23 0 39 -15.5t16 -38.5v-51q0 -192 -37 -309q-49 -154 -165 -234.5t-285 -80.5q-171 0 -287.5 79.5t-167.5 233.5z" />
    <glyph glyph-name="H" unicode="H" horiz-adv-x="1331" 
d="M193 55v1282q0 30 16 47t41 17q27 0 43 -17t16 -47v-563q0 -12 13 -12h686q14 0 14 12v563q0 30 16 47t41 17q27 0 43.5 -17t16.5 -47v-1282q0 -30 -16.5 -46.5t-43.5 -16.5q-26 0 -41.5 16.5t-15.5 46.5v584q0 12 -14 12h-686q-13 0 -13 -12v-584q0 -30 -16 -46.5
t-43 -16.5q-26 0 -41.5 16.5t-15.5 46.5z" />
    <glyph glyph-name="I" unicode="I" horiz-adv-x="501" 
d="M193 55v1282q0 30 16 47t41 17q27 0 43 -17t16 -47v-1282q0 -30 -16 -46.5t-43 -16.5q-26 0 -41.5 16.5t-15.5 46.5z" />
    <glyph glyph-name="J" unicode="J" horiz-adv-x="962" 
d="M98 72q-24 18 -24 49q0 22 15 37.5t38 15.5q21 0 39 -12q104 -72 213 -72q137 0 212 80t75 248v919q0 30 16 47t41 17q27 0 43 -17t16 -47v-921q0 -217 -107.5 -326.5t-297.5 -109.5q-78 0 -151.5 26t-127.5 66z" />
    <glyph glyph-name="K" unicode="K" horiz-adv-x="1198" 
d="M193 55v1282q0 30 16 47t41 17q27 0 43 -17t16 -47v-770l668 809q21 25 49 25q21 0 36 -14t15 -35q0 -22 -16 -41l-387 -465l438 -762q12 -21 12 -37q0 -25 -14.5 -41t-38.5 -16q-34 0 -55 35l-420 727l-287 -340v-357q0 -30 -16 -46.5t-43 -16.5q-26 0 -41.5 16.5
t-15.5 46.5z" />
    <glyph glyph-name="L" unicode="L" horiz-adv-x="1085" 
d="M193 55v1282q0 30 16 47t41 17q27 0 43 -17t16 -47v-1214q0 -12 13 -12h659q29 0 44 -15.5t15 -40.5t-15 -40t-44 -15h-733q-55 0 -55 55z" />
    <glyph glyph-name="M" unicode="M" horiz-adv-x="1546" 
d="M193 55v1272q0 74 69 74q51 0 78 -64l432 -962h8l426 962q27 64 78 64q34 0 52 -19.5t18 -54.5v-1272q0 -30 -16.5 -46.5t-43.5 -16.5q-26 0 -41.5 16.5t-15.5 46.5v1053h-8l-379 -838q-20 -42 -35.5 -55.5t-40.5 -13.5q-27 0 -42.5 13.5t-35.5 55.5l-377 838h-10v-1053
q0 -30 -16 -46.5t-43 -16.5q-26 0 -41.5 16.5t-15.5 46.5z" />
    <glyph glyph-name="N" unicode="N" horiz-adv-x="1333" 
d="M193 55v1272q0 74 71 74q28 0 46 -15t38 -49l670 -1110h6v1110q0 30 15 47t42 17t43.5 -17t16.5 -47v-1271q0 -35 -19 -54.5t-53 -19.5q-28 0 -46 14.5t-40 48.5l-666 1112h-8v-1112q0 -30 -16 -46.5t-43 -16.5q-26 0 -41.5 16.5t-15.5 46.5z" />
    <glyph glyph-name="O" unicode="O" horiz-adv-x="1247" 
d="M625 -20q-170 0 -285 79.5t-166 233.5q-21 62 -31 148.5t-10 254.5t10 255t31 149q51 154 166 233.5t285 79.5q169 0 283 -79.5t165 -233.5q21 -62 31 -149t10 -255t-10 -254.5t-31 -148.5q-51 -154 -165 -233.5t-283 -79.5zM995 696q0 267 -34 371q-78 236 -336 236
q-260 0 -338 -236q-35 -107 -35 -371q0 -263 35 -370q78 -236 338 -236q258 0 336 236q34 104 34 370z" />
    <glyph glyph-name="P" unicode="P" horiz-adv-x="1198" 
d="M250 -8q-26 0 -41.5 16.5t-15.5 46.5v1282q0 26 14.5 41t40.5 15h430q198 0 313 -106.5t115 -289.5t-115 -288t-313 -105h-356q-13 0 -13 -12v-537q0 -30 -16 -46.5t-43 -16.5zM674 715q153 0 234 73.5t81 208.5t-81.5 210t-233.5 75h-352q-13 0 -13 -12v-543
q0 -12 13 -12h352z" />
    <glyph glyph-name="Q" unicode="Q" horiz-adv-x="1245" 
d="M1130 29q17 -20 17 -41t-15 -36t-38 -15t-41 18l-119 125q-115 -100 -309 -100q-170 0 -285 79.5t-166 233.5q-21 62 -31 148.5t-10 254.5t10 255t31 149q51 154 166 233.5t285 79.5q169 0 283 -79.5t165 -233.5q21 -62 31 -149t10 -255t-10 -254.5t-31 -148.5
q-22 -72 -65 -133zM995 696q0 267 -34 371q-78 236 -336 236q-260 0 -338 -236q-35 -107 -35 -371q0 -263 35 -370q78 -236 338 -236q142 0 231 74l-151 162q-17 20 -17 41t15 36t38 15q22 0 41 -19l144 -153q26 55 35 80q34 104 34 370z" />
    <glyph glyph-name="R" unicode="R" horiz-adv-x="1259" 
d="M1044 -8q-34 0 -55 37l-289 594h-18h-360q-13 0 -13 -13v-555q0 -30 -16 -46.5t-43 -16.5q-26 0 -41.5 16.5t-15.5 46.5v1282q0 26 15.5 41t41.5 15h432q196 0 309 -103t113 -282q0 -145 -76 -241.5t-211 -129.5l279 -561q6 -15 6 -29q0 -23 -15.5 -39t-42.5 -16z
M680 733q150 0 228.5 71t78.5 204t-78.5 203.5t-228.5 70.5h-358q-13 0 -13 -12v-525q0 -12 13 -12h358z" />
    <glyph glyph-name="S" unicode="S" horiz-adv-x="1214" 
d="M590 -20q-121 0 -232.5 38t-195.5 97q-31 22 -31 55q0 23 17 40t42 17q22 0 43 -14q186 -123 371 -123q166 0 263.5 78t97.5 207q0 111 -75.5 178.5t-258.5 91.5l-66 8q-201 26 -300 120t-99 249q0 181 118.5 286t317.5 105q210 0 359 -92q38 -23 38 -57
q0 -23 -15.5 -39.5t-39.5 -16.5q-15 0 -41 13q-151 82 -305 82q-149 0 -232 -74.5t-83 -196.5q0 -111 76.5 -177t250.5 -89l64 -8q407 -52 407 -375q0 -183 -127 -293t-364 -110z" />
    <glyph glyph-name="T" unicode="T" horiz-adv-x="1071" 
d="M535 -8q-26 0 -42 16.5t-16 46.5v1215q0 12 -12 12h-369q-29 0 -44 15t-15 40t15.5 40.5t43.5 15.5h879q29 0 44 -15.5t15 -40.5t-15 -40t-44 -15h-369q-12 0 -12 -12v-1215q0 -30 -16 -46.5t-43 -16.5z" />
    <glyph glyph-name="U" unicode="U" horiz-adv-x="1300" 
d="M649 -20q-221 0 -346 126t-125 375v856q0 30 16.5 47t43.5 17q25 0 41 -17t16 -47v-858q0 -193 92.5 -291t261.5 -98q171 0 264 98t93 291v858q0 30 16 47t41 17q27 0 43 -17t16 -47v-856q0 -249 -125 -375t-348 -126z" />
    <glyph glyph-name="V" unicode="V" horiz-adv-x="1144" 
d="M571 -8q-27 0 -42.5 15t-26.5 48l-436 1264q-5 20 -5 27q0 24 16.5 39.5t41.5 15.5q39 0 55 -45l399 -1161h5l393 1161q16 45 55 45q25 0 41 -15t16 -40q0 -15 -4 -27l-436 -1264q-11 -33 -27 -48t-45 -15z" />
    <glyph glyph-name="W" unicode="W" horiz-adv-x="1673" 
d="M1221 -8q-27 0 -42 15t-24 50l-315 1104h-4l-318 -1104q-9 -35 -23.5 -50t-41.5 -15t-42 14.5t-24 50.5l-313 1268q-2 10 -2 21q0 23 14.5 39t40.5 16q45 0 57 -45l273 -1131h4l309 1110q18 66 68 66q47 0 65 -66l316 -1110h4l266 1131q12 45 57 45q26 0 41 -16t15 -39
q0 -9 -5 -29l-311 -1260q-9 -36 -23.5 -50.5t-41.5 -14.5z" />
    <glyph glyph-name="X" unicode="X" horiz-adv-x="1095" 
d="M954 -8q-30 0 -49 31l-354 591h-2l-359 -591q-19 -31 -49 -31q-26 0 -42.5 15.5t-16.5 39.5q0 19 10 37l391 647l-346 578q-10 17 -10 37q0 24 16.5 39.5t42.5 15.5q31 0 50 -31l313 -522h2l315 522q19 31 49 31q26 0 43 -16t17 -39q0 -20 -10 -37l-351 -578l390 -647
q10 -18 10 -37q0 -23 -17 -39t-43 -16z" />
    <glyph glyph-name="Y" unicode="Y" horiz-adv-x="1046" 
d="M522 -8q-26 0 -41.5 16.5t-15.5 46.5v516l-399 746q-9 18 -9 31q0 22 16.5 37.5t41.5 15.5q32 0 51 -31l358 -659h6l353 659q15 31 51 31q24 0 39.5 -15.5t15.5 -37.5q0 -15 -8 -31l-399 -746v-516q0 -30 -16.5 -46.5t-43.5 -16.5z" />
    <glyph glyph-name="Z" unicode="Z" horiz-adv-x="1105" 
d="M944 0h-782q-28 0 -45 15.5t-17 41.5q0 34 29 78l729 1145v2h-672q-29 0 -44 15t-15 40t15.5 40.5t43.5 15.5h754q28 0 46 -16t18 -42q0 -30 -29 -78l-729 -1144v-2h698q29 0 44.5 -15.5t15.5 -40.5t-15.5 -40t-44.5 -15z" />
    <glyph glyph-name="bracketleft" unicode="[" horiz-adv-x="579" 
d="M442 -172h-188q-49 0 -49 49v1589q0 50 49 50h188q52 0 52 -50q0 -47 -52 -47h-118q-13 0 -13 -12v-1470q0 -13 13 -13h118q52 0 52 -47q0 -49 -52 -49z" />
    <glyph glyph-name="backslash" unicode="\" horiz-adv-x="833" 
d="M637 -29q-33 0 -45 39l-440 1344q-5 20 -5 22q0 21 14.5 33t35.5 12q33 0 45 -39l440 -1343q4 -16 4 -23q0 -21 -14 -33t-35 -12z" />
    <glyph glyph-name="bracketright" unicode="]" horiz-adv-x="579" 
d="M328 -172h-191q-51 0 -51 49q0 47 51 47h121q12 0 12 13v1470q0 12 -12 12h-121q-51 0 -51 47q0 50 51 50h191q47 0 47 -50v-1589q0 -49 -47 -49z" />
    <glyph glyph-name="asciicircum" unicode="^" 
d="M887 571q-33 0 -49 37l-291 647h-4l-291 -647q-16 -37 -49 -37q-24 0 -37.5 13.5t-13.5 33.5q0 15 8 31l321 699q23 53 64 53q40 0 63 -53l322 -699q8 -16 8 -31q0 -20 -13.5 -33.5t-37.5 -13.5z" />
    <glyph glyph-name="underscore" unicode="_" horiz-adv-x="940" 
d="M940 -250h-940v82h940v-82z" />
    <glyph glyph-name="grave" unicode="`" horiz-adv-x="864" 
d="M500 1135q-23 0 -37 22l-133 207q-11 18 -11 33q0 19 13.5 32t34.5 13q26 0 43 -27l127 -205q10 -17 10 -30q0 -20 -12.5 -32.5t-34.5 -12.5z" />
    <glyph glyph-name="a" unicode="a" horiz-adv-x="1054" 
d="M934 76q8 -16 8 -31q0 -24 -15.5 -38.5t-41.5 -14.5q-34 0 -54 35l-47 77h-4q-57 -63 -128.5 -93.5t-182.5 -30.5q-146 0 -240 76.5t-94 211.5q0 143 96 217t275 74h250q12 0 12 12v70q0 127 -57.5 189.5t-196.5 62.5q-120 0 -223 -62q-18 -12 -39 -12q-23 0 -37 14
t-14 37q0 26 22 45q108 82 297 82q182 0 268 -84t86 -264v-395q0 -60 21 -104zM487 84q127 0 204 58.5t77 158.5v145q0 13 -12 13h-234q-145 0 -210.5 -46t-65.5 -145q0 -91 61 -137.5t180 -46.5z" />
    <glyph glyph-name="b" unicode="b" horiz-adv-x="1087" 
d="M594 -20q-213 0 -293 143h-2v-72q0 -29 -15 -44t-40 -15q-26 0 -41 15t-15 44v1290q0 29 15.5 44.5t40.5 15.5t40 -15.5t15 -44.5v-487h2q80 143 293 143q124 0 211 -62.5t125 -178.5q35 -112 35 -267q0 -156 -35 -268q-38 -116 -125 -178.5t-211 -62.5zM575 86
q93 0 157.5 46t92.5 130q27 85 27 227q0 141 -27 226q-28 84 -92.5 130t-157.5 46q-193 0 -251 -170q-25 -83 -25 -232q0 -150 25 -233q58 -170 251 -170z" />
    <glyph glyph-name="c" unicode="c" horiz-adv-x="952" 
d="M123 487q0 162 31 256q38 120 133.5 187t230.5 67q111 0 192.5 -45t123.5 -118q8 -13 8 -33q0 -21 -14 -35t-35 -14q-32 0 -52 30q-78 109 -223 109q-198 0 -256 -182q-26 -79 -26 -222q0 -140 26 -219q58 -182 256 -182q145 0 223 109q20 30 52 30q21 0 35 -14t14 -35
q0 -20 -8 -33q-42 -73 -123.5 -118t-192.5 -45q-135 0 -230.5 66.5t-133.5 186.5q-31 94 -31 254z" />
    <glyph glyph-name="d" unicode="d" horiz-adv-x="1087" 
d="M844 -8q-26 0 -41 15t-15 44v72h-2q-80 -143 -292 -143q-124 0 -211 62.5t-125 178.5q-35 112 -35 268q0 155 35 267q38 116 125 178.5t211 62.5q212 0 292 -143h2v487q0 29 15.5 44.5t40.5 15.5t40 -15.5t15 -44.5v-1290q0 -29 -15 -44t-40 -15zM512 86q194 0 252 170
q24 80 24 233t-24 232q-58 170 -252 170q-93 0 -157.5 -46t-92.5 -130q-26 -82 -26 -226q0 -145 26 -227q28 -84 92.5 -130t157.5 -46z" />
    <glyph glyph-name="e" unicode="e" horiz-adv-x="1030" 
d="M526 -20q-141 0 -236 65t-136 191q-31 95 -31 253q0 156 31 254q39 122 133.5 188t226.5 66q133 0 228.5 -66t134.5 -188q30 -91 30 -233q0 -23 -14 -37t-37 -14h-608q-12 0 -12 -13q0 -109 20 -170q32 -95 103 -142.5t173 -47.5q157 0 265 111q20 20 41 20
q22 0 35.5 -13.5t13.5 -33.5q0 -21 -13 -37q-122 -153 -348 -153zM248 559h534q13 0 13 12q0 78 -19 140q-29 90 -97.5 137t-164.5 47t-163.5 -47t-96.5 -137q-18 -59 -18 -140q0 -12 12 -12z" />
    <glyph glyph-name="f" unicode="f" horiz-adv-x="630" 
d="M276 -8q-25 0 -40 15t-15 44v815q0 13 -12 13h-80q-26 0 -39.5 13.5t-13.5 35.5t13.5 35.5t39.5 13.5h80q12 0 12 12v105q0 171 61 235t212 64h28q27 0 42.5 -15t15.5 -39t-15.5 -38.5t-42.5 -14.5q-122 0 -156 -31.5t-34 -146.5v-119q0 -12 12 -12h184q52 0 52 -49
t-52 -49h-184q-12 0 -12 -13v-815q0 -29 -15 -44t-41 -15z" />
    <glyph glyph-name="g" unicode="g" horiz-adv-x="1069" 
d="M487 -389q-91 0 -171.5 32t-133.5 85q-16 16 -16 36q0 25 15.5 41.5t39.5 16.5t47 -23q88 -82 224 -82q278 0 278 297v123h-2q-72 -141 -287 -141q-122 0 -206 63.5t-121 178.5q-33 100 -33 258q0 160 33 260q37 115 121 178t206 63q212 0 287 -143h2v72q0 29 15 44
t40 15t40.5 -15.5t15.5 -43.5v-908q0 -200 -103.5 -303.5t-290.5 -103.5zM502 102q184 0 243 172q25 74 25 222q0 149 -25 223q-59 172 -243 172q-183 0 -242 -176q-27 -83 -27 -219q0 -134 27 -217q59 -177 242 -177z" />
    <glyph glyph-name="h" unicode="h" horiz-adv-x="1107" 
d="M877 -8q-25 0 -40.5 15t-15.5 44v547q0 293 -256 293q-113 0 -189.5 -75t-76.5 -198v-567q0 -29 -15 -44t-40 -15q-26 0 -41 15t-15 44v1290q0 29 15.5 44.5t40.5 15.5t40 -15.5t15 -44.5v-483h2q89 139 289 139q162 0 252 -97t90 -275v-574q0 -29 -15 -44t-40 -15z" />
    <glyph glyph-name="i" unicode="i" horiz-adv-x="487" 
d="M244 1229q-35 0 -60.5 25.5t-25.5 60.5t25.5 60.5t60.5 25.5t60.5 -25.5t25.5 -60.5t-25.5 -60.5t-60.5 -25.5zM244 -8q-26 0 -41 15t-15 44v875q0 28 15 43.5t41 15.5q25 0 40 -15t15 -44v-875q0 -29 -15 -44t-40 -15z" />
    <glyph glyph-name="j" unicode="j" horiz-adv-x="487" 
d="M244 1229q-35 0 -60.5 25.5t-25.5 60.5t25.5 60.5t60.5 25.5t60.5 -25.5t25.5 -60.5t-25.5 -60.5t-60.5 -25.5zM53 -369q-27 0 -42 15t-15 39t15 38.5t42 14.5q78 0 106.5 31.5t28.5 117.5v1039q0 28 15 43.5t41 15.5q25 0 40 -15t15 -44v-1037q0 -139 -55.5 -198.5
t-190.5 -59.5z" />
    <glyph glyph-name="k" unicode="k" horiz-adv-x="1009" 
d="M870 -8q-33 0 -53 33l-309 501l-209 -241v-234q0 -29 -15 -44t-40 -15q-26 0 -41 15t-15 44v1290q0 29 15.5 44.5t40.5 15.5t40 -15.5t15 -44.5v-909l451 533q17 20 41 20q22 0 35.5 -13.5t13.5 -35.5q0 -17 -13 -33l-245 -291l331 -536q11 -18 11 -35q0 -21 -15 -35
t-39 -14z" />
    <glyph glyph-name="l" unicode="l" horiz-adv-x="536" 
d="M410 -6h-21q-111 0 -157 53.5t-46 175.5v1118q0 29 15.5 44.5t40.5 15.5t40 -15.5t15 -44.5v-1114q0 -72 24.5 -99.5t88.5 -27.5q27 0 42 -14.5t15 -38.5t-15 -38.5t-42 -14.5z" />
    <glyph glyph-name="m" unicode="m" horiz-adv-x="1738" 
d="M1509 -8q-25 0 -40 15t-15 44v547q0 293 -256 293q-113 0 -189.5 -75t-76.5 -198v-567q0 -29 -15 -44t-40 -15t-40.5 15t-15.5 44v547q0 293 -256 293q-113 0 -189.5 -75t-76.5 -198v-567q0 -29 -15 -44t-40 -15q-26 0 -41 15t-15 44v875q0 28 15 43.5t41 15.5
q25 0 40 -15t15 -44v-68h2q87 139 289 139q218 0 299 -163h2q103 163 328 163q167 0 256.5 -96.5t89.5 -275.5v-574q0 -29 -15.5 -44t-40.5 -15z" />
    <glyph glyph-name="n" unicode="n" horiz-adv-x="1107" 
d="M877 -8q-25 0 -40.5 15t-15.5 44v547q0 293 -256 293q-113 0 -189.5 -75t-76.5 -198v-567q0 -29 -15 -44t-40 -15q-26 0 -41 15t-15 44v875q0 28 15 43.5t41 15.5q25 0 40 -15t15 -44v-68h2q87 139 289 139q162 0 252 -97t90 -275v-574q0 -29 -15 -44t-40 -15z" />
    <glyph glyph-name="o" unicode="o" horiz-adv-x="1042" 
d="M520 -20q-134 0 -229 66t-135 187q-33 109 -33 256q0 145 33 254q40 121 135 187.5t229 66.5q135 0 231 -66.5t136 -187.5q33 -109 33 -254q0 -147 -33 -256q-40 -121 -136 -187t-231 -66zM520 86q95 0 163 47t97 135q27 83 27 221q0 137 -27 220q-29 88 -97 135t-163 47
q-94 0 -161.5 -47.5t-96.5 -134.5q-26 -79 -26 -220q0 -142 26 -221q29 -87 96.5 -134.5t161.5 -47.5z" />
    <glyph glyph-name="p" unicode="p" horiz-adv-x="1087" 
d="M244 -377q-25 0 -40.5 15.5t-15.5 44.5v1243q0 28 15 43.5t41 15.5q25 0 40 -15t15 -44v-72h2q80 143 293 143q124 0 211 -62.5t125 -178.5q35 -112 35 -267q0 -156 -35 -268q-38 -116 -125 -178.5t-211 -62.5q-213 0 -293 143h-2v-440q0 -29 -15 -44.5t-40 -15.5z
M575 86q93 0 157.5 46t92.5 130q27 85 27 227q0 141 -27 226q-28 84 -92.5 130t-157.5 46q-193 0 -251 -170q-25 -83 -25 -232q0 -150 25 -233q58 -170 251 -170z" />
    <glyph glyph-name="q" unicode="q" horiz-adv-x="1087" 
d="M844 -377q-25 0 -40.5 15.5t-15.5 44.5v440h-2q-80 -143 -292 -143q-124 0 -211 62.5t-125 178.5q-35 112 -35 268q0 155 35 267q38 116 125 178.5t211 62.5q212 0 292 -143h2v72q0 28 15 43.5t41 15.5q25 0 40 -15t15 -44v-1243q0 -29 -15 -44.5t-40 -15.5zM512 86
q194 0 252 170q24 80 24 233t-24 232q-58 170 -252 170q-93 0 -157.5 -46t-92.5 -130q-26 -82 -26 -226q0 -145 26 -227q28 -84 92.5 -130t157.5 -46z" />
    <glyph glyph-name="r" unicode="r" horiz-adv-x="798" 
d="M244 -8q-26 0 -41 15t-15 44v875q0 28 15 43.5t41 15.5q25 0 40 -15t15 -44v-95h2q29 76 96 121t160 45q95 0 168 -43q33 -18 33 -49q0 -23 -16 -39t-40 -16q-13 0 -28 6q-79 35 -137 35q-83 0 -137.5 -45.5t-77.5 -117.5t-23 -167v-510q0 -29 -15 -44t-40 -15z" />
    <glyph glyph-name="s" unicode="s" horiz-adv-x="985" 
d="M494 -20q-102 0 -194 32t-159 82q-24 18 -24 47q0 22 15 37t38 15q18 0 37 -13q138 -98 297 -98q124 0 189 51t65 137q0 79 -46.5 118.5t-176.5 53.5l-101 11q-136 14 -209 79.5t-73 178.5q0 134 92 210t252 76q162 0 290 -73q35 -20 35 -52q0 -20 -13.5 -34.5
t-33.5 -14.5q-19 0 -41 11q-50 27 -117.5 44t-126.5 17q-111 0 -169 -45.5t-58 -128.5q0 -73 51 -112.5t172 -51.5l101 -10q282 -30 282 -264q0 -140 -97.5 -221.5t-276.5 -81.5z" />
    <glyph glyph-name="t" unicode="t" horiz-adv-x="636" 
d="M494 -6h-27q-136 0 -193 59t-57 203v610q0 13 -12 13h-80q-26 0 -39.5 13.5t-13.5 35.5t13.5 35.5t39.5 13.5h80q12 0 12 12v250q0 29 15 44t40 15q26 0 41 -15t15 -44v-250q0 -12 12 -12h156q26 0 39.5 -13.5t13.5 -35.5t-13.5 -35.5t-39.5 -13.5h-156q-12 0 -12 -13
v-606q0 -95 35 -127.5t131 -32.5q27 0 42 -14.5t15 -38.5t-15 -38.5t-42 -14.5z" />
    <glyph glyph-name="u" unicode="u" horiz-adv-x="1095" 
d="M852 -8q-25 0 -40 15t-15 44v68h-2q-87 -139 -285 -139q-161 0 -249.5 97t-88.5 275v574q0 29 15 44t40 15t40.5 -15.5t15.5 -43.5v-547q0 -293 252 -293q113 0 187.5 74.5t74.5 197.5v568q0 29 15 44t40 15t40 -15t15 -44v-875q0 -29 -15 -44t-40 -15z" />
    <glyph glyph-name="v" unicode="v" horiz-adv-x="958" 
d="M479 -8q-26 0 -42 14.5t-29 52.5l-324 842q-6 18 -6 31q0 22 14.5 37.5t40.5 15.5q39 0 53 -41l295 -770h2l289 770q14 41 53 41q26 0 41 -15.5t15 -37.5q0 -10 -7 -31l-323 -842q-13 -38 -29 -52.5t-43 -14.5z" />
    <glyph glyph-name="w" unicode="w" horiz-adv-x="1503" 
d="M1063 -8q-25 0 -41.5 14.5t-26.5 48.5l-241 746h-2l-244 -746q-10 -34 -26.5 -48.5t-41.5 -14.5t-41 14t-26 49l-283 852q-4 12 -4 25q0 23 14 38t39 15q41 0 56 -47l247 -762h2l242 744q10 35 25.5 50t40.5 15t40 -15t25 -50l248 -744h2l242 762q15 47 55 47
q25 0 39 -15t14 -38q0 -13 -4 -25l-283 -852q-10 -35 -26 -49t-41 -14z" />
    <glyph glyph-name="x" unicode="x" horiz-adv-x="946" 
d="M793 -8q-33 0 -52 31l-266 391h-2l-270 -391q-19 -31 -51 -31q-21 0 -35.5 15t-14.5 34q0 18 15 39l295 432l-260 385q-15 21 -15 39q0 19 14 34t35 15q33 0 52 -31l235 -346h2l238 346q19 31 51 31q21 0 34 -14t13 -33t-14 -41l-262 -385l294 -432q15 -21 15 -39
q0 -19 -15 -34t-36 -15z" />
    <glyph glyph-name="y" unicode="y" horiz-adv-x="958" 
d="M213 -369h-16q-27 0 -42.5 15t-15.5 39t15.5 38.5t42.5 14.5q72 0 110.5 35.5t81.5 148.5l39 98l-346 887q-4 12 -4 27q0 21 15.5 36t39.5 15q39 0 53 -41l297 -772h2l289 772q14 41 53 41q24 0 39 -15t15 -36q0 -15 -4 -27l-385 -1001q-62 -164 -122 -219.5t-157 -55.5z
" />
    <glyph glyph-name="z" unicode="z" horiz-adv-x="931" 
d="M780 0h-626q-27 0 -42.5 14.5t-15.5 38.5q0 30 33 72l563 741v4h-512q-27 0 -42 15t-15 39t15 38.5t42 14.5h600q27 0 42.5 -14.5t15.5 -38.5q0 -28 -33 -72l-563 -741v-5h538q27 0 42.5 -14.5t15.5 -38.5t-15.5 -38.5t-42.5 -14.5z" />
    <glyph glyph-name="braceleft" unicode="{" horiz-adv-x="651" 
d="M516 -172h-37q-101 0 -148.5 50t-47.5 163v410q0 94 -21 128.5t-78 43.5q-57 6 -57 53t57 53q57 9 78 43.5t21 128.5v402q0 113 47.5 163t148.5 50h37q51 0 51 -50q0 -47 -53 -47h-27q-53 0 -76.5 -26t-23.5 -88v-394q0 -114 -23.5 -162t-82.5 -71v-4q59 -23 82.5 -71.5
t23.5 -162.5v-401q0 -62 23.5 -88.5t76.5 -26.5h27q53 0 53 -47q0 -49 -51 -49z" />
    <glyph glyph-name="bar" unicode="|" horiz-adv-x="503" 
d="M252 -180q-22 0 -35.5 13.5t-13.5 39.5v1597q0 26 13.5 40t35.5 14t35.5 -14t13.5 -40v-1597q0 -26 -13.5 -39.5t-35.5 -13.5z" />
    <glyph glyph-name="braceright" unicode="}" horiz-adv-x="651" 
d="M172 -172h-35q-53 0 -53 49q0 47 53 47h27q53 0 76.5 26.5t23.5 88.5v401q0 77 11.5 124t33.5 71t62 39v4q-40 15 -62 39t-33.5 70.5t-11.5 123.5v394q0 62 -23.5 88t-76.5 26h-27q-53 0 -53 47q0 50 53 50h35q102 0 150.5 -50.5t48.5 -162.5v-402q0 -95 19.5 -129
t76.5 -43q57 -6 57 -53t-57 -53q-57 -9 -76.5 -43t-19.5 -129v-410q0 -112 -48.5 -162.5t-150.5 -50.5z" />
    <glyph glyph-name="asciitilde" unicode="~" 
d="M719 442q-55 0 -99.5 19.5t-99.5 58.5t-85 53.5t-66 14.5q-88 0 -152 -96q-16 -25 -41 -25q-20 0 -32.5 12t-12.5 31q0 18 8 31q43 71 103.5 107t128.5 36q55 0 99 -19.5t99 -58.5q53 -38 84.5 -52.5t67.5 -14.5q87 0 151 96q15 24 41 24q20 0 32.5 -12t12.5 -31
q0 -17 -8 -30q-87 -144 -231 -144z" />
    <glyph glyph-name="uni00A0" unicode="&#xa0;" horiz-adv-x="503" 
 />
    <glyph glyph-name="exclamdown" unicode="&#xa1;" horiz-adv-x="544" 
d="M272 625q25 0 40.5 -15.5t15.5 -42.5v-932q0 -29 -15 -44t-41 -15q-25 0 -40 15t-15 44v932q0 27 15 42.5t40 15.5zM358 899q0 -35 -25.5 -60.5t-60.5 -25.5t-60.5 25.5t-25.5 60.5t25.5 60.5t60.5 25.5t60.5 -25.5t25.5 -60.5z" />
    <glyph glyph-name="cent" unicode="&#xa2;" 
d="M322 268q49 -154 208 -178v795q-78 -10 -131 -55.5t-77 -120.5q-29 -89 -29 -222q0 -130 29 -219zM530 -174v158q-119 12 -200 77t-115 172q-35 107 -35 254q0 149 35 256q34 107 115 172.5t200 77.5v156q0 20 10.5 31.5t28.5 11.5t28.5 -11.5t10.5 -31.5v-154
q106 -3 182 -50t115 -118q8 -13 8 -32q0 -21 -14 -35.5t-35 -14.5q-30 0 -51 31q-75 105 -205 113v-803q133 11 205 115q20 30 51 30q21 0 35 -14t14 -35q0 -19 -8 -32q-38 -71 -114 -117.5t-183 -50.5v-156q0 -20 -10.5 -31.5t-28.5 -11.5t-28.5 11.5t-10.5 31.5z" />
    <glyph glyph-name="sterling" unicode="&#xa3;" 
d="M879 0h-617q-26 0 -40.5 13.5t-14.5 37.5q0 34 41 80q34 38 45.5 75.5t11.5 106.5v281q0 12 -12 12h-78q-51 0 -51 49q0 50 51 50h78q12 0 12 12v346q0 166 83.5 258t225.5 92q112 0 185 -57t104 -154q4 -16 4 -26q0 -23 -15.5 -36.5t-37.5 -13.5q-36 0 -57 50
q-56 131 -183 131q-92 0 -145 -57t-53 -173v-360q0 -12 14 -12h252q53 0 53 -50q0 -49 -53 -49h-252q-14 0 -14 -12v-266q0 -78 -15 -129t-51 -90v-3h529q27 0 41 -14.5t14 -38.5t-14 -38.5t-41 -14.5z" />
    <glyph glyph-name="currency" unicode="&#xa4;" 
d="M545 276q-140 0 -238 76l-112 -112q-17 -17 -37 -17q-21 0 -35 14t-14 35q0 18 16 37l111 115q-76 98 -76 240q0 137 76 239l-111 115q-16 19 -16 37q0 21 14 35t35 14q20 0 37 -17l112 -114q100 78 238 78q135 0 235 -78l115 114q17 17 37 17q21 0 35 -14t14 -35
q0 -18 -16 -37l-113 -115q78 -105 78 -239q0 -140 -78 -240l113 -115q16 -19 16 -37q0 -21 -14 -35t-35 -14q-20 0 -37 17l-115 112q-98 -76 -235 -76zM545 369q125 0 207 84t82 211t-82 210.5t-207 83.5t-207 -83.5t-82 -210.5t82 -211t207 -84z" />
    <glyph glyph-name="yen" unicode="&#xa5;" 
d="M545 -8q-25 0 -40.5 15t-15.5 44v266q0 13 -12 13h-246q-53 0 -53 45q0 47 53 47h246q12 0 12 12v123q0 12 -12 12h-246q-53 0 -53 45q0 48 53 48h222v2l-308 653q-8 16 -8 33q0 21 15.5 36t40.5 15q34 0 49 -35l303 -664h4l299 664q15 35 49 35q25 0 40 -15t15 -36
q0 -17 -8 -33l-307 -653v-2h221q53 0 53 -48q0 -45 -53 -45h-246q-12 0 -12 -12v-123q0 -12 12 -12h246q53 0 53 -47q0 -45 -53 -45h-246q-12 0 -12 -13v-266q0 -29 -15 -44t-40 -15z" />
    <glyph glyph-name="brokenbar" unicode="&#xa6;" horiz-adv-x="503" 
d="M252 786q-22 0 -35.5 14t-13.5 40v630q0 26 13.5 40t35.5 14t35.5 -14t13.5 -40v-630q0 -26 -13.5 -40t-35.5 -14zM252 -180q-22 0 -35.5 13.5t-13.5 39.5v639q0 26 13.5 39.5t35.5 13.5t35.5 -13.5t13.5 -39.5v-639q0 -26 -13.5 -39.5t-35.5 -13.5z" />
    <glyph glyph-name="section" unicode="&#xa7;" horiz-adv-x="1085" 
d="M539 -389q-134 0 -216 67t-106 187q-4 16 -4 33q0 23 14.5 36t36.5 13q44 0 53 -47q17 -92 74 -140.5t146 -48.5q103 0 162 53t59 152q0 98 -64.5 152.5t-218.5 85.5q-287 56 -287 364q0 121 58 212t168 122v2q-178 67 -178 268q0 129 85.5 210t225.5 81
q126 0 202.5 -61.5t102.5 -165.5q4 -16 4 -33q0 -23 -14 -36t-39 -13q-37 0 -49 47q-40 162 -209 162q-94 0 -148.5 -50.5t-54.5 -140.5q0 -98 60 -153t210 -88q285 -63 285 -363q0 -123 -56 -212.5t-159 -119.5v-2q87 -37 134.5 -101t47.5 -171q0 -138 -92 -219.5
t-233 -81.5zM543 254q112 0 180 68.5t68 195.5q0 126 -68 194t-180 68t-180 -68t-68 -194q0 -127 68 -195.5t180 -68.5z" />
    <glyph glyph-name="dieresis" unicode="&#xa8;" horiz-adv-x="862" 
d="M635 1235q-32 0 -55 23t-23 55t23 56t55 24t55 -24t23 -56t-23 -55t-55 -23zM227 1235q-32 0 -54.5 23t-22.5 55q0 33 22.5 56.5t54.5 23.5t56 -24t24 -56t-24 -55t-56 -23z" />
    <glyph glyph-name="copyright" unicode="&#xa9;" horiz-adv-x="1699" 
d="M850 -20q-201 0 -365.5 93.5t-258 257.5t-93.5 365q0 151 55 284t150 228t228 150t284 55t284 -55t228 -150t150 -228t55 -284q0 -201 -93.5 -365t-258 -257.5t-365.5 -93.5zM850 63q132 0 248.5 48.5t199.5 132.5t131 201.5t48 250.5t-48 250.5t-131 201.5t-199.5 132.5
t-248.5 48.5t-248.5 -48.5t-199.5 -132.5t-131 -201.5t-48 -250.5t48 -250.5t131 -201.5t199.5 -132.5t248.5 -48.5zM864 295q-110 0 -187 53.5t-110 155.5q-22 68 -22 192q0 125 22 193q33 102 110 155.5t187 53.5q86 0 152.5 -35.5t101.5 -93.5q6 -12 6 -23
q0 -19 -11.5 -31t-31.5 -12q-21 0 -39 21q-35 43 -75.5 64.5t-104.5 21.5q-159 0 -207 -146q-18 -55 -18 -168q0 -112 18 -168q48 -145 207 -145q64 0 104.5 21.5t75.5 64.5q17 20 39 20q20 0 31.5 -12t11.5 -31q0 -10 -6 -22q-35 -58 -101.5 -93.5t-152.5 -35.5z" />
    <glyph glyph-name="ordfeminine" unicode="&#xaa;" horiz-adv-x="696" 
d="M627 868q8 -16 8 -28q0 -21 -13 -33t-36 -12q-28 0 -47 32l-23 35h-2q-67 -71 -199 -71q-102 0 -162.5 47t-60.5 129q0 186 248 186h141q13 0 13 12v25q0 131 -156 131q-85 0 -148 -37q-13 -8 -26 -8q-15 0 -27 12.5t-12 30.5q0 23 22 39q68 49 199 49q124 0 182 -53.5
t58 -167.5v-203q0 -32 14 -61zM326 872q72 0 120 32t48 79v80q0 12 -13 12h-133q-162 0 -162 -100q0 -49 37.5 -76t102.5 -27z" />
    <glyph glyph-name="guillemotleft" unicode="&#xab;" horiz-adv-x="1081" 
d="M872 199q-20 0 -36 16l-261 266q-32 32 -32 60q0 27 32 59l261 266q17 17 36 17q22 0 36 -13.5t14 -33.5q0 -17 -17 -37l-243 -250q-8 -9 0 -17l243 -249q17 -20 17 -37q0 -20 -14 -33.5t-36 -13.5zM459 199q-21 0 -37 16l-260 266q-33 33 -33 60q0 26 33 59l260 266
q17 17 37 17q22 0 35.5 -13.5t13.5 -33.5q0 -18 -16 -37l-244 -250q-8 -9 0 -17l244 -249q16 -19 16 -37q0 -20 -13.5 -33.5t-35.5 -13.5z" />
    <glyph glyph-name="logicalnot" unicode="&#xac;" 
d="M901 231q-24 0 -38.5 15.5t-14.5 42.5v213q0 12 -12 12h-652q-27 0 -42 13.5t-15 37.5t15 37.5t42 13.5h717q53 0 53 -51v-276q0 -27 -14.5 -42.5t-38.5 -15.5z" />
    <glyph glyph-name="uni00AD" unicode="&#xad;" horiz-adv-x="763" 
d="M627 492h-469q-27 0 -42.5 13.5t-15.5 37.5t15.5 37.5t42.5 13.5h469q27 0 42 -13.5t15 -37.5t-15 -37.5t-42 -13.5z" />
    <glyph glyph-name="registered" unicode="&#xae;" horiz-adv-x="940" 
d="M471 614q-169 0 -282 113.5t-113 282.5q0 167 113 280t282 113q168 0 280.5 -112.5t112.5 -280.5q0 -169 -112.5 -282.5t-280.5 -113.5zM471 676q141 0 235.5 95t94.5 239q0 142 -94.5 236.5t-235.5 94.5q-143 0 -237.5 -94.5t-94.5 -236.5q0 -144 94.5 -239t237.5 -95z
M356 786q-37 0 -37 37v377q0 15 9 24t24 9h150q66 0 104.5 -35t38.5 -94q0 -45 -23 -77t-65 -44l74 -145q6 -12 6 -23q0 -12 -11 -20.5t-24 -8.5q-22 0 -31 19l-84 170h-92q-6 0 -6 -6v-146q0 -17 -9.5 -27t-23.5 -10zM500 1036q75 0 75 68q0 70 -75 70h-105q-6 0 -6 -5
v-127q0 -6 6 -6h105z" />
    <glyph glyph-name="macron" unicode="&#xaf;" horiz-adv-x="864" 
d="M659 1266h-454q-23 0 -37 13t-14 34t14 34t37 13h454q23 0 37.5 -13.5t14.5 -33.5t-14.5 -33.5t-37.5 -13.5z" />
    <glyph glyph-name="degree" unicode="&#xb0;" horiz-adv-x="915" 
d="M457 821q-125 0 -208 83.5t-83 209.5t83 209.5t208 83.5q126 0 209.5 -83.5t83.5 -209.5t-83.5 -209.5t-209.5 -83.5zM457 899q90 0 149.5 61t59.5 154q0 92 -59 153.5t-150 61.5t-149 -61.5t-58 -153.5q0 -93 58.5 -154t148.5 -61z" />
    <glyph glyph-name="plusminus" unicode="&#xb1;" 
d="M545 213q-24 0 -38.5 15t-14.5 42v299q0 13 -13 13h-295q-27 0 -42 13.5t-15 37.5t15 37.5t42 13.5h295q13 0 13 12v299q0 27 14.5 42.5t38.5 15.5t38.5 -15.5t14.5 -42.5v-299q0 -12 12 -12h295q27 0 42.5 -13.5t15.5 -37.5t-15.5 -37.5t-42.5 -13.5h-295q-12 0 -12 -13
v-299q0 -27 -14.5 -42t-38.5 -15zM905 0h-721q-27 0 -42 13.5t-15 37.5t15 37.5t42 13.5h721q27 0 42.5 -13.5t15.5 -37.5t-15.5 -37.5t-42.5 -13.5z" />
    <glyph glyph-name="twosuperior" unicode="&#xb2;" horiz-adv-x="677" 
d="M551 881h-422q-49 0 -49 45q0 27 31 61l307 359q69 82 69 155q0 60 -38 98.5t-101 38.5q-57 0 -94 -27t-53 -73q-14 -41 -49 -41q-21 0 -33.5 11.5t-12.5 29.5q0 10 5 25q23 70 81.5 116.5t153.5 46.5q110 0 174 -64.5t64 -160.5q0 -101 -92 -207l-277 -321v-4h336
q23 0 35 -12t12 -31q0 -45 -47 -45z" />
    <glyph glyph-name="threesuperior" unicode="&#xb3;" horiz-adv-x="677" 
d="M342 866q-95 0 -157.5 39t-88.5 105q-6 15 -6 26q0 19 12 30t31 11q26 0 47 -35q59 -88 160 -88q71 0 115.5 45t44.5 113t-46.5 112t-127.5 44q-22 0 -36 12t-14 31q0 21 14 33t36 12q71 0 112 38.5t41 104.5q0 61 -38.5 100t-106.5 39q-53 0 -85 -20t-56 -59
q-21 -35 -48 -35q-19 0 -31 11t-12 30q0 9 7 26q26 58 84 96.5t143 38.5q109 0 174 -62.5t65 -160.5q0 -116 -104 -184v-2q48 -21 86.5 -74t38.5 -131q0 -108 -70 -177t-184 -69z" />
    <glyph glyph-name="acute" unicode="&#xb4;" horiz-adv-x="864" 
d="M403 1157q-14 -22 -36 -22q-23 0 -35.5 12.5t-12.5 32.5q0 12 11 30l127 205q17 27 43 27q21 0 34 -13t13 -32q0 -16 -10 -33z" />
    <glyph glyph-name="mu" unicode="&#xb5;" horiz-adv-x="1112" 
d="M868 -8q-25 0 -40 15t-15 44v86h-2q-34 -73 -106 -115t-168 -42q-170 0 -236 104h-2v-401q0 -29 -15 -44.5t-40 -15.5t-40.5 15.5t-15.5 44.5v1243q0 28 15 43.5t41 15.5q25 0 40 -15t15 -44v-547q0 -293 252 -293q113 0 187.5 74.5t74.5 197.5v568q0 29 15 44t40 15
q26 0 41 -15.5t15 -43.5v-875q0 -29 -15 -44t-41 -15z" />
    <glyph glyph-name="mu" unicode="&#x3bc;" horiz-adv-x="1112" 
d="M868 -8q-25 0 -40 15t-15 44v86h-2q-34 -73 -106 -115t-168 -42q-170 0 -236 104h-2v-401q0 -29 -15 -44.5t-40 -15.5t-40.5 15.5t-15.5 44.5v1243q0 28 15 43.5t41 15.5q25 0 40 -15t15 -44v-547q0 -293 252 -293q113 0 187.5 74.5t74.5 197.5v568q0 29 15 44t40 15
q26 0 41 -15.5t15 -43.5v-875q0 -29 -15 -44t-41 -15z" />
    <glyph glyph-name="paragraph" unicode="&#xb6;" horiz-adv-x="1167" 
d="M934 -377q-24 0 -38.5 14.5t-14.5 38.5v1602q0 12 -13 12h-196q-13 0 -13 -12v-1602q0 -24 -14.5 -38.5t-38.5 -14.5q-22 0 -36.5 14.5t-14.5 38.5v871q-182 10 -288.5 128t-106.5 296q0 89 29.5 165.5t84.5 134t141.5 90t194.5 32.5h326q23 0 36 -13.5t13 -36.5v-1667
q0 -24 -14.5 -38.5t-36.5 -14.5z" />
    <glyph glyph-name="periodcentered" unicode="&#xb7;" horiz-adv-x="450" 
d="M225 451q-37 0 -63.5 26.5t-26.5 63.5t26.5 63.5t63.5 26.5t63.5 -26.5t26.5 -63.5t-26.5 -63.5t-63.5 -26.5z" />
    <glyph glyph-name="cedilla" unicode="&#xb8;" horiz-adv-x="864" 
d="M434 -276q-12 -39 -49 -39q-21 0 -35 13t-14 36q0 15 6 30l88 236q8 20 27 20h59q9 0 13 -5.5t1 -14.5z" />
    <glyph glyph-name="onesuperior" unicode="&#xb9;" horiz-adv-x="677" 
d="M373 877q-22 0 -34.5 14t-12.5 39v663h-2l-99 -67q-17 -10 -30 -10q-19 0 -31 12.5t-12 32.5q0 25 24 43l125 86q37 26 66 26q26 0 40.5 -14.5t14.5 -38.5v-733q0 -24 -13.5 -38.5t-35.5 -14.5z" />
    <glyph glyph-name="ordmasculine" unicode="&#xba;" horiz-adv-x="708" 
d="M354 788q-188 0 -243 164q-21 65 -21 146q0 80 21 145q55 164 243 164q189 0 244 -164q20 -62 20 -145q0 -84 -20 -146q-55 -164 -244 -164zM354 877q116 0 150 106q16 46 16 115q0 68 -16 114q-34 107 -150 107q-115 0 -149 -107q-17 -49 -17 -114q0 -66 17 -115
q34 -106 149 -106z" />
    <glyph glyph-name="guillemotright" unicode="&#xbb;" horiz-adv-x="1081" 
d="M623 199q-22 0 -36 13.5t-14 33.5q0 17 17 37l244 249q8 8 0 17l-244 250q-17 20 -17 37q0 20 14 33.5t36 13.5q19 0 36 -17l261 -266q32 -32 32 -59q0 -28 -32 -60l-261 -266q-16 -16 -36 -16zM209 199q-22 0 -35.5 13.5t-13.5 33.5q0 18 16 37l244 249q8 8 0 17
l-244 250q-16 19 -16 37q0 20 13.5 33.5t35.5 13.5q20 0 37 -17l260 -266q33 -33 33 -59q0 -27 -33 -60l-260 -266q-16 -16 -37 -16z" />
    <glyph glyph-name="onequarter" unicode="&#xbc;" horiz-adv-x="1695" 
d="M410 557q-22 0 -35 14t-13 39v664h-2l-98 -68q-17 -10 -31 -10q-19 0 -31 12.5t-12 32.5q0 24 25 43l125 86q39 27 65 27t41 -15t15 -39v-733q0 -24 -13.5 -38.5t-35.5 -14.5zM1348 -4q-22 0 -36 14.5t-14 38.5v94q0 13 -12 13h-307q-51 0 -51 45q0 24 24 71l262 533
q16 31 43 31q19 0 32.5 -11.5t13.5 -29.5q0 -15 -9 -33l-254 -516v-2h246q12 0 12 12v172q0 26 14 39.5t36 13.5q21 0 34 -14t13 -39v-172q0 -12 12 -12h43q49 0 49 -43q0 -45 -49 -45h-43q-12 0 -12 -13v-94q0 -24 -13 -38.5t-34 -14.5zM463 -4q-14 -25 -39 -25
q-19 0 -31 11.5t-12 31.5q0 13 6 25l787 1358q14 24 38 24q19 0 31 -11.5t12 -31.5q0 -12 -6 -24z" />
    <glyph glyph-name="onehalf" unicode="&#xbd;" horiz-adv-x="1759" 
d="M410 557q-22 0 -35 14t-13 39v664h-2l-98 -68q-17 -10 -31 -10q-19 0 -31 12.5t-12 32.5q0 24 25 43l125 86q39 27 65 27t41 -15t15 -39v-733q0 -24 -13.5 -38.5t-35.5 -14.5zM1522 0h-422q-49 0 -49 45q0 28 30 61l308 359q69 82 69 156q0 60 -38 98.5t-101 38.5
q-56 0 -94 -27.5t-54 -73.5q-14 -41 -49 -41q-21 0 -33 11.5t-12 29.5q0 13 4 25q23 70 82 117t154 47q110 0 173.5 -64.5t63.5 -160.5q0 -101 -92 -207l-276 -322v-4h336q23 0 35 -12t12 -31q0 -45 -47 -45zM463 -4q-14 -25 -39 -25q-19 0 -31 11.5t-12 31.5q0 13 6 25
l787 1358q14 24 38 24q19 0 31 -11.5t12 -31.5q0 -12 -6 -24z" />
    <glyph glyph-name="threequarters" unicode="&#xbe;" horiz-adv-x="1837" 
d="M1489 -4q-22 0 -35.5 14.5t-13.5 38.5v94q0 13 -13 13h-307q-51 0 -51 45q0 23 25 71l262 533q16 31 43 31q19 0 32 -11.5t13 -29.5q0 -17 -8 -33l-254 -516v-2h245q13 0 13 12v172q0 26 13.5 39.5t35.5 13.5q21 0 34 -14t13 -39v-172q0 -12 12 -12h43q49 0 49 -43
q0 -45 -49 -45h-43q-12 0 -12 -13v-94q0 -24 -13 -38.5t-34 -14.5zM602 -4q-14 -25 -39 -25q-19 0 -31 11.5t-12 31.5q0 13 6 25l787 1358q14 24 39 24q19 0 31 -11.5t12 -31.5q0 -12 -6 -24zM459 547q-95 0 -157.5 38.5t-88.5 104.5q-6 15 -6 27q0 19 12 30t31 11
q26 0 47 -35q59 -88 160 -88q71 0 115 45t44 113t-46.5 111.5t-127.5 43.5q-22 0 -35.5 12t-13.5 31q0 21 13.5 33t35.5 12q71 0 112.5 39t41.5 105q0 62 -39 100.5t-106 38.5q-53 0 -85.5 -20.5t-56.5 -59.5q-21 -35 -47 -35q-19 0 -31 11t-12 30q0 12 6 27
q26 58 84.5 96.5t143.5 38.5q109 0 174 -62.5t65 -160.5q0 -117 -104 -185v-2q48 -21 86.5 -73.5t38.5 -130.5q0 -108 -70 -177t-184 -69z" />
    <glyph glyph-name="questiondown" unicode="&#xbf;" horiz-adv-x="913" 
d="M522 569v-47q0 -63 -14 -107t-49 -91l-117 -156q-74 -98 -99.5 -151.5t-25.5 -116.5q0 -109 68.5 -169.5t175.5 -60.5q94 0 157.5 49t86.5 140q14 57 57 57q23 0 38 -14t15 -37q0 -11 -4 -27q-30 -125 -121.5 -199.5t-232.5 -74.5q-156 0 -253.5 93.5t-97.5 240.5
q0 78 28 141.5t95 155.5l115 153q41 56 54.5 90.5t13.5 91.5v39q0 29 15 44.5t40 15.5t40 -15.5t15 -44.5zM553 899q0 -35 -25.5 -60.5t-60.5 -25.5q-34 0 -60 25.5t-26 60.5t26 60.5t60 25.5q35 0 60.5 -25.5t25.5 -60.5z" />
    <glyph glyph-name="Agrave" unicode="&#xc0;" horiz-adv-x="1220" 
d="M76 45q0 11 4 23l459 1271q21 62 73 62q53 0 74 -62l455 -1271q4 -12 4 -23q0 -24 -15.5 -38.5t-39.5 -14.5q-43 0 -58 41l-119 329h-606l-119 -329q-15 -41 -57 -41q-24 0 -39.5 14.5t-15.5 38.5zM346 475h528l-260 729h-6zM584 1579l-148 170q-12 15 -12 33q0 21 14 35
t35 14t37 -19l147 -174q15 -18 15 -34q0 -20 -13.5 -34t-33.5 -14q-21 0 -41 23z" />
    <glyph glyph-name="Aacute" unicode="&#xc1;" horiz-adv-x="1220" 
d="M76 45q0 11 4 23l459 1271q21 62 73 62q53 0 74 -62l455 -1271q4 -12 4 -23q0 -24 -15.5 -38.5t-39.5 -14.5q-43 0 -58 41l-119 329h-606l-119 -329q-15 -41 -57 -41q-24 0 -39.5 14.5t-15.5 38.5zM346 475h528l-260 729h-6zM791 1749l-148 -170q-20 -23 -41 -23
q-20 0 -33.5 14t-13.5 34q0 17 14 34l148 174q16 19 37 19t35 -14t14 -35q0 -18 -12 -33z" />
    <glyph glyph-name="Acircumflex" unicode="&#xc2;" horiz-adv-x="1220" 
d="M76 45q0 11 4 23l459 1271q21 62 73 62q53 0 74 -62l455 -1271q4 -12 4 -23q0 -24 -15.5 -38.5t-39.5 -14.5q-43 0 -58 41l-119 329h-606l-119 -329q-15 -41 -57 -41q-24 0 -39.5 14.5t-15.5 38.5zM346 475h528l-260 729h-6zM799 1538q-20 0 -35 18l-152 185h-4
l-151 -185q-15 -18 -35 -18q-17 0 -28 11t-11 26q0 16 10 29l148 192q20 25 34 35t35 10t35.5 -10t34.5 -35l147 -192q11 -15 11 -29q0 -15 -11 -26t-28 -11z" />
    <glyph glyph-name="Atilde" unicode="&#xc3;" horiz-adv-x="1220" 
d="M76 45q0 11 4 23l459 1271q21 62 73 62q53 0 74 -62l455 -1271q4 -12 4 -23q0 -24 -15.5 -38.5t-39.5 -14.5q-43 0 -58 41l-119 329h-606l-119 -329q-15 -41 -57 -41q-24 0 -39.5 14.5t-15.5 38.5zM346 475h528l-260 729h-6zM719 1597q-57 0 -125 45q-59 39 -94 39
q-24 0 -40.5 -11.5t-37.5 -41.5q-15 -24 -41 -24q-19 0 -31 11t-12 30q0 15 8 28q62 101 154 101q57 0 125 -45q59 -39 94 -39q24 0 40.5 11.5t37.5 41.5q15 24 41 24q19 0 31 -11t12 -30q0 -13 -9 -28q-62 -101 -153 -101z" />
    <glyph glyph-name="Adieresis" unicode="&#xc4;" horiz-adv-x="1220" 
d="M76 45q0 11 4 23l459 1271q21 62 73 62q53 0 74 -62l455 -1271q4 -12 4 -23q0 -24 -15.5 -38.5t-39.5 -14.5q-43 0 -58 41l-119 329h-606l-119 -329q-15 -41 -57 -41q-24 0 -39.5 14.5t-15.5 38.5zM346 475h528l-260 729h-6zM813 1610q-32 0 -55 23t-23 55t23 55.5
t55 23.5t55 -23.5t23 -55.5t-23 -55t-55 -23zM406 1610q-32 0 -55 23t-23 55t23 55.5t55 23.5t55.5 -23.5t23.5 -55.5t-23.5 -55t-55.5 -23z" />
    <glyph glyph-name="Aring" unicode="&#xc5;" horiz-adv-x="1220" 
d="M76 45q0 11 4 23l459 1271q21 62 73 62q53 0 74 -62l455 -1271q4 -12 4 -23q0 -24 -15.5 -38.5t-39.5 -14.5q-43 0 -58 41l-119 329h-606l-119 -329q-15 -41 -57 -41q-24 0 -39.5 14.5t-15.5 38.5zM346 475h528l-260 729h-6zM788 1692q0 -78 -51 -129.5t-129 -51.5
t-129 51.5t-51 129.5t51 129t129 51t129 -51t51 -129zM717 1692q0 50 -30 82t-79 32t-78.5 -32t-29.5 -82t29.5 -82.5t78.5 -32.5t79 32.5t30 82.5z" />
    <glyph glyph-name="AE" unicode="&#xc6;" horiz-adv-x="1908" 
d="M1749 0h-731q-25 0 -40 14.5t-15 40.5v295q0 12 -13 12h-559l-207 -337q-20 -33 -55 -33q-22 0 -37.5 15.5t-15.5 39.5q0 16 10 33l774 1261q17 29 34.5 40.5t45.5 11.5h809q29 0 44 -15.5t15 -40.5t-15 -40t-44 -15h-657q-13 0 -13 -12v-496q0 -12 13 -12h561
q29 0 44 -15t15 -40t-15 -40.5t-44 -15.5h-561q-13 0 -13 -12v-516q0 -12 13 -12h657q29 0 44 -15.5t15 -40.5t-15 -40t-44 -15zM956 1282l-497 -809h491q13 0 13 12v797h-7z" />
    <glyph glyph-name="Ccedilla" unicode="&#xc7;" horiz-adv-x="1138" 
d="M571 -276q-12 -39 -49 -39q-21 0 -35 13t-14 36q0 15 6 30l80 218q-297 25 -389 309q-37 113 -37 405q0 293 37 406q104 311 444 311q131 0 240.5 -60.5t161.5 -174.5q8 -20 8 -33q0 -26 -15 -40.5t-40 -14.5q-31 0 -51 36q-102 177 -304 177q-250 0 -331 -232
q-31 -95 -31 -375q0 -279 31 -374q81 -232 331 -232q203 0 304 176q21 37 51 37q25 0 40 -14.5t15 -40.5q0 -13 -8 -33q-46 -102 -141 -162t-213 -71z" />
    <glyph glyph-name="Egrave" unicode="&#xc8;" horiz-adv-x="1138" 
d="M193 55v1282q0 26 15.5 41t41.5 15h729q29 0 44 -15.5t15 -40.5t-15 -40t-44 -15h-657q-13 0 -13 -12v-496q0 -12 13 -12h561q29 0 44 -15t15 -40t-15 -40.5t-44 -15.5h-561q-13 0 -13 -12v-516q0 -12 13 -12h657q29 0 44 -15.5t15 -40.5t-15 -40t-44 -15h-729
q-26 0 -41.5 14.5t-15.5 40.5zM573 1579l-147 170q-12 15 -12 33q0 21 14 35t35 14t37 -19l147 -174q15 -18 15 -34q0 -20 -14 -34t-34 -14q-21 0 -41 23z" />
    <glyph glyph-name="Eacute" unicode="&#xc9;" horiz-adv-x="1138" 
d="M193 55v1282q0 26 15.5 41t41.5 15h729q29 0 44 -15.5t15 -40.5t-15 -40t-44 -15h-657q-13 0 -13 -12v-496q0 -12 13 -12h561q29 0 44 -15t15 -40t-15 -40.5t-44 -15.5h-561q-13 0 -13 -12v-516q0 -12 13 -12h657q29 0 44 -15.5t15 -40.5t-15 -40t-44 -15h-729
q-26 0 -41.5 14.5t-15.5 40.5zM770 1749l-147 -170q-20 -23 -41 -23q-20 0 -33.5 14t-13.5 34q0 17 14 34l147 174q16 19 37 19t35 -14t14 -35q0 -18 -12 -33z" />
    <glyph glyph-name="Ecircumflex" unicode="&#xca;" horiz-adv-x="1138" 
d="M193 55v1282q0 26 15.5 41t41.5 15h729q29 0 44 -15.5t15 -40.5t-15 -40t-44 -15h-657q-13 0 -13 -12v-496q0 -12 13 -12h561q29 0 44 -15t15 -40t-15 -40.5t-44 -15.5h-561q-13 0 -13 -12v-516q0 -12 13 -12h657q29 0 44 -15.5t15 -40.5t-15 -40t-44 -15h-729
q-26 0 -41.5 14.5t-15.5 40.5zM799 1538q-20 0 -35 18l-152 185h-4l-151 -185q-15 -18 -35 -18q-17 0 -28 11t-11 26q0 16 10 29l148 192q20 25 34 35t35 10t35.5 -10t34.5 -35l147 -192q11 -15 11 -29q0 -15 -11 -26t-28 -11z" />
    <glyph glyph-name="Edieresis" unicode="&#xcb;" horiz-adv-x="1138" 
d="M193 55v1282q0 26 15.5 41t41.5 15h729q29 0 44 -15.5t15 -40.5t-15 -40t-44 -15h-657q-13 0 -13 -12v-496q0 -12 13 -12h561q29 0 44 -15t15 -40t-15 -40.5t-44 -15.5h-561q-13 0 -13 -12v-516q0 -12 13 -12h657q29 0 44 -15.5t15 -40.5t-15 -40t-44 -15h-729
q-26 0 -41.5 14.5t-15.5 40.5zM805 1610q-32 0 -55 23t-23 55t23 55.5t55 23.5t55 -23.5t23 -55.5t-23 -55t-55 -23zM397 1610q-32 0 -55 23t-23 55t23 55.5t55 23.5t56 -23.5t24 -55.5t-24 -55t-56 -23z" />
    <glyph glyph-name="Igrave" unicode="&#xcc;" horiz-adv-x="501" 
d="M193 55v1282q0 30 16 47t41 17q27 0 43 -17t16 -47v-1282q0 -30 -16 -46.5t-43 -16.5q-26 0 -41.5 16.5t-15.5 46.5zM211 1579l-148 170q-12 15 -12 33q0 21 14 35t35 14t37 -19l148 -174q14 -17 14 -34q0 -20 -13.5 -34t-33.5 -14q-21 0 -41 23z" />
    <glyph glyph-name="Iacute" unicode="&#xcd;" horiz-adv-x="501" 
d="M193 55v1282q0 30 16 47t41 17q27 0 43 -17t16 -47v-1282q0 -30 -16 -46.5t-43 -16.5q-26 0 -41.5 16.5t-15.5 46.5zM444 1749l-147 -170q-20 -23 -41 -23q-20 0 -33.5 14t-13.5 34q0 17 14 34l148 174q16 19 37 19t35 -14t14 -35q0 -17 -13 -33z" />
    <glyph glyph-name="Icircumflex" unicode="&#xce;" horiz-adv-x="501" 
d="M193 55v1282q0 30 16 47t41 17q27 0 43 -17t16 -47v-1282q0 -30 -16 -46.5t-43 -16.5q-26 0 -41.5 16.5t-15.5 46.5zM440 1538q-19 0 -34 18l-152 185h-4l-152 -185q-15 -18 -35 -18q-17 0 -27.5 11t-10.5 26q0 16 10 29l147 192q20 25 34.5 35t35.5 10t35.5 -10
t34.5 -35l147 -192q10 -13 10 -29q0 -15 -11 -26t-28 -11z" />
    <glyph glyph-name="Idieresis" unicode="&#xcf;" horiz-adv-x="501" 
d="M193 55v1282q0 30 16 47t41 17q27 0 43 -17t16 -47v-1282q0 -30 -16 -46.5t-43 -16.5q-26 0 -41.5 16.5t-15.5 46.5zM455 1610q-32 0 -55 23t-23 55t23 55.5t55 23.5t54.5 -23.5t22.5 -55.5t-22.5 -55t-54.5 -23zM47 1610q-32 0 -55 23t-23 55t23 55.5t55 23.5t56 -23.5
t24 -55.5t-24 -55t-56 -23z" />
    <glyph glyph-name="Eth" unicode="&#xd0;" horiz-adv-x="1269" 
d="M616 0h-366q-26 0 -41.5 14.5t-15.5 40.5v586q0 14 -13 14h-53q-25 0 -39 14.5t-14 37.5t14 37t39 14h53q13 0 13 12v567q0 26 15.5 41t41.5 15h366q371 0 474 -316q23 -72 31.5 -151.5t8.5 -229.5t-8.5 -229.5t-31.5 -151.5q-102 -315 -474 -315zM600 111
q158 0 246 56.5t131 186.5q21 64 29 137.5t8 204.5t-8 204.5t-29 137.5q-43 130 -131.5 187t-245.5 57h-278q-13 0 -13 -12v-500q0 -12 13 -12h243q25 0 39 -14t14 -37t-14 -37.5t-39 -14.5h-243q-13 0 -13 -14v-518q0 -12 13 -12h278z" />
    <glyph glyph-name="Ntilde" unicode="&#xd1;" horiz-adv-x="1333" 
d="M193 55v1272q0 74 71 74q28 0 46 -15t38 -49l670 -1110h6v1110q0 30 15 47t42 17t43.5 -17t16.5 -47v-1271q0 -35 -19 -54.5t-53 -19.5q-28 0 -46 14.5t-40 48.5l-666 1112h-8v-1112q0 -30 -16 -46.5t-43 -16.5q-26 0 -41.5 16.5t-15.5 46.5zM780 1597q-57 0 -125 45
q-59 39 -94 39q-24 0 -40.5 -11.5t-37.5 -41.5q-15 -24 -41 -24q-19 0 -31 11t-12 30q0 13 9 28q62 101 153 101q57 0 125 -45q59 -39 94 -39q24 0 40.5 11.5t37.5 41.5q15 24 41 24q19 0 31 -11t12 -30q0 -15 -8 -28q-62 -101 -154 -101z" />
    <glyph glyph-name="Ograve" unicode="&#xd2;" horiz-adv-x="1247" 
d="M625 -20q-170 0 -285 79.5t-166 233.5q-21 62 -31 148.5t-10 254.5t10 255t31 149q51 154 166 233.5t285 79.5q169 0 283 -79.5t165 -233.5q21 -62 31 -149t10 -255t-10 -254.5t-31 -148.5q-51 -154 -165 -233.5t-283 -79.5zM995 696q0 267 -34 371q-78 236 -336 236
q-260 0 -338 -236q-35 -107 -35 -371q0 -263 35 -370q78 -236 338 -236q258 0 336 236q34 104 34 370zM590 1579l-148 170q-12 15 -12 33q0 21 14 35t35 14t37 -19l148 -174q14 -17 14 -34q0 -20 -13.5 -34t-33.5 -14q-21 0 -41 23z" />
    <glyph glyph-name="Oacute" unicode="&#xd3;" horiz-adv-x="1247" 
d="M625 -20q-170 0 -285 79.5t-166 233.5q-21 62 -31 148.5t-10 254.5t10 255t31 149q51 154 166 233.5t285 79.5q169 0 283 -79.5t165 -233.5q21 -62 31 -149t10 -255t-10 -254.5t-31 -148.5q-51 -154 -165 -233.5t-283 -79.5zM995 696q0 267 -34 371q-78 236 -336 236
q-260 0 -338 -236q-35 -107 -35 -371q0 -263 35 -370q78 -236 338 -236q258 0 336 236q34 104 34 370zM805 1749l-148 -170q-20 -23 -41 -23q-20 0 -33.5 14t-13.5 34q0 16 15 34l147 174q16 19 37 19t35 -14t14 -35q0 -18 -12 -33z" />
    <glyph glyph-name="Ocircumflex" unicode="&#xd4;" horiz-adv-x="1247" 
d="M625 -20q-170 0 -285 79.5t-166 233.5q-21 62 -31 148.5t-10 254.5t10 255t31 149q51 154 166 233.5t285 79.5q169 0 283 -79.5t165 -233.5q21 -62 31 -149t10 -255t-10 -254.5t-31 -148.5q-51 -154 -165 -233.5t-283 -79.5zM995 696q0 267 -34 371q-78 236 -336 236
q-260 0 -338 -236q-35 -107 -35 -371q0 -263 35 -370q78 -236 338 -236q258 0 336 236q34 104 34 370zM811 1538q-20 0 -35 18l-151 185h-4l-152 -185q-15 -18 -35 -18q-17 0 -28 11t-11 26q0 14 11 29l147 192q20 25 34.5 35t35.5 10t35 -10t34 -35l148 -192q10 -13 10 -29
q0 -15 -11 -26t-28 -11z" />
    <glyph glyph-name="Otilde" unicode="&#xd5;" horiz-adv-x="1247" 
d="M625 -20q-170 0 -285 79.5t-166 233.5q-21 62 -31 148.5t-10 254.5t10 255t31 149q51 154 166 233.5t285 79.5q169 0 283 -79.5t165 -233.5q21 -62 31 -149t10 -255t-10 -254.5t-31 -148.5q-51 -154 -165 -233.5t-283 -79.5zM995 696q0 267 -34 371q-78 236 -336 236
q-260 0 -338 -236q-35 -107 -35 -371q0 -263 35 -370q78 -236 338 -236q258 0 336 236q34 104 34 370zM733 1597q-57 0 -125 45q-59 39 -94 39q-24 0 -40.5 -11.5t-37.5 -41.5q-15 -24 -41 -24q-19 0 -31 11t-12 30q0 15 8 28q62 101 154 101q57 0 125 -45q59 -39 94 -39
q24 0 40.5 11.5t37.5 41.5q15 24 41 24q19 0 31 -11t12 -30q0 -15 -8 -28q-62 -101 -154 -101z" />
    <glyph glyph-name="Odieresis" unicode="&#xd6;" horiz-adv-x="1247" 
d="M625 -20q-170 0 -285 79.5t-166 233.5q-21 62 -31 148.5t-10 254.5t10 255t31 149q51 154 166 233.5t285 79.5q169 0 283 -79.5t165 -233.5q21 -62 31 -149t10 -255t-10 -254.5t-31 -148.5q-51 -154 -165 -233.5t-283 -79.5zM995 696q0 267 -34 371q-78 236 -336 236
q-260 0 -338 -236q-35 -107 -35 -371q0 -263 35 -370q78 -236 338 -236q258 0 336 236q34 104 34 370zM827 1610q-32 0 -54.5 23t-22.5 55t22.5 55.5t54.5 23.5t55 -23.5t23 -55.5t-23 -55t-55 -23zM420 1610q-32 0 -55 23t-23 55t23 55.5t55 23.5t56 -23.5t24 -55.5
t-24 -55t-56 -23z" />
    <glyph glyph-name="multiply" unicode="&#xd7;" 
d="M860 322q21 -21 21 -41q0 -21 -15.5 -36.5t-36.5 -15.5q-20 0 -41 21l-235 235q-8 8 -16 0l-236 -235q-21 -21 -41 -21q-21 0 -36 15.5t-15 36.5t20 41l236 235q8 8 0 16l-236 236q-20 20 -20 41t15 36t36 15t41 -20l236 -236q8 -8 16 0l235 236q20 20 41 20t36.5 -15.5
t15.5 -35.5t-21 -41l-235 -236q-8 -8 0 -16z" />
    <glyph glyph-name="Oslash" unicode="&#xd8;" horiz-adv-x="1247" 
d="M246 -43q-15 -27 -37 -27q-18 0 -29.5 10t-11.5 27q0 16 8 29l80 141q-56 69 -82 156q-21 62 -31 148.5t-10 254.5t10 255t31 149q51 154 166 233.5t285 79.5q189 0 305 -98l69 123q15 26 37 26q18 0 29.5 -10t11.5 -27q0 -15 -8 -28l-80 -144q54 -66 84 -155
q21 -62 31 -149t10 -255t-10 -254.5t-31 -148.5q-51 -154 -165 -233.5t-283 -79.5q-194 0 -310 98zM287 326q12 -37 35 -78l548 966q-95 89 -245 89q-260 0 -338 -236q-35 -107 -35 -371q0 -263 35 -370zM995 696q0 271 -34 371q-15 42 -35 76l-551 -963q93 -90 250 -90
q258 0 336 236q34 104 34 370z" />
    <glyph glyph-name="Ugrave" unicode="&#xd9;" horiz-adv-x="1300" 
d="M649 -20q-221 0 -346 126t-125 375v856q0 30 16.5 47t43.5 17q25 0 41 -17t16 -47v-858q0 -193 92.5 -291t261.5 -98q171 0 264 98t93 291v858q0 30 16 47t41 17q27 0 43 -17t16 -47v-856q0 -249 -125 -375t-348 -126zM612 1579l-147 170q-12 15 -12 33q0 21 14 35t35 14
t37 -19l147 -174q14 -17 14 -34q0 -20 -13.5 -34t-33.5 -14q-21 0 -41 23z" />
    <glyph glyph-name="Uacute" unicode="&#xda;" horiz-adv-x="1300" 
d="M649 -20q-221 0 -346 126t-125 375v856q0 30 16.5 47t43.5 17q25 0 41 -17t16 -47v-858q0 -193 92.5 -291t261.5 -98q171 0 264 98t93 291v858q0 30 16 47t41 17q27 0 43 -17t16 -47v-856q0 -249 -125 -375t-348 -126zM831 1749l-147 -170q-20 -23 -41 -23
q-20 0 -33.5 14t-13.5 34q0 17 14 34l148 174q16 19 37 19t35 -14t14 -35q0 -17 -13 -33z" />
    <glyph glyph-name="Ucircumflex" unicode="&#xdb;" horiz-adv-x="1300" 
d="M649 -20q-221 0 -346 126t-125 375v856q0 30 16.5 47t43.5 17q25 0 41 -17t16 -47v-858q0 -193 92.5 -291t261.5 -98q171 0 264 98t93 291v858q0 30 16 47t41 17q27 0 43 -17t16 -47v-856q0 -249 -125 -375t-348 -126zM838 1538q-20 0 -35 18l-152 185h-4l-151 -185
q-15 -18 -35 -18q-17 0 -28 11t-11 26q0 16 10 29l148 192q20 25 34 35t35 10t35.5 -10t34.5 -35l147 -192q11 -15 11 -29q0 -15 -11 -26t-28 -11z" />
    <glyph glyph-name="Udieresis" unicode="&#xdc;" horiz-adv-x="1300" 
d="M649 -20q-221 0 -346 126t-125 375v856q0 30 16.5 47t43.5 17q25 0 41 -17t16 -47v-858q0 -193 92.5 -291t261.5 -98q171 0 264 98t93 291v858q0 30 16 47t41 17q27 0 43 -17t16 -47v-856q0 -249 -125 -375t-348 -126zM854 1610q-32 0 -55 23t-23 55t23 55.5t55 23.5
t55 -23.5t23 -55.5t-23 -55t-55 -23zM446 1610q-32 0 -54.5 23t-22.5 55t22.5 55.5t54.5 23.5t56 -23.5t24 -55.5t-24 -55t-56 -23z" />
    <glyph glyph-name="Yacute" unicode="&#xdd;" horiz-adv-x="1038" 
d="M518 -8q-26 0 -41.5 16.5t-15.5 46.5v516l-400 746q-8 16 -8 31q0 22 16.5 37.5t41.5 15.5q32 0 51 -31l358 -659h6l353 659q15 31 51 31q24 0 39.5 -15.5t15.5 -37.5q0 -15 -8 -31l-399 -746v-516q0 -30 -16.5 -46.5t-43.5 -16.5zM725 1749l-147 -170q-20 -23 -41 -23
q-20 0 -34 14t-14 34q0 16 15 34l147 174q16 19 37 19t35 -14t14 -35q0 -18 -12 -33z" />
    <glyph glyph-name="Thorn" unicode="&#xde;" horiz-adv-x="1198" 
d="M250 -8q-26 0 -41.5 16.5t-15.5 46.5v1282q0 30 16 47t41 17q27 0 43 -17t16 -47v-221q0 -12 13 -12h356q198 0 313 -106t115 -289t-115 -288.5t-313 -105.5h-356q-13 0 -13 -12v-248q0 -30 -16 -46.5t-43 -16.5zM674 426q152 0 233.5 74t81.5 209t-81.5 209.5
t-233.5 74.5h-352q-13 0 -13 -12v-543q0 -12 13 -12h352z" />
    <glyph glyph-name="germandbls" unicode="&#xdf;" horiz-adv-x="1091" 
d="M608 -10q-27 0 -42 14.5t-15 38.5t15 38.5t42 14.5q98 0 151 30t79 101q16 56 16 226q0 173 -18 231q-45 133 -228 133q-27 0 -41 14.5t-14 38.5t14 39t41 15q118 0 172 45t54 143q0 95 -65 146t-191 51q-149 0 -214 -68.5t-65 -224.5v-965q0 -29 -15 -44t-40 -15
q-24 0 -40 15.5t-16 43.5v963q0 199 92.5 299t297.5 100q178 0 272 -79t94 -220q0 -177 -145 -237v-5q104 -43 143 -153q23 -73 23 -266q0 -181 -25 -271q-33 -103 -113.5 -147.5t-218.5 -44.5z" />
    <glyph glyph-name="agrave" unicode="&#xe0;" horiz-adv-x="1054" 
d="M934 76q8 -16 8 -31q0 -24 -15.5 -38.5t-41.5 -14.5q-34 0 -54 35l-47 77h-4q-57 -63 -128.5 -93.5t-182.5 -30.5q-146 0 -240 76.5t-94 211.5q0 143 96 217t275 74h250q12 0 12 12v70q0 127 -57.5 189.5t-196.5 62.5q-120 0 -223 -62q-18 -12 -39 -12q-23 0 -37 14
t-14 37q0 26 22 45q108 82 297 82q182 0 268 -84t86 -264v-395q0 -60 21 -104zM487 84q127 0 204 58.5t77 158.5v145q0 13 -12 13h-234q-145 0 -210.5 -46t-65.5 -145q0 -91 61 -137.5t180 -46.5zM571 1135q-22 0 -36 22l-134 207q-10 17 -10 33q0 19 13 32t34 13
q26 0 43 -27l127 -205q10 -17 10 -30q0 -20 -12.5 -32.5t-34.5 -12.5z" />
    <glyph glyph-name="aacute" unicode="&#xe1;" horiz-adv-x="1054" 
d="M934 76q8 -16 8 -31q0 -24 -15.5 -38.5t-41.5 -14.5q-34 0 -54 35l-47 77h-4q-57 -63 -128.5 -93.5t-182.5 -30.5q-146 0 -240 76.5t-94 211.5q0 143 96 217t275 74h250q12 0 12 12v70q0 127 -57.5 189.5t-196.5 62.5q-120 0 -223 -62q-18 -12 -39 -12q-23 0 -37 14
t-14 37q0 26 22 45q108 82 297 82q182 0 268 -84t86 -264v-395q0 -60 21 -104zM487 84q127 0 204 58.5t77 158.5v145q0 13 -12 13h-234q-145 0 -210.5 -46t-65.5 -145q0 -91 61 -137.5t180 -46.5zM569 1157q-14 -22 -37 -22q-22 0 -34.5 12.5t-12.5 32.5q0 12 11 30l127 205
q17 27 43 27q21 0 34 -13t13 -32q0 -15 -11 -33z" />
    <glyph glyph-name="acircumflex" unicode="&#xe2;" horiz-adv-x="1054" 
d="M934 76q8 -16 8 -31q0 -24 -15.5 -38.5t-41.5 -14.5q-34 0 -54 35l-47 77h-4q-57 -63 -128.5 -93.5t-182.5 -30.5q-146 0 -240 76.5t-94 211.5q0 143 96 217t275 74h250q12 0 12 12v70q0 127 -57.5 189.5t-196.5 62.5q-120 0 -223 -62q-18 -12 -39 -12q-23 0 -37 14
t-14 37q0 26 22 45q108 82 297 82q182 0 268 -84t86 -264v-395q0 -60 21 -104zM487 84q127 0 204 58.5t77 158.5v145q0 13 -12 13h-234q-145 0 -210.5 -46t-65.5 -145q0 -91 61 -137.5t180 -46.5zM713 1135q-20 0 -35 18l-152 184h-4l-151 -184q-15 -18 -35 -18
q-17 0 -28 10.5t-11 25.5q0 16 10 29l148 193q19 26 33.5 35.5t35.5 9.5t36 -10t34 -35l147 -193q11 -15 11 -29q0 -15 -11 -25.5t-28 -10.5z" />
    <glyph glyph-name="atilde" unicode="&#xe3;" horiz-adv-x="1054" 
d="M934 76q8 -16 8 -31q0 -24 -15.5 -38.5t-41.5 -14.5q-34 0 -54 35l-47 77h-4q-57 -63 -128.5 -93.5t-182.5 -30.5q-146 0 -240 76.5t-94 211.5q0 143 96 217t275 74h250q12 0 12 12v70q0 127 -57.5 189.5t-196.5 62.5q-120 0 -223 -62q-18 -12 -39 -12q-23 0 -37 14
t-14 37q0 26 22 45q108 82 297 82q182 0 268 -84t86 -264v-395q0 -60 21 -104zM487 84q127 0 204 58.5t77 158.5v145q0 13 -12 13h-234q-145 0 -210.5 -46t-65.5 -145q0 -91 61 -137.5t180 -46.5zM635 1219q-57 0 -125 45q-59 39 -94 39q-24 0 -40.5 -12t-37.5 -42
q-15 -24 -41 -24q-19 0 -31 11t-12 30q0 15 8 28q62 101 154 101q57 0 125 -45q59 -39 94 -39q24 0 40.5 11.5t37.5 41.5q16 25 41 25q19 0 31 -11t12 -30q0 -14 -9 -29q-61 -100 -153 -100z" />
    <glyph glyph-name="adieresis" unicode="&#xe4;" horiz-adv-x="1054" 
d="M934 76q8 -16 8 -31q0 -24 -15.5 -38.5t-41.5 -14.5q-34 0 -54 35l-47 77h-4q-57 -63 -128.5 -93.5t-182.5 -30.5q-146 0 -240 76.5t-94 211.5q0 143 96 217t275 74h250q12 0 12 12v70q0 127 -57.5 189.5t-196.5 62.5q-120 0 -223 -62q-18 -12 -39 -12q-23 0 -37 14
t-14 37q0 26 22 45q108 82 297 82q182 0 268 -84t86 -264v-395q0 -60 21 -104zM487 84q127 0 204 58.5t77 158.5v145q0 13 -12 13h-234q-145 0 -210.5 -46t-65.5 -145q0 -91 61 -137.5t180 -46.5zM727 1235q-32 0 -55 23t-23 55t23 56t55 24t55 -24t23 -56t-23 -55t-55 -23z
M319 1235q-32 0 -54.5 23t-22.5 55q0 33 22.5 56.5t54.5 23.5t56 -24t24 -56t-24 -55t-56 -23z" />
    <glyph glyph-name="aring" unicode="&#xe5;" horiz-adv-x="1054" 
d="M934 76q8 -16 8 -31q0 -24 -15.5 -38.5t-41.5 -14.5q-34 0 -54 35l-47 77h-4q-57 -63 -128.5 -93.5t-182.5 -30.5q-146 0 -240 76.5t-94 211.5q0 143 96 217t275 74h250q12 0 12 12v70q0 127 -57.5 189.5t-196.5 62.5q-120 0 -223 -62q-18 -12 -39 -12q-23 0 -37 14
t-14 37q0 26 22 45q108 82 297 82q182 0 268 -84t86 -264v-395q0 -60 21 -104zM487 84q127 0 204 58.5t77 158.5v145q0 13 -12 13h-234q-145 0 -210.5 -46t-65.5 -145q0 -91 61 -137.5t180 -46.5zM709 1288q0 -78 -51.5 -129t-129.5 -51t-129 51t-51 129t51 129t129 51
t129.5 -51t51.5 -129zM637 1288q0 50 -30 82.5t-79 32.5t-78.5 -32.5t-29.5 -82.5t29.5 -82t78.5 -32t79 32t30 82z" />
    <glyph glyph-name="ae" unicode="&#xe6;" horiz-adv-x="1667" 
d="M1165 -20q-231 0 -331 174h-5q-60 -96 -148.5 -135t-211.5 -39q-146 0 -240 76.5t-94 211.5q0 143 96 217t275 74h250q12 0 12 12v70q0 127 -57.5 189.5t-196.5 62.5q-120 0 -223 -62q-18 -12 -39 -12q-23 0 -37 14t-14 37q0 26 22 45q108 82 297 82q245 0 318 -157h4
q102 157 311 157q133 0 228.5 -66t134.5 -188q30 -91 30 -233q0 -23 -14 -37t-37 -14h-608q-13 0 -13 -13q0 -108 21 -170q32 -95 103 -142.5t173 -47.5q157 0 265 111q20 20 41 20q22 0 35.5 -13.5t13.5 -33.5q0 -21 -13 -37q-122 -153 -348 -153zM887 559h534q13 0 13 12
q0 78 -19 140q-29 90 -97.5 137t-164.5 47t-163.5 -47t-96.5 -137q-19 -62 -19 -140q0 -12 13 -12zM487 84q127 0 204 58.5t77 158.5v145q0 13 -12 13h-234q-145 0 -210.5 -46t-65.5 -145q0 -91 61 -137.5t180 -46.5z" />
    <glyph glyph-name="ccedilla" unicode="&#xe7;" horiz-adv-x="952" 
d="M479 -276q-12 -39 -49 -39q-21 0 -35 13t-14 36q0 15 6 30l82 220q-117 11 -199 75.5t-116 173.5q-31 94 -31 254q0 162 31 256q38 120 133.5 187t230.5 67q111 0 192.5 -45t123.5 -118q8 -13 8 -33q0 -21 -14 -35t-35 -14q-32 0 -52 30q-78 109 -223 109
q-198 0 -256 -182q-26 -79 -26 -222q0 -140 26 -219q58 -182 256 -182q145 0 223 109q20 30 52 30q21 0 35 -14t14 -35q0 -20 -8 -33q-37 -64 -105 -106.5t-160 -52.5z" />
    <glyph glyph-name="egrave" unicode="&#xe8;" horiz-adv-x="1030" 
d="M526 -20q-141 0 -236 65t-136 191q-31 95 -31 253q0 156 31 254q39 122 133.5 188t226.5 66q133 0 228.5 -66t134.5 -188q30 -91 30 -233q0 -23 -14 -37t-37 -14h-608q-12 0 -12 -13q0 -109 20 -170q32 -95 103 -142.5t173 -47.5q157 0 265 111q20 20 41 20
q22 0 35.5 -13.5t13.5 -33.5q0 -21 -13 -37q-122 -153 -348 -153zM248 559h534q13 0 13 12q0 78 -19 140q-29 90 -97.5 137t-164.5 47t-163.5 -47t-96.5 -137q-18 -59 -18 -140q0 -12 12 -12zM520 1135q-23 0 -37 22l-133 207q-10 17 -10 33q0 19 13 32t34 13q26 0 43 -27
l127 -205q10 -17 10 -30q0 -20 -12.5 -32.5t-34.5 -12.5z" />
    <glyph glyph-name="eacute" unicode="&#xe9;" horiz-adv-x="1030" 
d="M526 -20q-141 0 -236 65t-136 191q-31 95 -31 253q0 156 31 254q39 122 133.5 188t226.5 66q133 0 228.5 -66t134.5 -188q30 -91 30 -233q0 -23 -14 -37t-37 -14h-608q-12 0 -12 -13q0 -109 20 -170q32 -95 103 -142.5t173 -47.5q157 0 265 111q20 20 41 20
q22 0 35.5 -13.5t13.5 -33.5q0 -21 -13 -37q-122 -153 -348 -153zM248 559h534q13 0 13 12q0 78 -19 140q-29 90 -97.5 137t-164.5 47t-163.5 -47t-96.5 -137q-18 -59 -18 -140q0 -12 12 -12zM551 1157q-14 -22 -37 -22q-22 0 -34.5 12.5t-12.5 32.5q0 13 10 30l127 205
q17 27 43 27q21 0 34 -13t13 -32q0 -16 -10 -33z" />
    <glyph glyph-name="ecircumflex" unicode="&#xea;" horiz-adv-x="1030" 
d="M526 -20q-141 0 -236 65t-136 191q-31 95 -31 253q0 156 31 254q39 122 133.5 188t226.5 66q133 0 228.5 -66t134.5 -188q30 -91 30 -233q0 -23 -14 -37t-37 -14h-608q-12 0 -12 -13q0 -109 20 -170q32 -95 103 -142.5t173 -47.5q157 0 265 111q20 20 41 20
q22 0 35.5 -13.5t13.5 -33.5q0 -21 -13 -37q-122 -153 -348 -153zM248 559h534q13 0 13 12q0 78 -19 140q-29 90 -97.5 137t-164.5 47t-163.5 -47t-96.5 -137q-18 -59 -18 -140q0 -12 12 -12zM702 1135q-19 0 -34 18l-152 184h-4l-152 -184q-15 -18 -34 -18q-17 0 -28 10.5
t-11 25.5q0 16 10 29l147 193q19 25 34 35t36 10t36 -10t34 -35l147 -193q10 -13 10 -29q0 -15 -11 -25.5t-28 -10.5z" />
    <glyph glyph-name="edieresis" unicode="&#xeb;" horiz-adv-x="1030" 
d="M526 -20q-141 0 -236 65t-136 191q-31 95 -31 253q0 156 31 254q39 122 133.5 188t226.5 66q133 0 228.5 -66t134.5 -188q30 -91 30 -233q0 -23 -14 -37t-37 -14h-608q-12 0 -12 -13q0 -109 20 -170q32 -95 103 -142.5t173 -47.5q157 0 265 111q20 20 41 20
q22 0 35.5 -13.5t13.5 -33.5q0 -21 -13 -37q-122 -153 -348 -153zM248 559h534q13 0 13 12q0 78 -19 140q-29 90 -97.5 137t-164.5 47t-163.5 -47t-96.5 -137q-18 -59 -18 -140q0 -12 12 -12zM717 1235q-32 0 -55 23t-23 55t23 56t55 24t55 -24t23 -56t-23 -55t-55 -23z
M309 1235q-32 0 -55 23t-23 55t23 56t55 24t56 -24t24 -56t-24 -55t-56 -23z" />
    <glyph glyph-name="igrave" unicode="&#xec;" horiz-adv-x="487" 
d="M244 -8q-26 0 -41 15t-15 44v875q0 28 15 43.5t41 15.5q25 0 40 -15t15 -44v-875q0 -29 -15 -44t-40 -15zM248 1135q-23 0 -37 22l-133 207q-10 17 -10 33q0 19 13 32t34 13q26 0 43 -27l127 -205q10 -17 10 -30q0 -20 -12.5 -32.5t-34.5 -12.5z" />
    <glyph glyph-name="iacute" unicode="&#xed;" horiz-adv-x="487" 
d="M244 -8q-26 0 -41 15t-15 44v875q0 28 15 43.5t41 15.5q25 0 40 -15t15 -44v-875q0 -29 -15 -44t-40 -15zM279 1157q-14 -22 -37 -22q-22 0 -34.5 12.5t-12.5 32.5q0 13 10 30l127 205q17 27 43 27q21 0 34 -13t13 -32q0 -16 -10 -33z" />
    <glyph glyph-name="icircumflex" unicode="&#xee;" horiz-adv-x="487" 
d="M244 -8q-26 0 -41 15t-15 44v875q0 28 15 43.5t41 15.5q25 0 40 -15t15 -44v-875q0 -29 -15 -44t-40 -15zM432 1135q-20 0 -35 18l-151 184h-4l-152 -184q-15 -18 -35 -18q-17 0 -28 10.5t-11 25.5q0 14 11 29l147 193q19 25 34 35t36 10t35.5 -9.5t33.5 -35.5l148 -193
q10 -13 10 -29q0 -15 -11 -25.5t-28 -10.5z" />
    <glyph glyph-name="idieresis" unicode="&#xef;" horiz-adv-x="487" 
d="M244 -8q-26 0 -41 15t-15 44v875q0 28 15 43.5t41 15.5q25 0 40 -15t15 -44v-875q0 -29 -15 -44t-40 -15zM449 1235q-32 0 -55 23t-23 55t23 56t55 24t54.5 -23.5t22.5 -56.5q0 -32 -22.5 -55t-54.5 -23zM41 1235q-32 0 -55 23t-23 55t23 56t55 24t56 -24t24 -56t-24 -55
t-56 -23z" />
    <glyph glyph-name="eth" unicode="&#xf0;" horiz-adv-x="1042" 
d="M602 1178l78 -95q130 -156 185 -288.5t55 -294.5q0 -166 -33 -267q-38 -120 -134.5 -186.5t-232.5 -66.5q-135 0 -231.5 65.5t-134.5 185.5q-31 98 -31 248q0 147 31 242q38 118 130 185t214 67q102 0 178 -55h2l-184 227l-175 -51q-12 -4 -22 -4q-19 0 -32 12t-13 33
q0 35 37 45l143 43l-74 92q-14 20 -14 37q0 21 13.5 35t37.5 14q27 0 47 -27l97 -121l168 52q12 4 22 4q19 0 32 -12t13 -33q0 -35 -37 -45zM520 86q95 0 163 46.5t97 135.5q27 86 27 211q0 122 -27 211q-29 88 -97 134t-163 46t-162 -46t-96 -134q-26 -86 -26 -211
q0 -131 26 -213q29 -88 96 -134t162 -46z" />
    <glyph glyph-name="ntilde" unicode="&#xf1;" horiz-adv-x="1107" 
d="M877 -8q-25 0 -40.5 15t-15.5 44v547q0 293 -256 293q-113 0 -189.5 -75t-76.5 -198v-567q0 -29 -15 -44t-40 -15q-26 0 -41 15t-15 44v875q0 28 15 43.5t41 15.5q25 0 40 -15t15 -44v-68h2q87 139 289 139q162 0 252 -97t90 -275v-574q0 -29 -15 -44t-40 -15zM664 1219
q-57 0 -125 45q-59 39 -95 39q-24 0 -40 -11.5t-37 -42.5q-15 -24 -41 -24q-19 0 -31 11t-12 30q0 15 8 28q62 101 153 101q57 0 125 -45q59 -39 95 -39q24 0 40 11.5t37 41.5q16 25 41 25q19 0 31 -11t12 -30q0 -16 -8 -29q-61 -100 -153 -100z" />
    <glyph glyph-name="ograve" unicode="&#xf2;" horiz-adv-x="1042" 
d="M520 -20q-134 0 -229 66t-135 187q-33 109 -33 256q0 145 33 254q40 121 135 187.5t229 66.5q135 0 231 -66.5t136 -187.5q33 -109 33 -254q0 -147 -33 -256q-40 -121 -136 -187t-231 -66zM520 86q95 0 163 47t97 135q27 83 27 221q0 137 -27 220q-29 88 -97 135t-163 47
q-94 0 -161.5 -47.5t-96.5 -134.5q-26 -79 -26 -220q0 -142 26 -221q29 -87 96.5 -134.5t161.5 -47.5zM520 1135q-23 0 -37 22l-133 207q-10 17 -10 33q0 19 13 32t34 13q26 0 43 -27l127 -205q10 -17 10 -30q0 -20 -12.5 -32.5t-34.5 -12.5z" />
    <glyph glyph-name="oacute" unicode="&#xf3;" horiz-adv-x="1042" 
d="M520 -20q-134 0 -229 66t-135 187q-33 109 -33 256q0 145 33 254q40 121 135 187.5t229 66.5q135 0 231 -66.5t136 -187.5q33 -109 33 -254q0 -147 -33 -256q-40 -121 -136 -187t-231 -66zM520 86q95 0 163 47t97 135q27 83 27 221q0 137 -27 220q-29 88 -97 135t-163 47
q-94 0 -161.5 -47.5t-96.5 -134.5q-26 -79 -26 -220q0 -142 26 -221q29 -87 96.5 -134.5t161.5 -47.5zM559 1157q-14 -22 -37 -22q-22 0 -34.5 12.5t-12.5 32.5q0 13 10 30l127 205q17 27 43 27q21 0 34 -13t13 -32q0 -16 -10 -33z" />
    <glyph glyph-name="ocircumflex" unicode="&#xf4;" horiz-adv-x="1042" 
d="M520 -20q-134 0 -229 66t-135 187q-33 109 -33 256q0 145 33 254q40 121 135 187.5t229 66.5q135 0 231 -66.5t136 -187.5q33 -109 33 -254q0 -147 -33 -256q-40 -121 -136 -187t-231 -66zM520 86q95 0 163 47t97 135q27 83 27 221q0 137 -27 220q-29 88 -97 135t-163 47
q-94 0 -161.5 -47.5t-96.5 -134.5q-26 -79 -26 -220q0 -142 26 -221q29 -87 96.5 -134.5t161.5 -47.5zM709 1135q-20 0 -35 18l-152 184h-4l-151 -184q-15 -18 -35 -18q-17 0 -28 10.5t-11 25.5q0 16 10 29l148 193q19 26 33.5 35.5t35.5 9.5t36 -10t34 -35l147 -193
q11 -15 11 -29q0 -15 -11 -25.5t-28 -10.5z" />
    <glyph glyph-name="otilde" unicode="&#xf5;" horiz-adv-x="1042" 
d="M520 -20q-134 0 -229 66t-135 187q-33 109 -33 256q0 145 33 254q40 121 135 187.5t229 66.5q135 0 231 -66.5t136 -187.5q33 -109 33 -254q0 -147 -33 -256q-40 -121 -136 -187t-231 -66zM520 86q95 0 163 47t97 135q27 83 27 221q0 137 -27 220q-29 88 -97 135t-163 47
q-94 0 -161.5 -47.5t-96.5 -134.5q-26 -79 -26 -220q0 -142 26 -221q29 -87 96.5 -134.5t161.5 -47.5zM631 1219q-57 0 -125 45q-59 39 -94 39q-24 0 -40.5 -12t-37.5 -42q-15 -24 -41 -24q-19 0 -31 11t-12 30q0 15 8 28q62 101 154 101q57 0 125 -45q59 -39 94 -39
q24 0 40.5 11.5t37.5 41.5q16 25 41 25q19 0 31 -11t12 -30q0 -14 -9 -29q-61 -100 -153 -100z" />
    <glyph glyph-name="odieresis" unicode="&#xf6;" horiz-adv-x="1042" 
d="M520 -20q-134 0 -229 66t-135 187q-33 109 -33 256q0 145 33 254q40 121 135 187.5t229 66.5q135 0 231 -66.5t136 -187.5q33 -109 33 -254q0 -147 -33 -256q-40 -121 -136 -187t-231 -66zM520 86q95 0 163 47t97 135q27 83 27 221q0 137 -27 220q-29 88 -97 135t-163 47
q-94 0 -161.5 -47.5t-96.5 -134.5q-26 -79 -26 -220q0 -142 26 -221q29 -87 96.5 -134.5t161.5 -47.5zM725 1235q-32 0 -55 23t-23 55t23 56t55 24t55 -24t23 -56t-23 -55t-55 -23zM317 1235q-32 0 -54.5 23t-22.5 55q0 33 22.5 56.5t54.5 23.5t56 -24t24 -56t-24 -55
t-56 -23z" />
    <glyph glyph-name="divide" unicode="&#xf7;" 
d="M457 866q0 37 25.5 62.5t62.5 25.5t62.5 -25.5t25.5 -62.5t-25.5 -62.5t-62.5 -25.5t-62.5 25.5t-25.5 62.5zM905 514h-721q-27 0 -42 13.5t-15 37.5t15 37.5t42 13.5h721q27 0 42.5 -13.5t15.5 -37.5t-15.5 -37.5t-42.5 -13.5zM457 264q0 37 25.5 62.5t62.5 25.5
t62.5 -25.5t25.5 -62.5t-25.5 -62.5t-62.5 -25.5t-62.5 25.5t-25.5 62.5z" />
    <glyph glyph-name="oslash" unicode="&#xf8;" horiz-adv-x="1042" 
d="M170 -70q-14 0 -23.5 9t-9.5 24q0 12 8 25l80 121q-48 58 -67 124q-35 107 -35 254q0 149 35 256q38 120 133 187t229 67q148 0 246 -79l74 110q13 19 30 19q14 0 23.5 -9t9.5 -24q0 -12 -8 -25l-78 -121q43 -52 68 -125q35 -107 35 -256q0 -147 -35 -254
q-38 -120 -133.5 -186.5t-231.5 -66.5q-146 0 -248 79l-71 -110q-13 -19 -31 -19zM264 270q12 -38 29 -63l412 620q-70 64 -185 64q-96 0 -162 -48t-94 -136q-28 -86 -28 -220q0 -131 28 -217zM520 86q98 0 164 48t94 136q29 89 29 217q0 131 -29 220q-14 39 -28 63
l-414 -618q72 -66 184 -66z" />
    <glyph glyph-name="ugrave" unicode="&#xf9;" horiz-adv-x="1095" 
d="M852 -8q-25 0 -40 15t-15 44v68h-2q-87 -139 -285 -139q-161 0 -249.5 97t-88.5 275v574q0 29 15 44t40 15t40.5 -15.5t15.5 -43.5v-547q0 -293 252 -293q113 0 187.5 74.5t74.5 197.5v568q0 29 15 44t40 15t40 -15t15 -44v-875q0 -29 -15 -44t-40 -15zM553 1135
q-23 0 -37 22l-133 207q-10 17 -10 33q0 19 13 32t34 13q26 0 43 -27l127 -205q10 -17 10 -30q0 -20 -12.5 -32.5t-34.5 -12.5z" />
    <glyph glyph-name="uacute" unicode="&#xfa;" horiz-adv-x="1095" 
d="M852 -8q-25 0 -40 15t-15 44v68h-2q-87 -139 -285 -139q-161 0 -249.5 97t-88.5 275v574q0 29 15 44t40 15t40.5 -15.5t15.5 -43.5v-547q0 -293 252 -293q113 0 187.5 74.5t74.5 197.5v568q0 29 15 44t40 15t40 -15t15 -44v-875q0 -29 -15 -44t-40 -15zM573 1157
q-14 -22 -36 -22q-23 0 -35.5 12.5t-12.5 32.5q0 12 11 30l127 205q17 27 43 27q21 0 34 -13t13 -32q0 -16 -10 -33z" />
    <glyph glyph-name="ucircumflex" unicode="&#xfb;" horiz-adv-x="1095" 
d="M852 -8q-25 0 -40 15t-15 44v68h-2q-87 -139 -285 -139q-161 0 -249.5 97t-88.5 275v574q0 29 15 44t40 15t40.5 -15.5t15.5 -43.5v-547q0 -293 252 -293q113 0 187.5 74.5t74.5 197.5v568q0 29 15 44t40 15t40 -15t15 -44v-875q0 -29 -15 -44t-40 -15zM735 1135
q-20 0 -35 18l-151 184h-4l-152 -184q-15 -18 -35 -18q-17 0 -28 10.5t-11 25.5q0 14 11 29l147 193q19 25 34 35t36 10t35.5 -9.5t33.5 -35.5l148 -193q10 -13 10 -29q0 -15 -11 -25.5t-28 -10.5z" />
    <glyph glyph-name="udieresis" unicode="&#xfc;" horiz-adv-x="1095" 
d="M852 -8q-25 0 -40 15t-15 44v68h-2q-87 -139 -285 -139q-161 0 -249.5 97t-88.5 275v574q0 29 15 44t40 15t40.5 -15.5t15.5 -43.5v-547q0 -293 252 -293q113 0 187.5 74.5t74.5 197.5v568q0 29 15 44t40 15t40 -15t15 -44v-875q0 -29 -15 -44t-40 -15zM750 1235
q-32 0 -55 23t-23 55t23 56t55 24t54.5 -23.5t22.5 -56.5q0 -32 -22.5 -55t-54.5 -23zM342 1235q-32 0 -55 23t-23 55t23 56t55 24t56 -24t24 -56t-24 -55t-56 -23z" />
    <glyph glyph-name="yacute" unicode="&#xfd;" horiz-adv-x="958" 
d="M213 -369h-16q-27 0 -42.5 15t-15.5 39t15.5 38.5t42.5 14.5q72 0 110.5 35.5t81.5 148.5l39 98l-346 887q-4 12 -4 27q0 21 15.5 36t39.5 15q39 0 53 -41l297 -772h2l289 772q14 41 53 41q24 0 39 -15t15 -36q0 -15 -4 -27l-385 -1001q-62 -164 -122 -219.5t-157 -55.5z
M520 1157q-14 -22 -37 -22q-22 0 -34.5 12.5t-12.5 32.5q0 13 10 30l127 205q17 27 43 27q21 0 34.5 -13t13.5 -32q0 -15 -11 -33z" />
    <glyph glyph-name="thorn" unicode="&#xfe;" horiz-adv-x="1087" 
d="M244 -377q-25 0 -40.5 15.5t-15.5 44.5v1658q0 29 15.5 44.5t40.5 15.5t40 -15.5t15 -44.5v-487h2q80 143 293 143q124 0 211 -62.5t125 -178.5q35 -112 35 -267q0 -156 -35 -268q-38 -116 -125 -178.5t-211 -62.5q-213 0 -293 143h-2v-440q0 -29 -15 -44.5t-40 -15.5z
M575 86q93 0 157.5 46t92.5 130q27 85 27 227q0 141 -27 226q-28 84 -92.5 130t-157.5 46q-193 0 -251 -170q-25 -83 -25 -232q0 -150 25 -233q58 -170 251 -170z" />
    <glyph glyph-name="ydieresis" unicode="&#xff;" horiz-adv-x="958" 
d="M213 -369h-16q-27 0 -42.5 15t-15.5 39t15.5 38.5t42.5 14.5q72 0 110.5 35.5t81.5 148.5l39 98l-346 887q-4 12 -4 27q0 21 15.5 36t39.5 15q39 0 53 -41l297 -772h2l289 772q14 41 53 41q24 0 39 -15t15 -36q0 -15 -4 -27l-385 -1001q-62 -164 -122 -219.5t-157 -55.5z
M682 1235q-32 0 -55 23t-23 55t23 56t55 24t55 -24t23 -56t-23 -55t-55 -23zM274 1235q-32 0 -54.5 23t-22.5 55q0 33 22.5 56.5t54.5 23.5t56 -24t24 -56t-24 -55t-56 -23z" />
    <glyph glyph-name="Amacron" unicode="&#x100;" horiz-adv-x="1220" 
d="M76 45q0 11 4 23l459 1271q21 62 73 62q53 0 74 -62l455 -1271q4 -12 4 -23q0 -24 -15.5 -38.5t-39.5 -14.5q-43 0 -58 41l-119 329h-606l-119 -329q-15 -41 -57 -41q-24 0 -39.5 14.5t-15.5 38.5zM346 475h528l-260 729h-6zM838 1638h-455q-23 0 -37 13.5t-14 34.5
t14 34t37 13h455q23 0 37 -13t14 -34t-14 -34.5t-37 -13.5z" />
    <glyph glyph-name="amacron" unicode="&#x101;" horiz-adv-x="1054" 
d="M934 76q8 -16 8 -31q0 -24 -15.5 -38.5t-41.5 -14.5q-34 0 -54 35l-47 77h-4q-57 -63 -128.5 -93.5t-182.5 -30.5q-146 0 -240 76.5t-94 211.5q0 143 96 217t275 74h250q12 0 12 12v70q0 127 -57.5 189.5t-196.5 62.5q-120 0 -223 -62q-18 -12 -39 -12q-23 0 -37 14
t-14 37q0 26 22 45q108 82 297 82q182 0 268 -84t86 -264v-395q0 -60 21 -104zM487 84q127 0 204 58.5t77 158.5v145q0 13 -12 13h-234q-145 0 -210.5 -46t-65.5 -145q0 -91 61 -137.5t180 -46.5zM752 1266h-455q-23 0 -37 13t-14 34t14 34t37 13h455q23 0 37 -13t14 -34
t-14 -34t-37 -13z" />
    <glyph glyph-name="Abreve" unicode="&#x102;" horiz-adv-x="1220" 
d="M76 45q0 11 4 23l459 1271q21 62 73 62q53 0 74 -62l455 -1271q4 -12 4 -23q0 -24 -15.5 -38.5t-39.5 -14.5q-43 0 -58 41l-119 329h-606l-119 -329q-15 -41 -57 -41q-24 0 -39.5 14.5t-15.5 38.5zM346 475h528l-260 729h-6zM610 1573q-110 0 -181 63.5t-71 137.5
q0 16 10.5 26t28.5 10q32 0 43 -38q40 -109 170 -109t170 109q11 38 43 38q18 0 28.5 -10t10.5 -26q0 -74 -71 -137.5t-181 -63.5z" />
    <glyph glyph-name="abreve" unicode="&#x103;" horiz-adv-x="1054" 
d="M934 76q8 -16 8 -31q0 -24 -15.5 -38.5t-41.5 -14.5q-34 0 -54 35l-47 77h-4q-57 -63 -128.5 -93.5t-182.5 -30.5q-146 0 -240 76.5t-94 211.5q0 143 96 217t275 74h250q12 0 12 12v70q0 127 -57.5 189.5t-196.5 62.5q-120 0 -223 -62q-18 -12 -39 -12q-23 0 -37 14
t-14 37q0 26 22 45q108 82 297 82q182 0 268 -84t86 -264v-395q0 -60 21 -104zM487 84q127 0 204 58.5t77 158.5v145q0 13 -12 13h-234q-145 0 -210.5 -46t-65.5 -145q0 -91 61 -137.5t180 -46.5zM524 1167q-110 0 -181 63.5t-71 137.5q0 16 10.5 26.5t28.5 10.5
q31 0 43 -39q40 -109 170 -109t170 109q12 39 43 39q18 0 28.5 -10.5t10.5 -26.5q0 -74 -71 -137.5t-181 -63.5z" />
    <glyph glyph-name="Aogonek" unicode="&#x104;" horiz-adv-x="1220" 
d="M862 -213q0 120 170 242l-119 333h-606l-119 -329q-15 -41 -57 -41q-24 0 -39.5 14.5t-15.5 38.5q0 11 4 23l459 1271q21 62 73 62q53 0 74 -62l455 -1271q4 -12 4 -25q0 -19 -10 -35.5t-43 -42.5q-129 -99 -129 -164q0 -27 16 -42t43 -15q23 0 43 10q16 8 27 8
q20 0 31.5 -13t11.5 -32q0 -22 -23 -39q-45 -30 -106 -30q-65 0 -104.5 37t-39.5 102zM608 1204l-262 -729h526l-258 729h-6z" />
    <glyph glyph-name="aogonek" unicode="&#x105;" horiz-adv-x="1054" 
d="M659 -213q0 61 37.5 114t134.5 128l-47 75h-4q-57 -63 -128.5 -93.5t-182.5 -30.5q-146 0 -240 76.5t-94 211.5q0 143 96 217t275 74h250q12 0 12 12v70q0 127 -57.5 189.5t-196.5 62.5q-120 0 -223 -62q-18 -12 -39 -12q-23 0 -37 14t-14 37q0 26 22 45q108 82 297 82
q182 0 268 -84t86 -264v-395q0 -60 21 -104l39 -74q8 -16 8 -33q0 -20 -11.5 -35t-43.5 -41q-72 -58 -99.5 -95t-27.5 -71q0 -27 16 -42t43 -15q23 0 43 10q16 8 27 8q20 0 31.5 -13t11.5 -32q0 -22 -23 -39q-45 -30 -106 -30q-65 0 -104.5 37t-39.5 102zM487 84
q127 0 204 58.5t77 158.5v145q0 13 -12 13h-234q-145 0 -210.5 -46t-65.5 -145q0 -91 61 -137.5t180 -46.5z" />
    <glyph glyph-name="Cacute" unicode="&#x106;" horiz-adv-x="1138" 
d="M170 291q-37 113 -37 405q0 293 37 406q104 311 444 311q131 0 240.5 -60.5t161.5 -174.5q8 -20 8 -33q0 -26 -15 -40.5t-40 -14.5q-31 0 -51 36q-102 177 -304 177q-250 0 -331 -232q-31 -95 -31 -375q0 -279 31 -374q81 -232 331 -232q203 0 304 176q21 37 51 37
q25 0 40 -14.5t15 -40.5q0 -13 -8 -33q-52 -114 -161.5 -174.5t-240.5 -60.5q-340 0 -444 311zM780 1749l-147 -170q-20 -23 -41 -23q-20 0 -33.5 14t-13.5 34q0 17 14 34l148 174q16 19 36 19q21 0 35.5 -14.5t14.5 -34.5q0 -17 -13 -33z" />
    <glyph glyph-name="cacute" unicode="&#x107;" horiz-adv-x="952" 
d="M123 487q0 162 31 256q38 120 133.5 187t230.5 67q111 0 192.5 -45t123.5 -118q8 -13 8 -33q0 -21 -14 -35t-35 -14q-32 0 -52 30q-78 109 -223 109q-198 0 -256 -182q-26 -79 -26 -222q0 -140 26 -219q58 -182 256 -182q145 0 223 109q20 30 52 30q21 0 35 -14t14 -35
q0 -20 -8 -33q-42 -73 -123.5 -118t-192.5 -45q-135 0 -230.5 66.5t-133.5 186.5q-31 94 -31 254zM545 1157q-14 -22 -37 -22q-22 0 -34.5 12.5t-12.5 32.5q0 13 10 30l127 205q17 27 43 27q21 0 34 -13t13 -32q0 -16 -10 -33z" />
    <glyph glyph-name="Ccircumflex" unicode="&#x108;" horiz-adv-x="1138" 
d="M170 291q-37 113 -37 405q0 293 37 406q104 311 444 311q131 0 240.5 -60.5t161.5 -174.5q8 -20 8 -33q0 -26 -15 -40.5t-40 -14.5q-31 0 -51 36q-102 177 -304 177q-250 0 -331 -232q-31 -95 -31 -375q0 -279 31 -374q81 -232 331 -232q203 0 304 176q21 37 51 37
q25 0 40 -14.5t15 -40.5q0 -13 -8 -33q-52 -114 -161.5 -174.5t-240.5 -60.5q-340 0 -444 311zM793 1538q-20 0 -35 18l-152 185h-4l-151 -185q-15 -18 -35 -18q-17 0 -28 11t-11 26q0 16 10 29l148 192q20 25 34 35t35 10t35.5 -10t34.5 -35l147 -192q10 -13 10 -29
q0 -15 -10.5 -26t-27.5 -11z" />
    <glyph glyph-name="ccircumflex" unicode="&#x109;" horiz-adv-x="952" 
d="M123 487q0 162 31 256q38 120 133.5 187t230.5 67q111 0 192.5 -45t123.5 -118q8 -13 8 -33q0 -21 -14 -35t-35 -14q-32 0 -52 30q-78 109 -223 109q-198 0 -256 -182q-26 -79 -26 -222q0 -140 26 -219q58 -182 256 -182q145 0 223 109q20 30 52 30q21 0 35 -14t14 -35
q0 -20 -8 -33q-42 -73 -123.5 -118t-192.5 -45q-135 0 -230.5 66.5t-133.5 186.5q-31 94 -31 254zM707 1135q-20 0 -35 18l-152 184h-4l-151 -184q-15 -18 -35 -18q-17 0 -28 10.5t-11 25.5q0 16 10 29l148 193q19 26 33.5 35.5t35.5 9.5t36 -10t34 -35l147 -193
q10 -13 10 -29q0 -15 -10.5 -25.5t-27.5 -10.5z" />
    <glyph glyph-name="Cdotaccent" unicode="&#x10a;" horiz-adv-x="1138" 
d="M170 291q-37 113 -37 405q0 293 37 406q104 311 444 311q131 0 240.5 -60.5t161.5 -174.5q8 -20 8 -33q0 -26 -15 -40.5t-40 -14.5q-31 0 -51 36q-102 177 -304 177q-250 0 -331 -232q-31 -95 -31 -375q0 -279 31 -374q81 -232 331 -232q203 0 304 176q21 37 51 37
q25 0 40 -14.5t15 -40.5q0 -13 -8 -33q-52 -114 -161.5 -174.5t-240.5 -60.5q-340 0 -444 311zM604 1599q-35 0 -60.5 26t-25.5 61t25.5 60.5t60.5 25.5t60.5 -25.5t25.5 -60.5t-25.5 -61t-60.5 -26z" />
    <glyph glyph-name="cdotaccent" unicode="&#x10b;" horiz-adv-x="952" 
d="M123 487q0 162 31 256q38 120 133.5 187t230.5 67q111 0 192.5 -45t123.5 -118q8 -13 8 -33q0 -21 -14 -35t-35 -14q-32 0 -52 30q-78 109 -223 109q-198 0 -256 -182q-26 -79 -26 -222q0 -140 26 -219q58 -182 256 -182q145 0 223 109q20 30 52 30q21 0 35 -14t14 -35
q0 -20 -8 -33q-42 -73 -123.5 -118t-192.5 -45q-135 0 -230.5 66.5t-133.5 186.5q-31 94 -31 254zM516 1229q-35 0 -60.5 25.5t-25.5 60.5t25.5 60.5t60.5 25.5t60.5 -25.5t25.5 -60.5t-25.5 -60.5t-60.5 -25.5z" />
    <glyph glyph-name="Ccaron" unicode="&#x10c;" horiz-adv-x="1138" 
d="M170 291q-37 113 -37 405q0 293 37 406q104 311 444 311q131 0 240.5 -60.5t161.5 -174.5q8 -20 8 -33q0 -26 -15 -40.5t-40 -14.5q-31 0 -51 36q-102 177 -304 177q-250 0 -331 -232q-31 -95 -31 -375q0 -279 31 -374q81 -232 331 -232q203 0 304 176q21 37 51 37
q25 0 40 -14.5t15 -40.5q0 -13 -8 -33q-52 -114 -161.5 -174.5t-240.5 -60.5q-340 0 -444 311zM606 1536q-21 0 -35 10t-34 35l-148 193q-10 13 -10 28t11 26t28 11q20 0 35 -18l151 -185h4l152 185q15 18 35 18q17 0 28 -11t11 -26q0 -13 -11 -28l-147 -193
q-20 -25 -34.5 -35t-35.5 -10z" />
    <glyph glyph-name="ccaron" unicode="&#x10d;" horiz-adv-x="952" 
d="M123 487q0 162 31 256q38 120 133.5 187t230.5 67q111 0 192.5 -45t123.5 -118q8 -13 8 -33q0 -21 -14 -35t-35 -14q-32 0 -52 30q-78 109 -223 109q-198 0 -256 -182q-26 -79 -26 -222q0 -140 26 -219q58 -182 256 -182q145 0 223 109q20 30 52 30q21 0 35 -14t14 -35
q0 -20 -8 -33q-42 -73 -123.5 -118t-192.5 -45q-135 0 -230.5 66.5t-133.5 186.5q-31 94 -31 254zM516 1135q-21 0 -35.5 10t-34.5 35l-147 192q-10 13 -10 29q0 15 11 26t28 11q18 0 34 -19l152 -184h4l152 184q16 19 35 19q17 0 27.5 -11t10.5 -26q0 -16 -10 -29
l-147 -192q-20 -25 -34.5 -35t-35.5 -10z" />
    <glyph glyph-name="Dcaron" unicode="&#x10e;" horiz-adv-x="1269" 
d="M193 55v1282q0 26 15.5 41t41.5 15h366q371 0 474 -316q23 -72 31.5 -151.5t8.5 -229.5t-8.5 -229.5t-31.5 -151.5q-102 -315 -474 -315h-366q-26 0 -41.5 14.5t-15.5 40.5zM309 123q0 -12 13 -12h278q158 0 246 56.5t131 186.5q21 64 29 137.5t8 204.5t-8 204.5
t-29 137.5q-43 130 -131.5 187t-245.5 57h-278q-13 0 -13 -12v-1147zM608 1536q-21 0 -35 10t-34 35l-148 193q-10 13 -10 28t11 26t28 11q20 0 35 -18l151 -185h4l152 185q15 18 35 18q17 0 28 -11t11 -26q0 -13 -11 -28l-147 -193q-20 -25 -34.5 -35t-35.5 -10z" />
    <glyph glyph-name="dcaron" unicode="&#x10f;" horiz-adv-x="1087" 
d="M844 -8q-26 0 -41 15t-15 44v72h-2q-80 -143 -292 -143q-124 0 -211 62.5t-125 178.5q-35 112 -35 268q0 155 35 267q38 116 125 178.5t211 62.5q212 0 292 -143h2v487q0 29 15.5 44.5t40.5 15.5t40 -15.5t15 -44.5v-1290q0 -29 -15 -44t-40 -15zM512 86q194 0 252 170
q24 80 24 233t-24 232q-58 170 -252 170q-93 0 -157.5 -46t-92.5 -130q-26 -82 -26 -226q0 -145 26 -227q28 -84 92.5 -130t157.5 -46zM1098 1139q-15 -43 -54 -43q-23 0 -38 14t-15 37q0 12 4 24l60 187q15 43 53 43q24 0 39.5 -14.5t15.5 -36.5q0 -13 -4 -25z" />
    <glyph glyph-name="Dcroat" unicode="&#x110;" horiz-adv-x="1269" 
d="M616 0h-366q-26 0 -41.5 14.5t-15.5 40.5v586q0 14 -13 14h-53q-25 0 -39 14.5t-14 37.5t14 37t39 14h53q13 0 13 12v567q0 26 15.5 41t41.5 15h366q371 0 474 -316q23 -72 31.5 -151.5t8.5 -229.5t-8.5 -229.5t-31.5 -151.5q-102 -315 -474 -315zM600 111
q158 0 246 56.5t131 186.5q21 64 29 137.5t8 204.5t-8 204.5t-29 137.5q-43 130 -131.5 187t-245.5 57h-278q-13 0 -13 -12v-500q0 -12 13 -12h243q25 0 39 -14t14 -37t-14 -37.5t-39 -14.5h-243q-13 0 -13 -14v-518q0 -12 13 -12h278z" />
    <glyph glyph-name="dcroat" unicode="&#x111;" horiz-adv-x="1087" 
d="M844 -8q-26 0 -41 15t-15 44v72h-2q-80 -143 -292 -143q-124 0 -211 62.5t-125 178.5q-35 112 -35 268q0 155 35 267q38 116 125 178.5t211 62.5q212 0 292 -143h2v287q0 12 -12 12h-246q-51 0 -51 47t51 47h246q12 0 12 13v81q0 29 15.5 44.5t40.5 15.5t40 -15.5
t15 -44.5v-81q0 -13 12 -13h37q51 0 51 -47t-51 -47h-37q-12 0 -12 -12v-1090q0 -29 -15 -44t-40 -15zM512 86q194 0 252 170q24 80 24 233t-24 232q-58 170 -252 170q-93 0 -157.5 -46t-92.5 -130q-26 -82 -26 -226q0 -145 26 -227q28 -84 92.5 -130t157.5 -46z" />
    <glyph glyph-name="Emacron" unicode="&#x112;" horiz-adv-x="1138" 
d="M193 55v1282q0 26 15.5 41t41.5 15h729q29 0 44 -15.5t15 -40.5t-15 -40t-44 -15h-657q-13 0 -13 -12v-496q0 -12 13 -12h561q29 0 44 -15t15 -40t-15 -40.5t-44 -15.5h-561q-13 0 -13 -12v-516q0 -12 13 -12h657q29 0 44 -15.5t15 -40.5t-15 -40t-44 -15h-729
q-26 0 -41.5 14.5t-15.5 40.5zM827 1638h-454q-23 0 -37 13.5t-14 34.5t14 34t37 13h454q23 0 37.5 -13.5t14.5 -33.5q0 -21 -14.5 -34.5t-37.5 -13.5z" />
    <glyph glyph-name="emacron" unicode="&#x113;" horiz-adv-x="1030" 
d="M526 -20q-141 0 -236 65t-136 191q-31 95 -31 253q0 156 31 254q39 122 133.5 188t226.5 66q133 0 228.5 -66t134.5 -188q30 -91 30 -233q0 -23 -14 -37t-37 -14h-608q-12 0 -12 -13q0 -109 20 -170q32 -95 103 -142.5t173 -47.5q157 0 265 111q20 20 41 20
q22 0 35.5 -13.5t13.5 -33.5q0 -21 -13 -37q-122 -153 -348 -153zM248 559h534q13 0 13 12q0 78 -19 140q-29 90 -97.5 137t-164.5 47t-163.5 -47t-96.5 -137q-18 -59 -18 -140q0 -12 12 -12zM741 1266h-454q-23 0 -37 13t-14 34t14 34t37 13h454q23 0 37.5 -13.5
t14.5 -33.5t-14.5 -33.5t-37.5 -13.5z" />
    <glyph glyph-name="Ebreve" unicode="&#x114;" horiz-adv-x="1138" 
d="M193 55v1282q0 26 15.5 41t41.5 15h729q29 0 44 -15.5t15 -40.5t-15 -40t-44 -15h-657q-13 0 -13 -12v-496q0 -12 13 -12h561q29 0 44 -15t15 -40t-15 -40.5t-44 -15.5h-561q-13 0 -13 -12v-516q0 -12 13 -12h657q29 0 44 -15.5t15 -40.5t-15 -40t-44 -15h-729
q-26 0 -41.5 14.5t-15.5 40.5zM606 1573q-110 0 -181 63.5t-71 137.5q0 16 10.5 26t28.5 10q32 0 43 -38q40 -109 170 -109t170 109q11 38 43 38q18 0 28.5 -10t10.5 -26q0 -74 -71 -137.5t-181 -63.5z" />
    <glyph glyph-name="ebreve" unicode="&#x115;" horiz-adv-x="1030" 
d="M526 -20q-141 0 -236 65t-136 191q-31 95 -31 253q0 156 31 254q39 122 133.5 188t226.5 66q133 0 228.5 -66t134.5 -188q30 -91 30 -233q0 -23 -14 -37t-37 -14h-608q-12 0 -12 -13q0 -109 20 -170q32 -95 103 -142.5t173 -47.5q157 0 265 111q20 20 41 20
q22 0 35.5 -13.5t13.5 -33.5q0 -21 -13 -37q-122 -153 -348 -153zM248 559h534q13 0 13 12q0 78 -19 140q-29 90 -97.5 137t-164.5 47t-163.5 -47t-96.5 -137q-18 -59 -18 -140q0 -12 12 -12zM514 1167q-110 0 -181 63.5t-71 137.5q0 16 10.5 26.5t28.5 10.5q31 0 43 -39
q40 -109 170 -109t170 109q12 39 43 39q18 0 28.5 -10.5t10.5 -26.5q0 -74 -71 -137.5t-181 -63.5z" />
    <glyph glyph-name="Edotaccent" unicode="&#x116;" horiz-adv-x="1138" 
d="M193 55v1282q0 26 15.5 41t41.5 15h729q29 0 44 -15.5t15 -40.5t-15 -40t-44 -15h-657q-13 0 -13 -12v-496q0 -12 13 -12h561q29 0 44 -15t15 -40t-15 -40.5t-44 -15.5h-561q-13 0 -13 -12v-516q0 -12 13 -12h657q29 0 44 -15.5t15 -40.5t-15 -40t-44 -15h-729
q-26 0 -41.5 14.5t-15.5 40.5zM610 1599q-35 0 -60.5 26t-25.5 61t25.5 60.5t60.5 25.5t60.5 -25.5t25.5 -60.5t-25.5 -61t-60.5 -26z" />
    <glyph glyph-name="edotaccent" unicode="&#x117;" horiz-adv-x="1030" 
d="M526 -20q-141 0 -236 65t-136 191q-31 95 -31 253q0 156 31 254q39 122 133.5 188t226.5 66q133 0 228.5 -66t134.5 -188q30 -91 30 -233q0 -23 -14 -37t-37 -14h-608q-12 0 -12 -13q0 -109 20 -170q32 -95 103 -142.5t173 -47.5q157 0 265 111q20 20 41 20
q22 0 35.5 -13.5t13.5 -33.5q0 -21 -13 -37q-122 -153 -348 -153zM248 559h534q13 0 13 12q0 78 -19 140q-29 90 -97.5 137t-164.5 47t-163.5 -47t-96.5 -137q-18 -59 -18 -140q0 -12 12 -12zM514 1229q-35 0 -60.5 25.5t-25.5 60.5t25.5 60.5t60.5 25.5t60.5 -25.5
t25.5 -60.5t-25.5 -60.5t-60.5 -25.5z" />
    <glyph glyph-name="Eogonek" unicode="&#x118;" horiz-adv-x="1138" 
d="M250 0q-26 0 -41.5 14.5t-15.5 40.5v1282q0 26 15.5 41t41.5 15h729q29 0 44 -15.5t15 -40.5t-15 -40t-44 -15h-657q-13 0 -13 -12v-496q0 -12 13 -12h561q29 0 44 -15t15 -40t-15 -40.5t-44 -15.5h-561q-13 0 -13 -12v-516q0 -12 13 -12h657q29 0 44 -15.5t15 -40.5
t-15 -40t-44 -15h-8q-95 -68 -132.5 -114.5t-37.5 -84.5q0 -27 16 -42t43 -15q23 0 43 10q16 8 27 8q20 0 31.5 -13t11.5 -32q0 -22 -23 -39q-45 -30 -106 -30q-65 0 -104.5 37t-39.5 102q0 105 146 213h-596z" />
    <glyph glyph-name="eogonek" unicode="&#x119;" horiz-adv-x="1030" 
d="M678 -352q-65 0 -104 37t-39 102q0 97 92 203q-52 -10 -101 -10q-141 0 -236 65t-136 191q-31 95 -31 253q0 156 31 254q39 122 133.5 188t226.5 66q133 0 228.5 -66t134.5 -188q30 -91 30 -233q0 -23 -14 -37t-37 -14h-608q-12 0 -12 -13q0 -109 20 -170
q32 -95 103 -142.5t173 -47.5q157 0 265 111q20 20 41 20q22 0 35.5 -13.5t13.5 -33.5q0 -21 -13 -37q-23 -29 -53 -55q-115 -113 -150.5 -173t-35.5 -104q0 -27 16 -42t43 -15q23 0 43 10q16 8 27 8q20 0 31.5 -13t11.5 -32q0 -22 -23 -39q-45 -30 -106 -30zM248 559h534
q13 0 13 12q0 78 -19 140q-29 90 -97.5 137t-164.5 47t-163.5 -47t-96.5 -137q-18 -59 -18 -140q0 -12 12 -12z" />
    <glyph glyph-name="Ecaron" unicode="&#x11a;" horiz-adv-x="1138" 
d="M193 55v1282q0 26 15.5 41t41.5 15h729q29 0 44 -15.5t15 -40.5t-15 -40t-44 -15h-657q-13 0 -13 -12v-496q0 -12 13 -12h561q29 0 44 -15t15 -40t-15 -40.5t-44 -15.5h-561q-13 0 -13 -12v-516q0 -12 13 -12h657q29 0 44 -15.5t15 -40.5t-15 -40t-44 -15h-729
q-26 0 -41.5 14.5t-15.5 40.5zM608 1536q-21 0 -35 10t-34 35l-148 193q-10 13 -10 28t11 26t28 11q20 0 35 -18l151 -185h4l152 185q15 18 35 18q17 0 28 -11t11 -26q0 -13 -11 -28l-147 -193q-20 -25 -34.5 -35t-35.5 -10z" />
    <glyph glyph-name="ecaron" unicode="&#x11b;" horiz-adv-x="1030" 
d="M526 -20q-141 0 -236 65t-136 191q-31 95 -31 253q0 156 31 254q39 122 133.5 188t226.5 66q133 0 228.5 -66t134.5 -188q30 -91 30 -233q0 -23 -14 -37t-37 -14h-608q-12 0 -12 -13q0 -109 20 -170q32 -95 103 -142.5t173 -47.5q157 0 265 111q20 20 41 20
q22 0 35.5 -13.5t13.5 -33.5q0 -21 -13 -37q-122 -153 -348 -153zM248 559h534q13 0 13 12q0 78 -19 140q-29 90 -97.5 137t-164.5 47t-163.5 -47t-96.5 -137q-18 -59 -18 -140q0 -12 12 -12zM514 1135q-21 0 -35.5 10t-34.5 35l-147 192q-10 13 -10 29q0 15 11 26t28 11
q18 0 34 -19l152 -184h4l152 184q16 19 34 19q17 0 28 -11t11 -26q0 -16 -10 -29l-147 -192q-20 -25 -34.5 -35t-35.5 -10z" />
    <glyph glyph-name="Gcircumflex" unicode="&#x11c;" horiz-adv-x="1247" 
d="M172 293q-39 119 -39 403q0 285 39 404q51 154 166.5 233.5t286.5 79.5q148 0 260 -62t162 -169q8 -20 8 -33q0 -26 -15.5 -40.5t-40.5 -14.5q-31 0 -51 36q-105 173 -325 173q-260 0 -338 -236q-33 -97 -33 -371q0 -273 33 -370q38 -116 124.5 -176t215.5 -60
q127 0 214.5 59.5t125.5 172.5q32 94 32 264q0 12 -12 12h-293q-27 0 -42 15.5t-15 39.5t15 40t42 16h367q23 0 39 -15.5t16 -38.5v-51q0 -192 -37 -309q-49 -154 -165 -234.5t-285 -80.5q-171 0 -287.5 79.5t-167.5 233.5zM811 1538q-20 0 -35 18l-151 185h-4l-152 -185
q-15 -18 -35 -18q-17 0 -28 11t-11 26q0 14 11 29l147 192q20 25 34.5 35t35.5 10t35 -10t34 -35l148 -192q10 -13 10 -29q0 -15 -11 -26t-28 -11z" />
    <glyph glyph-name="gcircumflex" unicode="&#x11d;" horiz-adv-x="1069" 
d="M487 -389q-91 0 -171.5 32t-133.5 85q-16 16 -16 36q0 25 15.5 41.5t39.5 16.5t47 -23q88 -82 224 -82q278 0 278 297v123h-2q-72 -141 -287 -141q-122 0 -206 63.5t-121 178.5q-33 100 -33 258q0 160 33 260q37 115 121 178t206 63q212 0 287 -143h2v72q0 29 15 44
t40 15t40.5 -15.5t15.5 -43.5v-908q0 -200 -103.5 -303.5t-290.5 -103.5zM502 102q184 0 243 172q25 74 25 222q0 149 -25 223q-59 172 -243 172q-183 0 -242 -176q-27 -83 -27 -219q0 -134 27 -217q59 -177 242 -177zM700 1135q-19 0 -34 18l-152 184h-4l-152 -184
q-15 -18 -34 -18q-17 0 -28 10.5t-11 25.5q0 16 10 29l147 193q19 25 34 35t36 10t36 -10t34 -35l147 -193q10 -13 10 -29q0 -15 -11 -25.5t-28 -10.5z" />
    <glyph glyph-name="Gbreve" unicode="&#x11e;" horiz-adv-x="1247" 
d="M172 293q-39 119 -39 403q0 285 39 404q51 154 166.5 233.5t286.5 79.5q148 0 260 -62t162 -169q8 -20 8 -33q0 -26 -15.5 -40.5t-40.5 -14.5q-31 0 -51 36q-105 173 -325 173q-260 0 -338 -236q-33 -97 -33 -371q0 -273 33 -370q38 -116 124.5 -176t215.5 -60
q127 0 214.5 59.5t125.5 172.5q32 94 32 264q0 12 -12 12h-293q-27 0 -42 15.5t-15 39.5t15 40t42 16h367q23 0 39 -15.5t16 -38.5v-51q0 -192 -37 -309q-49 -154 -165 -234.5t-285 -80.5q-171 0 -287.5 79.5t-167.5 233.5zM623 1573q-110 0 -181 63.5t-71 137.5
q0 16 10.5 26t28.5 10q32 0 43 -38q40 -109 170 -109t170 109q11 38 43 38q18 0 28 -10t10 -26q0 -74 -70.5 -137.5t-180.5 -63.5z" />
    <glyph glyph-name="gbreve" unicode="&#x11f;" horiz-adv-x="1069" 
d="M487 -389q-91 0 -171.5 32t-133.5 85q-16 16 -16 36q0 25 15.5 41.5t39.5 16.5t47 -23q88 -82 224 -82q278 0 278 297v123h-2q-72 -141 -287 -141q-122 0 -206 63.5t-121 178.5q-33 100 -33 258q0 160 33 260q37 115 121 178t206 63q212 0 287 -143h2v72q0 29 15 44
t40 15t40.5 -15.5t15.5 -43.5v-908q0 -200 -103.5 -303.5t-290.5 -103.5zM502 102q184 0 243 172q25 74 25 222q0 149 -25 223q-59 172 -243 172q-183 0 -242 -176q-27 -83 -27 -219q0 -134 27 -217q59 -177 242 -177zM518 1167q-110 0 -181 63.5t-71 137.5q0 16 10.5 26.5
t28.5 10.5q31 0 43 -39q40 -109 170 -109t170 109q12 39 43 39q18 0 28.5 -10.5t10.5 -26.5q0 -74 -71 -137.5t-181 -63.5z" />
    <glyph glyph-name="Gdotaccent" unicode="&#x120;" horiz-adv-x="1247" 
d="M172 293q-39 119 -39 403q0 285 39 404q51 154 166.5 233.5t286.5 79.5q148 0 260 -62t162 -169q8 -20 8 -33q0 -26 -15.5 -40.5t-40.5 -14.5q-31 0 -51 36q-105 173 -325 173q-260 0 -338 -236q-33 -97 -33 -371q0 -273 33 -370q38 -116 124.5 -176t215.5 -60
q127 0 214.5 59.5t125.5 172.5q32 94 32 264q0 12 -12 12h-293q-27 0 -42 15.5t-15 39.5t15 40t42 16h367q23 0 39 -15.5t16 -38.5v-51q0 -192 -37 -309q-49 -154 -165 -234.5t-285 -80.5q-171 0 -287.5 79.5t-167.5 233.5zM623 1599q-35 0 -60.5 26t-25.5 61t25.5 60.5
t60.5 25.5t60.5 -25.5t25.5 -60.5t-25.5 -61t-60.5 -26z" />
    <glyph glyph-name="gdotaccent" unicode="&#x121;" horiz-adv-x="1069" 
d="M487 -389q-91 0 -171.5 32t-133.5 85q-16 16 -16 36q0 25 15.5 41.5t39.5 16.5t47 -23q88 -82 224 -82q278 0 278 297v123h-2q-72 -141 -287 -141q-122 0 -206 63.5t-121 178.5q-33 100 -33 258q0 160 33 260q37 115 121 178t206 63q212 0 287 -143h2v72q0 29 15 44
t40 15t40.5 -15.5t15.5 -43.5v-908q0 -200 -103.5 -303.5t-290.5 -103.5zM502 102q184 0 243 172q25 74 25 222q0 149 -25 223q-59 172 -243 172q-183 0 -242 -176q-27 -83 -27 -219q0 -134 27 -217q59 -177 242 -177zM518 1229q-35 0 -60.5 25.5t-25.5 60.5t25.5 60.5
t60.5 25.5t60.5 -25.5t25.5 -60.5t-25.5 -60.5t-60.5 -25.5z" />
    <glyph glyph-name="Gcommaaccent" unicode="&#x122;" horiz-adv-x="1247" 
d="M172 293q-39 119 -39 403q0 285 39 404q51 154 166.5 233.5t286.5 79.5q148 0 260 -62t162 -169q8 -20 8 -33q0 -26 -15.5 -40.5t-40.5 -14.5q-31 0 -51 36q-105 173 -325 173q-260 0 -338 -236q-33 -97 -33 -371q0 -273 33 -370q38 -116 124.5 -176t215.5 -60
q127 0 214.5 59.5t125.5 172.5q32 94 32 264q0 12 -12 12h-293q-27 0 -42 15.5t-15 39.5t15 40t42 16h367q23 0 39 -15.5t16 -38.5v-51q0 -192 -37 -309q-49 -154 -165 -234.5t-285 -80.5q-171 0 -287.5 79.5t-167.5 233.5zM629 -354q-12 -45 -54 -45q-25 0 -41 15t-16 38
q0 8 4 24l56 175q12 45 53 45q25 0 41 -15.5t16 -38.5q0 -8 -4 -24z" />
    <glyph glyph-name="gcommaaccent" unicode="&#x123;" horiz-adv-x="1069" 
d="M487 -389q-91 0 -171.5 32t-133.5 85q-16 16 -16 36q0 25 15.5 41.5t39.5 16.5t47 -23q88 -82 224 -82q278 0 278 297v123h-2q-72 -141 -287 -141q-122 0 -206 63.5t-121 178.5q-33 100 -33 258q0 160 33 260q37 115 121 178t206 63q212 0 287 -143h2v72q0 29 15 44
t40 15t40.5 -15.5t15.5 -43.5v-908q0 -200 -103.5 -303.5t-290.5 -103.5zM502 102q184 0 243 172q25 74 25 222q0 149 -25 223q-59 172 -243 172q-183 0 -242 -176q-27 -83 -27 -219q0 -134 27 -217q59 -177 242 -177zM561 1210q-12 -45 -53 -45q-25 0 -41 15.5t-16 38.5
q0 8 4 24l55 174q12 45 53 45q25 0 41.5 -15t16.5 -38q0 -5 -5 -25z" />
    <glyph glyph-name="Hcircumflex" unicode="&#x124;" horiz-adv-x="1331" 
d="M193 55v1282q0 30 16 47t41 17q27 0 43 -17t16 -47v-563q0 -12 13 -12h686q14 0 14 12v563q0 30 16 47t41 17q27 0 43.5 -17t16.5 -47v-1282q0 -30 -16.5 -46.5t-43.5 -16.5q-26 0 -41.5 16.5t-15.5 46.5v584q0 12 -14 12h-686q-13 0 -13 -12v-584q0 -30 -16 -46.5
t-43 -16.5q-26 0 -41.5 16.5t-15.5 46.5zM854 1538q-20 0 -35 18l-151 185h-4l-152 -185q-15 -18 -35 -18q-17 0 -28 11t-11 26q0 14 11 29l147 192q20 25 34.5 35t35.5 10t35 -10t34 -35l148 -192q10 -13 10 -29q0 -15 -11 -26t-28 -11z" />
    <glyph glyph-name="hcircumflex" unicode="&#x125;" horiz-adv-x="1107" 
d="M877 -8q-25 0 -40.5 15t-15.5 44v547q0 293 -256 293q-113 0 -189.5 -75t-76.5 -198v-567q0 -29 -15 -44t-40 -15q-26 0 -41 15t-15 44v1290q0 29 15.5 44.5t40.5 15.5t40 -15.5t15 -44.5v-483h2q89 139 289 139q162 0 252 -97t90 -275v-574q0 -29 -15 -44t-40 -15z
M752 1538q-20 0 -35 18l-152 185h-4l-151 -185q-15 -18 -35 -18q-17 0 -28 11t-11 26q0 16 10 29l148 192q20 25 34 35t35 10t35.5 -10t34.5 -35l147 -192q11 -15 11 -29q0 -15 -11 -26t-28 -11z" />
    <glyph glyph-name="Hbar" unicode="&#x126;" horiz-adv-x="1331" 
d="M1079 -8q-26 0 -41.5 16.5t-15.5 46.5v584q0 12 -14 12h-686q-13 0 -13 -12v-584q0 -30 -16 -46.5t-43 -16.5q-26 0 -41.5 16.5t-15.5 46.5v955q0 12 -13 12h-55q-26 0 -39.5 13.5t-13.5 35.5t13.5 35.5t39.5 13.5h55q13 0 13 13v204q0 30 16 47t41 17q27 0 43 -17
t16 -47v-204q0 -13 13 -13h686q14 0 14 13v204q0 30 16 47t41 17q27 0 43.5 -17t16.5 -47v-204q0 -13 12 -13h55q26 0 40 -13.5t14 -35.5t-14 -35.5t-40 -13.5h-55q-12 0 -12 -12v-955q0 -30 -16.5 -46.5t-43.5 -16.5zM1008 762q14 0 14 12v236q0 12 -14 12h-686
q-13 0 -13 -12v-236q0 -12 13 -12h686z" />
    <glyph glyph-name="hbar" unicode="&#x127;" horiz-adv-x="1107" 
d="M877 -8q-25 0 -40.5 15t-15.5 44v547q0 293 -256 293q-113 0 -189.5 -75t-76.5 -198v-567q0 -29 -15 -44t-40 -15q-26 0 -41 15t-15 44v1090q0 12 -12 12h-37q-51 0 -51 47t51 47h37q12 0 12 13v81q0 29 15.5 44.5t40.5 15.5t40 -15.5t15 -44.5v-81q0 -13 12 -13h246
q51 0 51 -47t-51 -47h-246q-12 0 -12 -12v-283h2q89 139 289 139q162 0 252 -97t90 -275v-574q0 -29 -15 -44t-40 -15z" />
    <glyph glyph-name="Itilde" unicode="&#x128;" horiz-adv-x="501" 
d="M193 55v1282q0 30 16 47t41 17q27 0 43 -17t16 -47v-1282q0 -30 -16 -46.5t-43 -16.5q-26 0 -41.5 16.5t-15.5 46.5zM360 1597q-56 0 -124 45q-59 39 -95 39q-24 0 -40.5 -11.5t-37.5 -41.5q-15 -24 -40 -24q-19 0 -31 11t-12 30q0 15 8 28q62 101 153 101q57 0 125 -45
q59 -39 94 -39q24 0 40.5 11.5t37.5 41.5q15 24 41 24q19 0 31 -11t12 -30q0 -15 -8 -28q-62 -101 -154 -101z" />
    <glyph glyph-name="itilde" unicode="&#x129;" horiz-adv-x="487" 
d="M244 -8q-26 0 -41 15t-15 44v875q0 28 15 43.5t41 15.5q25 0 40 -15t15 -44v-875q0 -29 -15 -44t-40 -15zM354 1219q-57 0 -125 45q-59 39 -94 39q-24 0 -40.5 -12t-37.5 -42q-15 -24 -41 -24q-19 0 -31 11t-12 30q0 13 9 28q62 101 153 101q57 0 125 -45q59 -39 94 -39
q24 0 40.5 11.5t37.5 41.5q16 25 41 25q19 0 31 -11t12 -30q0 -16 -8 -29q-61 -100 -154 -100z" />
    <glyph glyph-name="Imacron" unicode="&#x12a;" horiz-adv-x="501" 
d="M193 55v1282q0 30 16 47t41 17q27 0 43 -17t16 -47v-1282q0 -30 -16 -46.5t-43 -16.5q-26 0 -41.5 16.5t-15.5 46.5zM479 1638h-454q-23 0 -37.5 13.5t-14.5 34.5q0 20 14.5 33.5t37.5 13.5h454q23 0 37 -13t14 -34t-14 -34.5t-37 -13.5z" />
    <glyph glyph-name="imacron" unicode="&#x12b;" horiz-adv-x="487" 
d="M244 -8q-26 0 -41 15t-15 44v875q0 28 15 43.5t41 15.5q25 0 40 -15t15 -44v-875q0 -29 -15 -44t-40 -15zM471 1266h-455q-23 0 -37 13t-14 34t14 34t37 13h455q23 0 37 -13t14 -34t-14 -34t-37 -13z" />
    <glyph glyph-name="Ibreve" unicode="&#x12c;" horiz-adv-x="501" 
d="M193 55v1282q0 30 16 47t41 17q27 0 43 -17t16 -47v-1282q0 -30 -16 -46.5t-43 -16.5q-26 0 -41.5 16.5t-15.5 46.5zM252 1573q-110 0 -181 63.5t-71 137.5q0 16 10.5 26t28.5 10q32 0 43 -38q40 -109 170 -109t170 109q11 38 43 38q18 0 28.5 -10t10.5 -26
q0 -74 -71 -137.5t-181 -63.5z" />
    <glyph glyph-name="ibreve" unicode="&#x12d;" horiz-adv-x="487" 
d="M244 -8q-26 0 -41 15t-15 44v875q0 28 15 43.5t41 15.5q25 0 40 -15t15 -44v-875q0 -29 -15 -44t-40 -15zM244 1167q-110 0 -181 63.5t-71 137.5q0 16 10.5 26.5t28.5 10.5q31 0 43 -39q40 -109 170 -109t170 109q12 39 43 39q18 0 28.5 -10.5t10.5 -26.5
q0 -74 -71 -137.5t-181 -63.5z" />
    <glyph glyph-name="Iogonek" unicode="&#x12e;" horiz-adv-x="501" 
d="M209 -352q-65 0 -104 37t-39 102q0 48 29 99t98 122v1329q0 30 16 47t41 17q27 0 43 -17t16 -47v-1282q0 -30 -6 -46t-24 -36q-64 -64 -87.5 -101t-23.5 -71q0 -27 15 -42t42 -15q16 0 43 10q15 6 27 6q20 0 31.5 -13t11.5 -32q0 -22 -23 -39q-42 -28 -106 -28z" />
    <glyph glyph-name="iogonek" unicode="&#x12f;" horiz-adv-x="487" 
d="M244 1229q-35 0 -60.5 25.5t-25.5 60.5t25.5 60.5t60.5 25.5t60.5 -25.5t25.5 -60.5t-25.5 -60.5t-60.5 -25.5zM156 -199q0 -27 16 -42t43 -15q23 0 43 10q16 8 27 8q20 0 31.5 -13t11.5 -32q0 -22 -23 -39q-45 -30 -106 -30q-65 0 -104.5 37t-39.5 102q0 105 133 227
v912q0 28 15 43.5t41 15.5q25 0 40 -15t15 -44v-871q0 -29 -6.5 -45.5t-26.5 -36.5q-63 -63 -86.5 -100.5t-23.5 -71.5z" />
    <glyph glyph-name="Idotaccent" unicode="&#x130;" horiz-adv-x="501" 
d="M193 55v1282q0 30 16 47t41 17q27 0 43 -17t16 -47v-1282q0 -30 -16 -46.5t-43 -16.5q-26 0 -41.5 16.5t-15.5 46.5zM250 1599q-35 0 -60.5 26t-25.5 61t25.5 60.5t60.5 25.5t60.5 -25.5t25.5 -60.5t-25.5 -61t-60.5 -26z" />
    <glyph glyph-name="dotlessi" unicode="&#x131;" horiz-adv-x="487" 
d="M244 -8q-26 0 -41 15t-15 44v875q0 28 15 43.5t41 15.5q25 0 40 -15t15 -44v-875q0 -29 -15 -44t-40 -15z" />
    <glyph glyph-name="Jcircumflex" unicode="&#x134;" horiz-adv-x="962" 
d="M106 72q-24 18 -24 49q0 22 15 37.5t38 15.5q21 0 39 -12q104 -72 213 -72q137 0 212 80t75 248v919q0 30 16 47t41 17q27 0 43.5 -17t16.5 -47v-921q0 -217 -108 -326.5t-298 -109.5q-78 0 -151.5 26t-127.5 66zM915 1538q-19 0 -34 18l-152 185h-4l-152 -185
q-15 -18 -34 -18q-17 0 -28 11t-11 26q0 16 10 29l147 192q20 25 34.5 35t35.5 10t35.5 -10t34.5 -35l147 -192q10 -13 10 -29q0 -15 -11 -26t-28 -11z" />
    <glyph glyph-name="jcircumflex" unicode="&#x135;" horiz-adv-x="487" 
d="M53 -369q-27 0 -42 15t-15 39t15 38.5t42 14.5q78 0 106.5 31.5t28.5 117.5v1039q0 28 15 43.5t41 15.5q25 0 40 -15t15 -44v-1037q0 -139 -55.5 -198.5t-190.5 -59.5zM432 1135q-20 0 -35 18l-151 184h-4l-152 -184q-15 -18 -35 -18q-17 0 -28 10.5t-11 25.5q0 14 11 29
l147 193q19 25 34 35t36 10t35.5 -9.5t33.5 -35.5l148 -193q10 -13 10 -29q0 -15 -11 -25.5t-28 -10.5z" />
    <glyph glyph-name="Kcommaaccent" unicode="&#x136;" horiz-adv-x="1198" 
d="M193 55v1282q0 30 16 47t41 17q27 0 43 -17t16 -47v-770l668 809q21 25 49 25q21 0 36 -14t15 -35q0 -22 -16 -41l-387 -465l438 -762q12 -21 12 -37q0 -25 -14.5 -41t-38.5 -16q-34 0 -55 35l-420 727l-287 -340v-357q0 -30 -16 -46.5t-43 -16.5q-26 0 -41.5 16.5
t-15.5 46.5zM618 -354q-12 -45 -53 -45q-25 0 -41 15t-16 38q0 8 4 24l55 175q12 45 54 45q25 0 41 -15.5t16 -38.5q0 -8 -4 -24z" />
    <glyph glyph-name="kcommaaccent" unicode="&#x137;" horiz-adv-x="1009" 
d="M870 -8q-33 0 -53 33l-309 501l-209 -241v-234q0 -29 -15 -44t-40 -15q-26 0 -41 15t-15 44v1290q0 29 15.5 44.5t40.5 15.5t40 -15.5t15 -44.5v-909l451 533q17 20 41 20q22 0 35.5 -13.5t13.5 -35.5q0 -17 -13 -33l-245 -291l331 -536q11 -18 11 -35q0 -21 -15 -35
t-39 -14zM524 -354q-12 -45 -53 -45q-25 0 -41 15t-16 38q0 8 4 24l55 175q12 45 53 45q25 0 41.5 -15.5t16.5 -38.5q0 -8 -4 -24z" />
    <glyph glyph-name="kgreenlandic" unicode="&#x138;" horiz-adv-x="1009" 
d="M870 -8q-33 0 -53 33l-309 501l-209 -241v-234q0 -29 -15 -44t-40 -15q-26 0 -41 15t-15 44v875q0 28 15 43.5t41 15.5q25 0 40 -15t15 -44v-494l451 533q17 20 41 20q22 0 35.5 -13.5t13.5 -35.5q0 -17 -13 -33l-245 -291l331 -536q11 -18 11 -35q0 -21 -15 -35t-39 -14
z" />
    <glyph glyph-name="Lacute" unicode="&#x139;" horiz-adv-x="1085" 
d="M193 55v1282q0 30 16 47t41 17q27 0 43 -17t16 -47v-1214q0 -12 13 -12h659q29 0 44 -15.5t15 -40.5t-15 -40t-44 -15h-733q-55 0 -55 55zM451 1749l-148 -170q-20 -23 -41 -23q-20 0 -33.5 14t-13.5 34q0 17 14 34l148 174q16 19 37 19t35 -14t14 -35q0 -18 -12 -33z
" />
    <glyph glyph-name="lacute" unicode="&#x13a;" horiz-adv-x="536" 
d="M410 -6h-21q-111 0 -157 53.5t-46 175.5v1118q0 29 15.5 44.5t40.5 15.5t40 -15.5t15 -44.5v-1114q0 -72 24.5 -99.5t88.5 -27.5q27 0 42 -14.5t15 -38.5t-15 -38.5t-42 -14.5zM459 1749l-148 -170q-20 -23 -41 -23q-20 0 -33.5 14t-13.5 34q0 16 15 34l147 174
q16 19 37 19t35 -14t14 -35q0 -18 -12 -33z" />
    <glyph glyph-name="Lcommaaccent" unicode="&#x13b;" horiz-adv-x="1085" 
d="M193 55v1282q0 30 16 47t41 17q27 0 43 -17t16 -47v-1214q0 -12 13 -12h659q29 0 44 -15.5t15 -40.5t-15 -40t-44 -15h-733q-55 0 -55 55zM629 -354q-12 -45 -54 -45q-25 0 -41 15t-16 38q0 8 4 24l56 175q12 45 53 45q25 0 41 -15.5t16 -38.5q0 -8 -4 -24z" />
    <glyph glyph-name="lcommaaccent" unicode="&#x13c;" horiz-adv-x="536" 
d="M410 -6h-21q-111 0 -157 53.5t-46 175.5v1118q0 29 15.5 44.5t40.5 15.5t40 -15.5t15 -44.5v-1114q0 -72 24.5 -99.5t88.5 -27.5q27 0 42 -14.5t15 -38.5t-15 -38.5t-42 -14.5zM334 -354q-12 -45 -53 -45q-25 0 -41.5 15t-16.5 38q0 8 4 24l56 175q12 45 53 45
q25 0 41 -15.5t16 -38.5q0 -8 -4 -24z" />
    <glyph glyph-name="Lcaron" unicode="&#x13d;" horiz-adv-x="1085" 
d="M193 55v1282q0 30 16 47t41 17q27 0 43 -17t16 -47v-1214q0 -12 13 -12h659q29 0 44 -15.5t15 -40.5t-15 -40t-44 -15h-733q-55 0 -55 55zM571 1139q-15 -43 -53 -43q-23 0 -38 14t-15 37q0 12 4 24l59 187q15 43 54 43q24 0 39.5 -14.5t15.5 -36.5q0 -13 -4 -25z" />
    <glyph glyph-name="lcaron" unicode="&#x13e;" horiz-adv-x="536" 
d="M410 -6h-21q-111 0 -157 53.5t-46 175.5v1118q0 29 15.5 44.5t40.5 15.5t40 -15.5t15 -44.5v-1114q0 -72 24.5 -99.5t88.5 -27.5q27 0 42 -14.5t15 -38.5t-15 -38.5t-42 -14.5zM496 1139q-15 -43 -54 -43q-23 0 -38 14t-15 37q0 12 4 24l60 187q15 43 53 43
q24 0 39.5 -14.5t15.5 -36.5q0 -13 -4 -25z" />
    <glyph glyph-name="Ldot" unicode="&#x13f;" horiz-adv-x="1085" 
d="M193 55v1282q0 30 16 47t41 17q27 0 43 -17t16 -47v-1214q0 -12 13 -12h659q29 0 44 -15.5t15 -40.5t-15 -40t-44 -15h-733q-55 0 -55 55zM795 578q-37 0 -63.5 26.5t-26.5 63.5t26.5 63.5t63.5 26.5t63.5 -26.5t26.5 -63.5t-26.5 -63.5t-63.5 -26.5z" />
    <glyph glyph-name="ldot" unicode="&#x140;" horiz-adv-x="604" 
d="M410 -6h-21q-111 0 -157 53.5t-46 175.5v1118q0 29 15.5 44.5t40.5 15.5t40 -15.5t15 -44.5v-1114q0 -72 24.5 -99.5t88.5 -27.5q27 0 42 -14.5t15 -38.5t-15 -38.5t-42 -14.5zM545 586q-37 0 -63.5 26.5t-26.5 63.5t26.5 63.5t63.5 26.5t63.5 -26.5t26.5 -63.5
t-26.5 -63.5t-63.5 -26.5z" />
    <glyph glyph-name="Lslash" unicode="&#x141;" horiz-adv-x="1085" 
d="M625 819l-316 -162v-534q0 -12 13 -12h659q29 0 44 -15.5t15 -40.5t-15 -40t-44 -15h-733q-55 0 -55 55v543l-80 -41q-16 -8 -31 -8q-20 0 -33.5 13.5t-13.5 35.5q0 36 39 53l119 60v626q0 30 16 47t41 17q27 0 43 -17t16 -47v-567l277 143q18 9 30 9q20 0 34 -14t14 -36
q0 -36 -39 -53z" />
    <glyph glyph-name="lslash" unicode="&#x142;" horiz-adv-x="536" 
d="M434 788l-137 -71v-490q0 -72 24.5 -99.5t88.5 -27.5q27 0 42 -14.5t15 -38.5t-15 -38.5t-42 -14.5h-21q-111 0 -157 53.5t-46 175.5v436l-34 -18q-12 -6 -27 -6q-20 0 -32.5 12.5t-12.5 34.5q0 29 29 45l77 41v573q0 29 15.5 44.5t40.5 15.5t40 -15.5t15 -44.5v-516
l94 49q14 7 27 7q20 0 32.5 -12.5t12.5 -34.5q0 -30 -29 -46z" />
    <glyph glyph-name="Nacute" unicode="&#x143;" horiz-adv-x="1333" 
d="M193 55v1272q0 74 71 74q28 0 46 -15t38 -49l670 -1110h6v1110q0 30 15 47t42 17t43.5 -17t16.5 -47v-1271q0 -35 -19 -54.5t-53 -19.5q-28 0 -46 14.5t-40 48.5l-666 1112h-8v-1112q0 -30 -16 -46.5t-43 -16.5q-26 0 -41.5 16.5t-15.5 46.5zM831 1749l-147 -170
q-20 -23 -41 -23q-20 0 -33.5 14t-13.5 34q0 17 14 34l148 174q16 19 37 19t35 -14t14 -35q0 -17 -13 -33z" />
    <glyph glyph-name="nacute" unicode="&#x144;" horiz-adv-x="1107" 
d="M877 -8q-25 0 -40.5 15t-15.5 44v547q0 293 -256 293q-113 0 -189.5 -75t-76.5 -198v-567q0 -29 -15 -44t-40 -15q-26 0 -41 15t-15 44v875q0 28 15 43.5t41 15.5q25 0 40 -15t15 -44v-68h2q87 139 289 139q162 0 252 -97t90 -275v-574q0 -29 -15 -44t-40 -15zM555 1157
q-14 -22 -37 -22q-22 0 -34.5 12.5t-12.5 32.5q0 13 10 30l127 205q17 27 43 27q21 0 34 -13t13 -32q0 -16 -10 -33z" />
    <glyph glyph-name="Ncommaaccent" unicode="&#x145;" horiz-adv-x="1333" 
d="M193 55v1272q0 74 71 74q28 0 46 -15t38 -49l670 -1110h6v1110q0 30 15 47t42 17t43.5 -17t16.5 -47v-1271q0 -35 -19 -54.5t-53 -19.5q-28 0 -46 14.5t-40 48.5l-666 1112h-8v-1112q0 -30 -16 -46.5t-43 -16.5q-26 0 -41.5 16.5t-15.5 46.5zM696 -354q-12 -45 -53 -45
q-25 0 -41 15t-16 38q0 8 4 24l55 175q12 45 53 45q25 0 41.5 -15.5t16.5 -38.5q0 -8 -4 -24z" />
    <glyph glyph-name="ncommaaccent" unicode="&#x146;" horiz-adv-x="1107" 
d="M877 -8q-25 0 -40.5 15t-15.5 44v547q0 293 -256 293q-113 0 -189.5 -75t-76.5 -198v-567q0 -29 -15 -44t-40 -15q-26 0 -41 15t-15 44v875q0 28 15 43.5t41 15.5q25 0 40 -15t15 -44v-68h2q87 139 289 139q162 0 252 -97t90 -275v-574q0 -29 -15 -44t-40 -15zM571 -354
q-12 -45 -53 -45q-25 0 -41 15t-16 38q0 8 4 24l55 175q12 45 53 45q25 0 41.5 -15.5t16.5 -38.5q0 -8 -4 -24z" />
    <glyph glyph-name="Ncaron" unicode="&#x147;" horiz-adv-x="1333" 
d="M193 55v1272q0 74 71 74q28 0 46 -15t38 -49l670 -1110h6v1110q0 30 15 47t42 17t43.5 -17t16.5 -47v-1271q0 -35 -19 -54.5t-53 -19.5q-28 0 -46 14.5t-40 48.5l-666 1112h-8v-1112q0 -30 -16 -46.5t-43 -16.5q-26 0 -41.5 16.5t-15.5 46.5zM666 1536q-21 0 -35.5 10
t-34.5 35l-147 193q-11 15 -11 28q0 15 11 26t28 11q20 0 35 -18l152 -185h4l151 185q15 18 35 18q17 0 28 -11t11 -26t-10 -28l-148 -193q-20 -25 -34 -35t-35 -10z" />
    <glyph glyph-name="ncaron" unicode="&#x148;" horiz-adv-x="1107" 
d="M877 -8q-25 0 -40.5 15t-15.5 44v547q0 293 -256 293q-113 0 -189.5 -75t-76.5 -198v-567q0 -29 -15 -44t-40 -15q-26 0 -41 15t-15 44v875q0 28 15 43.5t41 15.5q25 0 40 -15t15 -44v-68h2q87 139 289 139q162 0 252 -97t90 -275v-574q0 -29 -15 -44t-40 -15zM553 1135
q-21 0 -35.5 10t-34.5 35l-147 192q-10 13 -10 29q0 15 11 26t28 11q18 0 34 -19l152 -184h4l152 184q16 19 34 19q17 0 28 -11t11 -26q0 -16 -10 -29l-147 -192q-20 -25 -34.5 -35t-35.5 -10z" />
    <glyph glyph-name="Eng" unicode="&#x14a;" horiz-adv-x="1333" 
d="M844 -369q-29 0 -44.5 15.5t-15.5 40.5q0 27 15.5 42t44.5 15q94 0 137 43t43 145v62l-707 1173h-8v-1112q0 -30 -16 -46.5t-43 -16.5q-26 0 -41.5 16.5t-15.5 46.5v1272q0 74 71 74q28 0 46 -15t38 -49l670 -1110h6v1110q0 30 15 47t42 17t43.5 -17t16.5 -47v-1394
q0 -163 -72.5 -237.5t-224.5 -74.5z" />
    <glyph glyph-name="eng" unicode="&#x14b;" horiz-adv-x="1107" 
d="M686 -369q-27 0 -42 15t-15 39t15 38.5t42 14.5q78 0 106.5 31.5t28.5 117.5v711q0 293 -256 293q-113 0 -189.5 -75t-76.5 -198v-567q0 -29 -15 -44t-40 -15q-26 0 -41 15t-15 44v875q0 28 15 43.5t41 15.5q25 0 40 -15t15 -44v-68h2q87 139 289 139q162 0 252 -97
t90 -275v-736q0 -139 -55.5 -198.5t-190.5 -59.5z" />
    <glyph glyph-name="Omacron" unicode="&#x14c;" horiz-adv-x="1247" 
d="M625 -20q-170 0 -285 79.5t-166 233.5q-21 62 -31 148.5t-10 254.5t10 255t31 149q51 154 166 233.5t285 79.5q169 0 283 -79.5t165 -233.5q21 -62 31 -149t10 -255t-10 -254.5t-31 -148.5q-51 -154 -165 -233.5t-283 -79.5zM995 696q0 267 -34 371q-78 236 -336 236
q-260 0 -338 -236q-35 -107 -35 -371q0 -263 35 -370q78 -236 338 -236q258 0 336 236q34 104 34 370zM850 1638h-455q-23 0 -37 13.5t-14 34.5t14 34t37 13h455q23 0 37 -13t14 -34t-14 -34.5t-37 -13.5z" />
    <glyph glyph-name="omacron" unicode="&#x14d;" horiz-adv-x="1042" 
d="M520 -20q-134 0 -229 66t-135 187q-33 109 -33 256q0 145 33 254q40 121 135 187.5t229 66.5q135 0 231 -66.5t136 -187.5q33 -109 33 -254q0 -147 -33 -256q-40 -121 -136 -187t-231 -66zM520 86q95 0 163 47t97 135q27 83 27 221q0 137 -27 220q-29 88 -97 135t-163 47
q-94 0 -161.5 -47.5t-96.5 -134.5q-26 -79 -26 -220q0 -142 26 -221q29 -87 96.5 -134.5t161.5 -47.5zM748 1266h-455q-23 0 -37 13t-14 34t14 34t37 13h455q23 0 37 -13t14 -34t-14 -34t-37 -13z" />
    <glyph glyph-name="Obreve" unicode="&#x14e;" horiz-adv-x="1247" 
d="M625 -20q-170 0 -285 79.5t-166 233.5q-21 62 -31 148.5t-10 254.5t10 255t31 149q51 154 166 233.5t285 79.5q169 0 283 -79.5t165 -233.5q21 -62 31 -149t10 -255t-10 -254.5t-31 -148.5q-51 -154 -165 -233.5t-283 -79.5zM995 696q0 267 -34 371q-78 236 -336 236
q-260 0 -338 -236q-35 -107 -35 -371q0 -263 35 -370q78 -236 338 -236q258 0 336 236q34 104 34 370zM623 1573q-110 0 -181 63.5t-71 137.5q0 16 10.5 26t28.5 10q32 0 43 -38q40 -109 170 -109t170 109q11 38 43 38q18 0 28 -10t10 -26q0 -74 -70.5 -137.5t-180.5 -63.5z
" />
    <glyph glyph-name="obreve" unicode="&#x14f;" horiz-adv-x="1042" 
d="M520 -20q-134 0 -229 66t-135 187q-33 109 -33 256q0 145 33 254q40 121 135 187.5t229 66.5q135 0 231 -66.5t136 -187.5q33 -109 33 -254q0 -147 -33 -256q-40 -121 -136 -187t-231 -66zM520 86q95 0 163 47t97 135q27 83 27 221q0 137 -27 220q-29 88 -97 135t-163 47
q-94 0 -161.5 -47.5t-96.5 -134.5q-26 -79 -26 -220q0 -142 26 -221q29 -87 96.5 -134.5t161.5 -47.5zM520 1167q-110 0 -181 63.5t-71 137.5q0 16 10.5 26.5t28.5 10.5q31 0 43 -39q40 -109 170 -109t170 109q12 39 43 39q18 0 28.5 -10.5t10.5 -26.5q0 -74 -71 -137.5
t-181 -63.5z" />
    <glyph glyph-name="Ohungarumlaut" unicode="&#x150;" horiz-adv-x="1247" 
d="M625 -20q-170 0 -285 79.5t-166 233.5q-21 62 -31 148.5t-10 254.5t10 255t31 149q51 154 166 233.5t285 79.5q169 0 283 -79.5t165 -233.5q21 -62 31 -149t10 -255t-10 -254.5t-31 -148.5q-51 -154 -165 -233.5t-283 -79.5zM995 696q0 267 -34 371q-78 236 -336 236
q-260 0 -338 -236q-35 -107 -35 -371q0 -263 35 -370q78 -236 338 -236q258 0 336 236q34 104 34 370zM799 1573q-18 -25 -41 -25q-19 0 -32 12.5t-13 32.5q0 17 12 35l117 172q19 25 43 25q20 0 33.5 -12.5t13.5 -32.5q0 -17 -12 -35zM547 1573q-18 -25 -41 -25
q-19 0 -32 12.5t-13 32.5q0 17 12 35l117 172q19 25 43 25q20 0 33.5 -12.5t13.5 -32.5q0 -17 -12 -35z" />
    <glyph glyph-name="ohungarumlaut" unicode="&#x151;" horiz-adv-x="1042" 
d="M520 -20q-134 0 -229 66t-135 187q-33 109 -33 256q0 145 33 254q40 121 135 187.5t229 66.5q135 0 231 -66.5t136 -187.5q33 -109 33 -254q0 -147 -33 -256q-40 -121 -136 -187t-231 -66zM520 86q95 0 163 47t97 135q27 83 27 221q0 137 -27 220q-29 88 -97 135t-163 47
q-94 0 -161.5 -47.5t-96.5 -134.5q-26 -79 -26 -220q0 -142 26 -221q29 -87 96.5 -134.5t161.5 -47.5zM719 1169q-18 -30 -47 -30q-19 0 -32 12t-13 31q0 17 8 30l117 197q19 31 47 31q20 0 33.5 -12t13.5 -31q0 -18 -8 -31zM459 1169q-18 -30 -47 -30q-19 0 -32 12t-13 31
q0 17 8 30l117 197q19 31 47 31q20 0 33.5 -12t13.5 -31q0 -18 -8 -31z" />
    <glyph glyph-name="OE" unicode="&#x152;" horiz-adv-x="1941" 
d="M625 -20q-170 0 -285 79.5t-166 233.5q-21 62 -31 148.5t-10 254.5t10 255t31 149q51 154 166 233.5t285 79.5q264 0 366 -199h4v123q0 26 16 41t42 15h729q28 0 43.5 -15.5t15.5 -40.5t-15 -40t-44 -15h-658q-12 0 -12 -12v-496q0 -12 12 -12h562q29 0 44 -15t15 -40
t-15.5 -40.5t-43.5 -15.5h-562q-12 0 -12 -12v-516q0 -12 12 -12h658q28 0 43.5 -15.5t15.5 -40.5t-15 -40t-44 -15h-729q-27 0 -42.5 14.5t-15.5 40.5v123h-4q-101 -198 -366 -198zM995 696q0 267 -34 371q-78 236 -336 236q-260 0 -338 -236q-35 -107 -35 -371
q0 -263 35 -370q78 -236 338 -236q258 0 336 236q34 104 34 370z" />
    <glyph glyph-name="oe" unicode="&#x153;" horiz-adv-x="1712" 
d="M1208 -20q-246 0 -346 204h-2q-46 -99 -133.5 -151.5t-206.5 -52.5q-135 0 -229.5 66.5t-132.5 186.5q-35 107 -35 254q0 149 35 256q38 120 133 187t229 67q117 0 205.5 -54.5t134.5 -151.5h2q48 97 133.5 151.5t200.5 54.5q133 0 228.5 -66t134.5 -188q30 -91 30 -233
q0 -23 -14 -37t-37 -14h-608q-12 0 -12 -13q0 -109 20 -170q32 -95 103 -142.5t173 -47.5q157 0 265 111q20 20 41 20q22 0 35.5 -13.5t13.5 -33.5q0 -21 -13 -37q-122 -153 -348 -153zM930 559h534q13 0 13 12q0 78 -19 140q-29 90 -97.5 137t-164.5 47t-163.5 -47
t-96.5 -137q-18 -59 -18 -140q0 -12 12 -12zM520 86q98 0 164 48t94 136q29 89 29 217q0 131 -29 220q-28 88 -94 136t-164 48q-96 0 -162 -48t-94 -136q-28 -86 -28 -220q0 -131 28 -217q28 -88 94 -136t162 -48z" />
    <glyph glyph-name="Racute" unicode="&#x154;" horiz-adv-x="1259" 
d="M1044 -8q-34 0 -55 37l-289 594h-18h-360q-13 0 -13 -13v-555q0 -30 -16 -46.5t-43 -16.5q-26 0 -41.5 16.5t-15.5 46.5v1282q0 26 15.5 41t41.5 15h432q196 0 309 -103t113 -282q0 -145 -76 -241.5t-211 -129.5l279 -561q6 -15 6 -29q0 -23 -15.5 -39t-42.5 -16z
M680 733q150 0 228.5 71t78.5 204t-78.5 203.5t-228.5 70.5h-358q-13 0 -13 -12v-525q0 -12 13 -12h358zM764 1749l-148 -170q-20 -23 -41 -23q-20 0 -33.5 14t-13.5 34q0 16 15 34l147 174q16 19 37 19t35 -14t14 -35q0 -18 -12 -33z" />
    <glyph glyph-name="racute" unicode="&#x155;" horiz-adv-x="798" 
d="M244 -8q-26 0 -41 15t-15 44v875q0 28 15 43.5t41 15.5q25 0 40 -15t15 -44v-95h2q29 76 96 121t160 45q95 0 168 -43q33 -18 33 -49q0 -23 -16 -39t-40 -16q-13 0 -28 6q-79 35 -137 35q-83 0 -137.5 -45.5t-77.5 -117.5t-23 -167v-510q0 -29 -15 -44t-40 -15zM449 1157
q-14 -22 -37 -22q-22 0 -34.5 12.5t-12.5 32.5q0 13 10 30l127 205q17 27 43 27q21 0 34 -13t13 -32q0 -16 -10 -33z" />
    <glyph glyph-name="Rcommaaccent" unicode="&#x156;" horiz-adv-x="1259" 
d="M1044 -8q-34 0 -55 37l-289 594h-18h-360q-13 0 -13 -13v-555q0 -30 -16 -46.5t-43 -16.5q-26 0 -41.5 16.5t-15.5 46.5v1282q0 26 15.5 41t41.5 15h432q196 0 309 -103t113 -282q0 -145 -76 -241.5t-211 -129.5l279 -561q6 -15 6 -29q0 -23 -15.5 -39t-42.5 -16z
M680 733q150 0 228.5 71t78.5 204t-78.5 203.5t-228.5 70.5h-358q-13 0 -13 -12v-525q0 -12 13 -12h358zM639 -354q-12 -45 -53 -45q-25 0 -41.5 15t-16.5 38q0 8 4 24l56 175q12 45 53 45q25 0 41 -15.5t16 -38.5q0 -8 -4 -24z" />
    <glyph glyph-name="rcommaaccent" unicode="&#x157;" horiz-adv-x="798" 
d="M244 -8q-26 0 -41 15t-15 44v875q0 28 15 43.5t41 15.5q25 0 40 -15t15 -44v-95h2q29 76 96 121t160 45q95 0 168 -43q33 -18 33 -49q0 -23 -16 -39t-40 -16q-13 0 -28 6q-79 35 -137 35q-83 0 -137.5 -45.5t-77.5 -117.5t-23 -167v-510q0 -29 -15 -44t-40 -15zM240 -354
q-12 -45 -54 -45q-25 0 -41 15t-16 38q0 8 4 24l55 175q12 45 54 45q25 0 41 -15.5t16 -38.5q0 -8 -4 -24z" />
    <glyph glyph-name="Rcaron" unicode="&#x158;" horiz-adv-x="1259" 
d="M1044 -8q-34 0 -55 37l-289 594h-18h-360q-13 0 -13 -13v-555q0 -30 -16 -46.5t-43 -16.5q-26 0 -41.5 16.5t-15.5 46.5v1282q0 26 15.5 41t41.5 15h432q196 0 309 -103t113 -282q0 -145 -76 -241.5t-211 -129.5l279 -561q6 -15 6 -29q0 -23 -15.5 -39t-42.5 -16z
M680 733q150 0 228.5 71t78.5 204t-78.5 203.5t-228.5 70.5h-358q-13 0 -13 -12v-525q0 -12 13 -12h358zM586 1536q-21 0 -35.5 10t-34.5 35l-147 193q-11 15 -11 28q0 15 11 26t28 11q20 0 35 -18l152 -185h4l151 185q15 18 35 18q17 0 28 -11t11 -26t-10 -28l-148 -193
q-20 -25 -34 -35t-35 -10z" />
    <glyph glyph-name="rcaron" unicode="&#x159;" horiz-adv-x="798" 
d="M244 -8q-26 0 -41 15t-15 44v875q0 28 15 43.5t41 15.5q25 0 40 -15t15 -44v-95h2q29 76 96 121t160 45q95 0 168 -43q33 -18 33 -49q0 -23 -16 -39t-40 -16q-13 0 -28 6q-79 35 -137 35q-83 0 -137.5 -45.5t-77.5 -117.5t-23 -167v-510q0 -29 -15 -44t-40 -15zM457 1135
q-21 0 -35.5 10t-34.5 35l-147 192q-11 15 -11 29q0 15 11 26t28 11q19 0 35 -19l152 -184h4l151 184q16 19 35 19q17 0 28 -11t11 -26q0 -16 -10 -29l-148 -192q-20 -25 -34 -35t-35 -10z" />
    <glyph glyph-name="Sacute" unicode="&#x15a;" horiz-adv-x="1214" 
d="M590 -20q-121 0 -232.5 38t-195.5 97q-31 22 -31 55q0 23 17 40t42 17q22 0 43 -14q186 -123 371 -123q166 0 263.5 78t97.5 207q0 111 -75.5 178.5t-258.5 91.5l-66 8q-201 26 -300 120t-99 249q0 181 118.5 286t317.5 105q210 0 359 -92q38 -23 38 -57
q0 -23 -15.5 -39.5t-39.5 -16.5q-15 0 -41 13q-151 82 -305 82q-149 0 -232 -74.5t-83 -196.5q0 -111 76.5 -177t250.5 -89l64 -8q407 -52 407 -375q0 -183 -127 -293t-364 -110zM784 1749l-147 -170q-20 -23 -41 -23q-20 0 -33.5 14t-13.5 34q0 17 14 34l148 174
q16 19 37 19t35 -14t14 -35q0 -17 -13 -33z" />
    <glyph glyph-name="sacute" unicode="&#x15b;" horiz-adv-x="985" 
d="M494 -20q-102 0 -194 32t-159 82q-24 18 -24 47q0 22 15 37t38 15q18 0 37 -13q138 -98 297 -98q124 0 189 51t65 137q0 79 -46.5 118.5t-176.5 53.5l-101 11q-136 14 -209 79.5t-73 178.5q0 134 92 210t252 76q162 0 290 -73q35 -20 35 -52q0 -20 -13.5 -34.5
t-33.5 -14.5q-19 0 -41 11q-50 27 -117.5 44t-126.5 17q-111 0 -169 -45.5t-58 -128.5q0 -73 51 -112.5t172 -51.5l101 -10q282 -30 282 -264q0 -140 -97.5 -221.5t-276.5 -81.5zM522 1157q-14 -22 -37 -22q-22 0 -34.5 12.5t-12.5 32.5q0 12 11 30l126 205q17 27 43 27
q21 0 34.5 -13t13.5 -32q0 -15 -11 -33z" />
    <glyph glyph-name="Scircumflex" unicode="&#x15c;" horiz-adv-x="1214" 
d="M590 -20q-121 0 -232.5 38t-195.5 97q-31 22 -31 55q0 23 17 40t42 17q22 0 43 -14q186 -123 371 -123q166 0 263.5 78t97.5 207q0 111 -75.5 178.5t-258.5 91.5l-66 8q-201 26 -300 120t-99 249q0 181 118.5 286t317.5 105q210 0 359 -92q38 -23 38 -57
q0 -23 -15.5 -39.5t-39.5 -16.5q-15 0 -41 13q-151 82 -305 82q-149 0 -232 -74.5t-83 -196.5q0 -111 76.5 -177t250.5 -89l64 -8q407 -52 407 -375q0 -183 -127 -293t-364 -110zM786 1538q-19 0 -34 18l-152 185h-4l-152 -185q-15 -18 -34 -18q-17 0 -28 11t-11 26
q0 16 10 29l147 192q20 25 34.5 35t35.5 10t35.5 -10t34.5 -35l147 -192q10 -13 10 -29q0 -15 -11 -26t-28 -11z" />
    <glyph glyph-name="scircumflex" unicode="&#x15d;" horiz-adv-x="985" 
d="M494 -20q-102 0 -194 32t-159 82q-24 18 -24 47q0 22 15 37t38 15q18 0 37 -13q138 -98 297 -98q124 0 189 51t65 137q0 79 -46.5 118.5t-176.5 53.5l-101 11q-136 14 -209 79.5t-73 178.5q0 134 92 210t252 76q162 0 290 -73q35 -20 35 -52q0 -20 -13.5 -34.5
t-33.5 -14.5q-19 0 -41 11q-50 27 -117.5 44t-126.5 17q-111 0 -169 -45.5t-58 -128.5q0 -73 51 -112.5t172 -51.5l101 -10q282 -30 282 -264q0 -140 -97.5 -221.5t-276.5 -81.5zM684 1135q-20 0 -35 18l-151 184h-4l-152 -184q-15 -18 -35 -18q-17 0 -28 10.5t-11 25.5
q0 14 11 29l147 193q19 25 34 35t36 10t35.5 -9.5t33.5 -35.5l148 -193q10 -13 10 -29q0 -15 -11 -25.5t-28 -10.5z" />
    <glyph glyph-name="Scedilla" unicode="&#x15e;" horiz-adv-x="1214" 
d="M578 -276q-12 -39 -50 -39q-21 0 -35 13t-14 36q0 15 6 30l80 216q-115 4 -220.5 41.5t-182.5 93.5q-31 22 -31 55q0 23 17 40t42 17q22 0 43 -14q186 -123 371 -123q166 0 263.5 78t97.5 207q0 111 -75.5 178.5t-258.5 91.5l-66 8q-201 26 -300 120t-99 249
q0 181 118.5 286t317.5 105q210 0 359 -92q38 -23 38 -57q0 -23 -15.5 -39.5t-39.5 -16.5q-15 0 -41 13q-151 82 -305 82q-149 0 -232 -74.5t-83 -196.5q0 -111 76.5 -177t250.5 -89l64 -8q407 -52 407 -375q0 -167 -106.5 -274t-306.5 -125z" />
    <glyph glyph-name="scedilla" unicode="&#x15f;" horiz-adv-x="985" 
d="M469 -276q-12 -39 -49 -39q-21 0 -35 13t-14 36q0 15 6 30l80 216q-180 11 -316 114q-24 18 -24 47q0 22 15 37t38 15q18 0 37 -13q138 -98 297 -98q124 0 189 51t65 137q0 79 -46.5 118.5t-176.5 53.5l-101 11q-136 14 -209 79.5t-73 178.5q0 134 92 210t252 76
q162 0 290 -73q35 -20 35 -52q0 -20 -13.5 -34.5t-33.5 -14.5q-19 0 -41 11q-50 27 -117.5 44t-126.5 17q-111 0 -169 -45.5t-58 -128.5q0 -73 51 -112.5t172 -51.5l101 -10q282 -30 282 -264q0 -126 -78.5 -206t-230.5 -95z" />
    <glyph glyph-name="Scaron" unicode="&#x160;" horiz-adv-x="1214" 
d="M590 -20q-121 0 -232.5 38t-195.5 97q-31 22 -31 55q0 23 17 40t42 17q22 0 43 -14q186 -123 371 -123q166 0 263.5 78t97.5 207q0 111 -75.5 178.5t-258.5 91.5l-66 8q-201 26 -300 120t-99 249q0 181 118.5 286t317.5 105q210 0 359 -92q38 -23 38 -57
q0 -23 -15.5 -39.5t-39.5 -16.5q-15 0 -41 13q-151 82 -305 82q-149 0 -232 -74.5t-83 -196.5q0 -111 76.5 -177t250.5 -89l64 -8q407 -52 407 -375q0 -183 -127 -293t-364 -110zM604 1536q-21 0 -35 10t-34 35l-148 193q-10 13 -10 28t11 26t28 11q20 0 35 -18l151 -185h4
l152 185q15 18 35 18q17 0 27.5 -11t10.5 -26t-10 -28l-147 -193q-20 -25 -34.5 -35t-35.5 -10z" />
    <glyph glyph-name="scaron" unicode="&#x161;" horiz-adv-x="985" 
d="M494 -20q-102 0 -194 32t-159 82q-24 18 -24 47q0 22 15 37t38 15q18 0 37 -13q138 -98 297 -98q124 0 189 51t65 137q0 79 -46.5 118.5t-176.5 53.5l-101 11q-136 14 -209 79.5t-73 178.5q0 134 92 210t252 76q162 0 290 -73q35 -20 35 -52q0 -20 -13.5 -34.5
t-33.5 -14.5q-19 0 -41 11q-50 27 -117.5 44t-126.5 17q-111 0 -169 -45.5t-58 -128.5q0 -73 51 -112.5t172 -51.5l101 -10q282 -30 282 -264q0 -140 -97.5 -221.5t-276.5 -81.5zM496 1135q-21 0 -35.5 10t-34.5 35l-147 192q-11 15 -11 29q0 15 11 26t28 11q19 0 35 -19
l152 -184h4l151 184q16 19 35 19q17 0 28 -11t11 -26q0 -16 -10 -29l-148 -192q-20 -25 -34 -35t-35 -10z" />
    <glyph glyph-name="Tcommaaccent" unicode="&#x162;" horiz-adv-x="1071" 
d="M535 -8q-26 0 -42 16.5t-16 46.5v1215q0 12 -12 12h-369q-29 0 -44 15t-15 40t15.5 40.5t43.5 15.5h879q29 0 44 -15.5t15 -40.5t-15 -40t-44 -15h-369q-12 0 -12 -12v-1215q0 -30 -16 -46.5t-43 -16.5zM530 -354q-12 -45 -53 -45q-25 0 -41 15t-16 38q0 8 4 24l55 175
q12 45 53 45q25 0 41.5 -15.5t16.5 -38.5q0 -8 -4 -24z" />
    <glyph glyph-name="tcommaaccent" unicode="&#x163;" horiz-adv-x="636" 
d="M494 -6h-27q-136 0 -193 59t-57 203v610q0 13 -12 13h-80q-26 0 -39.5 13.5t-13.5 35.5t13.5 35.5t39.5 13.5h80q12 0 12 12v250q0 29 15 44t40 15q26 0 41 -15t15 -44v-250q0 -12 12 -12h156q26 0 39.5 -13.5t13.5 -35.5t-13.5 -35.5t-39.5 -13.5h-156q-12 0 -12 -13
v-606q0 -95 35 -127.5t131 -32.5q27 0 42 -14.5t15 -38.5t-15 -38.5t-42 -14.5zM379 -354q-12 -45 -53 -45q-25 0 -41.5 15t-16.5 38q0 8 4 24l56 175q12 45 53 45q25 0 41 -15.5t16 -38.5q0 -8 -4 -24z" />
    <glyph glyph-name="Tcaron" unicode="&#x164;" horiz-adv-x="1071" 
d="M535 -8q-26 0 -42 16.5t-16 46.5v1215q0 12 -12 12h-369q-29 0 -44 15t-15 40t15.5 40.5t43.5 15.5h879q29 0 44 -15.5t15 -40.5t-15 -40t-44 -15h-369q-12 0 -12 -12v-1215q0 -30 -16 -46.5t-43 -16.5zM535 1536q-21 0 -35.5 10t-34.5 35l-148 193q-10 13 -10 28t11 26
t28 11q20 0 35 -18l151 -185h5l151 185q15 18 35 18q17 0 28 -11t11 -26t-10 -28l-148 -193q-20 -25 -34 -35t-35 -10z" />
    <glyph glyph-name="tcaron" unicode="&#x165;" horiz-adv-x="636" 
d="M494 -6h-27q-136 0 -193 59t-57 203v610q0 13 -12 13h-80q-26 0 -39.5 13.5t-13.5 35.5t13.5 35.5t39.5 13.5h80q12 0 12 12v250q0 29 15 44t40 15q26 0 41 -15t15 -44v-250q0 -12 12 -12h156q26 0 39.5 -13.5t13.5 -35.5t-13.5 -35.5t-39.5 -13.5h-156q-12 0 -12 -13
v-606q0 -95 35 -127.5t131 -32.5q27 0 42 -14.5t15 -38.5t-15 -38.5t-42 -14.5zM557 1139q-15 -43 -53 -43q-23 0 -38 14t-15 37q0 12 4 24l59 187q15 43 53 43q25 0 40.5 -14.5t15.5 -36.5q0 -10 -5 -25z" />
    <glyph glyph-name="Tbar" unicode="&#x166;" horiz-adv-x="1071" 
d="M465 819h-186q-27 0 -42.5 13.5t-15.5 37.5t15.5 38t42.5 14h186q12 0 12 14v334q0 12 -12 12h-369q-29 0 -44 15t-15 40t15.5 40.5t43.5 15.5h879q29 0 44 -15.5t15 -40.5t-15 -40t-44 -15h-369q-12 0 -12 -12v-334q0 -14 12 -14h187q27 0 42 -14t15 -38t-15 -37.5
t-42 -13.5h-187q-12 0 -12 -12v-752q0 -30 -16 -46.5t-43 -16.5q-26 0 -42 16.5t-16 46.5v752q0 12 -12 12z" />
    <glyph glyph-name="tbar" unicode="&#x167;" horiz-adv-x="636" 
d="M494 -6h-27q-136 0 -193 59t-57 203v348q0 12 -12 12h-62q-24 0 -37.5 13t-13.5 35q0 47 51 47h62q12 0 12 12v143q0 13 -12 13h-80q-26 0 -39.5 13.5t-13.5 35.5t13.5 35.5t39.5 13.5h80q12 0 12 12v250q0 29 15 44t40 15q26 0 41 -15t15 -44v-250q0 -12 12 -12h156
q26 0 39.5 -13.5t13.5 -35.5t-13.5 -35.5t-39.5 -13.5h-156q-12 0 -12 -13v-143q0 -12 12 -12h131q51 0 51 -47q0 -22 -13.5 -35t-37.5 -13h-131q-12 0 -12 -12v-344q0 -95 35 -127.5t131 -32.5q27 0 42 -14.5t15 -38.5t-15 -38.5t-42 -14.5z" />
    <glyph glyph-name="Utilde" unicode="&#x168;" horiz-adv-x="1300" 
d="M649 -20q-221 0 -346 126t-125 375v856q0 30 16.5 47t43.5 17q25 0 41 -17t16 -47v-858q0 -193 92.5 -291t261.5 -98q171 0 264 98t93 291v858q0 30 16 47t41 17q27 0 43 -17t16 -47v-856q0 -249 -125 -375t-348 -126zM760 1597q-57 0 -125 45q-59 39 -94 39
q-24 0 -40.5 -11.5t-37.5 -41.5q-15 -24 -41 -24q-19 0 -31 11t-12 30q0 15 8 28q62 101 154 101q57 0 125 -45q59 -39 94 -39q24 0 40.5 11.5t37.5 41.5q15 24 41 24q19 0 31 -11t12 -30q0 -13 -9 -28q-62 -101 -153 -101z" />
    <glyph glyph-name="utilde" unicode="&#x169;" horiz-adv-x="1095" 
d="M852 -8q-25 0 -40 15t-15 44v68h-2q-87 -139 -285 -139q-161 0 -249.5 97t-88.5 275v574q0 29 15 44t40 15t40.5 -15.5t15.5 -43.5v-547q0 -293 252 -293q113 0 187.5 74.5t74.5 197.5v568q0 29 15 44t40 15t40 -15t15 -44v-875q0 -29 -15 -44t-40 -15zM657 1219
q-57 0 -125 45q-59 39 -94 39q-24 0 -40.5 -12t-37.5 -42q-15 -24 -41 -24q-19 0 -31 11t-12 30q0 13 9 28q62 101 153 101q57 0 125 -45q59 -39 94 -39q24 0 40.5 11.5t37.5 41.5q16 25 41 25q19 0 31 -11t12 -30q0 -16 -8 -29q-61 -100 -154 -100z" />
    <glyph glyph-name="Umacron" unicode="&#x16a;" horiz-adv-x="1300" 
d="M649 -20q-221 0 -346 126t-125 375v856q0 30 16.5 47t43.5 17q25 0 41 -17t16 -47v-858q0 -193 92.5 -291t261.5 -98q171 0 264 98t93 291v858q0 30 16 47t41 17q27 0 43 -17t16 -47v-856q0 -249 -125 -375t-348 -126zM877 1638h-455q-23 0 -37 13.5t-14 34.5t14 34
t37 13h455q23 0 37 -13t14 -34t-14 -34.5t-37 -13.5z" />
    <glyph glyph-name="umacron" unicode="&#x16b;" horiz-adv-x="1095" 
d="M852 -8q-25 0 -40 15t-15 44v68h-2q-87 -139 -285 -139q-161 0 -249.5 97t-88.5 275v574q0 29 15 44t40 15t40.5 -15.5t15.5 -43.5v-547q0 -293 252 -293q113 0 187.5 74.5t74.5 197.5v568q0 29 15 44t40 15t40 -15t15 -44v-875q0 -29 -15 -44t-40 -15zM774 1266h-455
q-23 0 -37 13t-14 34t14 34t37 13h455q23 0 37 -13t14 -34t-14 -34t-37 -13z" />
    <glyph glyph-name="Ubreve" unicode="&#x16c;" horiz-adv-x="1300" 
d="M649 -20q-221 0 -346 126t-125 375v856q0 30 16.5 47t43.5 17q25 0 41 -17t16 -47v-858q0 -193 92.5 -291t261.5 -98q171 0 264 98t93 291v858q0 30 16 47t41 17q27 0 43 -17t16 -47v-856q0 -249 -125 -375t-348 -126zM649 1573q-110 0 -181 63.5t-71 137.5q0 16 10.5 26
t28.5 10q32 0 43 -38q40 -109 170 -109t170 109q11 38 43 38q18 0 28.5 -10t10.5 -26q0 -74 -71 -137.5t-181 -63.5z" />
    <glyph glyph-name="ubreve" unicode="&#x16d;" horiz-adv-x="1095" 
d="M852 -8q-25 0 -40 15t-15 44v68h-2q-87 -139 -285 -139q-161 0 -249.5 97t-88.5 275v574q0 29 15 44t40 15t40.5 -15.5t15.5 -43.5v-547q0 -293 252 -293q113 0 187.5 74.5t74.5 197.5v568q0 29 15 44t40 15t40 -15t15 -44v-875q0 -29 -15 -44t-40 -15zM547 1167
q-110 0 -181 63.5t-71 137.5q0 16 10.5 26.5t28.5 10.5q31 0 43 -39q40 -109 170 -109t170 109q12 39 43 39q18 0 28.5 -10.5t10.5 -26.5q0 -74 -71 -137.5t-181 -63.5z" />
    <glyph glyph-name="Uring" unicode="&#x16e;" horiz-adv-x="1300" 
d="M649 -20q-221 0 -346 126t-125 375v856q0 30 16.5 47t43.5 17q25 0 41 -17t16 -47v-858q0 -193 92.5 -291t261.5 -98q171 0 264 98t93 291v858q0 30 16 47t41 17q27 0 43 -17t16 -47v-856q0 -249 -125 -375t-348 -126zM827 1692q0 -78 -51 -129.5t-129 -51.5t-129 51.5
t-51 129.5t51 129t129 51t129 -51t51 -129zM756 1692q0 50 -30 82t-79 32t-78.5 -32t-29.5 -82t29.5 -82.5t78.5 -32.5t79 32.5t30 82.5z" />
    <glyph glyph-name="uring" unicode="&#x16f;" horiz-adv-x="1095" 
d="M852 -8q-25 0 -40 15t-15 44v68h-2q-87 -139 -285 -139q-161 0 -249.5 97t-88.5 275v574q0 29 15 44t40 15t40.5 -15.5t15.5 -43.5v-547q0 -293 252 -293q113 0 187.5 74.5t74.5 197.5v568q0 29 15 44t40 15t40 -15t15 -44v-875q0 -29 -15 -44t-40 -15zM727 1288
q0 -78 -51 -129t-129 -51t-129 51t-51 129t51 129t129 51t129 -51t51 -129zM655 1288q0 50 -29.5 82.5t-78.5 32.5t-79 -32.5t-30 -82.5t30 -82t79 -32t78.5 32t29.5 82z" />
    <glyph glyph-name="Uhungarumlaut" unicode="&#x170;" horiz-adv-x="1300" 
d="M649 -20q-221 0 -346 126t-125 375v856q0 30 16.5 47t43.5 17q25 0 41 -17t16 -47v-858q0 -193 92.5 -291t261.5 -98q171 0 264 98t93 291v858q0 30 16 47t41 17q27 0 43 -17t16 -47v-856q0 -249 -125 -375t-348 -126zM813 1573q-18 -25 -41 -25q-19 0 -32 12.5t-13 32.5
q0 17 12 35l117 172q19 25 43 25q20 0 33.5 -12.5t13.5 -32.5q0 -17 -12 -35zM561 1573q-18 -25 -41 -25q-19 0 -32 12.5t-13 32.5q0 17 12 35l117 172q19 25 43 25q20 0 33.5 -12.5t13.5 -32.5q0 -17 -12 -35z" />
    <glyph glyph-name="uhungarumlaut" unicode="&#x171;" horiz-adv-x="1095" 
d="M852 -8q-25 0 -40 15t-15 44v68h-2q-87 -139 -285 -139q-161 0 -249.5 97t-88.5 275v574q0 29 15 44t40 15t40.5 -15.5t15.5 -43.5v-547q0 -293 252 -293q113 0 187.5 74.5t74.5 197.5v568q0 29 15 44t40 15t40 -15t15 -44v-875q0 -29 -15 -44t-40 -15zM721 1169
q-18 -30 -47 -30q-19 0 -32 12t-13 31q0 17 8 30l117 197q19 31 47 31q20 0 33.5 -12t13.5 -31q0 -18 -8 -31zM461 1169q-18 -30 -47 -30q-19 0 -32 12t-13 31q0 17 8 30l117 197q19 31 47 31q20 0 33.5 -12t13.5 -31q0 -18 -8 -31z" />
    <glyph glyph-name="Uogonek" unicode="&#x172;" horiz-adv-x="1300" 
d="M516 -213q0 46 19.5 90t72.5 105q-204 11 -317 138t-113 359v858q0 30 16.5 47t43.5 17q25 0 41 -17t16 -47v-858q0 -192 91.5 -290.5t262.5 -98.5t264 99t93 290v858q0 30 16 47t41 17q27 0 43 -17t16 -47v-858q0 -217 -101 -342.5t-284 -150.5q-121 -107 -121 -185
q0 -27 16.5 -42t43.5 -15q23 0 43 10q16 8 26 8q20 0 31.5 -13t11.5 -32q0 -23 -22 -39q-45 -30 -107 -30q-65 0 -104 37t-39 102z" />
    <glyph glyph-name="uogonek" unicode="&#x173;" horiz-adv-x="1095" 
d="M625 -213q0 60 40 117t132 123v92h-2q-87 -139 -285 -139q-161 0 -249.5 97t-88.5 275v574q0 29 15 44t40 15t40.5 -15.5t15.5 -43.5v-547q0 -293 252 -293q113 0 187.5 74.5t74.5 197.5v568q0 29 15 44t40 15t40 -15t15 -44v-875q0 -27 -8 -40t-35 -34
q-139 -108 -139 -176q0 -27 16 -42t43 -15q23 0 43 10q16 8 27 8q20 0 31.5 -13t11.5 -32q0 -22 -23 -39q-45 -30 -106 -30q-65 0 -104 37t-39 102z" />
    <glyph glyph-name="Wcircumflex" unicode="&#x174;" horiz-adv-x="1673" 
d="M1221 -8q-27 0 -42 15t-24 50l-315 1104h-4l-318 -1104q-9 -35 -23.5 -50t-41.5 -15t-42 14.5t-24 50.5l-313 1268q-2 10 -2 21q0 23 14.5 39t40.5 16q45 0 57 -45l273 -1131h4l309 1110q18 66 68 66q47 0 65 -66l316 -1110h4l266 1131q12 45 57 45q26 0 41 -16t15 -39
q0 -9 -5 -29l-311 -1260q-9 -36 -23.5 -50.5t-41.5 -14.5zM1024 1538q-20 0 -35 18l-151 185h-4l-152 -185q-15 -18 -35 -18q-17 0 -28 11t-11 26q0 16 10 29l148 192q20 25 34.5 35t35.5 10t35 -10t34 -35l148 -192q10 -13 10 -29q0 -15 -11 -26t-28 -11z" />
    <glyph glyph-name="wcircumflex" unicode="&#x175;" horiz-adv-x="1503" 
d="M1063 -8q-25 0 -41.5 14.5t-26.5 48.5l-241 746h-2l-244 -746q-10 -34 -26.5 -48.5t-41.5 -14.5t-41 14t-26 49l-283 852q-4 12 -4 25q0 23 14 38t39 15q41 0 56 -47l247 -762h2l242 744q10 35 25.5 50t40.5 15t40 -15t25 -50l248 -744h2l242 762q15 47 55 47
q25 0 39 -15t14 -38q0 -13 -4 -25l-283 -852q-10 -35 -26 -49t-41 -14zM940 1135q-20 0 -35 18l-151 184h-4l-152 -184q-15 -18 -35 -18q-17 0 -28 10.5t-11 25.5q0 14 11 29l147 193q19 25 34 35t36 10t35.5 -9.5t33.5 -35.5l148 -193q10 -13 10 -29q0 -15 -11 -25.5
t-28 -10.5z" />
    <glyph glyph-name="Ycircumflex" unicode="&#x176;" horiz-adv-x="1038" 
d="M518 -8q-26 0 -41.5 16.5t-15.5 46.5v516l-400 746q-8 16 -8 31q0 22 16.5 37.5t41.5 15.5q32 0 51 -31l358 -659h6l353 659q15 31 51 31q24 0 39.5 -15.5t15.5 -37.5q0 -15 -8 -31l-399 -746v-516q0 -30 -16.5 -46.5t-43.5 -16.5zM707 1538q-20 0 -35 18l-152 185h-4
l-151 -185q-15 -18 -35 -18q-17 0 -28 11t-11 26q0 16 10 29l148 192q20 25 34 35t35 10t35.5 -10t34.5 -35l147 -192q10 -13 10 -29q0 -15 -10.5 -26t-27.5 -11z" />
    <glyph glyph-name="ycircumflex" unicode="&#x177;" horiz-adv-x="958" 
d="M213 -369h-16q-27 0 -42.5 15t-15.5 39t15.5 38.5t42.5 14.5q72 0 110.5 35.5t81.5 148.5l39 98l-346 887q-4 12 -4 27q0 21 15.5 36t39.5 15q39 0 53 -41l297 -772h2l289 772q14 41 53 41q24 0 39 -15t15 -36q0 -15 -4 -27l-385 -1001q-62 -164 -122 -219.5t-157 -55.5z
M668 1135q-20 0 -35 18l-152 184h-4l-151 -184q-15 -18 -35 -18q-17 0 -28 10.5t-11 25.5q0 16 10 29l148 193q19 26 33.5 35.5t35.5 9.5t36 -10t34 -35l147 -193q11 -15 11 -29q0 -15 -11 -25.5t-28 -10.5z" />
    <glyph glyph-name="Ydieresis" unicode="&#x178;" horiz-adv-x="1038" 
d="M518 -8q-26 0 -41.5 16.5t-15.5 46.5v516l-400 746q-8 16 -8 31q0 22 16.5 37.5t41.5 15.5q32 0 51 -31l358 -659h6l353 659q15 31 51 31q24 0 39.5 -15.5t15.5 -37.5q0 -15 -8 -31l-399 -746v-516q0 -30 -16.5 -46.5t-43.5 -16.5zM723 1610q-32 0 -55 23t-23 55t23 55.5
t55 23.5t55 -23.5t23 -55.5t-23 -55t-55 -23zM315 1610q-32 0 -54.5 23t-22.5 55t22.5 55.5t54.5 23.5t56 -23.5t24 -55.5t-24 -55t-56 -23z" />
    <glyph glyph-name="Zacute" unicode="&#x179;" horiz-adv-x="1105" 
d="M944 0h-782q-28 0 -45 15.5t-17 41.5q0 34 29 78l729 1145v2h-672q-29 0 -44 15t-15 40t15.5 40.5t43.5 15.5h754q28 0 46 -16t18 -42q0 -30 -29 -78l-729 -1144v-2h698q29 0 44.5 -15.5t15.5 -40.5t-15.5 -40t-44.5 -15zM721 1749l-148 -170q-20 -23 -41 -23
q-20 0 -33.5 14t-13.5 34q0 16 15 34l147 174q16 19 37 19t35 -14t14 -35q0 -18 -12 -33z" />
    <glyph glyph-name="zacute" unicode="&#x17a;" horiz-adv-x="931" 
d="M780 0h-626q-27 0 -42.5 14.5t-15.5 38.5q0 30 33 72l563 741v4h-512q-27 0 -42 15t-15 39t15 38.5t42 14.5h600q27 0 42.5 -14.5t15.5 -38.5q0 -28 -33 -72l-563 -741v-5h538q27 0 42.5 -14.5t15.5 -38.5t-15.5 -38.5t-42.5 -14.5zM494 1157q-14 -22 -37 -22
q-22 0 -34.5 12.5t-12.5 32.5q0 13 10 30l127 205q17 27 43 27q21 0 34 -13t13 -32q0 -16 -10 -33z" />
    <glyph glyph-name="Zdotaccent" unicode="&#x17b;" horiz-adv-x="1105" 
d="M944 0h-782q-28 0 -45 15.5t-17 41.5q0 34 29 78l729 1145v2h-672q-29 0 -44 15t-15 40t15.5 40.5t43.5 15.5h754q28 0 46 -16t18 -42q0 -30 -29 -78l-729 -1144v-2h698q29 0 44.5 -15.5t15.5 -40.5t-15.5 -40t-44.5 -15zM553 1599q-35 0 -60.5 26t-25.5 61t25.5 60.5
t60.5 25.5t60.5 -25.5t25.5 -60.5t-25.5 -61t-60.5 -26z" />
    <glyph glyph-name="zdotaccent" unicode="&#x17c;" horiz-adv-x="931" 
d="M780 0h-626q-27 0 -42.5 14.5t-15.5 38.5q0 30 33 72l563 741v4h-512q-27 0 -42 15t-15 39t15 38.5t42 14.5h600q27 0 42.5 -14.5t15.5 -38.5q0 -28 -33 -72l-563 -741v-5h538q27 0 42.5 -14.5t15.5 -38.5t-15.5 -38.5t-42.5 -14.5zM471 1229q-35 0 -60.5 25.5
t-25.5 60.5t25.5 60.5t60.5 25.5t60.5 -25.5t25.5 -60.5t-25.5 -60.5t-60.5 -25.5z" />
    <glyph glyph-name="Zcaron" unicode="&#x17d;" horiz-adv-x="1105" 
d="M944 0h-782q-28 0 -45 15.5t-17 41.5q0 34 29 78l729 1145v2h-672q-29 0 -44 15t-15 40t15.5 40.5t43.5 15.5h754q28 0 46 -16t18 -42q0 -30 -29 -78l-729 -1144v-2h698q29 0 44.5 -15.5t15.5 -40.5t-15.5 -40t-44.5 -15zM553 1536q-21 0 -35.5 10t-34.5 35l-147 193
q-10 13 -10 28t11 26t28 11q19 0 34 -18l152 -185h4l152 185q15 18 34 18q17 0 28 -11t11 -26t-10 -28l-147 -193q-20 -25 -34.5 -35t-35.5 -10z" />
    <glyph glyph-name="zcaron" unicode="&#x17e;" horiz-adv-x="931" 
d="M780 0h-626q-27 0 -42.5 14.5t-15.5 38.5q0 30 33 72l563 741v4h-512q-27 0 -42 15t-15 39t15 38.5t42 14.5h600q27 0 42.5 -14.5t15.5 -38.5q0 -28 -33 -72l-563 -741v-5h538q27 0 42.5 -14.5t15.5 -38.5t-15.5 -38.5t-42.5 -14.5zM467 1135q-21 0 -35.5 10t-34.5 35
l-147 192q-10 13 -10 29q0 15 11 26t28 11q18 0 34 -19l152 -184h4l152 184q16 19 34 19q17 0 28 -11t11 -26q0 -16 -10 -29l-147 -192q-20 -25 -34.5 -35t-35.5 -10z" />
    <glyph glyph-name="florin" unicode="&#x192;" 
d="M823 711h-194l-123 -789q-26 -164 -92.5 -227.5t-204.5 -63.5h-12q-27 0 -41.5 15t-14.5 39t14.5 38.5t41.5 14.5q99 0 141 37t59 141l123 795h-151q-26 0 -40 13.5t-14 35.5t14 35.5t40 13.5h168l45 293q26 163 93 227t204 64h12q27 0 42 -15t15 -39t-15 -38.5
t-42 -14.5q-99 0 -141.5 -37t-59.5 -141l-47 -299h180q26 0 40 -13.5t14 -35.5t-14 -35.5t-40 -13.5z" />
    <glyph glyph-name="Aringacute" unicode="&#x1fa;" horiz-adv-x="1220" 
d="M649 1618q-15 -12 -35 -12q-18 0 -30.5 12.5t-12.5 30.5q0 23 19 39l149 131q15 12 35 12q19 0 33 -12.5t14 -32.5q0 -26 -22 -43zM793 1374q0 -97 -78 -151l426 -1155q4 -12 4 -23q0 -24 -15.5 -38.5t-39.5 -14.5q-43 0 -58 41l-121 329h-602l-121 -329q-15 -41 -57 -41
q-24 0 -39.5 14.5t-15.5 38.5q0 11 4 23l428 1157q-76 51 -76 149q0 78 51 129t129 51t129.5 -51t51.5 -129zM721 1374q0 50 -30 82.5t-79 32.5t-78.5 -32.5t-29.5 -82.5t29.5 -82t78.5 -32t79 32t30 82zM608 1171l-258 -696h520l-256 696h-6z" />
    <glyph glyph-name="aringacute" unicode="&#x1fb;" horiz-adv-x="1054" 
d="M586 1579q-20 -23 -41 -23q-20 0 -33.5 14t-13.5 34q0 17 14 34l141 170q15 19 37 19q21 0 35 -14t14 -35q0 -18 -12 -33zM934 76q8 -16 8 -31q0 -24 -15.5 -38.5t-41.5 -14.5q-34 0 -54 35l-47 77h-4q-57 -63 -128.5 -93.5t-182.5 -30.5q-146 0 -240 76.5t-94 211.5
q0 143 96 217t275 74h250q12 0 12 12v70q0 127 -57.5 189.5t-196.5 62.5q-120 0 -223 -62q-18 -12 -39 -12q-23 0 -37 14t-14 37q0 26 22 45q108 82 297 82q182 0 268 -84t86 -264v-395q0 -60 21 -104zM487 84q127 0 204 58.5t77 158.5v145q0 13 -12 13h-234
q-145 0 -210.5 -46t-65.5 -145q0 -91 61 -137.5t180 -46.5zM709 1288q0 -78 -51.5 -129t-129.5 -51t-129 51t-51 129t51 129t129 51t129.5 -51t51.5 -129zM637 1288q0 50 -30 82.5t-79 32.5t-78.5 -32.5t-29.5 -82.5t29.5 -82t78.5 -32t79 32t30 82z" />
    <glyph glyph-name="AEacute" unicode="&#x1fc;" horiz-adv-x="1908" 
d="M1749 0h-731q-25 0 -40 14.5t-15 40.5v295q0 12 -13 12h-559l-207 -337q-20 -33 -55 -33q-22 0 -37.5 15.5t-15.5 39.5q0 16 10 33l774 1261q17 29 34.5 40.5t45.5 11.5h809q29 0 44 -15.5t15 -40.5t-15 -40t-44 -15h-657q-13 0 -13 -12v-496q0 -12 13 -12h561
q29 0 44 -15t15 -40t-15 -40.5t-44 -15.5h-561q-13 0 -13 -12v-516q0 -12 13 -12h657q29 0 44 -15.5t15 -40.5t-15 -40t-44 -15zM956 1282l-497 -809h491q13 0 13 12v797h-7zM1257 1749l-147 -170q-20 -23 -41 -23q-20 0 -33.5 14t-13.5 34q0 17 14 34l148 174q16 19 37 19
t35 -14t14 -35q0 -17 -13 -33z" />
    <glyph glyph-name="aeacute" unicode="&#x1fd;" horiz-adv-x="1667" 
d="M1165 -20q-231 0 -331 174h-5q-60 -96 -148.5 -135t-211.5 -39q-146 0 -240 76.5t-94 211.5q0 143 96 217t275 74h250q12 0 12 12v70q0 127 -57.5 189.5t-196.5 62.5q-120 0 -223 -62q-18 -12 -39 -12q-23 0 -37 14t-14 37q0 26 22 45q108 82 297 82q245 0 318 -157h4
q102 157 311 157q133 0 228.5 -66t134.5 -188q30 -91 30 -233q0 -23 -14 -37t-37 -14h-608q-13 0 -13 -13q0 -108 21 -170q32 -95 103 -142.5t173 -47.5q157 0 265 111q20 20 41 20q22 0 35.5 -13.5t13.5 -33.5q0 -21 -13 -37q-122 -153 -348 -153zM887 559h534q13 0 13 12
q0 78 -19 140q-29 90 -97.5 137t-164.5 47t-163.5 -47t-96.5 -137q-19 -62 -19 -140q0 -12 13 -12zM487 84q127 0 204 58.5t77 158.5v145q0 13 -12 13h-234q-145 0 -210.5 -46t-65.5 -145q0 -91 61 -137.5t180 -46.5zM909 1157q-14 -22 -37 -22q-22 0 -34.5 12.5t-12.5 32.5
q0 12 11 30l127 205q17 27 43 27q21 0 34 -13t13 -32q0 -15 -11 -33z" />
    <glyph glyph-name="Oslashacute" unicode="&#x1fe;" horiz-adv-x="1247" 
d="M246 -43q-15 -27 -37 -27q-18 0 -29.5 10t-11.5 27q0 16 8 29l80 141q-56 69 -82 156q-21 62 -31 148.5t-10 254.5t10 255t31 149q51 154 166 233.5t285 79.5q189 0 305 -98l69 123q15 26 37 26q18 0 29.5 -10t11.5 -27q0 -15 -8 -28l-80 -144q54 -66 84 -155
q21 -62 31 -149t10 -255t-10 -254.5t-31 -148.5q-51 -154 -165 -233.5t-283 -79.5q-194 0 -310 98zM287 326q12 -37 35 -78l548 966q-95 89 -245 89q-260 0 -338 -236q-35 -107 -35 -371q0 -263 35 -370zM995 696q0 271 -34 371q-15 42 -35 76l-551 -963q93 -90 250 -90
q258 0 336 236q34 104 34 370zM805 1749l-148 -170q-20 -23 -41 -23q-20 0 -33.5 14t-13.5 34q0 16 15 34l147 174q16 19 37 19t35 -14t14 -35q0 -18 -12 -33z" />
    <glyph glyph-name="oslashacute" unicode="&#x1ff;" horiz-adv-x="1042" 
d="M170 -70q-14 0 -23.5 9t-9.5 24q0 12 8 25l80 121q-48 58 -67 124q-35 107 -35 254q0 149 35 256q38 120 133 187t229 67q148 0 246 -79l74 110q13 19 30 19q14 0 23.5 -9t9.5 -24q0 -12 -8 -25l-78 -121q43 -52 68 -125q35 -107 35 -256q0 -147 -35 -254
q-38 -120 -133.5 -186.5t-231.5 -66.5q-146 0 -248 79l-71 -110q-13 -19 -31 -19zM264 270q12 -38 29 -63l412 620q-70 64 -185 64q-96 0 -162 -48t-94 -136q-28 -86 -28 -220q0 -131 28 -217zM520 86q98 0 164 48t94 136q29 89 29 217q0 131 -29 220q-14 39 -28 63
l-414 -618q72 -66 184 -66zM559 1157q-14 -22 -37 -22q-22 0 -34.5 12.5t-12.5 32.5q0 13 10 30l127 205q17 27 43 27q21 0 34 -13t13 -32q0 -16 -10 -33z" />
    <glyph glyph-name="Scommaaccent" unicode="&#x218;" horiz-adv-x="1214" 
d="M590 -20q-121 0 -232.5 38t-195.5 97q-31 22 -31 55q0 23 17 40t42 17q22 0 43 -14q186 -123 371 -123q166 0 263.5 78t97.5 207q0 111 -75.5 178.5t-258.5 91.5l-66 8q-201 26 -300 120t-99 249q0 181 118.5 286t317.5 105q210 0 359 -92q38 -23 38 -57
q0 -23 -15.5 -39.5t-39.5 -16.5q-15 0 -41 13q-151 82 -305 82q-149 0 -232 -74.5t-83 -196.5q0 -111 76.5 -177t250.5 -89l64 -8q407 -52 407 -375q0 -183 -127 -293t-364 -110zM614 -354q-12 -45 -53 -45q-25 0 -41 15t-16 38q0 8 4 24l55 175q12 45 53 45
q25 0 41.5 -15.5t16.5 -38.5q0 -8 -4 -24z" />
    <glyph glyph-name="scommaaccent" unicode="&#x219;" horiz-adv-x="985" 
d="M494 -20q-102 0 -194 32t-159 82q-24 18 -24 47q0 22 15 37t38 15q18 0 37 -13q138 -98 297 -98q124 0 189 51t65 137q0 79 -46.5 118.5t-176.5 53.5l-101 11q-136 14 -209 79.5t-73 178.5q0 134 92 210t252 76q162 0 290 -73q35 -20 35 -52q0 -20 -13.5 -34.5
t-33.5 -14.5q-19 0 -41 11q-50 27 -117.5 44t-126.5 17q-111 0 -169 -45.5t-58 -128.5q0 -73 51 -112.5t172 -51.5l101 -10q282 -30 282 -264q0 -140 -97.5 -221.5t-276.5 -81.5zM498 -354q-12 -45 -54 -45q-25 0 -41 15t-16 38q0 8 4 24l55 175q12 45 54 45q25 0 41 -15.5
t16 -38.5q0 -8 -4 -24z" />
    <glyph glyph-name="uni021A" unicode="&#x21a;" horiz-adv-x="1071" 
d="M535 -8q-26 0 -42 16.5t-16 46.5v1215q0 12 -12 12h-369q-29 0 -44 15t-15 40t15.5 40.5t43.5 15.5h879q29 0 44 -15.5t15 -40.5t-15 -40t-44 -15h-369q-12 0 -12 -12v-1215q0 -30 -16 -46.5t-43 -16.5zM530 -354q-12 -45 -53 -45q-25 0 -41 15t-16 38q0 8 4 24l55 175
q12 45 53 45q25 0 41.5 -15.5t16.5 -38.5q0 -8 -4 -24z" />
    <glyph glyph-name="uni021B" unicode="&#x21b;" horiz-adv-x="636" 
d="M494 -6h-27q-136 0 -193 59t-57 203v610q0 13 -12 13h-80q-26 0 -39.5 13.5t-13.5 35.5t13.5 35.5t39.5 13.5h80q12 0 12 12v250q0 29 15 44t40 15q26 0 41 -15t15 -44v-250q0 -12 12 -12h156q26 0 39.5 -13.5t13.5 -35.5t-13.5 -35.5t-39.5 -13.5h-156q-12 0 -12 -13
v-606q0 -95 35 -127.5t131 -32.5q27 0 42 -14.5t15 -38.5t-15 -38.5t-42 -14.5zM379 -354q-12 -45 -53 -45q-25 0 -41.5 15t-16.5 38q0 8 4 24l56 175q12 45 53 45q25 0 41 -15.5t16 -38.5q0 -8 -4 -24z" />
    <glyph glyph-name="dotlessj" unicode="&#x237;" horiz-adv-x="487" 
d="M53 -369q-27 0 -42 15t-15 39t15 38.5t42 14.5q78 0 106.5 31.5t28.5 117.5v1039q0 28 15 43.5t41 15.5q25 0 40 -15t15 -44v-1037q0 -139 -55.5 -198.5t-190.5 -59.5z" />
    <glyph glyph-name="circumflex" unicode="&#x2c6;" horiz-adv-x="864" 
d="M621 1135q-20 0 -35 18l-152 184h-4l-151 -184q-15 -18 -35 -18q-17 0 -28 10.5t-11 25.5q0 16 10 29l147 193q19 25 34 35t36 10t36 -10t34 -35l147 -193q10 -13 10 -29q0 -15 -10.5 -25.5t-27.5 -10.5z" />
    <glyph glyph-name="caron" unicode="&#x2c7;" horiz-adv-x="864" 
d="M432 1135q-21 0 -35.5 10t-34.5 35l-147 192q-10 13 -10 29q0 15 11 26t28 11q19 0 35 -19l151 -184h4l152 184q16 19 35 19q17 0 27.5 -11t10.5 -26q0 -16 -10 -29l-147 -192q-20 -25 -34.5 -35t-35.5 -10z" />
    <glyph glyph-name="uni02C9" unicode="&#x2c9;" horiz-adv-x="864" 
d="M659 1638h-454q-23 0 -37 13.5t-14 34.5t14 34t37 13h454q23 0 37.5 -13.5t14.5 -33.5q0 -21 -14.5 -34.5t-37.5 -13.5z" />
    <glyph glyph-name="breve" unicode="&#x2d8;" horiz-adv-x="864" 
d="M432 1167q-110 0 -181 63.5t-71 137.5q0 16 10.5 26.5t28.5 10.5q31 0 43 -39q40 -109 170 -109t170 109q12 39 43 39q18 0 28.5 -10.5t10.5 -26.5q0 -74 -71 -137.5t-181 -63.5z" />
    <glyph glyph-name="dotaccent" unicode="&#x2d9;" horiz-adv-x="864" 
d="M432 1229q-35 0 -60.5 25.5t-25.5 60.5t25.5 60.5t60.5 25.5t60.5 -25.5t25.5 -60.5t-25.5 -60.5t-60.5 -25.5z" />
    <glyph glyph-name="ring" unicode="&#x2da;" horiz-adv-x="864" 
d="M612 1288q0 -78 -51 -129t-129 -51t-129 51t-51 129t51 129t129 51t129 -51t51 -129zM541 1288q0 50 -30 82.5t-79 32.5t-78.5 -32.5t-29.5 -82.5t29.5 -82t78.5 -32t79 32t30 82z" />
    <glyph glyph-name="ogonek" unicode="&#x2db;" horiz-adv-x="864" 
d="M434 -352q-65 0 -104 37t-39 102q0 110 145 213q29 20 49 20h72q9 0 10.5 -8t-6.5 -12q-95 -68 -132.5 -114.5t-37.5 -84.5q0 -27 16.5 -42t43.5 -15q23 0 43 10q16 8 26 8q20 0 31.5 -13t11.5 -32q0 -23 -22 -39q-45 -30 -107 -30z" />
    <glyph glyph-name="tilde" unicode="&#x2dc;" horiz-adv-x="864" 
d="M543 1219q-57 0 -125 45q-59 39 -94 39q-24 0 -40.5 -12t-37.5 -42q-15 -24 -41 -24q-19 0 -31 11t-12 30q0 15 8 28q62 101 154 101q57 0 125 -45q59 -39 94 -39q24 0 40.5 11.5t37.5 41.5q16 25 41 25q19 0 31 -11t12 -30q0 -14 -9 -29q-61 -100 -153 -100z" />
    <glyph glyph-name="hungarumlaut" unicode="&#x2dd;" horiz-adv-x="864" 
d="M553 1169q-18 -30 -47 -30q-19 0 -32 12t-13 31q0 17 8 30l117 197q19 31 47 31q20 0 33.5 -12t13.5 -31q0 -18 -8 -31zM293 1169q-18 -30 -47 -30q-19 0 -32 12t-13 31q0 17 8 30l117 197q19 31 47 31q20 0 33.5 -12t13.5 -31q0 -18 -8 -31z" />
    <glyph glyph-name="Delta" unicode="&#x394;" horiz-adv-x="1220" 
d="M1083 0h-948q-28 0 -41.5 13.5t-13.5 35.5q0 14 12 51l447 1239q21 62 73 62q53 0 74 -62l442 -1239q13 -40 13 -51q0 -21 -15 -35t-43 -14zM987 113q16 0 10 16l-383 1075h-6l-385 -1075q-6 -16 10 -16h754z" />
    <glyph glyph-name="Delta" unicode="&#x2206;" horiz-adv-x="1220" 
d="M1083 0h-948q-28 0 -41.5 13.5t-13.5 35.5q0 14 12 51l447 1239q21 62 73 62q53 0 74 -62l442 -1239q13 -40 13 -51q0 -21 -15 -35t-43 -14zM987 113q16 0 10 16l-383 1075h-6l-385 -1075q-6 -16 10 -16h754z" />
    <glyph glyph-name="Omega" unicode="&#x3a9;" horiz-adv-x="1253" 
d="M627 1303q-131 0 -217 -63t-123 -181q-35 -106 -35 -363q0 -168 25 -278.5t75.5 -177t134.5 -109.5q38 -19 51 -34.5t13 -41.5q0 -25 -15 -40t-44 -15h-289q-29 0 -44.5 15t-15.5 40t15.5 40.5t44.5 15.5h133v4q-98 55 -150.5 191.5t-52.5 389.5q0 152 8.5 237.5
t32.5 160.5q51 156 166 237.5t287 81.5t286.5 -81.5t165.5 -237.5q24 -75 32.5 -160.5t8.5 -237.5q0 -130 -14 -230.5t-41.5 -168.5t-63.5 -111.5t-83 -70.5v-4h133q29 0 44 -15.5t15 -40.5t-15 -40t-44 -15h-289q-29 0 -44.5 15t-15.5 40q0 26 13 41.5t51 34.5
q84 43 134.5 109.5t75.5 177t25 278.5q0 260 -34 363q-37 118 -123 181t-217 63z" />
    <glyph glyph-name="Omega" unicode="&#x2126;" horiz-adv-x="1253" 
d="M627 1303q-131 0 -217 -63t-123 -181q-35 -106 -35 -363q0 -168 25 -278.5t75.5 -177t134.5 -109.5q38 -19 51 -34.5t13 -41.5q0 -25 -15 -40t-44 -15h-289q-29 0 -44.5 15t-15.5 40t15.5 40.5t44.5 15.5h133v4q-98 55 -150.5 191.5t-52.5 389.5q0 152 8.5 237.5
t32.5 160.5q51 156 166 237.5t287 81.5t286.5 -81.5t165.5 -237.5q24 -75 32.5 -160.5t8.5 -237.5q0 -130 -14 -230.5t-41.5 -168.5t-63.5 -111.5t-83 -70.5v-4h133q29 0 44 -15.5t15 -40.5t-15 -40t-44 -15h-289q-29 0 -44.5 15t-15.5 40q0 26 13 41.5t51 34.5
q84 43 134.5 109.5t75.5 177t25 278.5q0 260 -34 363q-37 118 -123 181t-217 63z" />
    <glyph glyph-name="pi" unicode="&#x3c0;" horiz-adv-x="1148" 
d="M977 -12h-8q-152 0 -152 172v698q0 12 -12 12h-457q-12 0 -12 -12v-807q0 -29 -15 -44t-40 -15t-40.5 15t-15.5 44v807q0 12 -14 12h-49q-27 0 -41.5 15t-14.5 39t14.5 38.5t41.5 14.5h829q26 0 41 -14.5t15 -38.5t-15 -39t-41 -15h-51q-12 0 -12 -12v-706q0 -29 11 -43
t38 -15q57 -3 57 -53q0 -24 -15 -38.5t-42 -14.5z" />
    <glyph glyph-name="Wgrave" unicode="&#x1e80;" horiz-adv-x="1673" 
d="M1221 -8q-27 0 -42 15t-24 50l-315 1104h-4l-318 -1104q-9 -35 -23.5 -50t-41.5 -15t-42 14.5t-24 50.5l-313 1268q-2 10 -2 21q0 23 14.5 39t40.5 16q45 0 57 -45l273 -1131h4l309 1110q18 66 68 66q47 0 65 -66l316 -1110h4l266 1131q12 45 57 45q26 0 41 -16t15 -39
q0 -9 -5 -29l-311 -1260q-9 -36 -23.5 -50.5t-41.5 -14.5zM770 1579l-147 170q-13 16 -13 33q0 21 14 35t35 14t37 -19l148 -174q14 -17 14 -34q0 -20 -13.5 -34t-33.5 -14q-21 0 -41 23z" />
    <glyph glyph-name="wgrave" unicode="&#x1e81;" horiz-adv-x="1503" 
d="M1063 -8q-25 0 -41.5 14.5t-26.5 48.5l-241 746h-2l-244 -746q-10 -34 -26.5 -48.5t-41.5 -14.5t-41 14t-26 49l-283 852q-4 12 -4 25q0 23 14 38t39 15q41 0 56 -47l247 -762h2l242 744q10 35 25.5 50t40.5 15t40 -15t25 -50l248 -744h2l242 762q15 47 55 47
q25 0 39 -15t14 -38q0 -13 -4 -25l-283 -852q-10 -35 -26 -49t-41 -14zM729 1135q-23 0 -37 22l-133 207q-10 17 -10 33q0 19 13 32t34 13q26 0 43 -27l127 -205q10 -17 10 -30q0 -20 -12.5 -32.5t-34.5 -12.5z" />
    <glyph glyph-name="Wacute" unicode="&#x1e82;" horiz-adv-x="1673" 
d="M1221 -8q-27 0 -42 15t-24 50l-315 1104h-4l-318 -1104q-9 -35 -23.5 -50t-41.5 -15t-42 14.5t-24 50.5l-313 1268q-2 10 -2 21q0 23 14.5 39t40.5 16q45 0 57 -45l273 -1131h4l309 1110q18 66 68 66q47 0 65 -66l316 -1110h4l266 1131q12 45 57 45q26 0 41 -16t15 -39
q0 -9 -5 -29l-311 -1260q-9 -36 -23.5 -50.5t-41.5 -14.5zM1051 1749l-148 -170q-20 -23 -41 -23q-20 0 -33.5 14t-13.5 34q0 17 14 34l148 174q16 19 37 19t35 -14t14 -35q0 -18 -12 -33z" />
    <glyph glyph-name="wacute" unicode="&#x1e83;" horiz-adv-x="1503" 
d="M1063 -8q-25 0 -41.5 14.5t-26.5 48.5l-241 746h-2l-244 -746q-10 -34 -26.5 -48.5t-41.5 -14.5t-41 14t-26 49l-283 852q-4 12 -4 25q0 23 14 38t39 15q41 0 56 -47l247 -762h2l242 744q10 35 25.5 50t40.5 15t40 -15t25 -50l248 -744h2l242 762q15 47 55 47
q25 0 39 -15t14 -38q0 -13 -4 -25l-283 -852q-10 -35 -26 -49t-41 -14zM811 1157q-14 -22 -37 -22q-22 0 -34.5 12.5t-12.5 32.5q0 13 10 30l127 205q17 27 43 27q21 0 34 -13t13 -32q0 -16 -10 -33z" />
    <glyph glyph-name="Wdieresis" unicode="&#x1e84;" horiz-adv-x="1673" 
d="M1221 -8q-27 0 -42 15t-24 50l-315 1104h-4l-318 -1104q-9 -35 -23.5 -50t-41.5 -15t-42 14.5t-24 50.5l-313 1268q-2 10 -2 21q0 23 14.5 39t40.5 16q45 0 57 -45l273 -1131h4l309 1110q18 66 68 66q47 0 65 -66l316 -1110h4l266 1131q12 45 57 45q26 0 41 -16t15 -39
q0 -9 -5 -29l-311 -1260q-9 -36 -23.5 -50.5t-41.5 -14.5zM1040 1610q-32 0 -54.5 23t-22.5 55t22.5 55.5t54.5 23.5t55 -23.5t23 -55.5t-23 -55t-55 -23zM633 1610q-32 0 -55 23t-23 55t23 55.5t55 23.5t56 -23.5t24 -55.5t-24 -55t-56 -23z" />
    <glyph glyph-name="wdieresis" unicode="&#x1e85;" horiz-adv-x="1503" 
d="M1063 -8q-25 0 -41.5 14.5t-26.5 48.5l-241 746h-2l-244 -746q-10 -34 -26.5 -48.5t-41.5 -14.5t-41 14t-26 49l-283 852q-4 12 -4 25q0 23 14 38t39 15q41 0 56 -47l247 -762h2l242 744q10 35 25.5 50t40.5 15t40 -15t25 -50l248 -744h2l242 762q15 47 55 47
q25 0 39 -15t14 -38q0 -13 -4 -25l-283 -852q-10 -35 -26 -49t-41 -14zM954 1235q-32 0 -54.5 23t-22.5 55q0 33 22.5 56.5t54.5 23.5t55 -24t23 -56t-23 -55t-55 -23zM547 1235q-32 0 -55 23t-23 55t23 56t55 24t56 -24t24 -56t-24 -55t-56 -23z" />
    <glyph glyph-name="Ygrave" unicode="&#x1ef2;" horiz-adv-x="1038" 
d="M518 -8q-26 0 -41.5 16.5t-15.5 46.5v516l-400 746q-8 16 -8 31q0 22 16.5 37.5t41.5 15.5q32 0 51 -31l358 -659h6l353 659q15 31 51 31q24 0 39.5 -15.5t15.5 -37.5q0 -15 -8 -31l-399 -746v-516q0 -30 -16.5 -46.5t-43.5 -16.5zM477 1579l-147 170q-13 16 -13 33
q0 20 14.5 34.5t35.5 14.5q20 0 36 -19l148 -174q14 -17 14 -34q0 -20 -13.5 -34t-33.5 -14q-21 0 -41 23z" />
    <glyph glyph-name="ygrave" unicode="&#x1ef3;" horiz-adv-x="958" 
d="M213 -369h-16q-27 0 -42.5 15t-15.5 39t15.5 38.5t42.5 14.5q72 0 110.5 35.5t81.5 148.5l39 98l-346 887q-4 12 -4 27q0 21 15.5 36t39.5 15q39 0 53 -41l297 -772h2l289 772q14 41 53 41q24 0 39 -15t15 -36q0 -15 -4 -27l-385 -1001q-62 -164 -122 -219.5t-157 -55.5z
M502 1135q-23 0 -37 22l-133 207q-10 17 -10 33q0 19 13 32t34 13q26 0 43 -27l127 -205q10 -17 10 -30q0 -20 -12.5 -32.5t-34.5 -12.5z" />
    <glyph glyph-name="endash" unicode="&#x2013;" horiz-adv-x="1032" 
d="M930 494h-828q-26 0 -40.5 13.5t-14.5 37.5t14.5 37.5t40.5 13.5h828q26 0 40.5 -13.5t14.5 -37.5t-14.5 -37.5t-40.5 -13.5z" />
    <glyph glyph-name="emdash" unicode="&#x2014;" horiz-adv-x="1699" 
d="M1597 494h-1495q-26 0 -40.5 13.5t-14.5 37.5t14.5 37.5t40.5 13.5h1495q26 0 41 -14t15 -37t-15 -37t-41 -14z" />
    <glyph glyph-name="quoteleft" unicode="&#x2018;" horiz-adv-x="423" 
d="M231 1081q-12 -45 -53 -45q-22 0 -37.5 15t-15.5 39q0 12 4 24l78 242q12 45 53 45q22 0 37.5 -14.5t15.5 -38.5q0 -13 -4 -25z" />
    <glyph glyph-name="quoteright" unicode="&#x2019;" horiz-adv-x="423" 
d="M231 1081q-12 -45 -53 -45q-22 0 -37.5 15t-15.5 39q0 12 4 24l78 242q12 45 53 45q22 0 37.5 -14.5t15.5 -38.5q0 -13 -4 -25z" />
    <glyph glyph-name="quotesinglbase" unicode="&#x201a;" horiz-adv-x="423" 
d="M233 -178q-12 -45 -53 -45q-22 0 -37.5 14.5t-15.5 38.5q0 13 4 25l78 241q12 45 53 45q22 0 37.5 -14.5t15.5 -38.5q0 -13 -4 -25z" />
    <glyph glyph-name="quotedblleft" unicode="&#x201c;" horiz-adv-x="708" 
d="M510 1081q-12 -45 -53 -45q-22 0 -38 15t-16 39q0 9 5 24l77 242q12 45 54 45q22 0 37.5 -14.5t15.5 -38.5q0 -13 -4 -25zM231 1081q-12 -45 -53 -45q-22 0 -37.5 15t-15.5 39q0 12 4 24l78 242q12 45 53 45q22 0 37.5 -14.5t15.5 -38.5q0 -13 -4 -25z" />
    <glyph glyph-name="quotedblright" unicode="&#x201d;" horiz-adv-x="708" 
d="M510 1081q-12 -45 -53 -45q-22 0 -38 15t-16 39q0 9 5 24l77 242q12 45 54 45q22 0 37.5 -14.5t15.5 -38.5q0 -13 -4 -25zM231 1081q-12 -45 -53 -45q-22 0 -37.5 15t-15.5 39q0 12 4 24l78 242q12 45 53 45q22 0 37.5 -14.5t15.5 -38.5q0 -13 -4 -25z" />
    <glyph glyph-name="quotedblbase" unicode="&#x201e;" horiz-adv-x="708" 
d="M514 -178q-12 -45 -53 -45q-22 0 -37.5 14.5t-15.5 38.5q0 13 4 25l77 241q12 45 54 45q22 0 37.5 -14.5t15.5 -38.5q0 -13 -4 -25zM236 -178q-12 -45 -54 -45q-22 0 -37.5 14.5t-15.5 38.5q0 13 4 25l78 241q12 45 53 45q22 0 37.5 -14.5t15.5 -38.5q0 -13 -4 -25z" />
    <glyph glyph-name="dagger" unicode="&#x2020;" horiz-adv-x="915" 
d="M457 -377q-24 0 -39 15.5t-15 42.5v1085q0 12 -12 12h-254q-55 0 -55 49q0 52 55 52h254q12 0 12 12v452q0 27 15 42.5t39 15.5q25 0 40 -15.5t15 -42.5v-452q0 -12 12 -12h254q27 0 41.5 -14t14.5 -38q0 -22 -14.5 -35.5t-41.5 -13.5h-254q-12 0 -12 -12v-1085
q0 -27 -15 -42.5t-40 -15.5z" />
    <glyph glyph-name="daggerdbl" unicode="&#x2021;" horiz-adv-x="915" 
d="M403 -319v397q0 12 -12 12h-254q-55 0 -55 51q0 49 55 49h254q12 0 12 13v622q0 13 -12 13h-254q-55 0 -55 49q0 51 55 51h254q12 0 12 12v393q0 27 15 42.5t39 15.5q25 0 40 -15.5t15 -42.5v-393q0 -12 12 -12h254q56 0 56 -51q0 -22 -14.5 -35.5t-41.5 -13.5h-254
q-12 0 -12 -13v-622q0 -13 12 -13h254q27 0 41.5 -13.5t14.5 -35.5q0 -51 -56 -51h-254q-12 0 -12 -12v-397q0 -27 -15 -42.5t-40 -15.5q-24 0 -39 15.5t-15 42.5z" />
    <glyph glyph-name="bullet" unicode="&#x2022;" horiz-adv-x="794" 
d="M397 395q-97 0 -166 69.5t-69 166.5t69 166t166 69t166.5 -69t69.5 -166t-69.5 -166.5t-166.5 -69.5z" />
    <glyph glyph-name="ellipsis" unicode="&#x2026;" horiz-adv-x="1345" 
d="M1141 -8q-37 0 -63.5 26.5t-26.5 63.5t26.5 63.5t63.5 26.5t63.5 -26.5t26.5 -63.5t-26.5 -63.5t-63.5 -26.5zM692 -8q-37 0 -63.5 26.5t-26.5 63.5t26.5 63.5t63.5 26.5t63.5 -26.5t26.5 -63.5t-26.5 -63.5t-63.5 -26.5zM244 -8q-37 0 -63.5 26.5t-26.5 63.5t26.5 63.5
t63.5 26.5t63.5 -26.5t26.5 -63.5t-26.5 -63.5t-63.5 -26.5z" />
    <glyph glyph-name="perthousand" unicode="&#x2030;" horiz-adv-x="2195" 
d="M393 -29q-19 0 -31 11.5t-12 31.5q0 13 6 25l787 1358q14 24 39 24q19 0 31 -11.5t12 -31.5q0 -12 -6 -24l-787 -1358q-14 -25 -39 -25zM418 676q-82 0 -140 38.5t-81 110.5q-17 52 -17 217q0 166 17 218q23 72 81 110.5t140 38.5t140 -38.5t81 -110.5q16 -49 16 -218
q0 -168 -16 -217q-23 -72 -81 -110.5t-140 -38.5zM418 760q47 0 82.5 23.5t48.5 64.5q9 28 11.5 62t2.5 132t-2.5 132.5t-11.5 62.5q-13 41 -48.5 64.5t-82.5 23.5t-82.5 -23.5t-48.5 -64.5q-9 -29 -12 -64t-3 -131t3 -130.5t12 -63.5q13 -41 48.5 -64.5t82.5 -23.5z
M1778 -16q-82 0 -140.5 38.5t-81.5 110.5q-16 49 -16 217t16 217q23 72 81.5 111t140.5 39t140 -39t81 -111q16 -49 16 -217t-16 -217q-23 -72 -81 -110.5t-140 -38.5zM1161 -16q-82 0 -140 38.5t-81 110.5q-16 49 -16 217t16 217q23 72 81 111t140 39t140 -39t81 -111
q17 -52 17 -217t-17 -217q-23 -72 -81 -110.5t-140 -38.5zM1778 68q47 0 82.5 23.5t48.5 64.5q9 28 11.5 62t2.5 132t-2.5 132.5t-11.5 62.5q-13 41 -48.5 64.5t-82.5 23.5t-82.5 -23.5t-48.5 -64.5q-9 -29 -12 -64t-3 -131t3 -130.5t12 -63.5q13 -41 48.5 -64.5t82.5 -23.5
zM1161 68q47 0 82.5 23.5t48.5 64.5q9 29 12 63.5t3 130.5t-3 131t-12 64q-13 41 -48.5 64.5t-82.5 23.5t-82.5 -23.5t-48.5 -64.5q-9 -28 -11.5 -62.5t-2.5 -132.5t2.5 -132t11.5 -62q13 -41 48.5 -64.5t82.5 -23.5z" />
    <glyph glyph-name="guilsinglleft" unicode="&#x2039;" horiz-adv-x="667" 
d="M459 199q-21 0 -37 16l-260 266q-33 33 -33 60q0 26 33 59l260 266q17 17 37 17q22 0 35.5 -13.5t13.5 -33.5q0 -18 -16 -37l-244 -250q-8 -9 0 -17l244 -249q16 -19 16 -37q0 -20 -13.5 -33.5t-35.5 -13.5z" />
    <glyph glyph-name="guilsinglright" unicode="&#x203a;" horiz-adv-x="667" 
d="M209 199q-22 0 -35.5 13.5t-13.5 33.5q0 18 16 37l244 249q8 8 0 17l-244 250q-16 19 -16 37q0 20 13.5 33.5t35.5 13.5q20 0 37 -17l260 -266q33 -33 33 -59q0 -27 -33 -60l-260 -266q-16 -16 -37 -16z" />
    <glyph glyph-name="fraction" unicode="&#x2044;" horiz-adv-x="309" 
d="M-201 -4q-14 -25 -39 -25q-19 0 -31 11.5t-12 31.5q0 11 7 25l786 1358q14 24 39 24q19 0 31 -11.5t12 -31.5q0 -12 -6 -24z" />
    <glyph glyph-name="zero.superior" unicode="&#x2070;" horiz-adv-x="677" 
d="M340 866q-185 0 -240 166q-18 59 -18 264q0 202 18 265q26 80 87 122.5t153 42.5q184 0 238 -165q18 -63 18 -265q0 -205 -18 -264q-55 -166 -238 -166zM340 954q111 0 145 103q15 51 15 239q0 189 -15 240q-34 102 -145 102t-147 -102q-15 -51 -15 -240q0 -188 15 -239
q37 -103 147 -103z" />
    <glyph glyph-name="four.superior" unicode="&#x2074;" horiz-adv-x="677" 
d="M471 877q-22 0 -35.5 14.5t-13.5 38.5v94q0 12 -12 12h-308q-51 0 -51 45q0 24 25 72l262 533q15 30 43 30q19 0 32 -11.5t13 -29.5q0 -17 -8 -33l-254 -516v-2h246q12 0 12 13v172q0 26 13.5 39.5t35.5 13.5q21 0 34 -14t13 -39v-172q0 -13 12 -13h43q24 0 37 -12
t13 -31q0 -45 -50 -45h-43q-12 0 -12 -12v-94q0 -24 -13 -38.5t-34 -14.5z" />
    <glyph glyph-name="five.superior" unicode="&#x2075;" horiz-adv-x="677" 
d="M344 866q-82 0 -141 37.5t-88 102.5q-6 15 -6 26q0 19 13.5 31t33.5 12q28 0 47 -37q49 -84 141 -84q115 0 143 95q11 37 11 100q0 68 -11 100q-31 88 -137 88q-81 0 -123 -55q-16 -23 -28.5 -32t-32.5 -9q-22 0 -34.5 14t-12.5 39v373q0 19 12 32t31 13h375q47 0 47 -45
q0 -19 -12 -31t-35 -12h-316q-12 0 -12 -12v-248h2q45 63 151 63q170 0 216 -139q16 -50 16 -139q0 -78 -19 -137q-51 -146 -231 -146z" />
    <glyph glyph-name="six.superior" unicode="&#x2076;" horiz-adv-x="677" 
d="M338 866q-115 0 -187.5 70.5t-72.5 185.5q0 90 57 195l205 369q17 30 43 30q19 0 32 -11.5t13 -31.5q0 -12 -6 -24l-164 -295l2 -2q31 24 94 24q108 0 178 -70.5t70 -183.5q0 -115 -73 -185.5t-191 -70.5zM340 954q75 0 121.5 46.5t46.5 121.5q0 74 -46 120t-122 46
q-75 0 -121.5 -46t-46.5 -120q0 -75 46.5 -121.5t121.5 -46.5z" />
    <glyph glyph-name="seven.superior" unicode="&#x2077;" horiz-adv-x="677" 
d="M293 911q-16 -34 -47 -34q-20 0 -32.5 12t-12.5 31q0 11 6 26l287 674v4h-285q-12 0 -12 -12v-62q0 -23 -13 -37t-34 -14t-34.5 14t-13.5 37v117q0 20 12.5 32.5t32.5 12.5h410q47 0 47 -45q0 -22 -14 -57z" />
    <glyph glyph-name="eight.superior" unicode="&#x2078;" horiz-adv-x="677" 
d="M340 866q-118 0 -192 68t-74 178q0 73 36 126.5t91 78.5v4q-46 25 -76.5 71t-30.5 105q0 98 69 163.5t177 65.5q106 0 175 -65.5t69 -163.5q0 -59 -30.5 -105t-76.5 -71v-4q56 -25 91.5 -78.5t35.5 -126.5q0 -110 -73.5 -178t-190.5 -68zM340 1358q63 0 106 39.5t43 99.5
q0 61 -43 101t-106 40q-64 0 -108 -40t-44 -101q0 -59 44 -99t108 -40zM340 954q75 0 122.5 44.5t47.5 115.5t-47.5 115.5t-122.5 44.5t-123.5 -45t-48.5 -115t48.5 -115t123.5 -45z" />
    <glyph glyph-name="nine.superior" unicode="&#x2079;" horiz-adv-x="677" 
d="M297 877q-19 0 -32 11.5t-13 31.5q0 12 6 24l164 295l-2 2q-31 -24 -94 -24q-108 0 -178 70t-70 183q0 115 73 185.5t191 70.5q115 0 187.5 -70.5t72.5 -185.5q0 -89 -57 -194l-205 -369q-17 -30 -43 -30zM340 1305q75 0 121.5 45.5t46.5 119.5q0 75 -46.5 121.5
t-121.5 46.5t-121.5 -46.5t-46.5 -121.5q0 -74 46 -119.5t122 -45.5z" />
    <glyph glyph-name="zero.inferior" unicode="&#x2080;" horiz-adv-x="677" 
d="M340 -334q-185 0 -240 166q-18 59 -18 264q0 201 18 264q55 166 240 166q183 0 238 -166q18 -63 18 -264q0 -205 -18 -264q-55 -166 -238 -166zM340 -246q111 0 145 103q15 51 15 239q0 189 -15 240q-34 102 -145 102t-147 -102q-15 -51 -15 -240q0 -188 15 -239
q37 -103 147 -103z" />
    <glyph glyph-name="one.inferior" unicode="&#x2081;" horiz-adv-x="677" 
d="M373 -324q-22 0 -34.5 14.5t-12.5 39.5v663h-2l-99 -67q-18 -11 -30 -11q-19 0 -31 12.5t-12 32.5q0 25 24 43l125 86q39 27 66 27q26 0 40.5 -14.5t14.5 -38.5v-733q0 -25 -13.5 -39.5t-35.5 -14.5z" />
    <glyph glyph-name="two.inferior" unicode="&#x2082;" horiz-adv-x="677" 
d="M551 -319h-422q-49 0 -49 45q0 27 31 61l307 358q69 82 69 156q0 60 -38 98.5t-101 38.5q-57 0 -94 -27t-53 -73q-14 -41 -49 -41q-21 0 -33.5 11.5t-12.5 29.5q0 9 5 24q23 70 81.5 117t153.5 47q110 0 174 -64.5t64 -160.5q0 -101 -92 -207l-277 -321v-4h336
q23 0 35 -12t12 -31q0 -45 -47 -45z" />
    <glyph glyph-name="three.inferior" unicode="&#x2083;" horiz-adv-x="677" 
d="M342 -334q-95 0 -157.5 39t-88.5 105q-6 15 -6 26q0 19 12 30t31 11q26 0 47 -35q59 -88 160 -88q71 0 115.5 45t44.5 113t-46.5 112t-127.5 44q-22 0 -36 12t-14 31q0 21 14 33t36 12q71 0 112 38.5t41 104.5q0 61 -38.5 100t-106.5 39q-53 0 -85 -20.5t-56 -59.5
q-20 -34 -48 -34q-19 0 -31 11t-12 30q0 9 7 26q26 58 84 96.5t143 38.5q109 0 174 -62.5t65 -160.5q0 -116 -104 -184v-2q48 -21 86.5 -74t38.5 -131q0 -108 -70 -177t-184 -69z" />
    <glyph glyph-name="four.inferior" unicode="&#x2084;" horiz-adv-x="677" 
d="M471 -324q-22 0 -35.5 14.5t-13.5 39.5v94q0 12 -12 12h-308q-51 0 -51 45q0 24 25 72l262 532q16 31 43 31q19 0 32 -11.5t13 -29.5q0 -17 -8 -33l-254 -516v-2h246q12 0 12 13v172q0 26 13.5 39.5t35.5 13.5q21 0 34 -14t13 -39v-172q0 -13 12 -13h43q24 0 37 -12
t13 -31q0 -45 -50 -45h-43q-12 0 -12 -12v-94q0 -24 -13 -39t-34 -15z" />
    <glyph glyph-name="five.inferior" unicode="&#x2085;" horiz-adv-x="677" 
d="M344 -334q-83 0 -141.5 37t-87.5 102q-6 15 -6 27q0 19 13.5 31t33.5 12q28 0 47 -37q49 -84 141 -84q115 0 143 94q11 37 11 101q0 68 -11 100q-31 88 -137 88q-81 0 -123 -55q-16 -23 -28.5 -32t-32.5 -9q-22 0 -34.5 14t-12.5 39v373q0 19 12 32t31 13h375
q47 0 47 -45q0 -19 -12 -31t-35 -12h-316q-12 0 -12 -12v-248h2q45 63 151 63q170 0 216 -139q16 -50 16 -139q0 -78 -19 -137q-51 -146 -231 -146z" />
    <glyph glyph-name="six.inferior" unicode="&#x2086;" horiz-adv-x="677" 
d="M338 -334q-115 0 -187.5 70.5t-72.5 185.5q0 90 57 195l205 368q17 31 43 31q19 0 32 -11.5t13 -31.5q0 -12 -6 -24l-164 -295l2 -2q31 24 94 24q108 0 178 -70.5t70 -183.5q0 -115 -73 -185.5t-191 -70.5zM340 -246q75 0 121.5 46.5t46.5 121.5q0 74 -46 120t-122 46
q-75 0 -121.5 -46t-46.5 -120q0 -75 46.5 -121.5t121.5 -46.5z" />
    <glyph glyph-name="seven.inferior" unicode="&#x2087;" horiz-adv-x="677" 
d="M293 -289q-17 -35 -47 -35q-20 0 -32.5 12t-12.5 31q0 12 6 27l287 674v4h-285q-12 0 -12 -12v-62q0 -23 -13 -37t-34 -14t-34.5 14t-13.5 37v117q0 20 12.5 32.5t32.5 12.5h410q47 0 47 -45q0 -22 -14 -57z" />
    <glyph glyph-name="eight.inferior" unicode="&#x2088;" horiz-adv-x="677" 
d="M340 -334q-118 0 -192 68t-74 178q0 73 36 126.5t91 78.5v4q-46 25 -76.5 71t-30.5 105q0 98 69 163.5t177 65.5q106 0 175 -65.5t69 -163.5q0 -59 -30.5 -105t-76.5 -71v-4q56 -25 91.5 -78.5t35.5 -126.5q0 -110 -73.5 -178t-190.5 -68zM340 158q63 0 106 39.5t43 99.5
q0 61 -43 101t-106 40q-64 0 -108 -40t-44 -101q0 -59 44 -99t108 -40zM340 -246q75 0 122.5 44.5t47.5 115.5t-47.5 115.5t-122.5 44.5t-123.5 -45t-48.5 -115t48.5 -115t123.5 -45z" />
    <glyph glyph-name="nine.inferior" unicode="&#x2089;" horiz-adv-x="677" 
d="M297 -324q-19 0 -32 11.5t-13 31.5q0 13 6 25l164 295l-2 2q-32 -25 -94 -25q-108 0 -178 70.5t-70 183.5q0 115 73 185.5t191 70.5q115 0 187.5 -70.5t72.5 -185.5q0 -89 -57 -194l-205 -369q-17 -31 -43 -31zM340 104q75 0 121.5 46t46.5 120q0 75 -46.5 121.5
t-121.5 46.5t-121.5 -46.5t-46.5 -121.5q0 -74 46 -120t122 -46z" />
    <glyph glyph-name="Euro" unicode="&#x20ac;" 
d="M625 -20q-140 0 -234 66t-135 194q-29 91 -29 278q0 12 -12 12h-70q-51 0 -51 45q0 48 51 48h70q12 0 12 12v135q0 12 -12 12h-70q-51 0 -51 47q0 45 51 45h70q12 0 12 13q0 175 29 266q41 128 135 194t234 66q127 0 216 -59.5t132 -153.5q6 -12 6 -26q0 -23 -14 -37.5
t-35 -14.5q-34 0 -53 37q-39 68 -103 108t-149 40q-202 0 -260 -181q-25 -80 -25 -239q0 -13 12 -13h416q24 0 37.5 -12t13.5 -33q0 -47 -51 -47h-416q-12 0 -12 -12v-135q0 -12 12 -12h334q24 0 37.5 -13t13.5 -35q0 -21 -13.5 -33t-37.5 -12h-334q-12 0 -12 -12
q0 -172 25 -252q58 -180 260 -180q168 0 252 147q19 37 53 37q21 0 35 -14t14 -37q0 -14 -6 -26q-43 -94 -132 -153.5t-216 -59.5z" />
    <glyph glyph-name="afii61289" unicode="&#x2113;" horiz-adv-x="759" 
d="M190 451q-16 -13 -36 -13t-34 13.5t-14 33.5q0 26 25 47l109 93v448q0 340 213 340q89 0 143.5 -67t54.5 -191q0 -141 -71.5 -278t-233.5 -302v-360q0 -125 94 -125q53 0 99 37q19 16 41 16q21 0 35 -13t14 -36q0 -22 -19 -41q-73 -73 -182 -73q-188 0 -188 233v279z
M346 1061v-342q107 121 153 222t46 214q0 74 -25.5 116t-68.5 42q-105 0 -105 -252z" />
    <glyph glyph-name="trademark" unicode="&#x2122;" horiz-adv-x="1673" 
d="M1526 582q-20 0 -31.5 12.5t-11.5 34.5v557h-4l-217 -443q-21 -47 -58 -47q-34 0 -55 47l-217 443h-4v-557q0 -21 -12 -34t-31 -13q-20 0 -31.5 12.5t-11.5 34.5v714q0 25 13 39.5t36 14.5q36 0 59 -54l252 -530h6l254 530q13 29 26 41.5t34 12.5q22 0 34.5 -14.5
t12.5 -39.5v-714q0 -21 -12 -34t-31 -13zM389 582q-45 0 -45 49v667q0 13 -12 13h-207q-45 0 -45 41t45 41h526q45 0 45 -41t-45 -41h-207q-12 0 -12 -13v-667q0 -49 -43 -49z" />
    <glyph glyph-name="estimated" unicode="&#x212e;" horiz-adv-x="1316" 
d="M655 -20q-140 0 -249 68.5t-166.5 183.5t-57.5 257q0 218 131 363t342 145q214 0 346 -141.5t134 -366.5h-744v-335q108 -105 264 -105q117 0 202.5 52.5t152.5 168.5l67 -43q-88 -132 -183.5 -189.5t-238.5 -57.5zM926 557v266q-119 113 -271 113q-157 0 -264 -113v-266
h535z" />
    <glyph glyph-name="onethird" unicode="&#x2153;" horiz-adv-x="1777" 
d="M410 557q-22 0 -35 14t-13 39v664h-2l-98 -68q-17 -10 -31 -10q-19 0 -31 12.5t-12 32.5q0 24 25 43l125 86q39 27 65 27t41 -15t15 -39v-733q0 -24 -13.5 -38.5t-35.5 -14.5zM463 -4q-14 -25 -39 -25q-19 0 -31 11.5t-12 31.5q0 13 6 25l787 1358q14 24 38 24
q19 0 31 -11.5t12 -31.5q0 -12 -6 -24zM1325 -14q-95 0 -157.5 38.5t-88.5 104.5q-6 15 -6 27q0 19 12 30t31 11q26 0 47 -35q59 -88 160 -88q71 0 115.5 44.5t44.5 112.5t-46.5 112t-127.5 44q-22 0 -35.5 12t-13.5 31q0 21 13.5 33t35.5 12q71 0 112 38.5t41 104.5
q0 62 -39 101t-106 39q-53 0 -85 -20.5t-56 -59.5q-21 -35 -48 -35q-19 0 -31 11t-12 30q0 10 7 27q26 58 84 96.5t143 38.5q109 0 174.5 -62.5t65.5 -160.5q0 -117 -105 -185v-2q48 -21 86.5 -74t38.5 -131q0 -108 -70 -176.5t-184 -68.5z" />
    <glyph glyph-name="twothirds" unicode="&#x2154;" horiz-adv-x="1972" 
d="M662 561h-422q-50 0 -50 45q0 28 31 62l307 358q70 83 70 156q0 60 -38 98.5t-101 38.5q-57 0 -94.5 -27t-53.5 -73q-14 -41 -49 -41q-21 0 -33 11.5t-12 29.5q0 12 4 24q23 70 82 117t154 47q110 0 173.5 -64.5t63.5 -160.5q0 -101 -92 -207l-276 -322v-4h336
q23 0 35 -12t12 -31q0 -45 -47 -45zM657 -4q-14 -25 -39 -25q-19 0 -31 11.5t-12 31.5q0 11 7 25l786 1358q14 24 39 24q19 0 31 -11.5t12 -31.5q0 -12 -6 -24zM1520 -14q-95 0 -157.5 38.5t-88.5 104.5q-6 15 -6 27q0 19 12 30t31 11q26 0 47 -35q59 -88 160 -88
q71 0 115 44.5t44 112.5t-46.5 112t-127.5 44q-22 0 -35.5 12t-13.5 31q0 21 13.5 33t35.5 12q71 0 112.5 38.5t41.5 104.5q0 62 -39.5 101t-106.5 39q-53 0 -85 -20.5t-56 -59.5q-21 -35 -47 -35q-19 0 -31 11t-12 30q0 12 6 27q26 58 84 96.5t143 38.5q109 0 174.5 -62.5
t65.5 -160.5q0 -117 -104 -185v-2q48 -21 86.5 -74t38.5 -131q0 -108 -70 -176.5t-184 -68.5z" />
    <glyph glyph-name="oneeighth" unicode="&#x215b;" horiz-adv-x="1779" 
d="M410 557q-22 0 -35 14t-13 39v664h-2l-98 -68q-17 -10 -31 -10q-19 0 -31 12.5t-12 32.5q0 24 25 43l125 86q39 27 65 27t41 -15t15 -39v-733q0 -24 -13.5 -38.5t-35.5 -14.5zM1315 -14q-118 0 -192 67.5t-74 177.5q0 73 36 126.5t91 78.5v4q-46 25 -76.5 71t-30.5 105
q0 98 69 164t177 66q106 0 175 -66t69 -164q0 -59 -30.5 -105t-76.5 -71v-4q56 -25 91.5 -78.5t35.5 -126.5q0 -110 -73.5 -177.5t-190.5 -67.5zM1315 477q63 0 106 39.5t43 99.5q0 61 -43 101.5t-106 40.5q-64 0 -108 -40.5t-44 -101.5q0 -59 44 -99t108 -40zM1315 74
q75 0 122.5 44.5t47.5 114.5q0 71 -47.5 115.5t-122.5 44.5t-123.5 -45t-48.5 -115t48.5 -114.5t123.5 -44.5zM463 -4q-14 -25 -39 -25q-19 0 -31 11.5t-12 31.5q0 13 6 25l787 1358q14 24 38 24q19 0 31 -11.5t12 -31.5q0 -12 -6 -24z" />
    <glyph glyph-name="threeeighths" unicode="&#x215c;" horiz-adv-x="1921" 
d="M1456 -14q-118 0 -192 67.5t-74 177.5q0 73 36 126.5t91 78.5v4q-46 25 -76.5 71t-30.5 105q0 98 69 164t177 66q106 0 175 -66t69 -164q0 -59 -30.5 -105t-76.5 -71v-4q56 -25 91.5 -78.5t35.5 -126.5q0 -110 -73.5 -177.5t-190.5 -67.5zM1456 477q63 0 106.5 39.5
t43.5 99.5q0 61 -43.5 101.5t-106.5 40.5q-64 0 -107.5 -40.5t-43.5 -101.5q0 -60 43.5 -99.5t107.5 -39.5zM1456 74q75 0 122.5 44.5t47.5 114.5q0 71 -47.5 115.5t-122.5 44.5t-123.5 -45t-48.5 -115t48.5 -114.5t123.5 -44.5zM604 -4q-14 -25 -39 -25q-19 0 -31 11.5
t-12 31.5q0 13 6 25l787 1358q14 24 39 24q19 0 31 -11.5t12 -31.5q0 -12 -6 -24zM459 547q-95 0 -157.5 38.5t-88.5 104.5q-6 15 -6 27q0 19 12 30t31 11q26 0 47 -35q59 -88 160 -88q71 0 115 45t44 113t-46.5 111.5t-127.5 43.5q-22 0 -35.5 12t-13.5 31q0 21 13.5 33
t35.5 12q71 0 112.5 39t41.5 105q0 62 -39 100.5t-106 38.5q-53 0 -85.5 -20.5t-56.5 -59.5q-21 -35 -47 -35q-19 0 -31 11t-12 30q0 12 6 27q26 58 84.5 96.5t143.5 38.5q109 0 174 -62.5t65 -160.5q0 -117 -104 -185v-2q48 -21 86.5 -73.5t38.5 -130.5q0 -108 -70 -177
t-184 -69z" />
    <glyph glyph-name="fiveeighths" unicode="&#x215d;" horiz-adv-x="1904" 
d="M1440 -14q-118 0 -192 67.5t-74 177.5q0 73 35.5 126.5t90.5 78.5v4q-46 25 -76 70.5t-30 105.5q0 98 69 164t177 66q106 0 174.5 -66t68.5 -164q0 -60 -30 -105.5t-76 -70.5v-4q56 -25 91.5 -78.5t35.5 -126.5q0 -110 -73.5 -177.5t-190.5 -67.5zM1440 477
q63 0 106 39.5t43 99.5q0 61 -43 101.5t-106 40.5q-64 0 -108 -40.5t-44 -101.5q0 -59 44 -99t108 -40zM1440 74q75 0 122.5 44.5t47.5 114.5q0 71 -47.5 115.5t-122.5 44.5t-123.5 -45t-48.5 -115t48.5 -114.5t123.5 -44.5zM588 -4q-14 -25 -39 -25q-19 0 -31 11.5
t-12 31.5q0 13 6 25l786 1358q14 24 39 24q19 0 31 -11.5t12 -31.5q0 -12 -6 -24zM438 547q-83 0 -141.5 37t-87.5 102q-6 15 -6 27q0 19 13.5 31t33.5 12q28 0 47 -37q49 -84 141 -84q116 0 144 94q10 33 10 100q0 72 -10 101q-31 88 -138 88q-80 0 -122 -55
q-28 -41 -62 -41q-22 0 -34.5 14t-12.5 39v373q0 19 12 32t31 13h375q47 0 47 -45q0 -19 -12 -31t-35 -12h-316q-12 0 -12 -13v-248h2q46 64 152 64q169 0 215 -139q16 -50 16 -140q0 -81 -18 -137q-51 -145 -232 -145z" />
    <glyph glyph-name="seveneighths" unicode="&#x215e;" horiz-adv-x="1753" 
d="M1288 -14q-118 0 -192 67.5t-74 177.5q0 73 36 126.5t91 78.5v4q-46 25 -76.5 71t-30.5 105q0 98 69 164t177 66q106 0 175 -66t69 -164q0 -59 -30.5 -105t-76.5 -71v-4q56 -25 91.5 -78.5t35.5 -126.5q0 -110 -73.5 -177.5t-190.5 -67.5zM1288 477q63 0 106.5 39.5
t43.5 99.5q0 61 -43.5 101.5t-106.5 40.5q-64 0 -107.5 -40.5t-43.5 -101.5q0 -60 43.5 -99.5t107.5 -39.5zM1288 74q75 0 122.5 44.5t47.5 114.5q0 71 -47.5 115.5t-122.5 44.5t-123.5 -45t-48.5 -115t48.5 -114.5t123.5 -44.5zM387 592q-17 -35 -47 -35q-20 0 -32.5 12
t-12.5 31q0 12 6 27l287 673v5h-285q-12 0 -12 -13v-61q0 -23 -13 -37t-34 -14t-34 14t-13 37v117q0 20 12.5 32.5t32.5 12.5h409q47 0 47 -45q0 -23 -14 -58zM436 -4q-14 -25 -39 -25q-19 0 -31 11.5t-12 31.5q0 13 6 25l787 1358q14 24 39 24q19 0 31 -11.5t12 -31.5
q0 -12 -6 -24z" />
    <glyph glyph-name="partialdiff" unicode="&#x2202;" horiz-adv-x="1101" 
d="M514 -20q-178 0 -284.5 121t-106.5 311q0 189 113 312.5t288 123.5q214 0 344 -176h2q3 134 -17 248t-62.5 202.5t-114.5 138.5t-166 50q-109 0 -215 -74q-17 -12 -37 -12t-33.5 14.5t-13.5 34.5q0 26 27 47q52 40 124.5 66t147.5 26q119 0 210 -55t146.5 -151.5t83 -220
t27.5 -269.5q0 -350 -117.5 -543.5t-345.5 -193.5zM522 84q152 0 238.5 124.5t101.5 350.5q-61 92 -143 140.5t-176 48.5q-145 0 -227.5 -89.5t-82.5 -244.5q0 -148 79 -239t210 -91z" />
    <glyph glyph-name="product" unicode="&#x220f;" horiz-adv-x="1302" 
d="M1063 -377q-57 0 -57 62v1708q0 12 -13 12h-684q-12 0 -12 -12v-1708q0 -62 -57 -62q-27 0 -42.5 16t-15.5 46v1775q0 26 15 41t41 15h829q25 0 39 -15t14 -41v-1775q0 -62 -57 -62z" />
    <glyph glyph-name="summation" unicode="&#x2211;" horiz-adv-x="1087" 
d="M942 -369h-764q-28 0 -44.5 14.5t-16.5 39.5q0 24 26 82l385 892l-376 719q-27 50 -27 82q0 25 16 40.5t43 15.5h736q27 0 43 -15.5t16 -40.5t-16 -40t-43 -15h-654l357 -678q18 -35 18 -59q0 -28 -14 -60l-373 -866h688q29 0 44 -15t15 -40t-15.5 -40.5t-43.5 -15.5z
" />
    <glyph glyph-name="minus" unicode="&#x2212;" 
d="M905 514h-721q-27 0 -42 13.5t-15 37.5t15 37.5t42 13.5h721q27 0 42.5 -13.5t15.5 -37.5t-15.5 -37.5t-42.5 -13.5z" />
    <glyph glyph-name="uni2215" unicode="&#x2215;" horiz-adv-x="309" 
d="M-201 -4q-14 -25 -39 -25q-19 0 -31 11.5t-12 31.5q0 11 7 25l786 1358q14 24 39 24q19 0 31 -11.5t12 -31.5q0 -12 -6 -24z" />
    <glyph glyph-name="uni2219" unicode="&#x2219;" horiz-adv-x="450" 
d="M225 451q-37 0 -63.5 26.5t-26.5 63.5t26.5 63.5t63.5 26.5t63.5 -26.5t26.5 -63.5t-26.5 -63.5t-63.5 -26.5z" />
    <glyph glyph-name="radical" unicode="&#x221a;" horiz-adv-x="1261" 
d="M651 -377q-22 0 -37 14t-32 50l-283 577q-6 12 -18 6l-127 -59q-12 -6 -27 -6q-20 0 -33.5 14.5t-13.5 34.5q0 31 37 49l180 90q12 6 25 6q29 0 45 -32l272 -568h6l469 1682q12 43 51 43q23 0 37.5 -13.5t14.5 -35.5q0 -8 -5 -23l-493 -1765q-10 -36 -26.5 -50t-41.5 -14
z" />
    <glyph glyph-name="infinity" unicode="&#x221e;" horiz-adv-x="1574" 
d="M1167 182q-99 0 -188 59.5t-193 188.5q-104 -128 -192.5 -188t-187.5 -60q-135 0 -222.5 90t-87.5 234q0 143 86.5 232t225.5 89q96 0 183.5 -59t194.5 -188q108 131 196 189t183 58q138 0 226 -87.5t88 -233.5q0 -141 -88 -232.5t-224 -91.5zM1163 274q100 0 161.5 69.5
t61.5 164.5q0 99 -59.5 164t-163.5 65q-74 0 -144.5 -53t-172.5 -180q108 -131 175 -180.5t142 -49.5zM410 274q75 0 146.5 53.5t170.5 178.5q-101 126 -172 178.5t-145 52.5q-103 0 -162.5 -64.5t-59.5 -164.5t63 -167t159 -67z" />
    <glyph glyph-name="integral" unicode="&#x222b;" horiz-adv-x="782" 
d="M190 -369q-22 0 -38 2q-52 6 -52 52q0 26 16.5 39.5t57.5 13.5q86 0 124 53.5t38 179.5v1180q0 193 61.5 279.5t194.5 89.5q21 0 37 -2q53 -6 53 -52q0 -26 -16.5 -39.5t-57.5 -13.5q-86 0 -124 -53.5t-38 -179.5v-1180q0 -193 -61.5 -279.5t-194.5 -89.5z" />
    <glyph glyph-name="approxequal" unicode="&#x2248;" 
d="M719 639q-55 0 -99.5 19.5t-99.5 58.5q-54 38 -84.5 52.5t-66.5 14.5q-88 0 -152 -96q-15 -24 -41 -24q-20 0 -32.5 12t-12.5 31q0 17 8 30q87 144 232 144q55 0 99 -19.5t99 -58.5q54 -39 85 -53.5t67 -14.5q87 0 151 96q16 25 41 25q20 0 32.5 -12t12.5 -31
q0 -18 -8 -31q-86 -143 -231 -143zM719 250q-55 0 -99.5 19.5t-99.5 58.5q-54 38 -84.5 52.5t-66.5 14.5q-88 0 -152 -96q-16 -25 -41 -25q-20 0 -32.5 12t-12.5 31q0 18 8 31q87 144 232 144q55 0 99 -19.5t99 -58.5q54 -39 85 -53.5t67 -14.5q87 0 151 96q16 25 41 25
q20 0 32.5 -12t12.5 -31q0 -18 -8 -31q-86 -143 -231 -143z" />
    <glyph glyph-name="notequal" unicode="&#x2260;" 
d="M338 106q-16 -26 -41 -26q-18 0 -30.5 11t-12.5 30q0 13 8 29l92 165h-170q-27 0 -42 14t-15 38t15 37.5t42 13.5h228l166 295h-394q-27 0 -42 13.5t-15 37.5t15 37.5t42 13.5h451l117 209q17 27 41 27q18 0 30.5 -11t12.5 -30q0 -11 -9 -29l-92 -166h170
q27 0 42.5 -13.5t15.5 -37.5t-15.5 -37.5t-42.5 -13.5h-227l-166 -295h393q27 0 42.5 -13.5t15.5 -37.5t-15.5 -38t-42.5 -14h-450z" />
    <glyph glyph-name="lessequal" unicode="&#x2264;" 
d="M887 281l-705 286q-55 23 -55 66q0 44 55 65l705 287q12 4 24 4q23 0 37.5 -13.5t14.5 -35.5q0 -37 -35 -51l-643 -254v-4l643 -254q35 -14 35 -51q0 -22 -14.5 -36t-37.5 -14q-9 0 -24 5zM905 0h-721q-27 0 -42 13.5t-15 37.5t15 37.5t42 13.5h721q27 0 42.5 -13.5
t15.5 -37.5t-15.5 -37.5t-42.5 -13.5z" />
    <glyph glyph-name="greaterequal" unicode="&#x2265;" 
d="M907 567l-704 -286q-15 -5 -25 -5q-23 0 -37 14t-14 36q0 37 35 51l643 254v4l-643 254q-35 14 -35 51q0 22 14 35.5t37 13.5q13 0 25 -4l704 -287q56 -22 56 -65t-56 -66zM905 0h-721q-27 0 -42 13.5t-15 37.5t15 37.5t42 13.5h721q27 0 42.5 -13.5t15.5 -37.5
t-15.5 -37.5t-42.5 -13.5z" />
    <glyph glyph-name="lozenge" unicode="&#x25ca;" horiz-adv-x="1138" 
d="M569 -115q-42 0 -65 47l-348 709q-9 18 -9 33t9 33l348 708q23 47 65 47q43 0 66 -47l348 -708q8 -16 8 -33t-8 -33l-348 -709q-23 -47 -66 -47zM573 31l312 643l-314 643h-4l-313 -643l315 -643h4z" />
    <glyph glyph-name="uniF8FF" unicode="&#xf8ff;" horiz-adv-x="962" 
d="M924 0h-885q-39 0 -39 39v1315q0 39 39 39h885q39 0 39 -39v-1315q0 -39 -39 -39zM870 76q13 0 13 12v1217q0 12 -13 12h-776q-14 0 -14 -12v-1217q0 -12 14 -12h776zM461 453q-19 0 -31 12.5t-12 32.5v30q0 45 10 75t35 61l78 100q44 59 59.5 92t15.5 74q0 63 -42 102
t-107 39q-61 0 -97.5 -31t-58.5 -98q-10 -31 -39 -31q-19 0 -30 12t-11 31q0 16 7 33q25 73 83.5 118.5t147.5 45.5q104 0 167.5 -63.5t63.5 -159.5q0 -56 -17 -97t-58 -94l-80 -102q-26 -32 -33.5 -54t-7.5 -61v-22q0 -20 -12 -32.5t-31 -12.5zM461 231q-25 0 -43.5 17.5
t-18.5 42.5q0 26 18.5 43.5t43.5 17.5t43 -17.5t18 -43.5q0 -25 -18 -42.5t-43 -17.5z" />
    <glyph glyph-name="CR" horiz-adv-x="0" 
 />
    <glyph glyph-name="grave.cap" horiz-adv-x="864" 
d="M461 1579l-148 170q-12 15 -12 33q0 21 14 35t35 14t37 -19l148 -174q14 -17 14 -34q0 -20 -13.5 -34t-33.5 -14q-21 0 -41 23z" />
    <glyph glyph-name="acute.cap" horiz-adv-x="864" 
d="M551 1749l-148 -170q-20 -23 -41 -23q-20 0 -33.5 14t-13.5 34q0 16 15 34l147 174q16 19 37 19t35 -14t14 -35q0 -18 -12 -33z" />
    <glyph glyph-name="circumflex.cap" horiz-adv-x="864" 
d="M621 1538q-20 0 -35 18l-152 185h-4l-151 -185q-15 -18 -35 -18q-17 0 -28 11t-11 26q0 16 10 29l147 192q20 25 34.5 35t35.5 10t35.5 -10t34.5 -35l147 -192q10 -13 10 -29q0 -15 -10.5 -26t-27.5 -11z" />
    <glyph glyph-name="caron.cap" horiz-adv-x="864" 
d="M432 1536q-21 0 -35.5 10t-34.5 35l-147 193q-10 13 -10 28t11 26t28 11q20 0 35 -18l151 -185h4l152 185q15 18 35 18q17 0 27.5 -11t10.5 -26t-10 -28l-147 -193q-20 -25 -34.5 -35t-35.5 -10z" />
    <glyph glyph-name="caron.alt" horiz-adv-x="864" 
d="M471 1139q-15 -43 -53 -43q-23 0 -38 14t-15 37q0 12 4 24l59 187q15 43 53 43q25 0 40.5 -14.5t15.5 -36.5q0 -10 -5 -25z" />
    <glyph glyph-name="tilde.cap" horiz-adv-x="864" 
d="M543 1597q-57 0 -125 45q-59 39 -94 39q-24 0 -40.5 -11.5t-37.5 -41.5q-15 -24 -41 -24q-19 0 -31 11t-12 30q0 15 8 28q62 101 154 101q57 0 125 -45q59 -39 94 -39q24 0 40.5 11.5t37.5 41.5q15 24 41 24q19 0 31 -11t12 -30q0 -13 -9 -28q-62 -101 -153 -101z" />
    <glyph glyph-name="dieresis.cap" horiz-adv-x="862" 
d="M635 1610q-32 0 -55 23t-23 55t23 55.5t55 23.5t55 -23.5t23 -55.5t-23 -55t-55 -23zM227 1610q-32 0 -54.5 23t-22.5 55t22.5 55.5t54.5 23.5t56 -23.5t24 -55.5t-24 -55t-56 -23z" />
    <glyph glyph-name="macron.cap" horiz-adv-x="864" 
d="M659 1638h-454q-23 0 -37 13.5t-14 34.5t14 34t37 13h454q23 0 37.5 -13.5t14.5 -33.5q0 -21 -14.5 -34.5t-37.5 -13.5z" />
    <glyph glyph-name="breve.cap" horiz-adv-x="864" 
d="M432 1573q-110 0 -181 63.5t-71 137.5q0 16 10.5 26t28.5 10q32 0 43 -38q40 -109 170 -109t170 109q11 38 43 38q18 0 28.5 -10t10.5 -26q0 -74 -71 -137.5t-181 -63.5z" />
    <glyph glyph-name="ring.cap" horiz-adv-x="864" 
d="M610 1692q0 -78 -51 -129.5t-129 -51.5t-129 51.5t-51 129.5t51 129t129 51t129 -51t51 -129zM539 1692q0 50 -30 82t-79 32t-78.5 -32t-29.5 -82t29.5 -82.5t78.5 -32.5t79 32.5t30 82.5z" />
    <glyph glyph-name="hungarumlaut.cap" horiz-adv-x="864" 
d="M543 1573q-18 -25 -41 -25q-19 0 -32 12.5t-13 32.5q0 17 12 35l117 172q19 25 43 25q20 0 33.5 -12.5t13.5 -32.5q0 -17 -12 -35zM291 1573q-18 -25 -41 -25q-19 0 -32 12.5t-13 32.5q0 17 12 35l117 172q19 25 43 25q20 0 33.5 -12.5t13.5 -32.5q0 -17 -12 -35z" />
    <glyph glyph-name="dotaccent.cap" horiz-adv-x="864" 
d="M432 1599q-35 0 -60.5 26t-25.5 61t25.5 60.5t60.5 25.5t60.5 -25.5t25.5 -60.5t-25.5 -61t-60.5 -26z" />
    <glyph glyph-name="commaaccent" horiz-adv-x="864" 
d="M463 -354q-12 -45 -53 -45q-25 0 -41.5 15t-16.5 38q0 8 4 24l56 175q12 45 53 45q25 0 41 -15.5t16 -38.5q0 -8 -4 -24z" />
    <glyph glyph-name="commaaccent.alt" horiz-adv-x="864" 
d="M467 1210q-12 -45 -53 -45q-25 0 -41.5 15.5t-16.5 38.5q0 8 4 24l56 174q12 45 53 45q25 0 41 -15t16 -38q0 -9 -4 -25z" />
    <glyph glyph-name="uni0394" horiz-adv-x="1220" 
d="M1083 0h-948q-28 0 -41.5 13.5t-13.5 35.5q0 14 12 51l447 1239q21 62 73 62q53 0 74 -62l442 -1239q13 -40 13 -51q0 -21 -15 -35t-43 -14zM987 113q16 0 10 16l-383 1075h-6l-385 -1075q-6 -16 10 -16h754z" />
    <glyph glyph-name="uni03A9" horiz-adv-x="1253" 
d="M627 1303q-131 0 -217 -63t-123 -181q-35 -106 -35 -363q0 -168 25 -278.5t75.5 -177t134.5 -109.5q38 -19 51 -34.5t13 -41.5q0 -25 -15 -40t-44 -15h-289q-29 0 -44.5 15t-15.5 40t15.5 40.5t44.5 15.5h133v4q-98 55 -150.5 191.5t-52.5 389.5q0 152 8.5 237.5
t32.5 160.5q51 156 166 237.5t287 81.5t286.5 -81.5t165.5 -237.5q24 -75 32.5 -160.5t8.5 -237.5q0 -130 -14 -230.5t-41.5 -168.5t-63.5 -111.5t-83 -70.5v-4h133q29 0 44 -15.5t15 -40.5t-15 -40t-44 -15h-289q-29 0 -44.5 15t-15.5 40q0 26 13 41.5t51 34.5
q84 43 134.5 109.5t75.5 177t25 278.5q0 260 -34 363q-37 118 -123 181t-217 63z" />
    <glyph glyph-name="uni03BC" horiz-adv-x="1112" 
d="M868 -8q-25 0 -40 15t-15 44v86h-2q-34 -73 -106 -115t-168 -42q-170 0 -236 104h-2v-401q0 -29 -15 -44.5t-40 -15.5t-40.5 15.5t-15.5 44.5v1243q0 28 15 43.5t41 15.5q25 0 40 -15t15 -44v-547q0 -293 252 -293q113 0 187.5 74.5t74.5 197.5v568q0 29 15 44t40 15
q26 0 41 -15.5t15 -43.5v-875q0 -29 -15 -44t-41 -15z" />
    <glyph glyph-name="zero.onum" 
d="M545 -20q-216 0 -353 144t-137 363t137 364.5t353 145.5q142 0 254 -67t173.5 -183.5t61.5 -259.5q0 -219 -137 -363t-352 -144zM545 86q167 0 273 116t106 285q0 171 -106 287.5t-273 116.5t-273 -116.5t-106 -287.5q0 -169 106 -285t273 -116z" />
    <glyph glyph-name="one.onum" 
d="M614 -8q-25 0 -40 15t-15 44v791h-4l-236 -101q-15 -6 -26 -6q-25 0 -40 15.5t-15 40.5q0 36 38 53l252 114q62 27 84 27q26 0 42 -15t16 -44v-875q0 -29 -15 -44t-41 -15z" />
    <glyph glyph-name="two.onum" 
d="M877 0h-670q-26 0 -40.5 14.5t-14.5 36.5q0 39 45 66l389 252q127 80 177 143t50 147q0 101 -72.5 166.5t-195.5 65.5q-205 0 -271 -180q-18 -54 -59 -54q-21 0 -36 14t-15 36q0 16 6 34q38 115 135.5 185.5t239.5 70.5q176 0 277.5 -98.5t101.5 -241.5
q0 -110 -59.5 -190.5t-196.5 -167.5l-301 -188v-5h510q55 0 55 -53t-55 -53z" />
    <glyph glyph-name="three.onum" 
d="M532 -389q-141 0 -242 71.5t-134 182.5q-4 12 -4 24q0 24 14.5 38t40.5 14q32 0 51 -43q83 -181 274 -181q132 0 210.5 83t78.5 223q0 143 -85 223t-253 80q-31 0 -48 16t-17 43q0 35 37 82l301 399v4h-541q-27 0 -41 15t-14 39t14 38.5t41 14.5h631q29 0 45 -14t16 -39
q0 -28 -33 -72l-319 -420v-4q174 -9 275.5 -116.5t101.5 -288.5q0 -184 -110.5 -298t-289.5 -114z" />
    <glyph glyph-name="four.onum" 
d="M748 -377q-25 0 -40.5 15.5t-15.5 44.5v305q0 12 -12 12h-508q-53 0 -53 51q0 25 20 66l393 829q17 39 52 39q22 0 37.5 -13t15.5 -34q0 -14 -6 -29l-377 -800v-3h426q12 0 12 13v344q0 29 15 44t41 15q24 0 39.5 -15.5t15.5 -43.5v-344q0 -13 10 -13h127q27 0 41 -14.5
t14 -38.5t-14 -38.5t-41 -14.5h-127q-10 0 -10 -12v-305q0 -28 -15.5 -44t-39.5 -16z" />
    <glyph glyph-name="five.onum" 
d="M565 -389q-142 0 -237 71.5t-127 186.5q-4 12 -4 25q0 23 14.5 36t38.5 13q36 0 53 -49q63 -177 262 -177q87 0 152.5 41.5t89.5 116.5q22 74 22 186t-26 185q-56 160 -234 160q-75 0 -128.5 -34.5t-100.5 -103.5q-24 -34 -39 -46.5t-35 -12.5q-51 0 -51 57v660
q0 51 51 51h598q27 0 42.5 -14.5t15.5 -38.5t-15.5 -39t-42.5 -15h-530q-12 0 -12 -12v-469h2q31 50 99 86.5t155 36.5q124 0 209 -57.5t120 -165.5q33 -104 33 -228q0 -128 -29 -217q-36 -112 -127.5 -172.5t-218.5 -60.5z" />
    <glyph glyph-name="six.onum" 
d="M545 -20q-180 0 -294 114t-114 305q0 137 92 314l336 655q17 33 49 33q25 0 40.5 -15t15.5 -38q0 -17 -8 -33l-285 -543l4 -6q54 51 178 51q171 0 282 -114.5t111 -299.5q0 -194 -113.5 -308.5t-293.5 -114.5zM545 86q131 0 214 86.5t83 224.5t-83 226t-214 88t-214 -88
t-83 -226t83 -224.5t214 -86.5z" />
    <glyph glyph-name="seven.onum" 
d="M457 -340q-15 -37 -51 -37q-23 0 -38.5 14.5t-15.5 36.5q0 11 4 23l463 1167v6h-504q-12 0 -12 -14v-158q0 -27 -15 -43t-40 -16t-40 16t-15 43v228q0 51 51 51h653q27 0 41 -14t14 -37t-16 -62z" />
    <glyph glyph-name="eight.onum" 
d="M545 -20q-180 0 -295 111t-115 286q0 126 61 218.5t162 135.5v4q-84 41 -135 123.5t-51 188.5q0 158 103.5 262t269.5 104t269.5 -104t103.5 -262q0 -106 -51.5 -188.5t-135.5 -123.5v-4q101 -43 162 -135.5t61 -218.5q0 -175 -114.5 -286t-294.5 -111zM545 786
q117 0 189.5 74.5t72.5 186.5q0 113 -73 186.5t-189 73.5t-189 -73.5t-73 -186.5q0 -112 72 -186.5t190 -74.5zM545 86q135 0 217 83t82 212q0 130 -82.5 214.5t-216.5 84.5t-216.5 -84.5t-82.5 -214.5q0 -129 82 -212t217 -83z" />
    <glyph glyph-name="nine.onum" 
d="M498 -377q-25 0 -40.5 15t-15.5 38q0 15 9 33l262 496l-4 6q-54 -51 -179 -51q-171 0 -282 114t-111 299q0 194 114 309t294 115t293.5 -114t113.5 -305q0 -137 -92 -314l-313 -608q-17 -33 -49 -33zM545 266q131 0 214 88t83 226t-83 224.5t-214 86.5t-214 -86.5
t-83 -224.5t83 -226t214 -88z" />
    <glyph glyph-name="zero.prop" 
d="M186 229q-30 92 -30 467t30 467q40 121 133 185.5t226 64.5t225.5 -64.5t132.5 -185.5q31 -95 31 -467t-31 -467q-40 -121 -132.5 -185t-225.5 -64t-226 64t-133 185zM295 254q57 -170 250 -170t250 170q28 90 28 442q0 353 -28 443q-57 170 -250 170t-250 -170
q-29 -93 -29 -443q0 -349 29 -442z" />
    <glyph glyph-name="one.prop" horiz-adv-x="737" 
d="M375 51v1192h-4l-205 -139q-17 -10 -37 -10q-19 0 -33 13t-14 34q0 29 31 51l237 170q54 39 80 39q24 0 39.5 -15t15.5 -43v-1292q0 -28 -15.5 -43.5t-39.5 -15.5q-25 0 -40 15t-15 44z" />
    <glyph glyph-name="two.prop" horiz-adv-x="1005" 
d="M119 51q0 34 33 74l497 649q113 150 113 273q0 115 -73 187.5t-191 72.5q-106 0 -171 -54.5t-89 -152.5q-9 -49 -52 -49q-55 0 -55 53q0 10 4 26q11 51 38 99t71 90.5t110.5 68t145.5 25.5q167 0 269.5 -102.5t102.5 -263.5q0 -160 -139 -338l-463 -598v-5h553
q27 0 41.5 -14.5t14.5 -38.5t-14.5 -38.5t-41.5 -14.5h-649q-27 0 -41 14t-14 37z" />
    <glyph glyph-name="three.prop" horiz-adv-x="1032" 
d="M129 236q-4 12 -4 24q0 23 14 36t39 13q32 0 53 -49q39 -85 105.5 -129.5t173.5 -44.5q130 0 207.5 80.5t77.5 208.5q0 131 -81 214t-214 83h-31q-27 0 -42 14.5t-15 38.5t15 38.5t42 14.5h31q118 0 192 75t74 194q0 117 -71 188.5t-193 71.5q-186 0 -256 -166
q-18 -49 -53 -49q-25 0 -39.5 13t-14.5 36q0 12 4 24q30 104 124 176t237 72q169 0 271 -101.5t102 -262.5q0 -113 -54 -192t-133 -122v-4q37 -15 73 -43t69 -70.5t53 -104.5t20 -134q0 -177 -110.5 -288t-284.5 -111q-154 0 -250.5 73t-130.5 183z" />
    <glyph glyph-name="four.prop" horiz-adv-x="1073" 
d="M154 279q-25 0 -39.5 14t-14.5 35q0 26 23 75l438 957q17 41 51 41q22 0 37 -13t15 -36q0 -12 -7 -29l-424 -934v-4h431q12 0 12 12v351q0 29 15 44t40 15t40 -15t15 -44v-351q0 -12 13 -12h125q27 0 42 -14.5t15 -38.5t-15 -38.5t-42 -14.5h-125q-13 0 -13 -13v-215
q0 -29 -15 -44t-40 -15t-40 15t-15 44v215q0 13 -12 13h-510z" />
    <glyph glyph-name="five.prop" horiz-adv-x="1048" 
d="M178 238q-4 12 -4 24q0 23 14.5 36t38.5 13q37 0 54 -49q63 -176 262 -176q87 0 152 41.5t89 116.5q23 77 23 202q0 127 -27 203q-56 160 -233 160q-76 0 -129.5 -34t-100.5 -103q-24 -35 -38.5 -47.5t-34.5 -12.5q-51 0 -51 58v671q0 52 51 52h598q27 0 42 -15t15 -39
t-15 -38.5t-42 -14.5h-531q-12 0 -12 -12v-481h2q31 49 99 85.5t155 36.5q124 0 209.5 -57.5t120.5 -165.5q33 -104 33 -246q0 -144 -29 -233q-36 -112 -127.5 -172.5t-218.5 -60.5q-143 0 -236.5 69.5t-128.5 188.5z" />
    <glyph glyph-name="six.prop" horiz-adv-x="1069" 
d="M127 399q0 137 92 314l336 655q17 33 49 33q25 0 40 -15t15 -38q0 -17 -8 -33l-284 -543l4 -6q54 51 178 51q171 0 282 -114.5t111 -299.5q0 -194 -113.5 -308.5t-293.5 -114.5t-294 114t-114 305zM238 397q0 -138 83 -224.5t214 -86.5t213.5 86.5t82.5 224.5t-83 226
t-213 88q-131 0 -214 -88t-83 -226z" />
    <glyph glyph-name="seven.prop" horiz-adv-x="1007" 
d="M301 43q0 11 4 23l481 1214v6h-503q-13 0 -13 -14v-158q0 -27 -15 -43t-40 -16t-40 16t-15 43v227q0 52 51 52h653q27 0 41.5 -14.5t14.5 -37.5q0 -20 -17 -61l-497 -1251q-15 -37 -52 -37q-23 0 -38 14.5t-15 36.5z" />
    <glyph glyph-name="eight.prop" horiz-adv-x="1073" 
d="M127 377q0 126 61 218.5t162 135.5v4q-84 41 -135 123.5t-51 188.5q0 158 103.5 262t269.5 104t269 -104t103 -262q0 -106 -51 -188.5t-135 -123.5v-4q101 -43 162 -135.5t61 -218.5q0 -175 -114.5 -286t-294.5 -111t-295 111t-115 286zM537 786q117 0 189.5 74.5
t72.5 186.5q0 113 -73 186.5t-189 73.5t-189.5 -73.5t-73.5 -186.5q0 -112 72.5 -186.5t190.5 -74.5zM238 381q0 -129 82 -212t217 -83t217 83t82 212q0 130 -82.5 214.5t-216.5 84.5t-216.5 -84.5t-82.5 -214.5z" />
    <glyph glyph-name="nine.prop" horiz-adv-x="1069" 
d="M410 45q0 17 8 33l284 543l-4 6q-55 -52 -178 -52q-171 0 -282 114.5t-111 299.5q0 194 114 309t294 115t293.5 -114.5t113.5 -305.5q0 -136 -92 -313l-336 -655q-16 -33 -49 -33q-25 0 -40 15t-15 38zM535 682q131 0 213.5 87.5t82.5 225.5t-82.5 225t-213.5 87
t-214 -87t-83 -225t83 -225.5t214 -87.5z" />
    </font>
</defs>
</svg>
