<?xml version="1.0" encoding="utf-8"?>
<!-- Generator: Adobe Illustrator 18.1.0, SVG Export Plug-In . SVG Version: 6.00 Build 0)  -->
<svg version="1.1" id="Layer_1" xmlns="http://www.w3.org/2000/svg" xmlns:xlink="http://www.w3.org/1999/xlink" x="0px" y="0px"
	 viewBox="0 0 280.1 95.2" enable-background="new 0 0 280.1 95.2" xml:space="preserve">
<g>
	<rect x="0" y="2.4" fill="#513B89" width="86.4" height="86.4"/>
	<g>
		<path fill="#A5A39F" d="M11.4,82.5v-8.2h7.4V42h-7.4v-8.2H39V42h-7.5v32.3H39v8.2H11.4z"/>
		<path fill="#A5A39F" d="M44.9,82.5V65.9h8.3c0.1,3,0.9,5.3,2.4,6.7c1.5,1.4,3.2,2.2,5.1,2.2c1.5,0,2.8-0.5,3.8-1.6
			c1-1,1.5-2.3,1.5-3.7c0-1.5-0.5-2.8-1.5-3.8c-1-1-2.8-2.2-5.5-3.5c-5.6-2.7-9.5-5.1-11.5-7.2c-2-2.1-3-4.9-3-8.4
			c0-4.3,1.3-7.6,4-9.9c2.7-2.3,5.7-3.5,9.1-3.5c3.9,0,6.9,1.5,9,4.5v-4.1h8.2v14.8h-8.2c-0.3-2.3-1-4.1-2.4-5.3
			c-1.3-1.3-2.9-1.9-4.6-1.9c-1.4,0-2.5,0.4-3.4,1.1c-0.9,0.7-1.4,1.7-1.4,2.8c0,1,0.4,2,1.2,2.9c0.8,0.9,3,2.2,6.8,3.8
			c3.6,1.6,6.4,3.1,8.3,4.4c1.9,1.3,3.5,3,4.6,5.1c1.1,2.1,1.7,4.5,1.7,7.2c0,4.8-1.4,8.5-4.2,10.9c-2.8,2.4-6.1,3.7-10,3.7
			c-4.3,0-7.6-1.6-9.9-4.8v4.2H44.9z"/>
	</g>
	<path fill="#FFFFFF" d="M29,25.8v-1.5c-0.5-0.3-1-0.4-1.6-0.4c-2,0-3.3,1.3-3.3,3.2c0,1.9,1.3,3.2,3.2,3.2c0.7,0,1.2-0.1,1.7-0.4
		v-1.6c-0.4,0.5-0.9,0.7-1.6,0.7c-1.2,0-1.9-0.7-1.9-2c0-1.2,0.7-2,1.9-2C28,25.1,28.5,25.4,29,25.8"/>
	<path fill="#FFFFFF" d="M23.6,30.2L20,20.5L18,25.8c-0.2,0.4-0.3,0.9-0.4,1.3c-0.1-0.4-0.3-0.8-0.5-1.3L15,20.5l-3.6,9.7h1.5
		l1.7-4.7c0.2-0.5,0.4-1,0.5-1.4c0.2,0.5,0.3,1,0.5,1.5l2,5.1l1.9-5c0.1-0.2,0.2-0.7,0.5-1.6c0.1,0.5,0.3,1,0.5,1.5l1.8,4.7H23.6z"
		/>
	<path fill="#FFFFFF" d="M58.7,30.2h1.4v-6.5c0.3,0.4,0.6,0.7,0.9,1l6,5.8v-9.7h-1.4v6.5c-0.3-0.4-0.6-0.8-1-1.1l-5.9-5.7V30.2z"/>
	<path fill="#FFFFFF" d="M48.5,30.2h1.4v-6.5c0.3,0.4,0.6,0.7,0.9,1l6,5.8v-9.7h-1.4v6.5c-0.3-0.4-0.6-0.8-1-1.1l-5.9-5.7V30.2z"/>
	<path fill="#FFFFFF" d="M38,23.1l0.1-1.5c-0.9-0.6-1.9-1-3-1c-1.4,0-2.6,0.5-3.5,1.4c-0.9,0.9-1.4,2.1-1.4,3.5
		c0,1.4,0.5,2.6,1.4,3.5c0.9,0.9,2.1,1.4,3.6,1.4c1.1,0,2.1-0.3,2.9-0.9v-1.7c-0.9,0.8-1.9,1.2-3,1.2c-1.9,0-3.3-1.4-3.3-3.5
		c0-2.1,1.4-3.5,3.4-3.5C36.2,22,37.2,22.4,38,23.1"/>
	<path fill="#FFFFFF" d="M43.1,20.5l-4.5,9.7h1.6l1.1-2.4H45l1.1,2.4h1.6L43.1,20.5z M41.9,26.5l1-2.1c0.1-0.2,0.2-0.6,0.3-1.1
		c0.1,0.5,0.2,0.8,0.4,1.1l1,2.1H41.9z"/>
	<path fill="#FFFFFF" d="M16.2,13.9c-0.2,0-0.5-0.1-0.7-0.2c-0.2-0.1-0.4-0.4-0.6-0.6l-1.6-2.2V16c0,0.2-0.1,0.4-0.2,0.5
		c-0.1,0.1-0.3,0.2-0.5,0.2h-0.6c-0.2,0-0.4-0.1-0.5-0.2c-0.1-0.1-0.2-0.3-0.2-0.5V8.7c0-0.3,0.1-0.5,0.2-0.7
		c0.1-0.2,0.3-0.3,0.5-0.4c0.2-0.1,0.4-0.2,0.5-0.2c0.1,0,0.2,0,0.3,0c0.3,0,0.6,0.2,0.9,0.5l2.5,3.7l2.5-3.7
		c0.2-0.3,0.5-0.5,0.9-0.5c0.1,0,0.2,0,0.3,0c0.1,0,0.3,0.1,0.5,0.2c0.2,0.1,0.4,0.2,0.5,0.4C20.9,8.2,21,8.4,21,8.7V16
		c0,0.2-0.1,0.4-0.2,0.5c-0.1,0.1-0.3,0.2-0.5,0.2h-0.6c-0.2,0-0.4-0.1-0.5-0.2C19,16.4,19,16.2,19,16v-5.1l-1.6,2.2
		c-0.2,0.3-0.4,0.5-0.6,0.6C16.6,13.9,16.4,13.9,16.2,13.9 M35.3,13.9c-0.2,0-0.5-0.1-0.7-0.2c-0.2-0.1-0.4-0.4-0.6-0.6l-1.6-2.2V16
		c0,0.2-0.1,0.4-0.2,0.5c-0.1,0.1-0.3,0.2-0.5,0.2h-2.2c-0.2,0-0.4,0-0.6,0c-0.2,0-0.3-0.1-0.5-0.1c-0.1-0.1-0.3-0.2-0.4-0.3
		c-0.1-0.1-0.3-0.3-0.4-0.4l-2.1-2.3h-1.3V16c0,0.2-0.1,0.4-0.2,0.5c-0.1,0.1-0.3,0.2-0.5,0.2h-0.6c-0.2,0-0.4-0.1-0.5-0.2
		c-0.1-0.1-0.2-0.3-0.2-0.5V9.3c0-0.6,0.2-1.1,0.5-1.4c0.3-0.3,0.8-0.5,1.6-0.5h1.9c0.4,0,0.9,0.1,1.2,0.2c0.4,0.2,0.7,0.4,1,0.6
		c0.3,0.3,0.5,0.6,0.7,1c0.2,0.4,0.3,0.8,0.3,1.2c0,0.6-0.1,1.1-0.4,1.6c-0.3,0.4-0.7,0.8-1.1,1l2.4,2.5c0.1,0.1,0.2,0.1,0.2,0.1
		c0.1,0,0.1-0.1,0.1-0.2V8.7c0-0.3,0.1-0.5,0.2-0.7c0.1-0.2,0.3-0.3,0.5-0.4c0.2-0.1,0.4-0.2,0.5-0.2c0.1,0,0.2,0,0.3,0
		c0.3,0,0.6,0.2,0.9,0.5l2.5,3.7l2.5-3.7c0.2-0.3,0.5-0.5,0.9-0.5c0.1,0,0.2,0,0.3,0c0.1,0,0.3,0.1,0.5,0.2C39.7,7.7,39.9,7.9,40,8
		c0.1,0.2,0.2,0.4,0.2,0.7V16c0,0.2-0.1,0.4-0.2,0.5c-0.1,0.1-0.3,0.2-0.5,0.2h-0.6c-0.2,0-0.4-0.1-0.5-0.2
		c-0.1-0.1-0.2-0.3-0.2-0.5v-5.1l-1.6,2.2c-0.2,0.3-0.4,0.5-0.6,0.6C35.8,13.9,35.6,13.9,35.3,13.9 M24.2,11.7h1.9
		c0.4,0,0.7-0.1,0.9-0.4c0.2-0.3,0.3-0.5,0.3-0.9c0-0.3-0.1-0.6-0.3-0.9c-0.2-0.2-0.5-0.4-0.9-0.4h-1.9V11.7z"/>
	<path fill="#FFFFFF" d="M47,17.5L51.3,6l0.1-0.2c0-0.1,0.1-0.2,0.3-0.3c0.1-0.1,0.2-0.1,0.4,0l0.4,0.1c0.1,0,0.2,0.1,0.3,0.3
		c0.1,0.1,0.1,0.3,0,0.4l-0.1,0.2L48.3,18l-0.1,0.2c0,0.1-0.1,0.2-0.3,0.3c-0.1,0.1-0.3,0.1-0.4,0l-0.4-0.1c-0.1,0-0.2-0.1-0.3-0.3
		c-0.1-0.1-0.1-0.3,0-0.4L47,17.5"/>
	<path fill="#FFFFFF" d="M43.4,17.5L47.6,6l0.1-0.2c0-0.1,0.1-0.2,0.3-0.3c0.1-0.1,0.2-0.1,0.4,0l0.4,0.1c0.1,0,0.2,0.1,0.3,0.3
		C49,6.1,49,6.2,49,6.3l-0.1,0.2L44.7,18l-0.1,0.2c0,0.1-0.1,0.2-0.3,0.3c-0.1,0.1-0.3,0.1-0.4,0l-0.4-0.1c-0.1,0-0.2-0.1-0.3-0.3
		c-0.1-0.1-0.1-0.3,0-0.4L43.4,17.5"/>
	<text transform="matrix(1 0 0 1 98.2437 39.9638)"><tspan x="0" y="0" fill="#FFFFFF" font-family="'DINNextRoundedLTPro-Light'" font-size="47.5709" letter-spacing="4">IDEA</tspan><tspan x="0" y="45.2" fill="#FFFFFF" font-family="'DINNextRoundedLTPro-Light'" font-size="47.5709" letter-spacing="4">STUDIO</tspan></text>
</g>
</svg>
